<svg width="363" height="111" viewBox="0 0 363 111" fill="none" xmlns="http://www.w3.org/2000/svg">
<path d="M301.395 55.7862H241.117C235.917 55.7862 231.859 54.3285 228.943 51.4131C226.028 48.4978 224.57 44.4399 224.57 39.2395V0H287.448V17.7287H247.027V34.5118C247.027 36.8756 248.209 38.0575 250.572 38.0575H301.395V0H323.851V18.556H335.67V37.4666H323.851V65.2415H301.395V55.7862Z" fill="#32CD8B"/>
<path d="M111.102 73.2785V55.5498H219.837V73.2785H111.102ZM197.381 8.86434V0H219.837V48.4584H128.83C122.999 48.4584 118.587 46.9613 115.593 43.9671C112.599 40.9729 111.102 36.5605 111.102 30.7297V0H133.558V8.86434H197.381ZM219.837 107.79H132.376C129.145 107.79 126.23 107.278 123.63 106.254C121.03 105.23 118.784 103.772 116.893 101.881C115.081 100.068 113.662 97.8623 112.638 95.2621C111.614 92.6619 111.102 89.7465 111.102 86.5159V78.5971H133.558V85.334C133.558 86.7523 133.991 87.8948 134.858 88.7615C135.725 89.6283 136.867 90.0616 138.286 90.0616H219.837V107.79ZM197.381 24.2292H133.558V27.7749C133.558 30.1387 134.74 31.3206 137.104 31.3206H197.381V24.2292Z" fill="#32CD8B"/>
<path d="M13.001 0H36.6393V58.741C36.6393 63.1535 36.9938 67.0932 37.703 70.5601C38.4121 73.9483 39.3577 76.903 40.5396 79.4244C41.7215 81.8671 43.1004 83.8763 44.6763 85.4522C46.2521 87.0281 47.9068 88.1706 49.6403 88.8797V107.79C46.9613 107.16 44.3611 106.254 41.8397 105.072C39.3183 103.89 36.9544 102.393 34.7482 100.581C32.6208 98.7684 30.6903 96.641 28.9568 94.1983C27.2234 91.8345 25.8445 89.1161 24.8201 86.0431C23.717 89.1161 22.2987 91.8345 20.5653 94.1983C18.9106 96.641 16.9801 98.7684 14.7739 100.581C12.6465 102.393 10.322 103.89 7.80062 105.072C5.2792 106.254 2.679 107.16 0 107.79V88.8797C1.73347 88.1706 3.38815 87.0281 4.96403 85.4522C6.53991 83.8763 7.91881 81.8671 9.10072 79.4244C10.2826 76.903 11.2282 73.9483 11.9373 70.5601C12.6465 67.0932 13.001 63.1535 13.001 58.741V0ZM58.15 55.1953H42.4306V36.2847H58.15V0H79.4245V107.79H58.15V55.1953ZM86.2795 0H107.554V107.79H86.2795V0Z" fill="#32CD8B"/>
<path d="M252.379 107.011L227.33 107.011C227.33 107.011 224.883 88.9614 227.33 75.4404C229.777 61.9195 239.187 59.3205 242.734 58.4673C250.508 56.5974 257.496 57.8028 259.146 58.4673C267.522 61.841 282.215 90.1526 295.204 85.1111C308.192 80.0695 332.151 70.1199 340.453 69.5446L340.102 108.018C306.364 101.65 260.657 133.354 252.379 71.1791L252.379 107.011Z" fill="url(#paint0_linear_10349_68995)"/>
<circle cx="343.723" cy="89.1135" r="19.2776" fill="#9FFFD6"/>
<defs>
<linearGradient id="paint0_linear_10349_68995" x1="222.362" y1="83.0279" x2="311.187" y2="83.0279" gradientUnits="userSpaceOnUse">
<stop stop-color="#32CD8B"/>
<stop offset="0.5" stop-color="#32CD8B"/>
<stop offset="1" stop-color="#009D5B"/>
</linearGradient>
</defs>
</svg>
