<svg width="85" height="37" viewBox="0 0 85 37" fill="none" xmlns="http://www.w3.org/2000/svg">
<circle cx="80.8181" cy="29.2909" r="4.08423" fill="white"/>
<path d="M6.26175 33.0142C3.962 33.0142 2.81675 30.2279 4.45174 28.6106L28.9914 4.33636C30.6168 2.72855 33.3752 3.87992 33.3752 6.16617L33.3752 30.4404C33.3752 31.8618 32.2228 33.0142 30.8014 33.0142L27.3872 33.0142C25.7948 33.0142 24.5845 31.5828 24.8492 30.0125L26.4741 20.3738C26.956 17.5156 23.0789 16.1656 21.6813 18.705L14.5395 31.6814C14.0871 32.5035 13.2231 33.0142 12.2847 33.0142L6.26175 33.0142Z" fill="#009D5B"/>
<path d="M62.4277 3.46545C64.7274 3.46546 65.8727 6.25174 64.2377 7.86904L39.6981 32.1433C38.0727 33.7511 35.3143 32.5997 35.3143 30.3134L35.3143 6.03923C35.3143 4.61777 36.4666 3.46545 37.8881 3.46545L41.3022 3.46545C42.8946 3.46545 44.1049 4.89686 43.8402 6.46708L42.2153 16.1058C41.7335 18.964 45.6106 20.314 47.0081 17.7746L54.1499 4.79824C54.6024 3.97615 55.4664 3.46545 56.4048 3.46545L62.4277 3.46545Z" fill="white"/>
<path d="M75.3408 6.26175C75.3408 3.962 72.5545 2.81675 70.9372 4.45173L46.663 28.9914C45.0552 30.6168 46.2066 33.3752 48.4928 33.3752L72.767 33.3752C74.1885 33.3752 75.3408 32.2228 75.3408 30.8014L75.3408 27.3872C75.3408 25.7948 73.9094 24.5845 72.3392 24.8492L62.7005 26.4741C59.8423 26.956 58.4923 23.0789 61.0316 21.6813L74.008 14.5395C74.8301 14.0871 75.3408 13.2231 75.3408 12.2847L75.3408 6.26175Z" fill="white"/>
</svg>
