<svg width="20" height="24" viewBox="0 0 20 24" fill="none" xmlns="http://www.w3.org/2000/svg">
<g clip-path="url(#clip0_254_1573)">
<path d="M7.76448 23.2796C8.23506 23.7596 8.8233 23.9996 9.41153 23.9996C9.99977 23.9996 10.588 23.7596 11.0586 23.2796C11.5292 22.7996 11.7645 22.1996 11.7645 21.5996H7.05859C7.05859 22.1996 7.29389 22.7996 7.76448 23.2796Z" fill="black"/>
<path d="M16.4706 10.8C16 10.8 15.6471 10.8 15.2941 10.68C14.9412 10.56 14.4706 10.44 14.1176 10.32V18H4.70588V9.6C4.70588 8.28 5.17647 7.2 6.11765 6.24C7.05882 5.28 8.11765 4.8 9.41176 4.8C9.64706 4.8 9.88235 4.8 10 4.8C10.2353 4.8 10.3529 4.92 10.5882 4.92C10.5882 4.44 10.5882 3.96 10.7059 3.6C10.8235 3.24 10.9412 2.64 11.1765 2.28V1.8C11.1765 1.32 11.0588 0.84 10.7059 0.48C10.3529 0.12 9.88235 0 9.41176 0C8.94118 0 8.47059 0.24 8.11765 0.6C7.76471 0.96 7.64706 1.32 7.64706 1.8V2.64C6.11765 3 4.82353 3.84 3.88235 5.16C2.94118 6.48 2.35294 7.92 2.35294 9.6V18H0V20.4H18.8235V18H16.4706V10.8Z" fill="black"/>
<path d="M18.9414 2.27922C18.2355 1.55922 17.412 1.19922 16.4708 1.19922C15.5296 1.19922 14.7061 1.55922 14.0002 2.27922C13.2943 2.99922 12.9414 3.83922 12.9414 4.79922C12.9414 5.75922 13.2943 6.59922 14.0002 7.31922C14.7061 8.03922 15.5296 8.39922 16.4708 8.39922C17.412 8.39922 18.2355 8.03922 18.9414 7.31922C19.6473 6.59922 20.0002 5.75922 20.0002 4.79922C20.0002 3.83922 19.6473 2.87922 18.9414 2.27922Z" fill="#FF1D1D"/>
</g>
<defs>
<clipPath id="clip0_254_1573">
<rect width="20" height="24" fill="white"/>
</clipPath>
</defs>
</svg>
