<svg width="20" height="20" viewBox="0 0 20 20" fill="none" xmlns="http://www.w3.org/2000/svg">
<path d="M4.16406 11.7151C4.16406 10.8734 4.16406 10.4534 4.34906 10.0943C4.53323 9.73594 4.87573 9.49094 5.5599 9.0026L9.02906 6.52427C9.49573 6.19094 9.73073 6.02344 9.9974 6.02344C10.2641 6.02344 10.4982 6.1901 10.9657 6.52427L14.4349 9.00177C15.1191 9.49094 15.4616 9.7351 15.6457 10.0943C15.8299 10.4534 15.8307 10.8734 15.8307 11.7143V15.8326C15.8307 16.6184 15.8307 17.0109 15.5866 17.2551C15.3424 17.4993 14.9499 17.4993 14.1641 17.4993H5.83073C5.0449 17.4993 4.6524 17.4993 4.40823 17.2551C4.16406 17.0109 4.16406 16.6184 4.16406 15.8326V11.7151Z" fill="white" fill-opacity="0.4"/>
<path d="M2.5 10.3233C2.5 10.545 2.5 10.6566 2.57 10.6908C2.64 10.725 2.72833 10.6575 2.90333 10.52L8.97667 5.79664C9.46833 5.41414 9.71417 5.22331 10 5.22331C10.2858 5.22331 10.5317 5.41497 11.0233 5.79664L17.0967 10.52C17.2717 10.6566 17.36 10.725 17.43 10.6908C17.5 10.6566 17.5 10.545 17.5 10.3233V9.98247C17.5 9.58247 17.5 9.38247 17.415 9.20914C17.33 9.03581 17.1725 8.91247 16.8567 8.66747L11.0233 4.12997C10.5317 3.74747 10.2858 3.55664 10 3.55664C9.71417 3.55664 9.46833 3.74831 8.97667 4.12997L3.14333 8.66747C2.8275 8.91247 2.66917 9.03581 2.585 9.20914C2.50083 9.38247 2.5 9.58247 2.5 9.98247V10.3233ZM10.4167 12.5008H9.58333C9.14131 12.5008 8.71738 12.6764 8.40482 12.989C8.09226 13.3015 7.91667 13.7254 7.91667 14.1675V17.3758C7.91667 17.445 7.9725 17.5008 8.04167 17.5008H11.9583C11.9915 17.5008 12.0233 17.4876 12.0467 17.4642C12.0702 17.4408 12.0833 17.409 12.0833 17.3758V14.1675C12.0833 13.7254 11.9077 13.3015 11.5952 12.989C11.2826 12.6764 10.8587 12.5008 10.4167 12.5008Z" fill="white"/>
<path d="M14.5859 4.16602H13.7526C13.5225 4.16602 13.3359 4.35256 13.3359 4.58268V7.08268C13.3359 7.3128 13.5225 7.49935 13.7526 7.49935H14.5859C14.8161 7.49935 15.0026 7.3128 15.0026 7.08268V4.58268C15.0026 4.35256 14.8161 4.16602 14.5859 4.16602Z" fill="white"/>
</svg>
