<svg width="73" height="73" viewBox="0 0 73 73" fill="none" xmlns="http://www.w3.org/2000/svg">
<path opacity="0.2" d="M73 20.5312V52.4688C73 53.6788 72.5193 54.8393 71.6637 55.6949C70.808 56.5506 69.6476 57.0312 68.4375 57.0312H4.5625C3.35245 57.0312 2.19196 56.5506 1.33633 55.6949C0.480691 54.8393 0 53.6788 0 52.4688V20.5312C0 19.3212 0.480691 18.1607 1.33633 17.3051C2.19196 16.4494 3.35245 15.9688 4.5625 15.9688H68.4375C69.6476 15.9688 70.808 16.4494 71.6637 17.3051C72.5193 18.1607 73 19.3212 73 20.5312Z" fill="#A4A4A4"/>
<path d="M13.6875 15.9688V57.0312C13.6875 57.6363 13.4472 58.2165 13.0193 58.6443C12.5915 59.0722 12.0113 59.3125 11.4062 59.3125C10.8012 59.3125 10.221 59.0722 9.79316 58.6443C9.36535 58.2165 9.125 57.6363 9.125 57.0312V15.9688C9.125 15.3637 9.36535 14.7835 9.79316 14.3557C10.221 13.9278 10.8012 13.6875 11.4062 13.6875C12.0113 13.6875 12.5915 13.9278 13.0193 14.3557C13.4472 14.7835 13.6875 15.3637 13.6875 15.9688ZM39.9219 31.5098L34.2188 33.3633V27.375C34.2188 26.77 33.9784 26.1897 33.5506 25.7619C33.1228 25.3341 32.5425 25.0938 31.9375 25.0938C31.3325 25.0938 30.7522 25.3341 30.3244 25.7619C29.8966 26.1897 29.6562 26.77 29.6562 27.375V33.3633L23.9531 31.5098C23.3776 31.3207 22.7505 31.368 22.2099 31.6413C21.6692 31.9145 21.2593 32.3914 21.0702 32.9669C20.8811 33.5424 20.9284 34.1695 21.2017 34.7102C21.475 35.2508 21.9518 35.6608 22.5273 35.8498L28.2305 37.7005L24.7116 42.5482C24.5257 42.7898 24.39 43.0662 24.3127 43.3612C24.2354 43.6561 24.2181 43.9635 24.2616 44.2653C24.3051 44.5671 24.4087 44.8571 24.5663 45.1181C24.7238 45.3792 24.932 45.606 25.1787 45.7852C25.4254 45.9644 25.7055 46.0923 26.0025 46.1614C26.2994 46.2305 26.6072 46.2394 26.9077 46.1875C27.2081 46.1356 27.4951 46.024 27.7517 45.8593C28.0083 45.6946 28.2293 45.4802 28.4016 45.2286L31.9204 40.381L35.4392 45.2286C35.6115 45.4802 35.8325 45.6946 36.0891 45.8593C36.3457 46.024 36.6327 46.1356 36.9331 46.1875C37.2336 46.2394 37.5414 46.2305 37.8383 46.1614C38.1353 46.0923 38.4154 45.9644 38.6621 45.7852C38.9087 45.606 39.117 45.3792 39.2745 45.1181C39.432 44.8571 39.5356 44.5671 39.5792 44.2653C39.6227 43.9635 39.6053 43.6561 39.528 43.3612C39.4507 43.0662 39.3151 42.7898 39.1291 42.5482L35.6103 37.7005L41.3134 35.8498C41.8635 35.6452 42.3136 35.2365 42.5701 34.7085C42.8266 34.1806 42.8697 33.5741 42.6905 33.0152C42.5113 32.4563 42.1235 31.988 41.6079 31.7076C41.0923 31.4272 40.4884 31.3564 39.9219 31.5098ZM70.1484 32.9755C69.9615 32.4052 69.5573 31.9315 69.0236 31.6572C68.4898 31.3828 67.8694 31.3299 67.2969 31.5098L61.5938 33.3633V27.375C61.5938 26.77 61.3534 26.1897 60.9256 25.7619C60.4978 25.3341 59.9175 25.0938 59.3125 25.0938C58.7075 25.0938 58.1272 25.3341 57.6994 25.7619C57.2716 26.1897 57.0312 26.77 57.0312 27.375V33.3633L51.3281 31.5126C50.7526 31.3254 50.1263 31.3746 49.587 31.6492C49.0476 31.9238 48.6395 32.4014 48.4523 32.9769C48.2651 33.5524 48.3143 34.1787 48.5889 34.7181C48.8635 35.2574 49.3411 35.6655 49.9166 35.8527L55.6197 37.7034L52.1009 42.551C51.9149 42.7926 51.7793 43.0691 51.702 43.364C51.6247 43.659 51.6073 43.9664 51.6509 44.2682C51.6944 44.5699 51.798 44.8599 51.9555 45.121C52.113 45.382 52.3213 45.6088 52.568 45.788C52.8147 45.9672 53.0947 46.0952 53.3917 46.1643C53.6887 46.2334 53.9965 46.2422 54.2969 46.1903C54.5974 46.1385 54.8844 46.0269 55.141 45.8622C55.3976 45.6975 55.6185 45.483 55.7908 45.2315L59.3097 40.3838L62.8285 45.2315C63.0008 45.483 63.2217 45.6975 63.4783 45.8622C63.7349 46.0269 64.0219 46.1385 64.3224 46.1903C64.6228 46.2422 64.9306 46.2334 65.2276 46.1643C65.5245 46.0952 65.8046 45.9672 66.0513 45.788C66.298 45.6088 66.5063 45.382 66.6638 45.121C66.8213 44.8599 66.9249 44.5699 66.9684 44.2682C67.012 43.9664 66.9946 43.659 66.9173 43.364C66.84 43.0691 66.7044 42.7926 66.5184 42.551L62.9996 37.7034L68.7027 35.8527C69.2753 35.6619 69.7489 35.252 70.0199 34.7127C70.2908 34.1734 70.3371 33.5488 70.1484 32.9755Z" fill="#A4A4A4"/>
</svg>
