<svg width="68" height="75" viewBox="0 0 68 75" fill="none" xmlns="http://www.w3.org/2000/svg">
<path opacity="0.6" d="M44.9922 0H41.2422C30.6372 0 25.3309 -2.23517e-07 22.0384 3.29625C18.7422 6.58875 18.7422 11.895 18.7422 22.5V52.5C18.7422 63.105 18.7422 68.4112 22.0384 71.7038C25.3309 75 30.6372 75 41.2422 75H44.9922C55.5972 75 60.9034 75 64.1959 71.7038C67.4922 68.4112 67.4922 63.105 67.4922 52.5V22.5C67.4922 11.895 67.4922 6.58875 64.1959 3.29625C60.9034 -2.23517e-07 55.5972 0 44.9922 0Z" fill="#F2B819"/>
<path opacity="0.4" d="M18.75 22.5C18.75 16.7325 18.75 12.5362 19.2788 9.375H18.75C9.91125 9.375 5.49 9.375 2.745 12.12C4.47035e-07 14.865 0 19.2862 0 28.125V46.875C0 55.7137 4.47035e-07 60.1312 2.745 62.88C5.49 65.6287 9.91125 65.625 18.75 65.625H19.2788C18.75 62.4637 18.75 58.2675 18.75 52.5V22.5Z" fill="#F2B819"/>
<path fill-rule="evenodd" clip-rule="evenodd" d="M5.50221 35.5123C4.97552 36.0397 4.67969 36.7545 4.67969 37.4998C4.67969 38.2452 4.97552 38.96 5.50221 39.4873L13.0022 46.9873C13.5354 47.4841 14.2405 47.7546 14.9692 47.7418C15.6978 47.7289 16.393 47.4337 16.9083 46.9184C17.4236 46.4031 17.7188 45.7079 17.7316 44.9793C17.7445 44.2507 17.474 43.5455 16.9772 43.0123L14.2772 40.3123H41.2397C41.9856 40.3123 42.701 40.016 43.2285 39.4886C43.7559 38.9611 44.0522 38.2458 44.0522 37.4998C44.0522 36.7539 43.7559 36.0386 43.2285 35.5111C42.701 34.9837 41.9856 34.6873 41.2397 34.6873H14.2772L16.9772 31.9873C17.2535 31.7299 17.4752 31.4194 17.6289 31.0744C17.7826 30.7294 17.8653 30.3569 17.8719 29.9793C17.8786 29.6017 17.8091 29.2266 17.6677 28.8764C17.5262 28.5261 17.3157 28.208 17.0486 27.941C16.7815 27.6739 16.4634 27.4633 16.1132 27.3219C15.763 27.1804 15.3879 27.111 15.0103 27.1176C14.6326 27.1243 14.2602 27.2069 13.9152 27.3607C13.5702 27.5144 13.2597 27.736 13.0022 28.0123L5.50221 35.5123Z" fill="#F2B819"/>
</svg>
