<svg width="33" height="33" viewBox="0 0 33 33" fill="none" xmlns="http://www.w3.org/2000/svg">
<path fill-rule="evenodd" clip-rule="evenodd" d="M9.44161 5.41881C8.71332 5.44983 8.19003 5.51861 7.72743 5.67506C6.93628 5.93996 6.21734 6.38476 5.62715 6.97449C5.03695 7.56421 4.59158 8.28279 4.32605 9.07374C4.04688 9.91127 4.04688 10.9444 4.04688 13.0132C4.04688 13.1414 4.04688 13.2061 4.06441 13.2574C4.08097 13.307 4.10884 13.3521 4.14582 13.389C4.18281 13.426 4.22789 13.4539 4.2775 13.4705C4.32875 13.488 4.39349 13.488 4.52296 13.488H27.8471C27.9766 13.488 28.0413 13.488 28.0926 13.4705C28.1422 13.4539 28.1873 13.426 28.2242 13.389C28.2612 13.3521 28.2891 13.307 28.3057 13.2574C28.3232 13.2048 28.3232 13.14 28.3232 13.0106C28.3232 10.943 28.3232 9.90858 28.044 9.07509C27.7788 8.28364 27.3336 7.56452 26.7434 6.97431C26.1532 6.38409 25.4341 5.93888 24.6426 5.67371C24.18 5.51861 23.6554 5.44983 22.9285 5.41881V8.76624C22.9285 9.30278 22.7153 9.81735 22.3359 10.1967C21.9565 10.5761 21.442 10.7893 20.9054 10.7893C20.3689 10.7893 19.8543 10.5761 19.4749 10.1967C19.0955 9.81735 18.8824 9.30278 18.8824 8.76624V5.39453H13.4877V8.76624C13.4877 9.30278 13.2745 9.81735 12.8951 10.1967C12.5157 10.5761 12.0012 10.7893 11.4646 10.7893C10.9281 10.7893 10.4135 10.5761 10.0341 10.1967C9.65475 9.81735 9.44161 9.30278 9.44161 8.76624V5.41881Z" fill="#32CD8B"/>
<path d="M4.04688 15.5083C4.04688 15.19 4.04687 15.0309 4.14533 14.9324C4.24378 14.834 4.40293 14.834 4.72122 14.834H27.6488C27.9671 14.834 28.1263 14.834 28.2247 14.9324C28.3232 15.0309 28.3232 15.19 28.3232 15.5083V16.1827C28.3232 21.2686 28.3232 23.8122 26.7425 25.3915C25.1619 26.9708 22.6196 26.9721 17.5337 26.9721H14.8363C9.75046 26.9721 7.20684 26.9721 5.62753 25.3915C4.04822 23.8108 4.04688 21.2686 4.04688 16.1827V15.5083Z" fill="#32CD8B" fill-opacity="0.6"/>
<path d="M11.4609 3.37109V8.76583M20.9017 3.37109V8.76583" stroke="#32CD8B" stroke-width="0.833333" stroke-linecap="round"/>
</svg>
