<svg width="30" height="30" viewBox="0 0 30 30" fill="none" xmlns="http://www.w3.org/2000/svg">
<rect width="30" height="30" rx="15" fill="#3A3A3A" fill-opacity="0.1"/>
<path fill-rule="evenodd" clip-rule="evenodd" d="M10.8333 8.34703C10.3833 8.3662 10.06 8.4087 9.77417 8.50536C9.28532 8.66905 8.8411 8.94388 8.47643 9.30826C8.11175 9.67265 7.83657 10.1166 7.6725 10.6054C7.5 11.1229 7.5 11.7612 7.5 13.0395C7.5 13.1187 7.5 13.1587 7.51083 13.1904C7.52106 13.221 7.53829 13.2489 7.56114 13.2717C7.58399 13.2946 7.61184 13.3118 7.6425 13.322C7.67417 13.3329 7.71417 13.3329 7.79417 13.3329H22.2058C22.2858 13.3329 22.3258 13.3329 22.3575 13.322C22.3882 13.3118 22.416 13.2946 22.4389 13.2717C22.4617 13.2489 22.4789 13.221 22.4892 13.1904C22.5 13.1579 22.5 13.1179 22.5 13.0379C22.5 11.7604 22.5 11.1212 22.3275 10.6062C22.1637 10.1172 21.8886 9.67284 21.5239 9.30815C21.1592 8.94347 20.7149 8.66838 20.2258 8.50453C19.94 8.4087 19.6158 8.3662 19.1667 8.34703V10.4154C19.1667 10.7469 19.035 11.0648 18.8005 11.2992C18.5661 11.5337 18.2482 11.6654 17.9167 11.6654C17.5851 11.6654 17.2672 11.5337 17.0328 11.2992C16.7984 11.0648 16.6667 10.7469 16.6667 10.4154V8.33203H13.3333V10.4154C13.3333 10.7469 13.2016 11.0648 12.9672 11.2992C12.7328 11.5337 12.4149 11.6654 12.0833 11.6654C11.7518 11.6654 11.4339 11.5337 11.1994 11.2992C10.965 11.0648 10.8333 10.7469 10.8333 10.4154V8.34703Z" fill="#3A3A3A"/>
<path d="M7.5 14.5807C7.5 14.3841 7.5 14.2857 7.56083 14.2249C7.62167 14.1641 7.72 14.1641 7.91667 14.1641H22.0833C22.28 14.1641 22.3783 14.1641 22.4392 14.2249C22.5 14.2857 22.5 14.3841 22.5 14.5807V14.9974C22.5 18.1399 22.5 19.7116 21.5233 20.6874C20.5467 21.6632 18.9758 21.6641 15.8333 21.6641H14.1667C11.0242 21.6641 9.4525 21.6641 8.47667 20.6874C7.50083 19.7107 7.5 18.1399 7.5 14.9974V14.5807Z" fill="#3A3A3A" fill-opacity="0.25"/>
<path d="M12.0781 7.08203V10.4154M17.9115 7.08203V10.4154" stroke="#3A3A3A" stroke-width="0.833333" stroke-linecap="round"/>
</svg>
