<svg width="16" height="16" viewBox="0 0 16 16" fill="none" xmlns="http://www.w3.org/2000/svg">
<path d="M6 10.6667C5.53333 10.6667 5.13889 10.5056 4.81667 10.1833C4.49444 9.86111 4.33333 9.46667 4.33333 9C4.33333 8.53333 4.49444 8.13889 4.81667 7.81667C5.13889 7.49444 5.53333 7.33333 6 7.33333C6.46667 7.33333 6.86111 7.49444 7.18333 7.81667C7.50556 8.13889 7.66667 8.53333 7.66667 9C7.66667 9.46667 7.50556 9.86111 7.18333 10.1833C6.86111 10.5056 6.46667 10.6667 6 10.6667ZM3.33333 14.3333C2.96667 14.3333 2.65278 14.2028 2.39167 13.9417C2.13056 13.6806 2 13.3667 2 13V3.66667C2 3.3 2.13056 2.98611 2.39167 2.725C2.65278 2.46389 2.96667 2.33333 3.33333 2.33333H4V1H5.33333V2.33333H10.6667V1H12V2.33333H12.6667C13.0333 2.33333 13.3472 2.46389 13.6083 2.725C13.8694 2.98611 14 3.3 14 3.66667V13C14 13.3667 13.8694 13.6806 13.6083 13.9417C13.3472 14.2028 13.0333 14.3333 12.6667 14.3333H3.33333ZM3.33333 13H12.6667V6.33333H3.33333V13Z" fill="#242826"/>
</svg>
