<svg width="149" height="59" viewBox="0 0 149 59" fill="none" xmlns="http://www.w3.org/2000/svg">
<mask id="path-1-inside-1_8613_18465" fill="white">
<path d="M136 0C143.18 2.57703e-07 149 5.8203 149 13V38C149 45.1797 143.18 51 136 51H79.0156L74.4209 57.6289C73.6255 58.776 71.9292 58.776 71.1338 57.6289L66.5391 51H13C5.8203 51 4.02673e-07 45.1797 0 38V13C0 5.8203 5.8203 2.57703e-07 13 0H136Z"/>
</mask>
<path d="M136 0C143.18 2.57703e-07 149 5.8203 149 13V38C149 45.1797 143.18 51 136 51H79.0156L74.4209 57.6289C73.6255 58.776 71.9292 58.776 71.1338 57.6289L66.5391 51H13C5.8203 51 4.02673e-07 45.1797 0 38V13C0 5.8203 5.8203 2.57703e-07 13 0H136Z" fill="#EAFAF3"/>
<path d="M136 0V-1V-1V0ZM149 13H150V13H149ZM136 51V52V52V51ZM79.0156 51V50H78.492L78.1937 50.4303L79.0156 51ZM74.4209 57.6289L75.2427 58.1987L75.2428 58.1986L74.4209 57.6289ZM71.1338 57.6289L70.3119 58.1986L70.312 58.1987L71.1338 57.6289ZM66.5391 51L67.3609 50.4303L67.0627 50H66.5391V51ZM13 51V52V52V51ZM0 38H-1V38H0ZM13 0V-1V-1V0ZM136 0V1C142.627 1 148 6.37258 148 13H149H150C150 5.26801 143.732 -1 136 -1V0ZM149 13H148V38H149H150V13H149ZM149 38H148C148 44.6274 142.627 50 136 50V51V52C143.732 52 150 45.732 150 38H149ZM136 51V50H79.0156V51V52H136V51ZM79.0156 51L78.1937 50.4303L73.599 57.0592L74.4209 57.6289L75.2428 58.1986L79.8375 51.5697L79.0156 51ZM74.4209 57.6289L73.5991 57.0591C73.2014 57.6326 72.3532 57.6326 71.9555 57.0591L71.1338 57.6289L70.312 58.1987C71.5052 59.9194 74.0495 59.9194 75.2427 58.1987L74.4209 57.6289ZM71.1338 57.6289L71.9557 57.0592L67.3609 50.4303L66.5391 51L65.7172 51.5697L70.3119 58.1986L71.1338 57.6289ZM66.5391 51V50H13V51V52H66.5391V51ZM13 51V50C6.37258 50 1 44.6274 1 38H0H-1C-1 45.732 5.26801 52 13 52V51ZM0 38H1V13H0H-1V38H0ZM0 13H1C1 6.37258 6.37258 1 13 1V0V-1C5.26801 -1 -1 5.26801 -1 13H0ZM13 0V1H136V0V-1H13V0Z" fill="#009D5B" mask="url(#path-1-inside-1_8613_18465)"/>
</svg>
