<svg width="149" height="59" viewBox="0 0 149 59" fill="none" xmlns="http://www.w3.org/2000/svg">
<mask id="path-1-inside-1_8613_18465" fill="white">
<path d="M136 0C143.18 0 149 5.8203 149 13V38C149 45.1797 143.18 51 136 51H127.016L122.421 57.6289C121.625 58.776 119.929 58.776 119.134 57.6289L114.539 51H13C5.8203 51 0 45.1797 0 38V13C0 5.8203 5.8203 0 13 0H136Z"/>
</mask>
<path d="M136 0C143.18 0 149 5.8203 149 13V38C149 45.1797 143.18 51 136 51H127.016L122.421 57.6289C121.625 58.776 119.929 58.776 119.134 57.6289L114.539 51H13C5.8203 51 0 45.1797 0 38V13C0 5.8203 5.8203 0 13 0H136Z" fill="#EAFAF3"/>
<path d="M149 13H150V13H149ZM127.016 51V50H126.492L126.194 50.4303L127.016 51ZM122.421 57.6289L123.243 58.1987L123.243 58.1986L122.421 57.6289ZM119.134 57.6289L118.312 58.1986L118.312 58.1987L119.134 57.6289ZM114.539 51L115.361 50.4303L115.063 50H114.539V51ZM136 0V1C142.627 1 148 6.37258 148 13H149H150C150 5.26801 143.732 -1 136 -1V0ZM149 13H148V38H149H150V13H149ZM149 38H148C148 44.6274 142.627 50 136 50V51V52C143.732 52 150 45.732 150 38H149ZM136 51V50H127.016V51V52H136V51ZM127.016 51L126.194 50.4303L121.599 57.0592L122.421 57.6289L123.243 58.1986L127.838 51.5697L127.016 51ZM122.421 57.6289L121.599 57.0591C121.201 57.6326 120.353 57.6326 119.956 57.0591L119.134 57.6289L118.312 58.1987C119.505 59.9194 122.05 59.9194 123.243 58.1987L122.421 57.6289ZM119.134 57.6289L119.956 57.0592L115.361 50.4303L114.539 51L113.717 51.5697L118.312 58.1986L119.134 57.6289ZM114.539 51V50H13V51V52H114.539V51ZM13 51V50C6.37258 50 1 44.6274 1 38H0H-1C-1 45.732 5.26801 52 13 52V51ZM0 38H1V13H0H-1V38H0ZM0 13H1C1 6.37258 6.37258 1 13 1V0V-1C5.26801 -1 -1 5.26801 -1 13H0ZM13 0V1H136V0V-1H13V0Z" fill="#009D5B" mask="url(#path-1-inside-1_8613_18465)"/>
</svg>
