<svg width="38" height="38" viewBox="0 0 38 38" fill="none" xmlns="http://www.w3.org/2000/svg">
<g clip-path="url(#clip0_8613_18449)">
<path d="M5.68837 32.4629L6.90165 33.8445C7.70508 34.7782 8.79894 35.4188 10.0068 35.6576L18 37.5C19.1811 37.7358 22.2942 37.6931 23.3611 37.1342C23.9556 36.792 24.4767 36.3358 24.8945 35.7918C25.3123 35.2477 25.6186 34.6266 25.7958 33.9639L31.1212 14.0953C31.2068 13.7758 31.2285 13.4425 31.1853 13.1145C31.142 12.7866 31.0346 12.4703 30.8691 12.1839C30.7037 11.8974 30.4834 11.6464 30.2209 11.4451C29.9584 11.2437 29.6588 11.0961 29.3393 11.0105C29.0197 10.925 28.6865 10.9032 28.3585 10.9465C28.0305 10.9897 27.7143 11.0972 27.4279 11.2626C27.1414 11.4281 26.8904 11.6484 26.689 11.9109C26.4877 12.1734 26.3401 12.4729 26.2545 12.7925L24.4007 19.7003C24.3655 19.8604 24.2983 20.0116 24.2031 20.145C24.1079 20.2784 23.9867 20.3911 23.8468 20.4763C23.7068 20.5615 23.5511 20.6175 23.3889 20.641C23.2267 20.6644 23.0615 20.6547 22.9032 20.6125C22.7448 20.5703 22.5967 20.4964 22.4677 20.3954C22.3387 20.2944 22.2314 20.1683 22.1525 20.0248C22.0735 19.8812 22.0245 19.7231 22.0083 19.56C21.9921 19.397 22.0091 19.2324 22.0582 19.076L25.5135 6.18862C25.6095 5.87681 25.6417 5.54884 25.6081 5.22432C25.5744 4.89979 25.4757 4.58538 25.3178 4.29989C25.1599 4.01439 24.946 3.76368 24.689 3.56273C24.4319 3.36178 24.137 3.21473 23.8219 3.13037C23.5067 3.04601 23.1777 3.02607 22.8547 3.07175C22.5317 3.11743 22.2211 3.22778 21.9417 3.39621C21.6623 3.56464 21.4197 3.78769 21.2285 4.05202C21.0372 4.31635 20.9012 4.61654 20.8287 4.93462L17.3761 17.8193C17.3384 17.9771 17.2695 18.1258 17.1734 18.2565C17.0773 18.3872 16.956 18.4973 16.8166 18.5802C16.6772 18.6632 16.5225 18.7174 16.3618 18.7396C16.2011 18.7618 16.0376 18.7515 15.8809 18.7094C15.7243 18.6673 15.5777 18.5942 15.4497 18.4944C15.3218 18.3946 15.2152 18.2702 15.1362 18.1285C15.0572 17.9868 15.0074 17.8307 14.9898 17.6695C14.9722 17.5082 14.9871 17.345 15.0337 17.1896L17.5444 7.81991C17.6331 7.51013 17.6591 7.18579 17.6211 6.86582C17.5831 6.54585 17.4818 6.23665 17.323 5.95627C17.1642 5.67589 16.9512 5.42994 16.6963 5.23278C16.4415 5.03561 16.1499 4.89118 15.8386 4.80791C15.5273 4.72464 15.2026 4.7042 14.8833 4.74778C14.5641 4.79136 14.2567 4.89808 13.9791 5.06173C13.7015 5.22538 13.4593 5.44267 13.2667 5.70093C13.074 5.95918 12.9346 6.25323 12.8568 6.56591L8.34294 23.4162L6.66008 19.5728C6.31258 18.818 5.68754 18.2261 4.91491 17.9203C4.14228 17.6144 3.2815 17.6181 2.51153 17.9306C1.74155 18.2431 1.12162 18.8403 0.780611 19.598C0.439602 20.3558 0.403751 21.2158 0.680511 21.9993L2.78408 27.6179C3.45185 29.3958 4.4358 31.0381 5.68837 32.4656V32.4629Z" fill="white"/>
<path fill-rule="evenodd" clip-rule="evenodd" d="M10.1524 0.173768C10.6449 -0.036139 11.2002 -0.0436231 11.6981 0.152936C12.196 0.349494 12.5965 0.734275 12.8128 1.22396C13.0291 1.71364 13.0438 2.26881 12.8537 2.76926C12.6636 3.2697 12.2841 3.67513 11.7973 3.89777C10.7958 4.33783 9.94213 5.05677 9.33811 5.96877C9.03589 6.41147 8.57126 6.71712 8.04507 6.81935C7.51888 6.92158 6.97361 6.81215 6.5276 6.51482C6.0816 6.21748 5.77087 5.75624 5.66286 5.23121C5.55485 4.70617 5.65827 4.15973 5.95069 3.71048C6.98434 2.15413 8.44251 0.926737 10.1524 0.173768ZM32.9931 4.95091C33.429 4.6324 33.9736 4.50007 34.507 4.58304C35.0405 4.66601 35.5191 4.95748 35.8377 5.39334C36.9417 6.90007 37.5907 8.69168 37.7078 10.5559C37.7251 10.8227 37.6897 11.0903 37.6036 11.3434C37.5174 11.5965 37.3823 11.8302 37.2059 12.0311C37.0294 12.2319 36.8152 12.3961 36.5753 12.5142C36.3354 12.6322 36.0746 12.7019 35.8078 12.7192C35.541 12.7365 35.2734 12.7011 35.0203 12.6149C34.7672 12.5288 34.5336 12.3937 34.3327 12.2172C34.1318 12.0408 33.9676 11.8265 33.8496 11.5867C33.7315 11.3468 33.6618 11.086 33.6445 10.8192C33.5777 9.7272 33.1979 8.67752 32.5507 7.79548C32.2322 7.35959 32.0998 6.81502 32.1828 6.28157C32.2658 5.74812 32.5573 5.26947 32.9931 4.95091ZM8.34197 23.4135L8.29854 23.5763C9.2404 23.8288 11.439 24.8629 12.4975 26.6978C12.6055 26.897 12.7524 27.0726 12.9294 27.2142C13.1064 27.3558 13.31 27.4605 13.5281 27.522C13.7462 27.5836 13.9745 27.6009 14.1994 27.5728C14.4243 27.5446 14.6413 27.4718 14.8375 27.3584C15.0338 27.245 15.2053 27.0935 15.3421 26.9127C15.4788 26.7319 15.5779 26.5256 15.6335 26.3059C15.6892 26.0861 15.7002 25.8575 15.666 25.6334C15.6318 25.4094 15.5531 25.1945 15.4344 25.0013C13.7515 22.0835 10.5785 20.6748 9.17797 20.3002L8.34197 23.4135Z" fill="#009D5B"/>
</g>
<defs>
<clipPath id="clip0_8613_18449">
<rect width="38" height="38" fill="white"/>
</clipPath>
</defs>
</svg>
