<svg width="39" height="39" viewBox="0 0 39 39" fill="none" xmlns="http://www.w3.org/2000/svg">
<g clip-path="url(#clip0_8731_4938)">
<path d="M5.73609 32.7368L6.95962 34.13C7.76982 35.0716 8.87291 35.7176 10.091 35.9585L18.1516 37.8164C19.3427 38.0541 22.482 38.0111 23.5579 37.4475C24.1575 37.1024 24.683 36.6424 25.1043 36.0937C25.5256 35.5451 25.8345 34.9187 26.0132 34.2504L31.3836 14.2142C31.4698 13.892 31.4918 13.5559 31.4482 13.2251C31.4046 12.8944 31.2962 12.5755 31.1294 12.2866C30.9625 11.9978 30.7404 11.7446 30.4757 11.5416C30.211 11.3385 29.9089 11.1897 29.5866 11.1034C29.2644 11.0171 28.9283 10.9952 28.5975 11.0388C28.2668 11.0824 27.9479 11.1907 27.659 11.3576C27.3702 11.5245 27.117 11.7466 26.914 12.0113C26.711 12.276 26.5621 12.5781 26.4758 12.9003L24.6063 19.8665C24.5708 20.0279 24.5031 20.1804 24.4071 20.3149C24.3111 20.4494 24.1888 20.5631 24.0477 20.649C23.9066 20.735 23.7495 20.7915 23.586 20.8151C23.4224 20.8387 23.2558 20.8289 23.0962 20.7863C22.9365 20.7438 22.7871 20.6693 22.657 20.5675C22.5269 20.4656 22.4188 20.3384 22.3391 20.1937C22.2595 20.0489 22.21 19.8895 22.1937 19.725C22.1774 19.5606 22.1945 19.3946 22.2441 19.2369L25.7285 6.24076C25.8254 5.92632 25.8578 5.59558 25.8239 5.26832C25.79 4.94106 25.6904 4.62399 25.5312 4.33609C25.3719 4.04819 25.1562 3.79535 24.897 3.59271C24.6378 3.39007 24.3404 3.24178 24.0226 3.1567C23.7048 3.07163 23.3731 3.05152 23.0473 3.09759C22.7215 3.14365 22.4084 3.25493 22.1266 3.42478C21.8448 3.59464 21.6002 3.81957 21.4073 4.08613C21.2145 4.35269 21.0773 4.65541 21.0041 4.97618L17.5224 17.9696C17.4845 18.1288 17.415 18.2787 17.318 18.4105C17.2211 18.5423 17.0988 18.6533 16.9582 18.737C16.8176 18.8206 16.6617 18.8753 16.4996 18.8977C16.3376 18.92 16.1727 18.9097 16.0147 18.8672C15.8567 18.8247 15.7088 18.751 15.5798 18.6504C15.4508 18.5498 15.3433 18.4243 15.2637 18.2814C15.184 18.1385 15.1338 17.9811 15.116 17.8185C15.0983 17.6559 15.1133 17.4913 15.1602 17.3346L17.6921 7.88581C17.7816 7.57342 17.8079 7.24635 17.7696 6.92368C17.7312 6.601 17.629 6.2892 17.4689 6.00645C17.3088 5.72371 17.0939 5.47568 16.8369 5.27685C16.5799 5.07802 16.2859 4.93237 15.972 4.8484C15.6581 4.76443 15.3306 4.74381 15.0086 4.78776C14.6867 4.8317 14.3767 4.93933 14.0968 5.10436C13.8169 5.26939 13.5726 5.48852 13.3783 5.74895C13.184 6.00938 13.0435 6.30591 12.965 6.62123L8.41306 23.6137L6.71601 19.7379C6.36557 18.9767 5.73525 18.3798 4.9561 18.0714C4.17695 17.763 3.30891 17.7667 2.53244 18.0818C1.75597 18.3969 1.13081 18.9992 0.786919 19.7633C0.443031 20.5275 0.406877 21.3948 0.685973 22.1849L2.8073 27.8509C3.4807 29.6437 4.47295 31.3 5.73609 32.7395V32.7368Z" fill="white"/>
<path fill-rule="evenodd" clip-rule="evenodd" d="M10.2375 0.175143C10.7341 -0.0365346 11.2941 -0.0440819 11.7963 0.154136C12.2984 0.352353 12.7022 0.740381 12.9204 1.2342C13.1385 1.72801 13.1533 2.28787 12.9616 2.79253C12.7699 3.2972 12.3872 3.70606 11.8963 3.93057C10.8863 4.37435 10.0255 5.09935 9.41636 6.01905C9.11159 6.46549 8.64303 6.77371 8.1124 6.87681C7.58177 6.9799 7.0319 6.86955 6.58213 6.56971C6.13236 6.26986 5.81901 5.80472 5.71009 5.27526C5.60116 4.7458 5.70546 4.19474 6.00034 3.7417C7.04272 2.17222 8.5132 0.934467 10.2375 0.175143ZM33.271 4.9926C33.7106 4.6714 34.2597 4.53796 34.7977 4.62163C35.3356 4.7053 35.8183 4.99923 36.1396 5.43876C37.2529 6.95821 37.9074 8.76493 38.0255 10.6449C38.0429 10.914 38.0072 11.1838 37.9203 11.439C37.8335 11.6943 37.6972 11.9299 37.5193 12.1325C37.3414 12.3351 37.1253 12.5006 36.8834 12.6197C36.6415 12.7388 36.3785 12.809 36.1094 12.8264C35.8404 12.8439 35.5705 12.8081 35.3153 12.7213C35.0601 12.6344 34.8244 12.4982 34.6219 12.3202C34.4193 12.1423 34.2537 11.9262 34.1347 11.6843C34.0156 11.4424 33.9453 11.1795 33.9279 10.9104C33.8605 9.8092 33.4775 8.75066 32.8248 7.86118C32.5036 7.4216 32.3702 6.87245 32.4538 6.33449C32.5375 5.79654 32.8314 5.31385 33.271 4.9926ZM8.41181 23.611L8.36801 23.7752C9.31782 24.0298 11.5349 25.0726 12.6024 26.923C12.7114 27.1239 12.8594 27.301 13.0379 27.4438C13.2164 27.5866 13.4217 27.6921 13.6417 27.7542C13.8617 27.8163 14.0918 27.8337 14.3186 27.8054C14.5454 27.777 14.7643 27.7035 14.9622 27.5892C15.1601 27.4749 15.3331 27.322 15.471 27.1397C15.6088 26.9574 15.7088 26.7493 15.7649 26.5278C15.821 26.3062 15.8321 26.0756 15.7976 25.8497C15.7632 25.6237 15.6837 25.407 15.5641 25.2122C13.867 22.2698 10.6673 20.8491 9.25486 20.4714L8.41181 23.611Z" fill="#8E8E8E"/>
</g>
<defs>
<clipPath id="clip0_8731_4938">
<rect width="38.3207" height="38.3207" fill="white"/>
</clipPath>
</defs>
</svg>
