<svg width="20" height="20" viewBox="0 0 20 20" fill="none" xmlns="http://www.w3.org/2000/svg">
<path opacity="0.5" d="M15.2837 2.41406H4.02249C2.68976 2.41406 1.60938 3.49445 1.60938 4.82718V12.0665C1.60938 13.3992 2.68976 14.4796 4.02249 14.4796H15.2837C16.6164 14.4796 17.6968 13.3992 17.6968 12.0665V4.82718C17.6968 3.49445 16.6164 2.41406 15.2837 2.41406Z" fill="white"/>
<path d="M12.8684 16.8932H6.4334C6.28777 16.8932 6.14487 16.8537 6.01994 16.7789C5.89502 16.704 5.79275 16.5967 5.72404 16.4683C5.65534 16.3399 5.62279 16.1952 5.62985 16.0498C5.63692 15.9043 5.68334 15.7635 5.76416 15.6424L8.98165 10.8162C9.05937 10.712 9.16034 10.6274 9.27653 10.5691C9.39271 10.5108 9.5209 10.4805 9.65089 10.4805C9.78087 10.4805 9.90906 10.5108 10.0252 10.5691C10.1414 10.6274 10.2424 10.712 10.3201 10.8162L13.5376 15.6424C13.6184 15.7635 13.6649 15.9043 13.6719 16.0498C13.679 16.1952 13.6464 16.3399 13.5777 16.4683C13.509 16.5967 13.4068 16.704 13.2818 16.7789C13.1569 16.8537 13.014 16.8932 12.8684 16.8932Z" fill="white"/>
</svg>
