<svg width="13" height="13" viewBox="0 0 13 13" fill="none" xmlns="http://www.w3.org/2000/svg">
<path fill-rule="evenodd" clip-rule="evenodd" d="M6.34039 8.04728L10.606 12.3129C10.8323 12.5392 11.1393 12.6664 11.4594 12.6664C11.7795 12.6664 12.0865 12.5392 12.3128 12.3129C12.5392 12.0865 12.6664 11.7795 12.6664 11.4594C12.6664 11.1393 12.5392 10.8323 12.3128 10.606L8.04566 6.3404L12.312 2.07482C12.4241 1.96275 12.5129 1.82971 12.5735 1.68329C12.6341 1.53688 12.6653 1.37996 12.6653 1.2215C12.6652 1.06304 12.634 0.90614 12.5733 0.759756C12.5126 0.613372 12.4237 0.480372 12.3116 0.368349C12.1996 0.256327 12.0665 0.167477 11.9201 0.106871C11.7737 0.046265 11.6168 0.0150908 11.4583 0.0151281C11.2999 0.0151655 11.143 0.0464135 10.9966 0.107088C10.8502 0.167763 10.7172 0.256677 10.6052 0.368752L6.34039 4.63433L2.07481 0.368752C1.96356 0.253462 1.83047 0.161482 1.68329 0.0981791C1.53612 0.0348762 1.37781 0.00151776 1.21761 5.0598e-05C1.0574 -0.00141656 0.898509 0.0290367 0.7502 0.0896335C0.60189 0.15023 0.467134 0.239757 0.353795 0.35299C0.240455 0.466223 0.150801 0.600895 0.0900643 0.749147C0.0293277 0.897399 -0.00127538 1.05626 4.07147e-05 1.21647C0.00135681 1.37667 0.0345656 1.53501 0.0977297 1.68225C0.160894 1.82948 0.252748 1.96266 0.367933 2.07402L4.63512 6.3404L0.368738 10.6068C0.253553 10.7181 0.161698 10.8513 0.0985344 10.9986C0.0353703 11.1458 0.00216112 11.3041 0.000845028 11.4643C-0.000471067 11.6245 0.030132 11.7834 0.0908686 11.9317C0.151605 12.0799 0.241259 12.2146 0.354599 12.3278C0.467939 12.4411 0.602695 12.5306 0.751004 12.5912C0.899313 12.6518 1.05821 12.6822 1.21841 12.6808C1.37862 12.6793 1.53692 12.6459 1.6841 12.5826C1.83127 12.5193 1.96437 12.4273 2.07561 12.3121L6.34039 8.04728Z" fill="white"/>
</svg>
