<svg width="39" height="39" viewBox="0 0 39 39" fill="none" xmlns="http://www.w3.org/2000/svg">
<path d="M6.38281 19.1503C6.38281 15.7641 7.72795 12.5167 10.1223 10.1223C12.5167 7.72795 15.7641 6.38281 19.1503 6.38281C22.5364 6.38281 25.7838 7.72795 28.1782 10.1223C30.5726 12.5167 31.9177 15.7641 31.9177 19.1503V29.7903C31.9177 30.2851 31.9177 30.5324 31.8634 30.7351C31.7909 31.0057 31.6485 31.2523 31.4504 31.4504C31.2523 31.6485 31.0057 31.7909 30.7351 31.8634C30.5324 31.9177 30.2851 31.9177 29.7903 31.9177H19.1503C15.7641 31.9177 12.5167 30.5726 10.1223 28.1782C7.72795 25.7838 6.38281 22.5364 6.38281 19.1503Z" fill="#915B41" fill-opacity="0.25"/>
<path d="M13.5625 16.7578H24.734M13.5625 21.5456H21.5421" stroke="#915B41" stroke-width="1.59593" stroke-linecap="round" stroke-linejoin="round"/>
</svg>
