<svg width="32" height="32" viewBox="0 0 32 32" fill="none" xmlns="http://www.w3.org/2000/svg">
<g clip-path="url(#clip0_6976_272)">
<path fill-rule="evenodd" clip-rule="evenodd" d="M27.4938 5.50975C27.4938 4.2527 26.4394 3.02179 25.0582 3H25.0494L6.87338 3.01307C6.29258 3.01287 5.72693 3.19837 5.25903 3.54247L3.16758 5.08274C3.09868 5.13334 3.04266 5.19944 3.00405 5.27571C2.96543 5.35197 2.94531 5.43625 2.94531 5.52173C2.94531 5.60721 2.96543 5.69149 3.00405 5.76776C3.04266 5.84402 3.09868 5.91012 3.16758 5.96072L5.25903 7.49881C5.72525 7.84521 6.29169 8.03039 6.87556 8.03039L25.0494 8.0195H25.0582C26.4394 7.99771 27.4938 6.7668 27.4938 5.50975Z" fill="#6FD1FF"/>
<path d="M3.88618 11.7207C3.59728 11.7207 3.32021 11.8355 3.11592 12.0398C2.91164 12.244 2.79688 12.5211 2.79688 12.81V28.4698C2.79688 28.7587 2.91164 29.0358 3.11592 29.24C3.32021 29.4443 3.59728 29.5591 3.88618 29.5591C7.40897 29.5591 9.72047 30.0885 11.3217 30.7312C12.7596 31.3085 13.6703 31.9882 14.4676 32.5852L14.7334 32.7834C14.9212 32.9228 15.1488 32.998 15.3827 32.998C15.6165 32.998 15.8441 32.9228 16.0319 32.7834L16.2955 32.5873C17.095 31.9904 18.0057 31.3085 19.4436 30.7312C21.047 30.0885 23.3563 29.5591 26.8791 29.5591C27.168 29.5591 27.4451 29.4443 27.6494 29.24C27.8537 29.0358 27.9684 28.7587 27.9684 28.4698V12.81C27.9684 12.5211 27.8537 12.244 27.6494 12.0398C27.4451 11.8355 27.168 11.7207 26.8791 11.7207C23.1319 11.7207 20.5394 12.285 18.6331 13.0497C17.4742 13.5193 16.3815 14.1382 15.3827 14.8906C14.3838 14.1382 13.2911 13.5193 12.1322 13.0497C10.2259 12.285 7.63337 11.7207 3.88618 11.7207Z" fill="#D2F1FF"/>
<path d="M14.0195 32.2546V13.9805L14.0522 14.0023C14.4597 14.2452 14.9261 14.3716 15.4005 14.3677C15.875 14.3639 16.3392 14.2299 16.7428 13.9805V32.2546C16.5035 32.4293 16.266 32.6065 16.0304 32.7862C15.8426 32.9255 15.615 33.0008 15.3812 33.0008C15.1473 33.0008 14.9197 32.9255 14.7319 32.7862L14.4661 32.5857L14.0195 32.2546Z" fill="#6FD1FF"/>
</g>
<defs>
<clipPath id="clip0_6976_272">
<rect width="32" height="32" fill="white"/>
</clipPath>
</defs>
</svg>
