<svg width="48" height="48" viewBox="0 0 48 48" fill="none" xmlns="http://www.w3.org/2000/svg">
<g filter="url(#filter0_d_6908_1065)">
<circle cx="20" cy="20" r="20" transform="matrix(-1 0 0 1 44 0)" fill="white"/>
</g>
<path d="M21.2815 27C21.6214 26.9999 21.9473 26.8691 22.1876 26.6363L27.6247 21.3699C27.865 21.1371 28 20.8215 28 20.4924C28 20.1633 27.865 19.8476 27.6247 19.6148L22.1876 14.3484C21.9459 14.1223 21.6221 13.9972 21.2861 14C20.95 14.0029 20.6285 14.1334 20.3909 14.3635C20.1532 14.5937 20.0184 14.905 20.0155 15.2304C20.0126 15.5559 20.1418 15.8694 20.3753 16.1035L24.9062 20.4924L20.3753 24.8813C20.1961 25.0549 20.074 25.276 20.0246 25.5167C19.9752 25.7575 20.0006 26.007 20.0976 26.2337C20.1945 26.4605 20.3588 26.6543 20.5695 26.7907C20.7802 26.9271 21.028 26.9999 21.2815 27Z" fill="black" fill-opacity="0.2"/>
<defs>
<filter id="filter0_d_6908_1065" x="0" y="0" width="48" height="48" filterUnits="userSpaceOnUse" color-interpolation-filters="sRGB">
<feFlood flood-opacity="0" result="BackgroundImageFix"/>
<feColorMatrix in="SourceAlpha" type="matrix" values="0 0 0 0 0 0 0 0 0 0 0 0 0 0 0 0 0 0 127 0" result="hardAlpha"/>
<feOffset dy="4"/>
<feGaussianBlur stdDeviation="2"/>
<feComposite in2="hardAlpha" operator="out"/>
<feColorMatrix type="matrix" values="0 0 0 0 0 0 0 0 0 0 0 0 0 0 0 0 0 0 0.05 0"/>
<feBlend mode="normal" in2="BackgroundImageFix" result="effect1_dropShadow_6908_1065"/>
<feBlend mode="normal" in="SourceGraphic" in2="effect1_dropShadow_6908_1065" result="shape"/>
</filter>
</defs>
</svg>
