<svg width="10" height="6" viewBox="0 0 10 6" fill="none" xmlns="http://www.w3.org/2000/svg">
<path d="M9.77989 0.22944C9.6389 0.0825305 9.44772 9.05392e-07 9.24837 8.87964e-07C9.04902 8.70537e-07 8.85783 0.0825304 8.71685 0.22944L4.99546 4.10846L1.27408 0.229439C1.13229 0.086693 0.94238 0.00770633 0.745262 0.00949207C0.548144 0.0112773 0.359583 0.0936919 0.220195 0.238985C0.0808063 0.384278 0.00174093 0.580825 2.81124e-05 0.786293C-0.0016847 0.991761 0.0740923 1.18971 0.211038 1.33751L4.46394 5.77056C4.60492 5.91747 4.79611 6 4.99546 6C5.19481 6 5.386 5.91747 5.52698 5.77056L9.77988 1.33751C9.92082 1.19055 10 0.991267 10 0.783473C10 0.57568 9.92082 0.376394 9.77989 0.22944Z" fill="#D9D9D9"/>
</svg>
