<svg width="16" height="16" viewBox="0 0 16 16" fill="none" xmlns="http://www.w3.org/2000/svg">
<path d="M4.83494 11.7198C4.82592 11.6366 4.83796 11.5524 4.86995 11.475C4.90194 11.3976 4.95286 11.3295 5.01802 11.2769C5.08318 11.2243 5.16051 11.1889 5.24291 11.174C5.32531 11.1591 5.41013 11.1651 5.4896 11.1915L5.49427 11.1928L5.52094 11.2012C5.54649 11.2089 5.58627 11.2199 5.64027 11.2342C5.74894 11.2625 5.9136 11.3015 6.1296 11.3408C6.56194 11.4192 7.1986 11.4992 7.9986 11.4992C8.7986 11.4992 9.43527 11.4192 9.8676 11.3405C10.032 11.3112 10.1952 11.2757 10.3569 11.2342C10.4059 11.2214 10.4546 11.2076 10.5029 11.1928L10.5076 11.1915H10.5083C10.5877 11.1652 10.6724 11.1593 10.7548 11.1743C10.8371 11.1893 10.9143 11.2247 10.9794 11.2773C11.0444 11.3299 11.0953 11.3979 11.1272 11.4752C11.1592 11.5526 11.1712 11.6367 11.1623 11.7198L10.9236 13.9245C10.8453 14.6462 10.3279 15.3005 9.53627 15.4045C9.1396 15.4565 8.62294 15.4992 7.9986 15.4992C7.34194 15.4992 6.83227 15.4518 6.45794 15.3952C5.76894 15.2908 5.31527 14.7435 5.20027 14.1295C5.08794 13.5312 4.93327 12.6278 4.83494 11.7198Z" fill="#575757"/>
<path fill-rule="evenodd" clip-rule="evenodd" d="M1.83203 6.66667C1.83203 3.261 4.59303 0.5 7.9987 0.5C11.4044 0.5 14.1654 3.261 14.1654 6.66667C14.1654 8.62833 13.2487 10.376 11.8227 11.505C11.7667 11.7044 11.7083 11.9031 11.6474 12.101C11.4907 12.6123 11.0557 13.004 10.4967 13.0623C10.0124 13.1127 9.2117 13.1667 7.9987 13.1667C6.78536 13.1667 5.98503 13.1127 5.5007 13.0623C4.9417 13.004 4.50703 12.6123 4.35003 12.101C4.28912 11.9031 4.23067 11.7044 4.1747 11.505C2.7487 10.376 1.83203 8.62833 1.83203 6.66667Z" fill="#D9D9D9"/>
<path d="M7.9974 3.83464C8.66044 3.83464 9.29632 4.09803 9.76516 4.56687C10.234 5.03571 10.4974 5.67159 10.4974 6.33464C10.4974 6.55565 10.5852 6.76761 10.7415 6.92389C10.8978 7.08017 11.1097 7.16797 11.3307 7.16797C11.5517 7.16797 11.7637 7.08017 11.92 6.92389C12.0763 6.76761 12.1641 6.55565 12.1641 6.33464C12.1641 4.0333 10.2987 2.16797 7.9974 2.16797C7.77638 2.16797 7.56442 2.25577 7.40814 2.41205C7.25186 2.56833 7.16406 2.78029 7.16406 3.0013C7.16406 3.22232 7.25186 3.43428 7.40814 3.59056C7.56442 3.74684 7.77638 3.83464 7.9974 3.83464Z" fill="#575757"/>
</svg>
