<svg width="217" height="38" viewBox="0 0 217 38" fill="none" xmlns="http://www.w3.org/2000/svg">
<mask id="path-1-inside-1_8613_17742" fill="white">
<path d="M204 0C211.18 2.28711e-06 217 5.8203 217 13V17C217 22.7007 213.33 27.5432 208.225 29.2969L203.144 36.6289C202.348 37.776 200.652 37.776 199.856 36.6289L195.262 30H13C5.8203 30 0 24.1797 0 17V13C3.19684e-07 5.8203 5.8203 1.02679e-07 13 0H204Z"/>
</mask>
<path d="M204 0C211.18 2.28711e-06 217 5.8203 217 13V17C217 22.7007 213.33 27.5432 208.225 29.2969L203.144 36.6289C202.348 37.776 200.652 37.776 199.856 36.6289L195.262 30H13C5.8203 30 0 24.1797 0 17V13C3.19684e-07 5.8203 5.8203 1.02679e-07 13 0H204Z" fill="#FFF6DD"/>
<path d="M204 0V-1V-1V0ZM208.225 29.2969L207.9 28.3511L207.59 28.4577L207.403 28.7273L208.225 29.2969ZM203.144 36.6289L203.965 37.1987L203.965 37.1985L203.144 36.6289ZM199.856 36.6289L199.035 37.1986L199.035 37.1987L199.856 36.6289ZM195.262 30L196.084 29.4303L195.785 29H195.262V30ZM13 30V31V31V30ZM0 13H-1V13H0ZM13 0V-1V0ZM204 0V1C210.627 1 216 6.37258 216 13H217H218C218 5.26801 211.732 -0.999998 204 -1V0ZM217 13H216V17H217H218V13H217ZM217 17H216C216 22.2605 212.614 26.7319 207.9 28.3511L208.225 29.2969L208.549 30.2426C214.046 28.3545 218 23.1409 218 17H217ZM208.225 29.2969L207.403 28.7273L202.322 36.0593L203.144 36.6289L203.965 37.1985L209.047 29.8665L208.225 29.2969ZM203.144 36.6289L202.322 36.0591C201.924 36.6326 201.076 36.6326 200.678 36.0591L199.856 36.6289L199.035 37.1987C200.228 38.9194 202.772 38.9194 203.965 37.1987L203.144 36.6289ZM199.856 36.6289L200.678 36.0592L196.084 29.4303L195.262 30L194.44 30.5697L199.035 37.1986L199.856 36.6289ZM195.262 30V29H13V30V31H195.262V30ZM13 30V29C6.37258 29 1 23.6274 1 17H0H-1C-1 24.732 5.26802 31 13 31V30ZM0 17H1V13H0H-1V17H0ZM0 13H1C1 6.37258 6.37258 1 13 1V0V-1C5.26801 -1 -1 5.26801 -1 13H0ZM13 0V1H204V0V-1H13V0Z" fill="#F2E2B7" mask="url(#path-1-inside-1_8613_17742)"/>
</svg>
