<svg width="18" height="18" viewBox="0 0 18 18" fill="none" xmlns="http://www.w3.org/2000/svg">
<path fill-rule="evenodd" clip-rule="evenodd" d="M13.875 9.16016C13.875 8.96124 13.796 8.77048 13.6553 8.62983C13.5147 8.48917 13.3239 8.41016 13.125 8.41016H3.75C3.55109 8.41016 3.36032 8.48917 3.21967 8.62983C3.07902 8.77048 3 8.96124 3 9.16016C3 9.35907 3.07902 9.54983 3.21967 9.69049C3.36032 9.83114 3.55109 9.91016 3.75 9.91016H13.125C13.3239 9.91016 13.5147 9.83114 13.6553 9.69049C13.796 9.54983 13.875 9.35907 13.875 9.16016Z" fill="white"/>
<path fill-rule="evenodd" clip-rule="evenodd" d="M15.0004 9.16058C15.0004 8.96169 14.9213 8.77095 14.7807 8.63033L11.4057 5.25533C11.3365 5.1837 11.2537 5.12656 11.1622 5.08726C11.0707 5.04795 10.9723 5.02726 10.8727 5.0264C10.7731 5.02553 10.6744 5.04451 10.5822 5.08222C10.49 5.11993 10.4063 5.17562 10.3359 5.24604C10.2655 5.31646 10.2098 5.4002 10.1721 5.49237C10.1344 5.58454 10.1154 5.6833 10.1162 5.78288C10.1171 5.88247 10.1378 5.98088 10.1771 6.07239C10.2164 6.16389 10.2735 6.24665 10.3452 6.31583L13.1899 9.16058L10.3452 12.0053C10.2044 12.146 10.1253 12.3367 10.1253 12.5357C10.1252 12.7346 10.2042 12.9255 10.3448 13.0662C10.4854 13.2069 10.6762 13.286 10.8752 13.2861C11.0741 13.2862 11.2649 13.2072 11.4057 13.0666L14.7807 9.69158C14.8504 9.62187 14.9057 9.53908 14.9434 9.44797C14.9811 9.35685 15.0005 9.25919 15.0004 9.16058Z" fill="white"/>
</svg>
