<svg width="19" height="19" viewBox="0 0 19 19" fill="none" xmlns="http://www.w3.org/2000/svg">
<path fill-rule="evenodd" clip-rule="evenodd" d="M9.51462 1.09259C10.4152 1.04205 11.3178 1.04205 12.2184 1.09259C12.6491 1.11672 13.005 1.4473 13.0714 1.88767C13.1679 2.52349 13.1679 3.11105 13.0714 3.74808C13.0424 3.95853 12.9417 4.15254 12.7863 4.29738C12.6309 4.44223 12.4303 4.52903 12.2184 4.54316C11.591 4.57694 11.0058 4.589 10.4062 4.57694V6.50491C10.4062 6.7449 10.3109 6.97506 10.1412 7.14475C9.97149 7.31445 9.74133 7.40978 9.50134 7.40978C9.26136 7.40978 9.0312 7.31445 8.8615 7.14475C8.69181 6.97506 8.59647 6.7449 8.59647 6.50491V3.20395C8.59647 3.18223 8.59728 3.16132 8.59889 3.14121C8.57607 2.72192 8.5971 2.30139 8.66162 1.88646C8.69084 1.67623 8.79163 1.4825 8.947 1.33789C9.10237 1.19329 9.30283 1.10666 9.51462 1.09259ZM3.17811 10.2414H3.1564C2.20689 10.2776 1.37441 10.9665 1.24049 11.9438C1.11984 12.8269 1.05469 13.4229 1.05469 14.0286C1.05469 14.6355 1.11984 15.2315 1.24049 16.1146C1.3732 17.0919 2.20689 17.7796 3.1564 17.8158C7.73263 17.9883 11.2676 17.9883 15.8439 17.8158C16.7934 17.7796 17.6259 17.0919 17.7598 16.1146C17.8804 15.2315 17.9456 14.6355 17.9456 14.0286C17.9456 13.4229 17.8804 12.8269 17.7598 11.9438C17.6271 10.9665 16.7934 10.2788 15.8439 10.2426H3.17932" fill="#D9D9D9"/>
<path fill-rule="evenodd" clip-rule="evenodd" d="M14.0404 10.7366C14.0213 10.3556 13.9984 9.97469 13.9716 9.59408C13.8413 6.91204 11.596 5.62351 9.50637 5.6211C8.45189 5.61989 7.3757 5.93478 6.53598 6.59836C5.6842 7.26917 5.10267 8.27779 5.03873 9.58684C5.01129 9.98071 4.98796 10.3748 4.96875 10.7692L4.99529 17.3024C4.99589 17.4599 5.05807 17.6109 5.16854 17.7232C5.279 17.8354 5.429 17.9 5.58647 17.9032C8.65097 17.9611 10.3557 17.9563 13.4166 17.9032C13.5745 17.9007 13.7251 17.8363 13.8361 17.724C13.9471 17.6117 14.0096 17.4603 14.0102 17.3024L14.0416 10.7692L14.0404 10.7366Z" fill="#8A8A8A"/>
<path fill-rule="evenodd" clip-rule="evenodd" d="M10.702 17.9394V15.4311C10.702 15.1111 10.5749 14.8042 10.3487 14.578C10.1224 14.3517 9.81554 14.2246 9.49556 14.2246C9.17557 14.2246 8.8687 14.3517 8.64244 14.578C8.41617 14.8042 8.28906 15.1111 8.28906 15.4311V17.9406C9.10948 17.9466 9.88163 17.9466 10.702 17.9406" fill="#D9D9D9"/>
<path d="M9.50143 11.5331C10.352 11.5331 10.831 11.0384 10.831 10.1613C10.831 9.28418 10.352 8.78711 9.50143 8.78711C8.65085 8.78711 8.17188 9.28177 8.17188 10.1601C8.17188 11.0384 8.65085 11.5331 9.50143 11.5331Z" fill="#D9D9D9"/>
</svg>
