<svg width="64" height="64" viewBox="0 0 64 64" fill="none" xmlns="http://www.w3.org/2000/svg">
<path d="M49.2873 44.7121C45.6424 45.5874 41.8374 45.545 38.2129 44.5887C34.5884 43.6325 31.2577 41.7923 28.5189 39.233C25.7801 36.6736 23.7188 33.475 22.5196 29.9235C21.3204 26.372 21.0207 22.5786 21.6473 18.8828C21.5534 18.9764 21.4527 19.0629 21.346 19.1415C20.5993 19.7095 19.666 19.9201 17.7993 20.3415L16.106 20.7255C9.54599 22.2108 6.26599 22.9521 5.48466 25.4615C4.70599 27.9681 6.94066 30.5841 11.4127 35.8135L12.57 37.1655C13.8393 38.6508 14.4767 39.3948 14.762 40.3121C15.0473 41.2321 14.9513 42.2241 14.7593 44.2055L14.5833 46.0108C13.9087 52.9895 13.57 56.4775 15.6127 58.0268C17.6553 59.5761 20.7273 58.1655 26.866 55.3361L28.458 54.6055C30.202 53.8001 31.074 53.4001 31.9993 53.4001C32.9247 53.4001 33.7967 53.8001 35.5433 54.6055L37.13 55.3361C43.2713 58.1628 46.3433 59.5761 48.3833 58.0295C50.4287 56.4775 50.09 52.9895 49.4153 46.0108L49.2873 44.7121Z" fill="#F4BD28"/>
<path opacity="0.5" d="M24.4072 14.4215L23.5325 15.9895C22.5725 17.7122 22.0925 18.5735 21.3459 19.1415C21.4525 19.0615 21.553 18.9753 21.6472 18.8828C21.0204 22.5788 21.3201 26.3726 22.5195 29.9244C23.7188 33.4761 25.7804 36.675 28.5195 39.2344C31.2586 41.7938 34.5897 43.634 38.2146 44.5899C41.8394 45.5459 45.6448 45.5879 49.2899 44.7122L49.2365 44.2055C49.0472 42.2242 48.9512 41.2322 49.2365 40.3122C49.5219 39.3948 50.1565 38.6508 51.4285 37.1655L52.5859 35.8135C57.0579 30.5868 59.2925 27.9708 58.5112 25.4615C57.7325 22.9522 54.4525 22.2082 47.8925 20.7255L46.1965 20.3415C44.3325 19.9202 43.3992 19.7095 42.6499 19.1415C41.9032 18.5735 41.4232 17.7122 40.4632 15.9895L39.5912 14.4215C36.2125 8.36283 34.5245 5.3335 31.9992 5.3335C29.4739 5.3335 27.7859 8.36283 24.4072 14.4215Z" fill="#F4BD28"/>
</svg>
