<svg width="38" height="38" viewBox="0 0 38 38" fill="none" xmlns="http://www.w3.org/2000/svg">
<path d="M18.9998 9.49922C13.6026 9.49922 8.716 11.6367 5.12381 15.1161C4.36975 15.8464 3.16444 15.8286 2.44006 15.0745C1.71569 14.3205 1.72756 13.1152 2.48163 12.3908C6.75069 8.24641 12.5813 5.69922 18.9998 5.69922C25.4182 5.69922 31.2488 8.24641 35.5238 12.3908C36.2779 13.1211 36.2957 14.3264 35.5654 15.0745C34.8351 15.8227 33.6298 15.8464 32.8816 15.1161C29.2835 11.6367 24.3969 9.49922 18.9998 9.49922ZM16.1498 29.4492C16.1498 27.8758 17.4263 26.5992 18.9998 26.5992C20.5732 26.5992 21.8498 27.8758 21.8498 29.4492C21.8498 31.0227 20.5732 32.2992 18.9998 32.2992C17.4263 32.2992 16.1498 31.0227 16.1498 29.4492ZM11.8748 23.1673C11.1801 23.957 9.98069 24.0283 9.191 23.3336C8.40131 22.6389 8.33006 21.4395 9.02475 20.6498C11.4591 17.8948 15.0276 16.1492 18.9998 16.1492C22.9719 16.1492 26.5404 17.8948 28.9748 20.6498C29.6694 21.4395 29.5923 22.6389 28.8085 23.3336C28.0248 24.0283 26.8194 23.9511 26.1248 23.1673C24.3791 21.1902 21.8379 19.9492 18.9998 19.9492C16.1616 19.9492 13.6204 21.1902 11.8748 23.1673Z" fill="#B5B5B5"/>
</svg>
