<svg width="14" height="14" viewBox="0 0 14 14" fill="none" xmlns="http://www.w3.org/2000/svg">
<path d="M4.20135 1.48329C4.31071 1.59268 4.37215 1.74103 4.37215 1.89571C4.37215 2.05039 4.31071 2.19873 4.20135 2.30813L3.15544 3.35404H7.72644C8.64942 3.35404 9.55167 3.62774 10.3191 4.14052C11.0865 4.6533 11.6847 5.38213 12.0379 6.23485C12.3911 7.08757 12.4835 8.02589 12.3034 8.93113C12.1234 9.83637 11.6789 10.6679 11.0263 11.3205C10.3736 11.9732 9.5421 12.4176 8.63686 12.5977C7.73161 12.7778 6.7933 12.6854 5.94058 12.3321C5.08786 11.9789 4.35903 11.3808 3.84625 10.6134C3.33347 9.84594 3.05977 8.94369 3.05977 8.02071C3.05977 7.866 3.12123 7.71763 3.23063 7.60823C3.34002 7.49883 3.48839 7.43738 3.6431 7.43738C3.79781 7.43738 3.94619 7.49883 4.05558 7.60823C4.16498 7.71763 4.22644 7.866 4.22644 8.02071C4.22644 8.71294 4.43171 9.38963 4.81629 9.9652C5.20088 10.5408 5.7475 10.9894 6.38705 11.2543C7.02659 11.5192 7.73032 11.5885 8.40925 11.4535C9.08819 11.3184 9.71183 10.9851 10.2013 10.4956C10.6908 10.0061 11.0241 9.38246 11.1592 8.70352C11.2942 8.02459 11.2249 7.32086 10.96 6.68132C10.6951 6.04178 10.2465 5.49515 9.67093 5.11057C9.09536 4.72598 8.41867 4.52071 7.72644 4.52071H3.15544L4.20135 5.56663C4.30761 5.67664 4.36641 5.82399 4.36508 5.97694C4.36375 6.12989 4.3024 6.2762 4.19425 6.38435C4.08609 6.49251 3.93979 6.55386 3.78684 6.55518C3.63389 6.55651 3.48654 6.49772 3.37652 6.39146L1.33485 4.34979C1.2255 4.2404 1.16406 4.09205 1.16406 3.93738C1.16406 3.7827 1.2255 3.63435 1.33485 3.52496L3.37652 1.48329C3.48591 1.37393 3.63426 1.3125 3.78894 1.3125C3.94362 1.3125 4.09196 1.37393 4.20135 1.48329Z" fill="#A4A4A4"/>
</svg>
