<svg width="20" height="20" viewBox="0 0 20 20" fill="none" xmlns="http://www.w3.org/2000/svg">
<path opacity="0.5" d="M13.7307 2.50409C13.8699 2.51659 13.9307 2.68659 13.8307 2.78575L6.89736 9.71909C6.81903 9.79746 6.76295 9.89524 6.73485 10.0024L5.90152 13.1941C5.87401 13.2996 5.87457 13.4104 5.90313 13.5156C5.93169 13.6208 5.98727 13.7167 6.06435 13.7938C6.14143 13.8708 6.23732 13.9264 6.34252 13.955C6.44771 13.9835 6.55855 13.9841 6.66402 13.9566L9.85486 13.1233C9.96212 13.0949 10.0599 13.0385 10.1382 12.9599L17.1699 5.92825C17.1919 5.90567 17.2199 5.88986 17.2506 5.8827C17.2813 5.87554 17.3134 5.87732 17.3431 5.88784C17.3728 5.89836 17.3989 5.91718 17.4183 5.94206C17.4376 5.96695 17.4495 5.99686 17.4524 6.02825C17.7451 8.8196 17.7283 11.6348 17.4024 14.4224C17.2165 16.0099 15.9407 17.2558 14.359 17.4333C11.4621 17.7542 8.53849 17.7542 5.64152 17.4333C4.05902 17.2558 2.78319 16.0099 2.59735 14.4224C2.25401 11.4849 2.25401 8.51742 2.59735 5.57992C2.78319 3.99159 4.05902 2.74575 5.64152 2.56909C8.32862 2.27123 11.0392 2.24945 13.7307 2.50409Z" fill="#3A3A3A"/>
<path d="M14.8533 3.52996C14.8726 3.51055 14.8956 3.49516 14.9209 3.48466C14.9462 3.47416 14.9734 3.46875 15.0008 3.46875C15.0282 3.46875 15.0553 3.47416 15.0806 3.48466C15.1059 3.49516 15.1289 3.51055 15.1483 3.52996L16.3266 4.70912C16.3655 4.74817 16.3874 4.80106 16.3874 4.85621C16.3874 4.91135 16.3655 4.96424 16.3266 5.00329L9.41575 11.9158C9.38948 11.942 9.35668 11.9607 9.32075 11.97L7.72575 12.3866C7.6906 12.3958 7.65365 12.3956 7.61858 12.3861C7.58352 12.3766 7.55156 12.358 7.52586 12.3323C7.50017 12.3067 7.48164 12.2747 7.47212 12.2396C7.4626 12.2046 7.46242 12.1676 7.47159 12.1325L7.88825 10.5375C7.89753 10.5015 7.91623 10.4687 7.94242 10.4425L14.8533 3.52996Z" fill="#3A3A3A"/>
</svg>
