<svg width="26" height="26" viewBox="0 0 26 26" fill="none" xmlns="http://www.w3.org/2000/svg">
<circle cx="13" cy="13" r="13" fill="url(#paint0_linear_6908_1494)"/>
<g clip-path="url(#clip0_6908_1494)">
<path d="M16.5786 5.92067C16.2569 6.42062 15.9574 6.93449 15.6809 7.46079C15.43 7.93892 15.3955 8.51904 15.6524 9.02754C15.7046 9.13054 15.7659 9.22567 15.8361 9.31292C15.7576 9.46892 15.6839 9.61967 15.6149 9.76517C15.3936 10.2328 15.3726 10.7908 15.6243 11.2802C15.664 11.3577 15.709 11.4307 15.7592 11.4992H6.25488C6.19063 11.4992 6.1265 11.5017 6.0625 11.5067C6.75775 10.2617 7.7035 8.79054 8.62113 7.73792C9.16413 7.11504 10.0956 7.11504 10.6386 7.73792C10.7644 7.88242 10.8904 8.03392 11.0166 8.19242C11.8735 6.99429 12.8125 5.83442 13.7121 4.97004C13.9746 4.71496 14.3262 4.57227 14.6922 4.57227C15.0582 4.57227 15.4098 4.71496 15.6723 4.97004C15.9715 5.25729 16.2752 5.57754 16.5786 5.92067Z" fill="white" fill-opacity="0.6"/>
<path fill-rule="evenodd" clip-rule="evenodd" d="M6.25137 12.4375C5.345 12.4375 4.505 13.1931 4.649 14.2011C5.23212 18.2924 8.74887 21.4375 13.0014 21.4375C17.2539 21.4375 20.7706 18.2924 21.3541 14.2011C21.4977 13.1931 20.6581 12.4375 19.7514 12.4375H6.25137Z" fill="white" fill-opacity="0.6"/>
<path fill-rule="evenodd" clip-rule="evenodd" d="M13.2151 12.4375H19.7514C20.6581 12.4375 21.4977 13.1931 21.3541 14.2011C20.9019 17.371 18.689 19.9731 15.737 20.9841C15.0492 19.6754 15.7021 18.5954 16.2421 17.7029C16.5927 17.122 16.8961 16.621 16.7514 16.1875C16.5526 15.745 15.9901 15.5961 15.3676 15.4311C14.2539 15.1356 12.9485 14.7899 13.1889 12.625C13.1959 12.5625 13.2046 12.5 13.2151 12.4375ZM9.42762 12.4375C10.0812 13.2303 10.4169 14.128 10.0014 15.0625C9.67737 15.7915 9.04512 16.12 8.40162 16.4537C7.62087 16.8587 6.82287 17.2731 6.53712 18.4225C5.52519 17.2197 4.87102 15.7572 4.649 14.2011C4.505 13.1931 5.345 12.4375 6.25137 12.4375H9.42762Z" fill="white"/>
<path d="M18.5922 4.82961C18.7944 4.62711 19.1172 4.62711 19.3197 4.82961C20.0615 5.57286 20.8809 6.89473 21.4055 7.89561C21.5292 8.13186 21.5349 8.39173 21.4276 8.60436C21.3215 8.81436 21.1141 8.95986 20.8501 8.98948C21.0635 9.37541 21.2648 9.76785 21.4539 10.1662C21.5634 10.3969 21.5637 10.647 21.4587 10.8517C21.3522 11.0587 21.1475 11.2012 20.8861 11.2297C20.5674 11.2639 20.1256 11.2942 19.5185 11.3062V12.999C19.5185 13.1482 19.4592 13.2912 19.3537 13.3967C19.2483 13.5022 19.1052 13.5615 18.956 13.5615C18.8068 13.5615 18.6637 13.5022 18.5582 13.3967C18.4528 13.2912 18.3935 13.1482 18.3935 12.999V11.3062C17.786 11.2942 17.3439 11.2639 17.0255 11.2297C16.7645 11.2012 16.5594 11.0587 16.4532 10.8517C16.3482 10.647 16.3482 10.3969 16.4574 10.1662C16.6464 9.76785 16.8478 9.37541 17.0611 8.98948C16.7979 8.95986 16.5905 8.81436 16.4844 8.60436C16.3767 8.39173 16.3824 8.13186 16.5061 7.89561C17.0307 6.89473 17.8501 5.57286 18.5922 4.82961Z" fill="white"/>
</g>
<defs>
<linearGradient id="paint0_linear_6908_1494" x1="-7.46233e-08" y1="2.98851" x2="-6.4457" y2="27.5077" gradientUnits="userSpaceOnUse">
<stop stop-color="#C19A6B"/>
<stop offset="1" stop-color="#EED1AE"/>
</linearGradient>
<clipPath id="clip0_6908_1494">
<rect width="18" height="18" fill="white" transform="translate(4 4)"/>
</clipPath>
</defs>
</svg>
