<svg width="26" height="26" viewBox="0 0 26 26" fill="none" xmlns="http://www.w3.org/2000/svg">
<circle cx="13" cy="13" r="13" fill="url(#paint0_linear_6908_1539)"/>
<path fill-rule="evenodd" clip-rule="evenodd" d="M13.0147 5.0359C13.8678 4.98803 14.723 4.98803 15.5761 5.0359C15.9842 5.05876 16.3213 5.37194 16.3842 5.78914C16.4757 6.39149 16.4757 6.94813 16.3842 7.55163C16.3568 7.751 16.2614 7.93481 16.1142 8.07203C15.967 8.20925 15.7769 8.29149 15.5761 8.30487C14.9818 8.33687 14.4274 8.3483 13.8593 8.33687V10.1634C13.8593 10.3907 13.769 10.6088 13.6083 10.7695C13.4475 10.9303 13.2295 11.0206 13.0021 11.0206C12.7747 11.0206 12.5567 10.9303 12.3959 10.7695C12.2352 10.6088 12.1449 10.3907 12.1449 10.1634V7.03614C12.1449 7.01557 12.1456 6.99576 12.1471 6.97671C12.1255 6.57948 12.1454 6.18108 12.2066 5.78799C12.2343 5.58883 12.3297 5.40529 12.4769 5.2683C12.6241 5.13131 12.814 5.04924 13.0147 5.0359ZM7.01167 13.7032H6.99109C6.09156 13.7375 5.30289 14.3902 5.17602 15.316C5.06172 16.1527 5 16.7173 5 17.2911C5 17.866 5.06172 18.4306 5.17602 19.2673C5.30175 20.1931 6.09156 20.8446 6.99109 20.8789C11.3265 21.0424 14.6754 21.0424 19.0108 20.8789C19.9103 20.8446 20.699 20.1931 20.8259 19.2673C20.9402 18.4306 21.0019 17.866 21.0019 17.2911C21.0019 16.7173 20.9402 16.1527 20.8259 15.316C20.7002 14.3902 19.9103 13.7387 19.0108 13.7044H7.01281" fill="white" fill-opacity="0.6"/>
<path fill-rule="evenodd" clip-rule="evenodd" d="M17.2973 14.1705C17.2792 13.8095 17.2575 13.4487 17.2321 13.0881C17.1087 10.5472 14.9816 9.32651 13.0019 9.32422C12.0029 9.32308 10.9834 9.6214 10.1879 10.25C9.38092 10.8856 8.83 11.8411 8.76942 13.0812C8.74342 13.4544 8.72132 13.8278 8.70312 14.2014L8.72827 20.3907C8.72884 20.5399 8.78774 20.683 8.8924 20.7893C8.99705 20.8957 9.13915 20.9569 9.28834 20.9599C12.1915 21.0148 13.8066 21.0102 16.7064 20.9599C16.8559 20.9575 16.9986 20.8965 17.1038 20.7901C17.2089 20.6837 17.2681 20.5403 17.2687 20.3907L17.2984 14.2014L17.2973 14.1705Z" fill="white"/>
<path fill-rule="evenodd" clip-rule="evenodd" d="M14.1454 20.9958V18.6196C14.1454 18.3164 14.0249 18.0257 13.8106 17.8113C13.5962 17.597 13.3055 17.4766 13.0024 17.4766C12.6992 17.4766 12.4085 17.597 12.1941 17.8113C11.9798 18.0257 11.8594 18.3164 11.8594 18.6196V20.997C12.6366 21.0027 13.3681 21.0027 14.1454 20.997" fill="#ADEBD1"/>
<path d="M13.0018 14.9257C13.8076 14.9257 14.2613 14.457 14.2613 13.6261C14.2613 12.7951 13.8076 12.3242 13.0018 12.3242C12.196 12.3242 11.7422 12.7928 11.7422 13.6249C11.7422 14.457 12.196 14.9257 13.0018 14.9257Z" fill="#ADEBD1"/>
<defs>
<linearGradient id="paint0_linear_6908_1539" x1="-7.46233e-08" y1="2.98851" x2="-6.4457" y2="27.5077" gradientUnits="userSpaceOnUse">
<stop stop-color="#32CD8B"/>
<stop offset="1" stop-color="#AEFFDD"/>
</linearGradient>
</defs>
</svg>
