<svg width="73" height="73" viewBox="0 0 73 73" fill="none" xmlns="http://www.w3.org/2000/svg">
<path opacity="0.3" d="M36.5 12.167C57.5727 12.167 70.7431 34.9795 60.2067 53.2295C57.8041 57.3909 54.3485 60.8466 50.1871 63.2493C46.0257 65.6519 41.3052 66.9169 36.5 66.917C15.4273 66.917 2.25691 44.1045 12.7932 25.8545C15.1958 21.6931 18.6515 18.2374 22.8129 15.8347C26.9743 13.4321 31.6948 12.1671 36.5 12.167Z" fill="#F2B819"/>
<path d="M22.405 9.03638C22.8083 9.73499 22.9176 10.5652 22.7089 11.3444C22.5001 12.1236 21.9903 12.7879 21.2918 13.1913C18.1275 15.0266 15.3165 17.4122 12.9911 20.2358C12.7417 20.557 12.4304 20.8249 12.0757 21.0237C11.721 21.2225 11.33 21.3482 10.9259 21.3933C10.5217 21.4384 10.1127 21.402 9.72284 21.2863C9.33302 21.1705 8.97037 20.9778 8.65632 20.7195C8.34227 20.4612 8.08321 20.1425 7.89445 19.7823C7.70568 19.4222 7.59106 19.0278 7.55735 18.6226C7.52363 18.2173 7.57152 17.8095 7.69817 17.423C7.82482 17.0366 8.02767 16.6795 8.29472 16.3729C11.0767 12.9824 14.447 10.1211 18.244 7.92617C18.5899 7.72586 18.9718 7.59568 19.368 7.54307C19.7642 7.49046 20.1669 7.51645 20.5531 7.61955C20.9392 7.72266 21.3013 7.90086 21.6185 8.14397C21.9358 8.38708 22.202 8.69033 22.402 9.03638H22.405ZM54.7501 7.92617C58.5479 10.1199 61.9192 12.9802 64.7024 16.3698C65.1881 16.9953 65.4106 17.7856 65.3228 18.5726C65.235 19.3596 64.8437 20.0813 64.2321 20.5843C63.6206 21.0874 62.8369 21.3321 62.0477 21.2664C61.2586 21.2008 60.5261 20.8299 60.0061 20.2328C57.6851 17.4056 54.8732 15.0202 51.7054 13.1913C51.0072 12.7871 50.4981 12.1222 50.2902 11.3427C50.0823 10.5632 50.1925 9.73306 50.5967 9.03486C51.0009 8.33666 51.6658 7.82761 52.4453 7.61969C53.2248 7.41177 54.0519 7.52202 54.7501 7.92617ZM36.5001 24.3329C35.7551 24.333 35.036 24.6065 34.4793 25.1016C33.9226 25.5967 33.5669 26.2788 33.4797 27.0187L33.4584 27.3746V39.4987C33.4493 40.1739 33.6653 40.837 34.0728 41.3754L34.3466 41.6917L40.7523 48.0944C41.2985 48.6457 42.0346 48.9675 42.8102 48.9938C43.5857 49.0201 44.342 48.749 44.9242 48.236C45.5065 47.7229 45.8706 47.0068 45.9421 46.2341C46.0135 45.4614 45.787 44.6906 45.3088 44.0794L45.0533 43.7935L39.5418 38.282V27.3746C39.5418 26.5679 39.2213 25.7942 38.6509 25.2238C38.0805 24.6534 37.3068 24.3329 36.5001 24.3329Z" fill="#F2B819"/>
</svg>
