<svg width="18" height="18" viewBox="0 0 18 18" fill="none" xmlns="http://www.w3.org/2000/svg">
<g clip-path="url(#clip0_8816_16478)">
<path d="M9.00099 15.75C8.47599 15.75 8.03224 15.5687 7.66974 15.2062C7.30724 14.8438 7.12599 14.4 7.12599 13.875C7.12599 13.35 7.30724 12.9062 7.66974 12.5438C8.03224 12.1813 8.47599 12 9.00099 12C9.52599 12 9.96974 12.1813 10.3322 12.5438C10.6947 12.9062 10.876 13.35 10.876 13.875C10.876 14.4 10.6947 14.8438 10.3322 15.2062C9.96974 15.5687 9.52599 15.75 9.00099 15.75ZM9.00099 7.5C9.93849 7.5 10.8292 7.65 11.6732 7.95C12.5172 8.25 13.2827 8.6625 13.9697 9.1875C14.2197 9.375 14.348 9.622 14.3545 9.9285C14.361 10.235 14.2515 10.5005 14.026 10.725C13.8135 10.9375 13.551 11.047 13.2385 11.0535C12.926 11.06 12.6447 10.9755 12.3947 10.8C11.9197 10.475 11.3947 10.2188 10.8197 10.0312C10.2447 9.84375 9.63849 9.75 9.00099 9.75C8.36349 9.75 7.75724 9.84375 7.18224 10.0312C6.60724 10.2188 6.08224 10.475 5.60724 10.8C5.35724 10.975 5.07599 11.0563 4.76349 11.0438C4.45099 11.0312 4.18849 10.9187 3.97599 10.7062C3.76349 10.4812 3.65724 10.2158 3.65724 9.90975C3.65724 9.60375 3.78224 9.35675 4.03224 9.16875C4.71974 8.64375 5.48549 8.23425 6.32949 7.94025C7.17349 7.64625 8.06399 7.4995 9.00099 7.5ZM9.00099 3C10.5635 3 12.0355 3.25625 13.417 3.76875C14.7985 4.28125 16.039 5.00625 17.1385 5.94375C17.3885 6.15625 17.5197 6.41875 17.5322 6.73125C17.5447 7.04375 17.4385 7.3125 17.2135 7.5375C17.001 7.75 16.7385 7.8595 16.426 7.866C16.1135 7.8725 15.8322 7.7755 15.5822 7.575C14.6822 6.8375 13.673 6.26575 12.5545 5.85975C11.436 5.45375 10.2515 5.2505 9.00099 5.25C7.75049 5.2495 6.56624 5.45275 5.44824 5.85975C4.33024 6.26675 3.32074 6.8385 2.41974 7.575C2.16974 7.775 1.88849 7.872 1.57599 7.866C1.26349 7.86 1.00099 7.7505 0.788487 7.5375C0.563487 7.3125 0.457237 7.04375 0.469737 6.73125C0.482237 6.41875 0.613487 6.15625 0.863487 5.94375C1.96349 5.00625 3.20424 4.28125 4.58574 3.76875C5.96724 3.25625 7.43899 3 9.00099 3Z" fill="#686868"/>
</g>
<defs>
<clipPath id="clip0_8816_16478">
<rect width="18" height="18" fill="white"/>
</clipPath>
</defs>
</svg>
