<svg width="21" height="21" viewBox="0 0 21 21" fill="none" xmlns="http://www.w3.org/2000/svg">
<path fill-rule="evenodd" clip-rule="evenodd" d="M10.331 12.1579L14.8965 16.7234C15.1388 16.9656 15.4673 17.1017 15.8099 17.1017C16.1525 17.1017 16.4811 16.9656 16.7234 16.7234C16.9656 16.4811 17.1017 16.1526 17.1017 15.81C17.1017 15.4673 16.9656 15.1388 16.7234 14.8965L12.1562 10.3311L16.7225 5.76561C16.8424 5.64565 16.9375 5.50326 17.0024 5.34655C17.0672 5.18985 17.1006 5.0219 17.1006 4.8523C17.1005 4.6827 17.0671 4.51476 17.0021 4.35809C16.9372 4.20141 16.842 4.05906 16.7221 3.93917C16.6021 3.81927 16.4597 3.72417 16.303 3.65931C16.1463 3.59444 15.9784 3.56107 15.8088 3.56111C15.6392 3.56115 15.4712 3.5946 15.3146 3.65954C15.1579 3.72448 15.0155 3.81964 14.8956 3.9396L10.331 8.50505L5.76559 3.9396C5.64652 3.8162 5.50407 3.71776 5.34655 3.65C5.18903 3.58225 5.01959 3.54655 4.84813 3.54498C4.67666 3.54341 4.5066 3.576 4.34786 3.64086C4.18913 3.70571 4.0449 3.80153 3.92359 3.92273C3.80228 4.04392 3.70632 4.18806 3.64132 4.34673C3.57631 4.50541 3.54356 4.67544 3.54497 4.84691C3.54637 5.01838 3.58192 5.18785 3.64952 5.34543C3.71713 5.50302 3.81544 5.64556 3.93872 5.76475L8.5059 10.3311L3.93958 14.8974C3.8163 15.0166 3.71799 15.1591 3.65038 15.3167C3.58278 15.4743 3.54723 15.6437 3.54583 15.8152C3.54442 15.9867 3.57717 16.1567 3.64218 16.3154C3.70719 16.4741 3.80314 16.6182 3.92445 16.7394C4.04576 16.8606 4.18999 16.9564 4.34872 17.0213C4.50746 17.0861 4.67752 17.1187 4.84899 17.1171C5.02045 17.1156 5.18989 17.0799 5.34741 17.0121C5.50493 16.9444 5.64739 16.8459 5.76645 16.7225L10.331 12.1579Z" fill="#F46969"/>
</svg>
