<svg width="18" height="18" viewBox="0 0 18 18" fill="none" xmlns="http://www.w3.org/2000/svg">
<path fill-rule="evenodd" clip-rule="evenodd" d="M4.125 9.16016C4.125 8.96124 4.20402 8.77048 4.34467 8.62983C4.48532 8.48917 4.67609 8.41016 4.875 8.41016H14.25C14.4489 8.41016 14.6397 8.48917 14.7803 8.62983C14.921 8.77048 15 8.96124 15 9.16016C15 9.35907 14.921 9.54983 14.7803 9.69049C14.6397 9.83114 14.4489 9.91016 14.25 9.91016H4.875C4.67609 9.91016 4.48532 9.83114 4.34467 9.69049C4.20402 9.54983 4.125 9.35907 4.125 9.16016Z" fill="white"/>
<path fill-rule="evenodd" clip-rule="evenodd" d="M2.99957 9.16058C2.99962 8.96169 3.07866 8.77095 3.21932 8.63033L6.59432 5.25533C6.66351 5.1837 6.74627 5.12656 6.83777 5.08726C6.92927 5.04795 7.02769 5.02726 7.12727 5.0264C7.22686 5.02553 7.32562 5.04451 7.41779 5.08222C7.50996 5.11993 7.5937 5.17562 7.66412 5.24604C7.73454 5.31646 7.79023 5.4002 7.82794 5.49237C7.86565 5.58454 7.88463 5.6833 7.88376 5.78288C7.8829 5.88247 7.86221 5.98088 7.8229 6.07239C7.78359 6.16389 7.72646 6.24665 7.65482 6.31583L4.81007 9.16058L7.65482 12.0053C7.79555 12.146 7.87465 12.3367 7.87472 12.5357C7.87479 12.7346 7.79583 12.9255 7.6552 13.0662C7.51457 13.2069 7.32379 13.286 7.12484 13.2861C6.92589 13.2862 6.73505 13.2072 6.59432 13.0666L3.21932 9.69158C3.14958 9.62187 3.09428 9.53908 3.05657 9.44797C3.01886 9.35685 2.9995 9.25919 2.99957 9.16058Z" fill="white"/>
</svg>
