<svg width="73" height="73" viewBox="0 0 73 73" fill="none" xmlns="http://www.w3.org/2000/svg">
<g clip-path="url(#clip0_7434_2937)">
<path fill-rule="evenodd" clip-rule="evenodd" d="M36.5 0C46.1804 0 55.4643 3.84552 62.3094 10.6906C69.1545 17.5357 73 26.8196 73 36.5C73 46.1804 69.1545 55.4643 62.3094 62.3094C55.4643 69.1545 46.1804 73 36.5 73C26.8196 73 17.5357 69.1545 10.6906 62.3094C3.84552 55.4643 0 46.1804 0 36.5C0 26.8196 3.84552 17.5357 10.6906 10.6906C17.5357 3.84552 26.8196 0 36.5 0Z" fill="#F2B819" fill-opacity="0.4"/>
<path fill-rule="evenodd" clip-rule="evenodd" d="M23.902 20.4762C23.1865 20.4539 22.4737 20.5755 21.806 20.8339C21.1384 21.0923 20.5294 21.4822 20.0154 21.9805C19.5013 22.4787 19.0926 23.0752 18.8134 23.7345C18.5343 24.3937 18.3905 25.1024 18.3905 25.8183C18.3905 26.5342 18.5343 27.2428 18.8134 27.9021C19.0926 28.5613 19.5013 29.1578 20.0154 29.6561C20.5294 30.1543 21.1384 30.5442 21.806 30.8026C22.4737 31.061 23.1865 31.1827 23.902 31.1603H23.9177C25.3056 31.115 26.6213 30.5312 27.5863 29.5327C28.5513 28.5342 29.0898 27.1993 29.0878 25.8107C29.0857 24.4221 28.5433 23.0888 27.5754 22.0931C26.6075 21.0974 25.29 20.5175 23.902 20.4762ZM43.7528 25.8209C43.7528 24.7655 44.0656 23.7338 44.6516 22.8561C45.2376 21.9784 46.0706 21.294 47.0454 20.8894C48.0201 20.4848 49.0929 20.3782 50.1282 20.5829C51.1635 20.7877 52.1149 21.2947 52.8623 22.0398C53.6096 22.785 54.1194 23.7349 54.3272 24.7697C54.535 25.8044 54.4315 26.8775 54.0297 27.8534C53.628 28.8293 52.9461 29.6643 52.0701 30.2529C51.194 30.8414 50.1633 31.1572 49.1079 31.1603H49.0975C48.3956 31.161 47.7005 31.0234 47.0518 30.7555C46.4031 30.4875 45.8135 30.0944 45.3167 29.5986C44.8199 29.1028 44.4257 28.514 44.1564 27.8658C43.8872 27.2176 43.7535 26.5228 43.7528 25.8209ZM21.8476 40.4626C21.6201 39.6311 21.0724 38.9237 20.3245 38.4951C19.5766 38.0666 18.6893 37.9518 17.8569 38.1759C17.0245 38.4 16.3149 38.9448 15.8833 39.691C15.4516 40.4372 15.3332 41.324 15.554 42.1572C16.798 46.7633 19.5248 50.8312 23.3129 53.7319C27.1009 56.6326 31.7391 58.2045 36.5102 58.2045C41.2813 58.2045 45.9195 56.6326 49.7075 53.7319C53.4955 50.8312 56.2224 46.7633 57.4664 42.1572C57.6871 41.324 57.5687 40.4372 57.1371 39.691C56.7055 38.9448 55.9958 38.4 55.1635 38.1759C54.3311 37.9518 53.4438 38.0666 52.6959 38.4951C51.9479 38.9237 51.4003 39.6311 51.1728 40.4626C50.3015 43.6846 48.3932 46.5298 45.7429 48.5586C43.0926 50.5874 39.8479 51.6868 36.5102 51.6868C33.1725 51.6868 29.9277 50.5874 27.2774 48.5586C24.6271 46.5298 22.7189 43.6846 21.8476 40.4626Z" fill="#F2B819"/>
</g>
<defs>
<clipPath id="clip0_7434_2937">
<rect width="73" height="73" fill="white"/>
</clipPath>
</defs>
</svg>
