<svg width="63" height="63" viewBox="0 0 63 63" fill="none" xmlns="http://www.w3.org/2000/svg">
<path d="M31.1619 62.3264C48.18 62.3264 62.3251 48.2113 62.3251 31.1632C62.3251 14.1451 48.1487 0 31.1306 0C14.0838 0 0 14.1451 0 31.1632C0 48.2113 14.1138 62.3264 31.1619 62.3264ZM31.1632 57.1329C16.7405 57.1329 5.2208 45.5833 5.2208 31.1632C5.2208 16.7718 16.7092 5.19343 31.1306 5.19343C45.5207 5.19343 57.099 16.7731 57.1303 31.1632C57.1603 45.5846 45.5507 57.1329 31.1606 57.1329M31.1306 36.6929C32.5958 36.6929 33.421 35.8678 33.451 34.28L33.9098 18.1483C33.9411 16.5893 32.7183 15.4291 31.0993 15.4291C29.449 15.4291 28.2888 16.5593 28.3188 18.117L28.7164 34.28C28.7464 35.8378 29.6028 36.6929 31.1306 36.6929ZM31.1306 46.6222C32.8709 46.6222 34.4286 45.217 34.4286 43.4454C34.4286 41.6426 32.9021 40.2673 31.1306 40.2673C29.3278 40.2673 27.8299 41.6726 27.8299 43.4454C27.8299 45.187 29.3577 46.6222 31.1306 46.6222Z" fill="#F2B819"/>
</svg>
