<svg width="26" height="26" viewBox="0 0 26 26" fill="none" xmlns="http://www.w3.org/2000/svg">
<circle cx="13" cy="13" r="13" fill="url(#paint0_linear_6908_1497)"/>
<path d="M14.9922 13.5058L11.9922 14.0458L12.4922 11.0058L17.2222 6.2958C17.3152 6.20207 17.4258 6.12768 17.5476 6.07691C17.6695 6.02614 17.8002 6 17.9322 6C18.0642 6 18.1949 6.02614 18.3168 6.07691C18.4386 6.12768 18.5492 6.20207 18.6422 6.2958L19.7022 7.3558C19.7959 7.44876 19.8703 7.55936 19.9211 7.68122C19.9718 7.80308 19.998 7.93379 19.998 8.0658C19.998 8.19781 19.9718 8.32852 19.9211 8.45037C19.8703 8.57223 19.7959 8.68284 19.7022 8.7758L14.9922 13.5058Z" fill="white"/>
<path fill-rule="evenodd" clip-rule="evenodd" d="M15.212 14.736C15.4638 14.6907 15.6955 14.5692 15.876 14.388L19.996 10.25V17.5C19.996 17.8978 19.838 18.2794 19.5567 18.5607C19.2754 18.842 18.8939 19 18.496 19H10.558L7.60605 18.94C7.51912 18.9618 7.42793 18.9598 7.34202 18.9343C7.25612 18.9087 7.17865 18.8606 7.11772 18.7949C7.0568 18.7292 7.01005 18.5689 7.01005 18.5689C7.01005 18.5689 6.99609 18.5 7.01005 18.297L6.99604 16.419V7.5C6.99604 7.10218 7.15408 6.72064 7.43538 6.43934C7.71669 6.15804 8.09822 6 8.49604 6H15.746L11.608 10.12C11.4223 10.3052 11.2995 10.5441 11.257 10.803L10.757 13.843C10.7246 14.0405 10.74 14.2428 10.802 14.4331C10.864 14.6234 10.9708 14.796 11.1134 14.9364C11.2559 15.0768 11.4301 15.1809 11.6213 15.24C11.8125 15.2991 12.0151 15.3115 12.212 15.276L15.212 14.736Z" fill="white" fill-opacity="0.7"/>
<defs>
<linearGradient id="paint0_linear_6908_1497" x1="-7.46233e-08" y1="2.98851" x2="-6.4457" y2="27.5077" gradientUnits="userSpaceOnUse">
<stop stop-color="#FFD93D"/>
<stop offset="1" stop-color="#F3E8BC"/>
</linearGradient>
</defs>
</svg>
