<svg width="26" height="26" viewBox="0 0 26 26" fill="none" xmlns="http://www.w3.org/2000/svg">
<circle cx="13" cy="13" r="13" fill="url(#paint0_linear_6908_1488)"/>
<path d="M6.25 16V11.5C6.25 11.1022 6.40804 10.7206 6.68934 10.4393C6.97064 10.158 7.35218 10 7.75 10C8.14782 10 8.52936 10.158 8.81066 10.4393C9.09196 10.7206 9.25 11.1022 9.25 11.5V16M6.25 13.75H9.25M11.5 10V14.5M11.5 14.5C11.5 14.8978 11.658 15.2794 11.9393 15.5607C12.2206 15.842 12.6022 16 13 16C13.3978 16 13.7794 15.842 14.0607 15.5607C14.342 15.2794 14.5 14.8978 14.5 14.5V13.75C14.5 13.3522 14.342 12.9706 14.0607 12.6893C13.7794 12.408 13.3978 12.25 13 12.25C12.6022 12.25 12.2206 12.408 11.9393 12.6893C11.658 12.9706 11.5 13.3522 11.5 13.75V14.5ZM19.549 13C19.3839 12.7141 19.129 12.4906 18.824 12.3642C18.5189 12.2379 18.1807 12.2157 17.8618 12.3012C17.5428 12.3866 17.261 12.5749 17.06 12.8369C16.859 13.0989 16.75 13.4198 16.75 13.75V14.5C16.7501 14.8294 16.8586 15.1496 17.0587 15.4112C17.2589 15.6728 17.5396 15.8613 17.8576 15.9474C18.1755 16.0336 18.5129 16.0128 18.8178 15.8881C19.1227 15.7634 19.3781 15.5418 19.5445 15.2575" stroke="white" stroke-width="1.5" stroke-linecap="round" stroke-linejoin="round"/>
<defs>
<linearGradient id="paint0_linear_6908_1488" x1="-7.46233e-08" y1="2.98851" x2="-6.4457" y2="27.5077" gradientUnits="userSpaceOnUse">
<stop stop-color="#FF7272"/>
<stop offset="1" stop-color="#FFC8C8"/>
</linearGradient>
</defs>
</svg>
