<svg width="17" height="17" viewBox="0 0 17 17" fill="none" xmlns="http://www.w3.org/2000/svg">
<path d="M4.84666 11.7484C4.83763 11.665 4.8497 11.5806 4.88176 11.5031C4.91382 11.4255 4.96485 11.3572 5.03017 11.3045C5.09548 11.2518 5.17299 11.2163 5.25557 11.2014C5.33816 11.1864 5.42318 11.1924 5.50283 11.2189L5.50751 11.2202L5.53424 11.2286C5.55985 11.2364 5.59972 11.2474 5.65385 11.2617C5.76276 11.2901 5.92781 11.3291 6.14431 11.3686C6.57763 11.4471 7.21577 11.5273 8.01761 11.5273C8.81945 11.5273 9.45758 11.4471 9.89091 11.3682C10.0557 11.3389 10.2193 11.3033 10.3814 11.2617C10.4304 11.2489 10.4792 11.235 10.5277 11.2202L10.5324 11.2189H10.533C10.6127 11.1926 10.6976 11.1867 10.7801 11.2017C10.8626 11.2167 10.94 11.2522 11.0052 11.3049C11.0704 11.3576 11.1214 11.4258 11.1534 11.5033C11.1855 11.5808 11.1975 11.6651 11.1886 11.7484L10.9493 13.9582C10.8708 14.6815 10.3523 15.3373 9.55881 15.4416C9.16123 15.4937 8.64338 15.5365 8.01761 15.5365C7.35943 15.5365 6.84859 15.489 6.47339 15.4322C5.78281 15.3277 5.3281 14.7791 5.21283 14.1637C5.10024 13.5639 4.94522 12.6585 4.84666 11.7484Z" fill="#686868"/>
<path fill-rule="evenodd" clip-rule="evenodd" d="M1.83594 6.68281C1.83594 3.2693 4.60329 0.501953 8.01679 0.501953C11.4303 0.501953 14.1976 3.2693 14.1976 6.68281C14.1976 8.64899 13.2789 10.4007 11.8496 11.5323C11.7935 11.7321 11.7349 11.9313 11.6739 12.1296C11.5168 12.6422 11.0808 13.0347 10.5205 13.0932C10.0351 13.1436 9.23258 13.1978 8.01679 13.1978C6.80067 13.1978 5.99849 13.1436 5.51304 13.0932C4.95276 13.0347 4.51709 12.6422 4.35973 12.1296C4.29868 11.9313 4.2401 11.7321 4.18399 11.5323C2.75471 10.4007 1.83594 8.64899 1.83594 6.68281Z" fill="#D9D9D9"/>
<path d="M8.01494 3.84238C8.6795 3.84238 9.31685 4.10637 9.78677 4.57629C10.2567 5.04621 10.5207 5.68356 10.5207 6.34813C10.5207 6.56965 10.6087 6.7821 10.7653 6.93874C10.922 7.09538 11.1344 7.18338 11.3559 7.18338C11.5775 7.18338 11.7899 7.09538 11.9466 6.93874C12.1032 6.7821 12.1912 6.56965 12.1912 6.34813C12.1912 4.0415 10.3216 2.17188 8.01494 2.17188C7.79342 2.17188 7.58097 2.25987 7.42433 2.41651C7.26769 2.57315 7.17969 2.7856 7.17969 3.00713C7.17969 3.22865 7.26769 3.4411 7.42433 3.59774C7.58097 3.75438 7.79342 3.84238 8.01494 3.84238Z" fill="#686868"/>
</svg>
