<svg width="26" height="26" viewBox="0 0 26 26" fill="none" xmlns="http://www.w3.org/2000/svg">
<circle cx="13" cy="13" r="13" fill="#32CD8B"/>
<circle cx="13" cy="13" r="13" fill="url(#paint0_linear_6908_1543)"/>
<path d="M13 5.32261C10.8112 5.32261 9.24698 5.40934 8.22771 5.49675C7.1019 5.5927 6.25029 6.47266 6.168 7.59163C6.08605 8.70719 6 10.4787 6 13.0055C6 15.5324 6.08605 17.3035 6.168 18.4194C6.24995 19.5381 7.1019 20.418 8.22771 20.5143C9.24698 20.6014 10.8116 20.6885 13 20.6885C15.1884 20.6885 16.753 20.6014 17.7723 20.5143C18.8981 20.418 19.7497 19.5381 19.832 18.4194C19.914 17.3035 20 15.532 20 13.0055C20 10.479 19.914 8.70719 19.832 7.59163C19.75 6.47266 18.8981 5.5927 17.7723 5.49641C16.753 5.40934 15.1884 5.32227 13 5.32227" fill="white" fill-opacity="0.4"/>
<path fill-rule="evenodd" clip-rule="evenodd" d="M12.3157 8.21875C12.1346 8.21875 11.9609 8.2907 11.8328 8.41877C11.7048 8.54685 11.6328 8.72055 11.6328 8.90168C11.6328 9.0828 11.7048 9.25651 11.8328 9.38458C11.9609 9.51265 12.1346 9.5846 12.3157 9.5846H16.4133C16.5944 9.5846 16.7681 9.51265 16.8962 9.38458C17.0243 9.25651 17.0962 9.0828 17.0962 8.90168C17.0962 8.72055 17.0243 8.54685 16.8962 8.41877C16.7681 8.2907 16.5944 8.21875 16.4133 8.21875H12.3157ZM11.6328 11.9748C11.6328 11.7937 11.7048 11.62 11.8328 11.4919C11.9609 11.3639 12.1346 11.2919 12.3157 11.2919H14.3645C14.5456 11.2919 14.7193 11.3639 14.8474 11.4919C14.9755 11.62 15.0474 11.7937 15.0474 11.9748C15.0474 12.156 14.9755 12.3297 14.8474 12.4577C14.7193 12.5858 14.5456 12.6578 14.3645 12.6578H12.3157C12.1346 12.6578 11.9609 12.5858 11.8328 12.4577C11.7048 12.3297 11.6328 12.156 11.6328 11.9748Z" fill="white"/>
<path d="M9.58537 5.4043V20.6062C9.13234 20.583 8.67972 20.5522 8.22771 20.5141C7.1019 20.4181 6.25029 19.5381 6.168 18.4195C6.08605 17.3036 6 15.5321 6 13.0056C6 10.4791 6.08605 8.70727 6.168 7.59137C6.24995 6.47274 7.1019 5.59278 8.22771 5.49649C8.60434 5.46439 9.05576 5.4323 9.58537 5.4043Z" fill="white"/>
<defs>
<linearGradient id="paint0_linear_6908_1543" x1="-7.46233e-08" y1="2.98851" x2="-6.4457" y2="27.5077" gradientUnits="userSpaceOnUse">
<stop stop-color="#915B41"/>
<stop offset="1" stop-color="#D29F86"/>
</linearGradient>
</defs>
</svg>
