<svg width="19" height="19" viewBox="0 0 19 19" fill="none" xmlns="http://www.w3.org/2000/svg">
<path fill-rule="evenodd" clip-rule="evenodd" d="M5.62145 1.06717C6.70999 0.695083 8.05186 0.59375 9.50655 0.59375C10.9521 0.59375 12.2778 0.715271 13.3576 1.09883C14.4576 1.48952 15.3328 2.16521 15.7928 3.268C16.5005 4.96533 15.5129 6.42913 14.6235 7.45077C14.2079 7.92735 13.7527 8.36554 13.3303 8.83579C13.1684 9.0159 12.9159 9.25142 12.8597 9.5C12.9159 9.74858 13.1684 9.9841 13.3307 10.1642C13.7527 10.6345 14.2083 11.0723 14.6235 11.5492C15.5129 12.5709 16.5005 14.0347 15.7928 15.7316C15.3328 16.8348 14.4576 17.5105 13.3576 17.9012C12.2778 18.2851 10.9521 18.4062 9.50615 18.4062C8.05147 18.4062 6.70999 18.3049 5.62145 17.9328C4.50718 17.552 3.62328 16.8728 3.17797 15.7245C2.5288 14.0517 3.51838 12.5934 4.39832 11.5702C4.80999 11.0916 5.26005 10.6499 5.67607 10.1757C5.83599 9.9936 6.0917 9.75056 6.14197 9.5C6.0917 9.24944 5.83599 9.0064 5.67607 8.82431C5.26005 8.3501 4.80959 7.90835 4.39832 7.42979C3.51878 6.40696 2.5288 4.94831 3.17797 3.27552C3.62328 2.1276 4.50718 1.44796 5.62145 1.06717Z" fill="#F2B819" fill-opacity="0.4"/>
<path fill-rule="evenodd" clip-rule="evenodd" d="M9.50005 4.75C11.119 4.75 12.265 4.98671 12.9988 5.21788C12.9801 5.24353 12.9605 5.26861 12.9402 5.29308C11.9851 6.46396 10.5811 7.91667 9.50005 7.91667C8.41903 7.91667 7.01501 6.46356 6.05987 5.29348C6.03958 5.26887 6.02005 5.24366 6.00128 5.21788C6.73476 4.98671 7.8811 4.75 9.50005 4.75ZM6.8638 15.5543C7.53118 15.711 8.4036 15.8333 9.50005 15.8333C10.5965 15.8333 11.4689 15.711 12.1363 15.5543C13.1164 15.3239 13.3586 14.1491 12.6707 13.3554C11.7563 12.2985 10.4885 11.0833 9.50005 11.0833C8.51166 11.0833 7.2442 12.2989 6.32943 13.3554C5.64147 14.1491 5.88372 15.3239 6.8638 15.5543Z" fill="#F2B819"/>
</svg>
