<svg width="64" height="64" viewBox="0 0 64 64" fill="none" xmlns="http://www.w3.org/2000/svg">
<path opacity="0.99" d="M27.5024 42.918C27.1518 42.9182 26.8046 42.8494 26.4806 42.7153C26.1567 42.5812 25.8623 42.3846 25.6144 42.1366L18.1158 34.6353C17.63 34.1323 17.3612 33.4587 17.3673 32.7596C17.3734 32.0604 17.6538 31.3915 18.1482 30.8971C18.6427 30.4027 19.3115 30.1222 20.0107 30.1162C20.7099 30.1101 21.3835 30.3789 21.8864 30.8646L27.4998 36.4806L42.1158 21.8673C42.6206 21.3932 43.2901 21.1341 43.9826 21.1449C44.6751 21.1556 45.3363 21.4354 45.8262 21.9249C46.3161 22.4145 46.5963 23.0754 46.6075 23.7679C46.6188 24.4604 46.3602 25.1301 45.8864 25.6353L29.3851 42.1366C28.8851 42.6368 28.2096 42.9178 27.5024 42.918Z" fill="white"/>
<path d="M32.0026 5.33398C26.7284 5.33398 21.5727 6.89796 17.1874 9.82813C12.8021 12.7583 9.38417 16.9231 7.36583 21.7958C5.34749 26.6685 4.8194 32.0302 5.84834 37.2031C6.87728 42.3759 9.41704 47.1274 13.1464 50.8568C16.8758 54.5862 21.6274 57.126 26.8002 58.1549C31.973 59.1839 37.3348 58.6558 42.2075 56.6374C47.0802 54.6191 51.245 51.2012 54.1751 46.8159C57.1053 42.4305 58.6693 37.2748 58.6693 32.0007C58.6622 24.9304 55.8504 18.1517 50.851 13.1523C45.8516 8.15283 39.0729 5.34104 32.0026 5.33398ZM45.888 25.6353L29.3866 42.1367C28.8865 42.6366 28.2084 42.9174 27.5013 42.9174C26.7942 42.9174 26.116 42.6366 25.6159 42.1367L18.1173 34.6353C17.6315 34.1324 17.3627 33.4588 17.3688 32.7596C17.3749 32.0604 17.6553 31.3916 18.1498 30.8971C18.6442 30.4027 19.313 30.1223 20.0122 30.1162C20.7114 30.1101 21.385 30.3789 21.8879 30.8647L27.5013 36.4807L42.1173 21.8673C42.6222 21.3932 43.2917 21.1341 43.9842 21.1449C44.6767 21.1556 45.3378 21.4354 45.8277 21.9249C46.3176 22.4145 46.5978 23.0754 46.6091 23.7679C46.6203 24.4604 46.3617 25.1301 45.888 25.6353Z" fill="#F4BD28"/>
</svg>
