<svg width="30" height="30" viewBox="0 0 30 30" fill="none" xmlns="http://www.w3.org/2000/svg">
<path d="M15 0.9375C10.7381 0.9375 7.82812 1.15937 6.02875 1.36937C4.22375 1.58 2.8475 2.94813 2.64125 4.76C2.4225 6.68313 2.1875 9.93188 2.1875 15C2.1875 20.0681 2.42312 23.3169 2.64125 25.24C2.8475 27.0519 4.22375 28.42 6.02875 28.6306C7.82875 28.8406 10.7381 29.0625 15 29.0625C19.2619 29.0625 22.1719 28.8406 23.9713 28.6306C25.7763 28.42 27.1525 27.0519 27.3587 25.24C27.5769 23.3169 27.8125 20.0688 27.8125 15C27.8125 13.1019 27.7794 11.4587 27.7269 10.0456C27.7233 9.94898 27.7047 9.85347 27.6719 9.7625C27.385 8.96813 26.5094 7.15375 23.97 4.67813C21.2756 2.05063 19.35 1.25313 18.6337 1.03C18.5529 1.00484 18.469 0.990757 18.3844 0.988125C17.3669 0.956875 16.2406 0.9375 15 0.9375Z" fill="#915B41" fill-opacity="0.2"/>
<path fill-rule="evenodd" clip-rule="evenodd" d="M7.03125 23.75C7.03125 24.3544 7.52125 24.8438 8.125 24.8438H21.875C22.1651 24.8438 22.4433 24.7285 22.6484 24.5234C22.8535 24.3183 22.9688 24.0401 22.9688 23.75C22.9688 23.4599 22.8535 23.1817 22.6484 22.9766C22.4433 22.7715 22.1651 22.6562 21.875 22.6562H8.125C7.83492 22.6562 7.55672 22.7715 7.3516 22.9766C7.14648 23.1817 7.03125 23.4599 7.03125 23.75ZM7.03125 19.375C7.03125 18.7712 7.52125 18.2812 8.125 18.2812H21.875C22.1651 18.2812 22.4433 18.3965 22.6484 18.6016C22.8535 18.8067 22.9688 19.0849 22.9688 19.375C22.9688 19.6651 22.8535 19.9433 22.6484 20.1484C22.4433 20.3535 22.1651 20.4688 21.875 20.4688H8.125C7.83492 20.4688 7.55672 20.3535 7.3516 20.1484C7.14648 19.9433 7.03125 19.6651 7.03125 19.375Z" fill="#915B41"/>
<path d="M20.7278 6.72658C19.5301 6.68988 18.332 6.78229 17.1541 7.0022C16.0128 7.21845 15.7147 8.58095 16.4591 9.32533L17.1616 10.0285L17.1197 10.0653C16.9322 10.2297 16.6703 10.466 16.3666 10.7572C15.7751 11.3202 15.2139 11.9142 14.6853 12.5366C14.4241 11.7366 14.0959 10.8335 13.7409 10.1135C13.2991 9.21845 12.1803 8.79345 11.2372 9.3722C10.3403 9.92345 8.8897 11.126 7.2097 13.6935C7.0509 13.9362 6.99504 14.2321 7.0544 14.516C7.11377 14.8 7.2835 15.0487 7.52626 15.2075C7.76901 15.3663 8.06491 15.4222 8.34885 15.3628C8.63279 15.3034 8.88152 15.1337 9.04032 14.891C10.2784 12.9985 11.3191 12.011 11.9778 11.5141C12.2809 12.2185 12.5716 13.0828 12.7997 13.8291C13.0297 14.581 13.6747 14.9722 14.2559 15.0622C14.8341 15.1516 15.5428 14.9791 16.0016 14.3872C16.6109 13.6022 17.3166 12.8747 17.8778 12.3378C18.1496 12.078 18.4278 11.825 18.7122 11.5791L19.4247 12.291C20.1684 13.0347 21.5309 12.7366 21.7472 11.5953C22.0366 10.0685 22.0472 8.73283 22.0228 8.02158C22.0122 7.6815 21.8723 7.35826 21.6317 7.11767C21.3911 6.87708 21.0679 6.73722 20.7278 6.72658Z" fill="#915B41"/>
</svg>
