<svg width="20" height="20" viewBox="0 0 20 20" fill="none" xmlns="http://www.w3.org/2000/svg">
<path opacity="0.5" d="M9.99935 18.3327C6.07102 18.3327 4.10685 18.3327 2.88602 17.1118C1.66602 15.8927 1.66602 13.9277 1.66602 9.99935C1.66602 6.07102 1.66602 4.10685 2.88602 2.88602C4.10768 1.66602 6.07102 1.66602 9.99935 1.66602C13.9277 1.66602 15.8918 1.66602 17.1118 2.88602C18.3327 4.10768 18.3327 6.07102 18.3327 9.99935C18.3327 13.9277 18.3327 15.8918 17.1118 17.1118C15.8927 18.3327 13.9277 18.3327 9.99935 18.3327Z" fill="#3A3A3A"/>
<path d="M10 6.875C10.1658 6.875 10.3247 6.94085 10.4419 7.05806C10.5592 7.17527 10.625 7.33424 10.625 7.5V9.375H12.5C12.6658 9.375 12.8247 9.44085 12.9419 9.55806C13.0592 9.67527 13.125 9.83424 13.125 10C13.125 10.1658 13.0592 10.3247 12.9419 10.4419C12.8247 10.5592 12.6658 10.625 12.5 10.625H10.625V12.5C10.625 12.6658 10.5592 12.8247 10.4419 12.9419C10.3247 13.0592 10.1658 13.125 10 13.125C9.83424 13.125 9.67527 13.0592 9.55806 12.9419C9.44085 12.8247 9.375 12.6658 9.375 12.5V10.625H7.5C7.33424 10.625 7.17527 10.5592 7.05806 10.4419C6.94085 10.3247 6.875 10.1658 6.875 10C6.875 9.83424 6.94085 9.67527 7.05806 9.55806C7.17527 9.44085 7.33424 9.375 7.5 9.375H9.375V7.5C9.375 7.33424 9.44085 7.17527 9.55806 7.05806C9.67527 6.94085 9.83424 6.875 10 6.875Z" fill="#3A3A3A"/>
</svg>
