<svg width="40" height="40" viewBox="0 0 40 40" fill="none" xmlns="http://www.w3.org/2000/svg">
<path d="M15.2552 9.01309C17.3669 5.22637 18.4219 3.33301 20.0003 3.33301C21.5787 3.33301 22.6337 5.22637 24.7454 9.01309L25.292 9.9931C25.8921 11.0698 26.1921 11.6081 26.6587 11.9631C27.1254 12.3181 27.7087 12.4498 28.8754 12.7131L29.9354 12.9531C34.0355 13.8815 36.0839 14.3448 36.5722 15.9132C37.0589 17.4799 35.6622 19.1149 32.8671 22.3833L32.1438 23.2283C31.3505 24.1566 30.9521 24.6216 30.7738 25.195C30.5955 25.77 30.6555 26.39 30.7755 27.6284L30.8855 28.7567C31.3071 33.1184 31.5188 35.2985 30.2421 36.2668C28.9654 37.2352 27.0454 36.3518 23.2087 34.5851L22.2137 34.1284C21.1236 33.6251 20.5786 33.3751 20.0003 33.3751C19.422 33.3751 18.877 33.6251 17.7869 34.1284L16.7936 34.5851C12.9552 36.3518 11.0352 37.2352 9.76016 36.2685C8.48181 35.2985 8.69348 33.1184 9.11515 28.7567L9.22515 27.63C9.34515 26.39 9.40515 25.77 9.22515 25.1966C9.04848 24.6216 8.65014 24.1566 7.8568 23.23L7.13345 22.3833C4.33841 19.1166 2.94173 17.4815 3.4284 15.9132C3.91507 14.3448 5.96677 13.8798 10.0668 12.9531L11.1268 12.7131C12.2919 12.4498 12.8735 12.3181 13.3419 11.9631C13.8102 11.6081 14.1086 11.0698 14.7086 9.9931L15.2552 9.01309Z" fill="#F2B819"/>
</svg>
