<svg width="20" height="20" viewBox="0 0 20 20" fill="none" xmlns="http://www.w3.org/2000/svg">
<g clip-path="url(#clip0_7434_3182)">
<path d="M17.0463 2.95341L19.1413 3.37216C19.2538 3.39466 19.3463 3.47716 19.3788 3.58841C19.3952 3.64245 19.3966 3.69993 19.383 3.75474C19.3693 3.80954 19.3411 3.85963 19.3013 3.89966L17.585 5.61716C17.3794 5.82166 17.1013 5.93667 16.8113 5.93716H15.3875L11.8125 9.51341C11.8807 9.77094 11.8932 10.04 11.8493 10.3028C11.8053 10.5656 11.7059 10.8159 11.5576 11.0372C11.4093 11.2585 11.2155 11.4457 10.9892 11.5863C10.7629 11.7268 10.5092 11.8175 10.2451 11.8524C9.98099 11.8872 9.71248 11.8653 9.45747 11.7882C9.20246 11.7112 8.96681 11.5806 8.7662 11.4053C8.5656 11.23 8.40465 11.014 8.29409 10.7716C8.18353 10.5292 8.12588 10.2661 8.125 9.99966C8.12494 9.71194 8.19109 9.42807 8.31834 9.17002C8.44559 8.91196 8.63052 8.68666 8.85881 8.51154C9.0871 8.33643 9.35263 8.2162 9.63484 8.16016C9.91705 8.10413 10.2084 8.1138 10.4863 8.18841L14.0625 4.61091V3.18966C14.0625 2.89966 14.1775 2.62091 14.3825 2.41591L16.1 0.698411C16.14 0.658572 16.1901 0.630327 16.2449 0.616681C16.2997 0.603034 16.3572 0.604496 16.4113 0.620911C16.5225 0.653411 16.605 0.74591 16.6275 0.85841L17.0463 2.95341Z" fill="#19B5F5"/>
<path d="M2.50378 9.99999C2.50506 11.0724 2.73633 12.1321 3.18199 13.1076C3.62764 14.0831 4.27732 14.9516 5.08718 15.6547C5.89705 16.3577 6.84828 16.8789 7.8767 17.1831C8.90511 17.4872 9.9868 17.5673 11.0488 17.4179C12.1108 17.2684 13.1284 16.893 14.0329 16.3168C14.9375 15.7407 15.7079 14.9772 16.2924 14.078C16.8768 13.1788 17.2615 12.1647 17.4207 11.1041C17.5799 10.0435 17.5097 8.96116 17.215 7.92999C17.1736 7.80952 17.1572 7.68189 17.1667 7.55487C17.1763 7.42785 17.2115 7.30409 17.2704 7.19114C17.3293 7.07818 17.4106 6.97839 17.5092 6.89784C17.6079 6.81729 17.7219 6.75766 17.8444 6.72259C17.9669 6.68752 18.0952 6.67773 18.2215 6.69383C18.3479 6.70993 18.4696 6.75158 18.5794 6.81624C18.6891 6.8809 18.7846 6.96721 18.8599 7.06994C18.9352 7.17266 18.9889 7.28963 19.0175 7.41374C19.5882 9.41065 19.4798 11.5405 18.7093 13.4692C17.9389 15.3978 16.55 17.0161 14.7605 18.0703C12.9711 19.1244 10.8823 19.5546 8.82196 19.2935C6.7616 19.0324 4.8462 18.0947 3.37628 16.6275C1.90795 15.1579 0.969245 13.2424 0.707531 11.1815C0.445817 9.12067 0.875917 7.03126 1.9303 5.24133C2.98469 3.45141 4.60366 2.06232 6.53302 1.29217C8.46238 0.522017 10.5929 0.414411 12.59 0.986244C12.8278 1.05576 13.0284 1.21658 13.148 1.43356C13.2676 1.65054 13.2965 1.90604 13.2282 2.14421C13.16 2.38239 13.0003 2.58388 12.784 2.70466C12.5677 2.82543 12.3123 2.85566 12.0738 2.78874C10.957 2.46805 9.78097 2.41123 8.63846 2.62274C7.49596 2.83426 6.41823 3.30834 5.49027 4.00758C4.56231 4.70682 3.8095 5.61211 3.29122 6.65203C2.77295 7.69196 2.50338 8.83808 2.50378 9.99999Z" fill="#19B5F5" fill-opacity="0.5"/>
<path d="M6.2506 9.99968C6.25067 10.6829 6.43728 11.3532 6.7903 11.9381C7.14332 12.5231 7.64935 13.0006 8.25381 13.3191C8.85827 13.6376 9.53821 13.785 10.2203 13.7455C10.9024 13.7059 11.5607 13.4809 12.1243 13.0947C12.6878 12.7075 13.1348 12.1736 13.4168 11.5508C13.6988 10.9279 13.8051 10.2398 13.7243 9.56093C13.7025 9.39618 13.725 9.22858 13.7894 9.0754C13.8539 8.92221 13.958 8.78898 14.091 8.6894C14.2241 8.58983 14.3813 8.52752 14.5464 8.5089C14.7116 8.49027 14.8787 8.516 15.0306 8.58343C15.1825 8.64998 15.314 8.75562 15.4117 8.88957C15.5094 9.02352 15.5698 9.18099 15.5868 9.34593C15.7227 10.5061 15.494 11.6797 14.9325 12.7039C14.371 13.7282 13.5046 14.5522 12.4535 15.0617C11.4024 15.5712 10.2188 15.7408 9.06697 15.5471C7.9151 15.3533 6.85211 14.8058 6.02555 13.9805C5.19899 13.1552 4.64985 12.093 4.45435 10.9415C4.25885 9.7899 4.42669 8.60603 4.93458 7.55417C5.44246 6.50232 6.2652 5.63467 7.28859 5.07163C8.31198 4.5086 9.48527 4.27812 10.6456 4.41218C10.7698 4.4237 10.8905 4.45992 11.0006 4.5187C11.1107 4.57747 11.2079 4.65763 11.2866 4.75447C11.3653 4.85131 11.4238 4.96288 11.4588 5.08265C11.4938 5.20242 11.5046 5.32797 11.4904 5.45194C11.4763 5.57591 11.4375 5.69582 11.3765 5.80462C11.3154 5.91342 11.2332 6.00894 11.1347 6.08556C11.0362 6.16219 10.9234 6.21839 10.803 6.25086C10.6825 6.28333 10.5567 6.29143 10.4331 6.27468C9.90767 6.21367 9.37528 6.26451 8.87089 6.42386C8.36651 6.58321 7.90154 6.84747 7.50653 7.19927C7.11152 7.55107 6.79541 7.98246 6.57895 8.4651C6.3625 8.94774 6.25059 9.47072 6.2506 9.99968Z" fill="#19B5F5"/>
</g>
<defs>
<clipPath id="clip0_7434_3182">
<rect width="20" height="20" fill="white"/>
</clipPath>
</defs>
</svg>
