<svg width="23" height="26" viewBox="0 0 23 26" fill="none" xmlns="http://www.w3.org/2000/svg">
<path opacity="0.5" d="M13.3021 25.7339C17.5314 24.897 23 21.89 23 14.1154C23 7.04128 17.7601 2.32968 13.9921 0.165072C13.1546 -0.31625 12.1765 0.316153 12.1765 1.27211V3.71615C12.1765 5.64411 11.3566 9.16311 9.07824 10.6271C7.91471 11.3745 6.65647 10.2554 6.51576 8.8917L6.39941 7.77129C6.26412 6.46905 4.922 5.67888 3.86941 6.47306C1.97665 7.89697 0 10.3972 0 14.114C0 23.6215 7.1557 26 10.7329 26C10.9421 26 11.1604 25.9933 11.3877 25.9799C11.9911 25.9051 11.3877 26.1123 13.3021 25.7326" fill="#1FBDFF"/>
<path d="M7 21.4083C7 24.8048 9.71414 25.8548 11.3933 26C11.9667 25.9274 11.3933 26.1283 13.2126 25.7602C14.5484 25.2844 16 24.0633 16 21.4083C16 19.727 14.947 18.6886 14.1229 18.2024C13.8709 18.0534 13.5777 18.2413 13.5559 18.5343C13.4839 19.4651 12.5967 20.2066 11.9937 19.4988C11.4601 18.874 11.2351 17.96 11.2351 17.3754V16.6105C11.2351 16.1516 10.7761 15.8457 10.3827 16.0816C8.92214 16.9541 7 18.7508 7 21.4083Z" fill="#1FBDFF"/>
</svg>
