<svg width="64" height="64" viewBox="0 0 64 64" fill="none" xmlns="http://www.w3.org/2000/svg">
<g clip-path="url(#clip0_8613_17894)">
<path fill-rule="evenodd" clip-rule="evenodd" d="M15.1173 3.29102C11.32 3.9493 7.55922 4.83311 3.83503 5.94244C2.7351 6.27221 1.7705 6.94722 1.08389 7.86763C0.397285 8.78805 0.0251273 9.905 0.0224609 11.0533V17.8967C0.0224609 22.8842 1.63618 27.7756 4.66246 31.4739C7.0396 34.3904 10.1893 36.4156 13.7047 37.1562C13.9372 37.1987 14.1725 37.2232 14.4087 37.2293H15.3367C14.3878 34.9485 13.8671 32.5124 13.8007 30.043C12.2978 29.4146 10.9795 28.4141 9.96989 27.1356C8.04989 24.7813 6.8796 21.467 6.8796 17.8967V12.1962C9.34818 11.4952 11.835 10.8994 14.3402 10.4087C14.5108 8.38511 14.7181 6.42244 14.9619 4.52073L15.1173 3.29102ZM49.6408 10.4042C49.4762 8.44417 49.2766 6.48728 49.0419 4.53444L48.891 3.29102C52.6884 3.95235 56.4461 4.83616 60.1642 5.94244C62.427 6.61444 63.9767 8.69444 63.9767 11.0533V17.8967C63.9767 22.8842 62.363 27.7756 59.3413 31.4739C56.9459 34.4042 53.7779 36.4384 50.2396 37.1653C50.0102 37.2074 49.7779 37.2318 49.5448 37.2384H48.6853C49.6156 34.9514 50.1266 32.5156 50.1939 30.0476C51.5653 29.499 52.891 28.5299 54.0339 27.1356C55.9539 24.7813 57.1196 21.467 57.1196 17.8967V12.1962C54.6529 11.4942 52.1577 10.8963 49.6408 10.4042ZM27.4053 48.3333C28.8636 48.7447 30.3996 48.9733 31.9996 48.9733C33.5905 48.9733 35.1082 48.7584 36.5482 48.3699V57.1287H42.971C43.8803 57.1287 44.7524 57.49 45.3954 58.1329C46.0384 58.7759 46.3996 59.648 46.3996 60.5573C46.3996 61.4666 46.0384 62.3387 45.3954 62.9817C44.7524 63.6247 43.8803 63.9859 42.971 63.9859H20.9825C20.0731 63.9859 19.2011 63.6247 18.5581 62.9817C17.9151 62.3387 17.5539 61.4666 17.5539 60.5573C17.5539 59.648 17.9151 58.7759 18.5581 58.1329C19.2011 57.49 20.0731 57.1287 20.9825 57.1287H27.4007L27.4053 48.3333Z" fill="#F2B819"/>
<path fill-rule="evenodd" clip-rule="evenodd" d="M32 1.12891C26.7931 1.12891 21.6091 1.42605 16.704 2.58719L15.1634 2.95291L14.9623 4.52091C13.9072 13.0414 13.5205 21.6315 13.8057 30.2123C14.1165 39.9678 21.824 48.9689 32 48.9689C42.3405 48.9689 49.8468 40.0958 50.1851 30.1986C50.2461 28.5011 50.2765 26.7853 50.2765 25.0512C50.2765 18.0249 49.8057 10.8798 49.0423 4.53462L48.8457 2.93462L47.2685 2.57805C42.2948 1.47176 37.2297 1.12891 32 1.12891Z" fill="#F2B819" fill-opacity="0.4"/>
</g>
<defs>
<clipPath id="clip0_8613_17894">
<rect width="64" height="64" fill="white"/>
</clipPath>
</defs>
</svg>
