<svg width="26" height="26" viewBox="0 0 26 26" fill="none" xmlns="http://www.w3.org/2000/svg">
<circle cx="13" cy="13" r="13" fill="#1E95D4"/>
<circle cx="13" cy="13" r="13" fill="url(#paint0_linear_6908_1473)"/>
<path d="M8.21636 11.0312V9.90625H7.09136C6.86758 9.90625 6.65297 9.81736 6.49474 9.65912C6.3365 9.50089 6.24761 9.28628 6.24761 9.0625C6.24761 8.83872 6.3365 8.62411 6.49474 8.46588C6.65297 8.30764 6.86758 8.21875 7.09136 8.21875H8.21636V7.09375C8.21636 6.86997 8.30525 6.65536 8.46349 6.49713C8.62172 6.33889 8.83633 6.25 9.06011 6.25C9.28389 6.25 9.4985 6.33889 9.65673 6.49713C9.81496 6.65536 9.90386 6.86997 9.90386 7.09375V8.21875H11.0289C11.2526 8.21875 11.4672 8.30764 11.6255 8.46588C11.7837 8.62411 11.8726 8.83872 11.8726 9.0625C11.8726 9.28628 11.7837 9.50089 11.6255 9.65912C11.4672 9.81736 11.2526 9.90625 11.0289 9.90625H9.90386V11.0312C9.90386 11.255 9.81496 11.4696 9.65673 11.6279C9.4985 11.7861 9.28389 11.875 9.06011 11.875C8.83633 11.875 8.62172 11.7861 8.46349 11.6279C8.30525 11.4696 8.21636 11.255 8.21636 11.0312ZM14.9664 8.21875C14.7426 8.21875 14.528 8.30764 14.3697 8.46588C14.2115 8.62411 14.1226 8.83872 14.1226 9.0625C14.1226 9.28628 14.2115 9.50089 14.3697 9.65912C14.528 9.81736 14.7426 9.90625 14.9664 9.90625H18.9039C19.1276 9.90625 19.3422 9.81736 19.5005 9.65912C19.6587 9.50089 19.7476 9.28628 19.7476 9.0625C19.7476 8.83872 19.6587 8.62411 19.5005 8.46588C19.3422 8.30764 19.1276 8.21875 18.9039 8.21875H14.9664ZM6.49511 18.31C6.41221 18.3872 6.34572 18.4804 6.29961 18.5839C6.25349 18.6874 6.22869 18.7991 6.22669 18.9124C6.22469 19.0257 6.24554 19.1382 6.28797 19.2433C6.33041 19.3484 6.39357 19.4438 6.47369 19.5239C6.55381 19.604 6.64925 19.6672 6.75431 19.7096C6.85937 19.7521 6.97191 19.7729 7.0852 19.7709C7.19849 19.7689 7.31022 19.7441 7.41371 19.698C7.51721 19.6519 7.61036 19.5854 7.68761 19.5025L9.06011 18.13L10.4326 19.5025C10.5926 19.6515 10.8041 19.7327 11.0227 19.7288C11.2413 19.725 11.4498 19.6364 11.6044 19.4818C11.759 19.3272 11.8476 19.1187 11.8514 18.9001C11.8553 18.6815 11.7741 18.4699 11.6251 18.31L10.2526 16.9375L11.6251 15.565C11.708 15.4878 11.7745 15.3946 11.8206 15.2911C11.8667 15.1876 11.8915 15.0759 11.8935 14.9626C11.8955 14.8493 11.8747 14.7368 11.8322 14.6317C11.7898 14.5266 11.7266 14.4312 11.6465 14.3511C11.5664 14.271 11.471 14.2078 11.3659 14.1654C11.2608 14.1229 11.1483 14.1021 11.035 14.1041C10.9217 14.1061 10.81 14.1309 10.7065 14.177C10.603 14.2231 10.5099 14.2896 10.4326 14.3725L9.06011 15.745L7.68761 14.3725C7.52766 14.2235 7.31611 14.1423 7.09752 14.1462C6.87893 14.15 6.67037 14.2386 6.51578 14.3932C6.3612 14.5478 6.27264 14.7563 6.26879 14.9749C6.26493 15.1935 6.34607 15.4051 6.49511 15.565L7.86761 16.9375L6.49511 18.31ZM16.9351 15.25C17.2335 15.25 17.5196 15.1315 17.7306 14.9205C17.9416 14.7095 18.0601 14.4234 18.0601 14.125C18.0601 13.8266 17.9416 13.5405 17.7306 13.3295C17.5196 13.1185 17.2335 13 16.9351 13C16.6367 13 16.3506 13.1185 16.1396 13.3295C15.9286 13.5405 15.8101 13.8266 15.8101 14.125C15.8101 14.4234 15.9286 14.7095 16.1396 14.9205C16.3506 15.1315 16.6367 15.25 16.9351 15.25ZM14.6851 15.5312C14.4613 15.5312 14.2467 15.6201 14.0885 15.7784C13.9303 15.9366 13.8414 16.1512 13.8414 16.375C13.8414 16.5988 13.9303 16.8134 14.0885 16.9716C14.2467 17.1299 14.4613 17.2188 14.6851 17.2188H19.1851C19.4089 17.2188 19.6235 17.1299 19.7817 16.9716C19.94 16.8134 20.0289 16.5988 20.0289 16.375C20.0289 16.1512 19.94 15.9366 19.7817 15.7784C19.6235 15.6201 19.4089 15.5312 19.1851 15.5312H14.6851ZM18.0601 18.625C18.0601 18.9234 17.9416 19.2095 17.7306 19.4205C17.5196 19.6315 17.2335 19.75 16.9351 19.75C16.6367 19.75 16.3506 19.6315 16.1396 19.4205C15.9286 19.2095 15.8101 18.9234 15.8101 18.625C15.8101 18.3266 15.9286 18.0405 16.1396 17.8295C16.3506 17.6185 16.6367 17.5 16.9351 17.5C17.2335 17.5 17.5196 17.6185 17.7306 17.8295C17.9416 18.0405 18.0601 18.3266 18.0601 18.625Z" fill="white"/>
<defs>
<linearGradient id="paint0_linear_6908_1473" x1="-7.46233e-08" y1="2.98851" x2="-6.4457" y2="27.5077" gradientUnits="userSpaceOnUse">
<stop stop-color="#1E95D4"/>
<stop offset="1" stop-color="#A5D3EB"/>
</linearGradient>
</defs>
</svg>
