<svg width="30" height="30" viewBox="0 0 30 30" fill="none" xmlns="http://www.w3.org/2000/svg">
<path opacity="0.99" d="M12.8915 20.1174C12.7272 20.1176 12.5644 20.0853 12.4125 20.0224C12.2607 19.9596 12.1227 19.8674 12.0065 19.7512L8.49152 16.2349C8.26382 15.9992 8.13782 15.6834 8.14067 15.3557C8.14352 15.0279 8.27498 14.7144 8.50674 14.4827C8.7385 14.2509 9.05202 14.1194 9.37976 14.1166C9.70751 14.1137 10.0233 14.2397 10.259 14.4674L12.8903 17.0999L19.7415 10.2499C19.9782 10.0277 20.292 9.90624 20.6166 9.91128C20.9412 9.91633 21.2511 10.0475 21.4808 10.2769C21.7104 10.5064 21.8418 10.8162 21.847 11.1408C21.8523 11.4654 21.7311 11.7794 21.509 12.0162L13.774 19.7512C13.5396 19.9856 13.223 20.1174 12.8915 20.1174Z" fill="#915B41"/>
<path opacity="0.5" d="M15 2.5C12.5277 2.5 10.111 3.23311 8.05538 4.60663C5.99976 5.98015 4.39761 7.93238 3.45151 10.2165C2.50542 12.5005 2.25787 15.0139 2.74019 17.4386C3.2225 19.8634 4.41301 22.0907 6.16117 23.8388C7.90933 25.587 10.1366 26.7775 12.5614 27.2598C14.9861 27.7421 17.4995 27.4946 19.7836 26.5485C22.0676 25.6024 24.0199 24.0002 25.3934 21.9446C26.7669 19.889 27.5 17.4723 27.5 15C27.4967 11.6858 26.1787 8.50831 23.8352 6.16482C21.4917 3.82133 18.3142 2.50331 15 2.5ZM21.5088 12.0162L13.7738 19.7512C13.5393 19.9856 13.2215 20.1172 12.89 20.1172C12.5586 20.1172 12.2407 19.9856 12.0063 19.7512L8.49126 16.235C8.26356 15.9992 8.13756 15.6835 8.14041 15.3557C8.14326 15.028 8.27472 14.7145 8.50648 14.4827C8.73824 14.251 9.05176 14.1195 9.3795 14.1167C9.70725 14.1138 10.023 14.2398 10.2588 14.4675L12.89 17.1L19.7413 10.25C19.9779 10.0278 20.2917 9.90632 20.6164 9.91136C20.941 9.9164 21.2509 10.0475 21.4805 10.277C21.7102 10.5065 21.8415 10.8163 21.8468 11.1409C21.852 11.4655 21.7308 11.7794 21.5088 12.0162Z" fill="#915B41"/>
</svg>
