<svg width="203" height="59" viewBox="0 0 203 59" fill="none" xmlns="http://www.w3.org/2000/svg">
<mask id="path-1-inside-1_7893_2788" fill="white">
<path d="M190 0C197.18 0 203 5.8203 203 13V38C203 45.1797 197.18 51 190 51H180.738L176.144 57.6289C175.348 58.776 173.652 58.776 172.856 57.6289L168.262 51H13C5.8203 51 4.02673e-07 45.1797 0 38V13C0 5.8203 5.8203 2.63257e-07 13 0H190Z"/>
</mask>
<path d="M190 0C197.18 0 203 5.8203 203 13V38C203 45.1797 197.18 51 190 51H180.738L176.144 57.6289C175.348 58.776 173.652 58.776 172.856 57.6289L168.262 51H13C5.8203 51 4.02673e-07 45.1797 0 38V13C0 5.8203 5.8203 2.63257e-07 13 0H190Z" fill="white"/>
<path d="M203 13H204H203ZM180.738 51V50H180.215L179.916 50.4303L180.738 51ZM176.144 57.6289L176.965 58.1987L176.965 58.1986L176.144 57.6289ZM172.856 57.6289L172.035 58.1986L172.035 58.1987L172.856 57.6289ZM168.262 51L169.084 50.4303L168.785 50H168.262V51ZM13 51V52V51ZM0 38H-1H0ZM13 0V-1V0ZM190 0V1C196.627 1 202 6.37258 202 13H203H204C204 5.26801 197.732 -1 190 -1V0ZM203 13H202V38H203H204V13H203ZM203 38H202C202 44.6274 196.627 50 190 50V51V52C197.732 52 204 45.732 204 38H203ZM190 51V50H180.738V51V52H190V51ZM180.738 51L179.916 50.4303L175.322 57.0592L176.144 57.6289L176.965 58.1986L181.56 51.5697L180.738 51ZM176.144 57.6289L175.322 57.0591C174.924 57.6326 174.076 57.6326 173.678 57.0591L172.856 57.6289L172.035 58.1987C173.228 59.9194 175.772 59.9194 176.965 58.1987L176.144 57.6289ZM172.856 57.6289L173.678 57.0592L169.084 50.4303L168.262 51L167.44 51.5697L172.035 58.1986L172.856 57.6289ZM168.262 51V50H13V51V52H168.262V51ZM13 51V50C6.37258 50 1 44.6274 1 38H0H-1C-1 45.732 5.26801 52 13 52V51ZM0 38H1V13H0H-1V38H0ZM0 13H1C1 6.37258 6.37258 1 13 1V0V-1C5.26801 -1 -1 5.26801 -1 13H0ZM13 0V1H190V0V-1H13V0Z" fill="#E6E6E6" mask="url(#path-1-inside-1_7893_2788)"/>
</svg>
