<svg width="40" height="40" viewBox="0 0 40 40" fill="none" xmlns="http://www.w3.org/2000/svg">
<path opacity="0.5" d="M12.3341 7.50004C11.6641 8.66005 11.6641 10.2167 11.6641 13.3335V20.0452C12.3807 20.0002 13.1874 20.0002 14.0558 20.0002H25.9393C26.8059 20.0002 27.6143 20.0002 28.331 20.0452V13.3335C28.331 10.2167 28.331 8.66005 27.661 7.50004C27.2221 6.73999 26.591 6.10884 25.8309 5.67001C24.6709 5 23.1142 5 19.9975 5C16.8808 5 15.3241 5 14.1641 5.67001C13.4041 6.10884 12.7729 6.73999 12.3341 7.50004Z" fill="#915B41"/>
<path d="M10.4191 26.6518C9.58241 26.6184 9.07574 26.5051 8.72907 26.1268C8.23406 25.5867 8.29906 24.8367 8.42906 23.335C8.52073 22.2517 8.73073 21.5217 9.20741 20.9767C10.0608 20 11.4324 20 14.1775 20H25.8276C28.5727 20 29.9444 20 30.7977 20.9767C31.2744 21.52 31.4844 22.25 31.5777 23.335C31.7061 24.8351 31.7711 25.5867 31.2761 26.1268C30.9294 26.5051 30.4227 26.6184 29.586 26.6518V35.0002C29.586 35.3317 29.4543 35.6497 29.2199 35.8841C28.9855 36.1185 28.6675 36.2502 28.336 36.2502C28.0045 36.2502 27.6865 36.1185 27.4521 35.8841C27.2177 35.6497 27.086 35.3317 27.086 35.0002V26.6668H12.9191V35.0002C12.9191 35.3317 12.7874 35.6497 12.553 35.8841C12.3186 36.1185 12.0006 36.2502 11.6691 36.2502C11.3376 36.2502 11.0196 36.1185 10.7852 35.8841C10.5508 35.6497 10.4191 35.3317 10.4191 35.0002V26.6518Z" fill="#915B41"/>
</svg>
