<svg width="15" height="17" viewBox="0 0 15 17" fill="none" xmlns="http://www.w3.org/2000/svg">
<path opacity="0.5" d="M8.57704 16.7907C11.304 16.2446 14.8301 14.2827 14.8301 9.2099C14.8301 4.59425 11.4515 1.52006 9.02194 0.107705C8.48195 -0.206344 7.85124 0.206282 7.85124 0.830019V2.42469C7.85124 3.68263 7.32259 5.97868 5.85353 6.93392C5.1033 7.42157 4.29201 6.6914 4.20128 5.8016L4.12626 5.07056C4.03903 4.22088 3.17364 3.70532 2.49495 4.2235C1.27452 5.15256 0 6.78387 0 9.20903C0 15.4124 4.61391 16.9643 6.92043 16.9643C7.05535 16.9643 7.19609 16.9599 7.34265 16.9512C7.73172 16.9024 7.34265 17.0376 8.57704 16.7898" fill="#FF0000"/>
<path d="M4.36719 13.8621C4.36719 16.1477 6.20874 16.8543 7.34804 16.952C7.73711 16.9032 7.34804 17.0384 8.58243 16.7906C9.48881 16.4705 10.4737 15.6487 10.4737 13.8621C10.4737 12.7307 9.75924 12.0319 9.20006 11.7048C9.02908 11.6044 8.83018 11.7309 8.81535 11.9281C8.7665 12.5544 8.16457 13.0534 7.75543 12.5771C7.3934 12.1566 7.24074 11.5416 7.24074 11.1482V10.6335C7.24074 10.3247 6.92931 10.1188 6.66237 10.2776C5.67136 10.8647 4.36719 12.0738 4.36719 13.8621Z" fill="#FF0000"/>
</svg>
