<svg width="22" height="22" viewBox="0 0 22 22" fill="none" xmlns="http://www.w3.org/2000/svg">
<path opacity="0.3" d="M10.5286 3.4248C17.2223 3.4248 21.4059 10.6817 18.059 16.4873C17.2959 17.8111 16.1982 18.9104 14.8763 19.6747C13.5545 20.439 12.055 20.8414 10.5286 20.8415C3.83495 20.8415 -0.348603 13.5845 2.99824 7.77897C3.76142 6.45517 4.8591 5.35587 6.18096 4.59156C7.50282 3.82724 9.00228 3.42484 10.5286 3.4248Z" fill="#1FBDFF"/>
<path d="M6.53353 2.06103C6.66147 2.27718 6.69615 2.53404 6.62992 2.77512C6.56369 3.01619 6.402 3.22174 6.18039 3.34654C5.17665 3.91435 4.28495 4.65245 3.54729 5.52606C3.46818 5.62544 3.36944 5.70833 3.25692 5.76984C3.1444 5.83136 3.02037 5.87024 2.89218 5.88419C2.76398 5.89814 2.63422 5.88688 2.51056 5.85108C2.38691 5.81527 2.27187 5.75564 2.17224 5.67572C2.07262 5.5958 1.99044 5.4972 1.93057 5.38577C1.87069 5.27433 1.83433 5.15232 1.82363 5.02694C1.81294 4.90156 1.82813 4.77537 1.86831 4.65581C1.90848 4.53626 1.97283 4.42578 2.05754 4.3309C2.94004 3.28192 4.00915 2.39665 5.2136 1.71754C5.32331 1.65556 5.44447 1.61529 5.57016 1.59901C5.69584 1.58273 5.82358 1.59077 5.94607 1.62267C6.06856 1.65457 6.18341 1.70971 6.28405 1.78492C6.38468 1.86014 6.46913 1.95396 6.53257 2.06103H6.53353ZM16.7939 1.71754C17.9986 2.39627 19.068 3.28123 19.9509 4.32996C20.1049 4.52348 20.1756 4.76797 20.1477 5.01146C20.1198 5.25496 19.9957 5.47826 19.8017 5.6339C19.6077 5.78954 19.3591 5.86524 19.1088 5.84493C18.8585 5.82462 18.6261 5.70989 18.4611 5.52512C17.7249 4.65041 16.8329 3.9124 15.828 3.34654C15.6066 3.22149 15.4451 3.01576 15.3791 2.77459C15.3132 2.53342 15.3481 2.27658 15.4763 2.06056C15.6046 1.84454 15.8155 1.68704 16.0628 1.62272C16.31 1.55839 16.5724 1.5925 16.7939 1.71754ZM11.0047 6.79369C10.7684 6.79372 10.5403 6.87834 10.3637 7.03151C10.1871 7.18468 10.0742 7.39574 10.0466 7.62466L10.0398 7.73476V11.4859C10.0369 11.6948 10.1054 11.9 10.2347 12.0665L10.3216 12.1644L12.3536 14.1454C12.5268 14.3159 12.7603 14.4155 13.0064 14.4236C13.2524 14.4318 13.4923 14.3479 13.677 14.1891C13.8616 14.0304 13.9772 13.8088 13.9998 13.5698C14.0225 13.3307 13.9506 13.0922 13.7989 12.9031L13.7179 12.8147L11.9696 11.1095V7.73476C11.9696 7.48517 11.8679 7.24581 11.687 7.06932C11.506 6.89284 11.2606 6.79369 11.0047 6.79369Z" fill="#1FBDFF"/>
</svg>
