<svg width="26" height="26" viewBox="0 0 26 26" fill="none" xmlns="http://www.w3.org/2000/svg">
<circle cx="13" cy="13" r="13" fill="url(#paint0_linear_6908_1485)"/>
<g clip-path="url(#clip0_6908_1485)">
<path d="M19.2222 7.55556H13.7778V6.77778C13.7778 6.5715 13.6958 6.37367 13.55 6.22781C13.4041 6.08194 13.2063 6 13 6C12.7937 6 12.5959 6.08194 12.45 6.22781C12.3042 6.37367 12.2222 6.5715 12.2222 6.77778V7.55556H6.77778C6.5715 7.55556 6.37367 7.6375 6.22781 7.78336C6.08194 7.92922 6 8.12705 6 8.33333C6 8.53961 6.08194 8.73744 6.22781 8.8833C6.37367 9.02917 6.5715 9.11111 6.77778 9.11111H16.0193C15.6694 11.4423 14.5977 13.6053 12.9549 15.296C11.8158 14.1286 10.9454 12.7265 10.4046 11.1878C10.3365 10.9929 10.1938 10.8331 10.0079 10.7435C9.822 10.6539 9.60811 10.6418 9.41328 10.7098C9.21845 10.7779 9.05864 10.9206 8.96901 11.1065C8.87937 11.2924 8.86726 11.5063 8.93533 11.7011C9.54464 13.4338 10.521 15.0145 11.7976 16.3351C10.4815 17.3732 8.94793 18.1004 7.31133 18.4623C7.12392 18.5032 6.95824 18.612 6.84611 18.7676C6.73399 18.9232 6.68334 19.1148 6.70388 19.3055C6.72443 19.4963 6.81473 19.6727 6.95744 19.8008C7.10014 19.929 7.28518 20 7.477 20C7.53322 20.0001 7.58929 19.9941 7.64422 19.9821C9.59378 19.552 11.4142 18.6675 12.9572 17.4007C14.5043 18.6662 16.3272 19.5505 18.2788 19.9821C18.4794 20.0237 18.6884 19.9845 18.8603 19.8729C19.0321 19.7613 19.153 19.5864 19.1967 19.3862C19.2403 19.186 19.2032 18.9767 19.0934 18.8037C18.9835 18.6307 18.8099 18.508 18.6101 18.4623C16.9685 18.1007 15.4294 17.3742 14.1068 16.3367C16.0086 14.3619 17.2271 11.8295 17.5834 9.11111H19.2222C19.4285 9.11111 19.6263 9.02917 19.7722 8.8833C19.9181 8.73744 20 8.53961 20 8.33333C20 8.12705 19.9181 7.92922 19.7722 7.78336C19.6263 7.6375 19.4285 7.55556 19.2222 7.55556Z" fill="white"/>
</g>
<defs>
<linearGradient id="paint0_linear_6908_1485" x1="-7.46233e-08" y1="2.98851" x2="-6.4457" y2="27.5077" gradientUnits="userSpaceOnUse">
<stop stop-color="#E88CDC"/>
<stop offset="1" stop-color="#EEC6E9"/>
</linearGradient>
<clipPath id="clip0_6908_1485">
<rect width="14" height="14" fill="white" transform="translate(6 6)"/>
</clipPath>
</defs>
</svg>
