<svg width="38" height="38" viewBox="0 0 38 38" fill="none" xmlns="http://www.w3.org/2000/svg">
<path d="M26.9171 33.25V25.3333M26.9171 25.3333C28.4767 25.3333 29.2557 25.3333 29.7275 24.8203C30.1978 24.3073 30.136 23.5933 30.0141 22.1683C29.9254 21.1375 29.7243 20.444 29.2715 19.9278C28.4608 19 27.1546 19 24.5421 19H13.4588C10.8463 19 9.54 19 8.72934 19.9278C8.2765 20.4456 8.07542 21.1391 7.98834 22.1683C7.86484 23.5948 7.8015 24.3073 8.27334 24.8203C8.74517 25.3333 9.52417 25.3333 11.0838 25.3333M26.9171 25.3333H25.3338M11.0838 33.25V25.3333M11.0838 25.3333H19.0004" stroke="#DEDEDE" stroke-width="2.375" stroke-linecap="round"/>
<path d="M11.084 12.6667C11.084 9.70583 11.084 8.227 11.7205 7.125C12.1374 6.40297 12.737 5.80338 13.459 5.3865C14.561 4.75 16.0398 4.75 19.0007 4.75C21.9615 4.75 23.4403 4.75 24.5423 5.3865C25.2643 5.80338 25.8639 6.40297 26.2808 7.125C26.9173 8.227 26.9173 9.70583 26.9173 12.6667V19H11.084V12.6667Z" stroke="#DEDEDE" stroke-width="2.375"/>
</svg>
