<svg width="64" height="64" viewBox="0 0 64 64" fill="none" xmlns="http://www.w3.org/2000/svg">
<path opacity="0.5" d="M19.739 12C18.667 13.856 18.667 16.3467 18.667 21.3333V32.072C19.8137 32 21.1043 32 22.4937 32H41.507C42.8937 32 44.187 32 45.3337 32.072V21.3333C45.3337 16.3467 45.3337 13.856 44.2617 12C43.5595 10.7839 42.5497 9.77412 41.3337 9.072C39.4777 8 36.987 8 32.0003 8C27.0137 8 24.523 8 22.667 9.072C21.4509 9.77412 20.4411 10.7839 19.739 12Z" fill="#B5B5B5"/>
<path d="M16.667 42.6427C15.3283 42.5893 14.5176 42.408 13.963 41.8027C13.171 40.9387 13.275 39.7387 13.483 37.336C13.6296 35.6027 13.9656 34.4347 14.7283 33.5627C16.0936 32 18.2883 32 22.6803 32H41.3203C45.7123 32 47.907 32 49.2723 33.5627C50.035 34.432 50.371 35.6 50.5203 37.336C50.7257 39.736 50.8297 40.9387 50.0377 41.8027C49.483 42.408 48.6723 42.5893 47.3336 42.6427V56C47.3336 56.5304 47.1229 57.0391 46.7479 57.4142C46.3728 57.7893 45.8641 58 45.3336 58C44.8032 58 44.2945 57.7893 43.9194 57.4142C43.5444 57.0391 43.3336 56.5304 43.3336 56V42.6667H20.667V56C20.667 56.5304 20.4563 57.0391 20.0812 57.4142C19.7061 57.7893 19.1974 58 18.667 58C18.1365 58 17.6278 57.7893 17.2528 57.4142C16.8777 57.0391 16.667 56.5304 16.667 56V42.6427Z" fill="#B5B5B5"/>
</svg>
