<svg width="20" height="20" viewBox="0 0 20 20" fill="none" xmlns="http://www.w3.org/2000/svg">
<rect x="0.5" y="0.5" width="19" height="19" rx="9.5" fill="#F2B819" stroke="#F2B819"/>
<path fill-rule="evenodd" clip-rule="evenodd" d="M15.5564 6.42884C15.7126 6.58511 15.8004 6.79703 15.8004 7.018C15.8004 7.23897 15.7126 7.4509 15.5564 7.60717L9.31027 13.8533C9.22773 13.9358 9.12973 14.0013 9.02187 14.046C8.91402 14.0907 8.79841 14.1137 8.68166 14.1137C8.56492 14.1137 8.44931 14.0907 8.34145 14.046C8.2336 14.0013 8.1356 13.9358 8.05305 13.8533L4.94972 10.7505C4.87013 10.6736 4.80664 10.5817 4.76297 10.48C4.71929 10.3783 4.69631 10.269 4.69534 10.1583C4.69438 10.0477 4.71547 9.93796 4.75737 9.83554C4.79927 9.73313 4.86115 9.64008 4.93939 9.56184C5.01763 9.4836 5.11068 9.42172 5.21309 9.37982C5.3155 9.33792 5.42524 9.31683 5.53589 9.31779C5.64654 9.31876 5.75589 9.34174 5.85756 9.38542C5.95923 9.42909 6.05118 9.49258 6.12805 9.57217L8.68139 12.1255L14.3775 6.42884C14.4549 6.3514 14.5468 6.28997 14.6479 6.24806C14.7491 6.20614 14.8575 6.18457 14.9669 6.18457C15.0764 6.18457 15.1848 6.20614 15.286 6.24806C15.3871 6.28997 15.479 6.3514 15.5564 6.42884Z" fill="white"/>
</svg>
