<svg width="12" height="12" viewBox="0 0 12 12" fill="none" xmlns="http://www.w3.org/2000/svg">
<path d="M4.98239 10.899C4.98239 11.1467 5.08081 11.3844 5.25601 11.5595C5.4312 11.7347 5.66882 11.8332 5.91658 11.8332C6.16435 11.8332 6.40197 11.7347 6.57716 11.5595C6.75236 11.3844 6.85078 11.1467 6.85078 10.899V6.85078H10.899C11.1467 6.85078 11.3844 6.75236 11.5595 6.57716C11.7347 6.40197 11.8332 6.16435 11.8332 5.91658C11.8332 5.66882 11.7347 5.4312 11.5595 5.25601C11.3844 5.08081 11.1467 4.98239 10.899 4.98239H6.85078V0.934198C6.85078 0.686433 6.75236 0.448816 6.57716 0.27362C6.40197 0.0984241 6.16435 0 5.91658 0C5.66882 0 5.4312 0.0984241 5.25601 0.27362C5.08081 0.448816 4.98239 0.686433 4.98239 0.934198V4.98239H0.934198C0.686433 4.98239 0.448816 5.08081 0.27362 5.25601C0.0984241 5.4312 0 5.66882 0 5.91658C0 6.16435 0.0984241 6.40197 0.27362 6.57716C0.448816 6.75236 0.686433 6.85078 0.934198 6.85078H4.98239V10.899Z" fill="white"/>
</svg>
