<svg width="20" height="20" viewBox="0 0 20 20" fill="none" xmlns="http://www.w3.org/2000/svg">
<path opacity="0.99" d="M8.59499 13.4136C8.48543 13.4137 8.37692 13.3921 8.27568 13.3502C8.17444 13.3083 8.08246 13.2469 8.00499 13.1694L5.66166 10.8252C5.50986 10.6681 5.42587 10.4576 5.42777 10.2391C5.42966 10.0206 5.51731 9.81156 5.67181 9.65705C5.82632 9.50255 6.03533 9.41491 6.25383 9.41301C6.47232 9.41111 6.68283 9.49511 6.83999 9.6469L8.59416 11.4019L13.1617 6.83524C13.3194 6.68708 13.5287 6.60611 13.7451 6.60948C13.9615 6.61284 14.1681 6.70026 14.3212 6.85324C14.4743 7.00623 14.5618 7.21278 14.5653 7.42918C14.5689 7.64558 14.488 7.85486 14.34 8.01274L9.18333 13.1694C9.02708 13.3257 8.81599 13.4135 8.59499 13.4136Z" fill="white"/>
<path opacity="0.5" d="M9.99935 1.66797C8.35118 1.66797 6.74001 2.15671 5.3696 3.07239C3.99919 3.98807 2.93109 5.28956 2.30036 6.81227C1.66963 8.33499 1.5046 10.0105 1.82614 11.6271C2.14769 13.2436 2.94136 14.7284 4.1068 15.8939C5.27223 17.0593 6.75709 17.853 8.3736 18.1745C9.99011 18.4961 11.6657 18.331 13.1884 17.7003C14.7111 17.0696 16.0126 16.0015 16.9283 14.6311C17.8439 13.2606 18.3327 11.6495 18.3327 10.0013C18.3305 7.79184 17.4518 5.67351 15.8895 4.11118C14.3271 2.54886 12.2088 1.67017 9.99935 1.66797ZM14.3385 8.01214L9.18185 13.1688C9.02558 13.325 8.81366 13.4128 8.59269 13.4128C8.37172 13.4128 8.15979 13.325 8.00352 13.1688L5.66019 10.8246C5.50839 10.6675 5.42439 10.457 5.42629 10.2385C5.42819 10.02 5.51583 9.81096 5.67034 9.65645C5.82484 9.50195 6.03385 9.41431 6.25235 9.41241C6.47085 9.41051 6.68135 9.4945 6.83852 9.6463L8.59269 11.4013L13.1602 6.83464C13.318 6.68648 13.5272 6.60551 13.7436 6.60887C13.96 6.61224 14.1666 6.69966 14.3197 6.85264C14.4728 7.00563 14.5604 7.21218 14.5639 7.42858C14.5674 7.64498 14.4866 7.85426 14.3385 8.01214Z" fill="white"/>
</svg>
