<svg width="46" height="46" viewBox="0 0 46 46" fill="none" xmlns="http://www.w3.org/2000/svg">
<path opacity="0.5" d="M23.0026 42.1673C13.9674 42.1673 9.44985 42.1673 6.64194 39.3594C3.83594 36.5553 3.83594 32.0358 3.83594 23.0007C3.83594 13.9655 3.83594 9.4479 6.64194 6.63998C9.45177 3.83398 13.9674 3.83398 23.0026 3.83398C32.0378 3.83398 36.5554 3.83398 39.3614 6.63998C42.1693 9.44982 42.1693 13.9655 42.1693 23.0007C42.1693 32.0358 42.1693 36.5534 39.3614 39.3594C36.5573 42.1673 32.0378 42.1673 23.0026 42.1673Z" fill="#B5B5B5"/>
<path d="M23 15.8125C23.3812 15.8125 23.7469 15.964 24.0165 16.2335C24.286 16.5031 24.4375 16.8688 24.4375 17.25V21.5625H28.75C29.1312 21.5625 29.4969 21.714 29.7665 21.9835C30.036 22.2531 30.1875 22.6188 30.1875 23C30.1875 23.3812 30.036 23.7469 29.7665 24.0165C29.4969 24.286 29.1312 24.4375 28.75 24.4375H24.4375V28.75C24.4375 29.1312 24.286 29.4969 24.0165 29.7665C23.7469 30.036 23.3812 30.1875 23 30.1875C22.6188 30.1875 22.2531 30.036 21.9835 29.7665C21.714 29.4969 21.5625 29.1312 21.5625 28.75V24.4375H17.25C16.8688 24.4375 16.5031 24.286 16.2335 24.0165C15.964 23.7469 15.8125 23.3812 15.8125 23C15.8125 22.6188 15.964 22.2531 16.2335 21.9835C16.5031 21.714 16.8688 21.5625 17.25 21.5625H21.5625V17.25C21.5625 16.8688 21.714 16.5031 21.9835 16.2335C22.2531 15.964 22.6188 15.8125 23 15.8125Z" fill="#B5B5B5"/>
</svg>
