<svg width="46" height="46" viewBox="0 0 46 46" fill="none" xmlns="http://www.w3.org/2000/svg">
<path d="M5.75 40.2503L14.0626 16.5449L29.7083 32.62L5.75 40.2503Z" fill="#B5B5B5" stroke="#B5B5B5" stroke-width="3.83333" stroke-linejoin="round"/>
<path d="M22.043 18.209L26.8346 13.4173C29.3902 10.8618 29.7096 8.62565 27.793 6.70898M27.793 23.959L32.5846 19.1673C35.7791 15.9729 38.9735 15.9729 42.168 19.1673" stroke="#B5B5B5" stroke-width="3.83333" stroke-linecap="round" stroke-linejoin="round"/>
<path d="M19.1667 6.70866C19.675 6.70866 20.1625 6.50672 20.522 6.14728C20.8814 5.78784 21.0833 5.30032 21.0833 4.79199C21.0833 4.28366 20.8814 3.79615 20.522 3.4367C20.1625 3.07726 19.675 2.87533 19.1667 2.87533C18.6583 2.87533 18.1708 3.07726 17.8114 3.4367C17.4519 3.79615 17.25 4.28366 17.25 4.79199C17.25 5.30032 17.4519 5.78784 17.8114 6.14728C18.1708 6.50672 18.6583 6.70866 19.1667 6.70866ZM40.25 5.75033C40.7583 5.75033 41.2458 5.54839 41.6053 5.18895C41.9647 4.8295 42.1667 4.34199 42.1667 3.83366C42.1667 3.32533 41.9647 2.83782 41.6053 2.47837C41.2458 2.11893 40.7583 1.91699 40.25 1.91699C39.7417 1.91699 39.2542 2.11893 38.8947 2.47837C38.5353 2.83782 38.3333 3.32533 38.3333 3.83366C38.3333 4.34199 38.5353 4.8295 38.8947 5.18895C39.2542 5.54839 39.7417 5.75033 40.25 5.75033ZM40.25 27.792C40.7583 27.792 41.2458 27.5901 41.6053 27.2306C41.9647 26.8712 42.1667 26.3837 42.1667 25.8753C42.1667 25.367 41.9647 24.8795 41.6053 24.52C41.2458 24.1606 40.7583 23.9587 40.25 23.9587C39.7417 23.9587 39.2542 24.1606 38.8947 24.52C38.5353 24.8795 38.3333 25.367 38.3333 25.8753C38.3333 26.3837 38.5353 26.8712 38.8947 27.2306C39.2542 27.5901 39.7417 27.792 40.25 27.792ZM37.375 36.417C37.8833 36.417 38.3708 36.2151 38.7303 35.8556C39.0897 35.4962 39.2917 35.0087 39.2917 34.5003C39.2917 33.992 39.0897 33.5045 38.7303 33.145C38.3708 32.7856 37.8833 32.5837 37.375 32.5837C36.8667 32.5837 36.3792 32.7856 36.0197 33.145C35.6603 33.5045 35.4583 33.992 35.4583 34.5003C35.4583 35.0087 35.6603 35.4962 36.0197 35.8556C36.3792 36.2151 36.8667 36.417 37.375 36.417Z" fill="#B5B5B5"/>
</svg>
