<svg width="17" height="17" viewBox="0 0 17 17" fill="none" xmlns="http://www.w3.org/2000/svg">
<path opacity="0.5" d="M8.33334 0C6.68516 0 5.07399 0.488742 3.70358 1.40442C2.33318 2.3201 1.26507 3.62159 0.634341 5.1443C0.0036107 6.66702 -0.161417 8.34258 0.160126 9.95909C0.48167 11.5756 1.27534 13.0605 2.44078 14.2259C3.60622 15.3913 5.09108 16.185 6.70758 16.5065C8.32409 16.8281 9.99965 16.6631 11.5224 16.0323C13.0451 15.4016 14.3466 14.3335 15.2622 12.9631C16.1779 11.5927 16.6667 9.98151 16.6667 8.33333C16.6645 6.12387 15.7858 4.00554 14.2235 2.44321C12.6611 0.880888 10.5428 0.00220615 8.33334 0ZM12.6725 6.34417L7.51584 11.5008C7.35956 11.6571 7.14764 11.7448 6.92667 11.7448C6.7057 11.7448 6.49378 11.6571 6.3375 11.5008L3.99417 9.15667C3.84237 8.9995 3.75838 8.789 3.76027 8.5705C3.76217 8.352 3.84981 8.14299 4.00432 7.98848C4.15883 7.83398 4.36784 7.74634 4.58634 7.74444C4.80483 7.74254 5.01533 7.82654 5.1725 7.97833L6.92667 9.73333L11.4942 5.16667C11.6519 5.01851 11.8612 4.93754 12.0776 4.94091C12.294 4.94427 12.5006 5.03169 12.6537 5.18467C12.8068 5.33766 12.8943 5.54421 12.8979 5.76061C12.9014 5.97701 12.8205 6.18629 12.6725 6.34417Z" fill="#575757"/>
</svg>
