<svg width="16" height="16" viewBox="0 0 16 16" fill="none" xmlns="http://www.w3.org/2000/svg">
<g clip-path="url(#clip0_7573_1439)">
<path fill-rule="evenodd" clip-rule="evenodd" d="M8 0C5.87827 0 3.84344 0.842855 2.34315 2.34315C0.842855 3.84344 0 5.87827 0 8C0 10.1217 0.842855 12.1566 2.34315 13.6569C3.84344 15.1571 5.87827 16 8 16C10.1217 16 12.1566 15.1571 13.6569 13.6569C15.1571 12.1566 16 10.1217 16 8C16 5.87827 15.1571 3.84344 13.6569 2.34315C12.1566 0.842855 10.1217 0 8 0Z" fill="white" fill-opacity="0.4"/>
<path fill-rule="evenodd" clip-rule="evenodd" d="M5.23403 6.83016C4.92983 6.82008 4.64151 6.692 4.4301 6.47304C4.21869 6.25409 4.10081 5.96145 4.1014 5.65709C4.10199 5.35273 4.22102 5.06055 4.43328 4.84242C4.64554 4.62429 4.93437 4.49734 5.2386 4.48845H5.24431C5.54851 4.49867 5.83678 4.62688 6.04809 4.84594C6.2594 5.065 6.37715 5.35771 6.37641 5.66207C6.37566 5.96644 6.25649 6.25857 6.04411 6.47659C5.83174 6.69462 5.54284 6.82143 5.2386 6.83016H5.23403ZM4.10603 9.11245C4.03025 9.11245 3.95758 9.14255 3.904 9.19613C3.85041 9.24971 3.82031 9.32238 3.82031 9.39816C3.82031 10.029 4.12888 10.9262 4.79288 11.6644C5.46717 12.4142 6.51288 13.005 7.98146 13.005C9.45003 13.005 10.4957 12.4142 11.17 11.6644C11.834 10.9262 12.1415 10.0302 12.1415 9.39816C12.1415 9.32238 12.1114 9.24971 12.0578 9.19613C12.0042 9.14255 11.9315 9.11245 11.8557 9.11245H4.10717H4.10603ZM10.7575 6.83016C10.4469 6.82971 10.1493 6.70597 9.92994 6.48615C9.7106 6.26633 9.58751 5.96841 9.58774 5.65788C9.58797 5.34734 9.71149 5.04961 9.93115 4.83011C10.1508 4.61061 10.4486 4.4873 10.7592 4.4873C11.0697 4.4873 11.3675 4.61061 11.5872 4.83011C11.8069 5.04961 11.9304 5.34734 11.9306 5.65788C11.9308 5.96841 11.8077 6.26633 11.5884 6.48615C11.3691 6.70597 11.0714 6.82971 10.7609 6.83016H10.7575Z" fill="white"/>
</g>
<defs>
<clipPath id="clip0_7573_1439">
<rect width="16" height="16" fill="white"/>
</clipPath>
</defs>
</svg>
