<svg width="64" height="64" viewBox="0 0 64 64" fill="none" xmlns="http://www.w3.org/2000/svg">
<path d="M31.9997 59.321C46.9197 59.321 59.3208 46.9461 59.3208 31.9999C59.3208 17.0799 46.8923 4.67871 31.9723 4.67871C17.0271 4.67871 4.67969 17.0799 4.67969 31.9999C4.67969 46.9461 17.0534 59.321 31.9997 59.321ZM31.9745 36.0181C30.554 36.0181 29.778 35.1873 29.7231 33.7667L29.3483 20.537C29.2945 19.0627 30.4191 18.0193 31.946 18.0193C33.4465 18.0193 34.5974 19.0901 34.5448 20.5633L34.1688 33.769C34.1151 35.2147 33.3117 36.0193 31.9734 36.0193M31.9734 45.8764C30.4191 45.8764 28.9723 44.6444 28.9723 42.9827C28.9723 41.321 30.3928 40.0913 31.9734 40.0913C33.5265 40.0913 34.9723 41.2959 34.9723 42.9827C34.9723 44.6707 33.4991 45.8764 31.9734 45.8764Z" fill="#F4BD28"/>
</svg>
