<svg width="32" height="32" viewBox="0 0 32 32" fill="none" xmlns="http://www.w3.org/2000/svg">
<path d="M0 6.31579C0 3.33789 -9.41126e-08 1.85053 0.925263 0.925263C1.85053 -9.41126e-08 3.33789 0 6.31579 0C9.29368 0 10.7811 -9.41126e-08 11.7063 0.925263C12.6316 1.85053 12.6316 3.33789 12.6316 6.31579V25.2632C12.6316 28.2411 12.6316 29.7284 11.7063 30.6537C10.7811 31.5789 9.29368 31.5789 6.31579 31.5789C3.33789 31.5789 1.85053 31.5789 0.925263 30.6537C-9.41126e-08 29.7284 0 28.2411 0 25.2632V6.31579ZM18.9474 6.31579C18.9474 3.33789 18.9474 1.85053 19.8726 0.925263C20.7979 -9.41126e-08 22.2853 0 25.2632 0C28.2411 0 29.7284 -9.41126e-08 30.6537 0.925263C31.5789 1.85053 31.5789 3.33789 31.5789 6.31579V25.2632C31.5789 28.2411 31.5789 29.7284 30.6537 30.6537C29.7284 31.5789 28.2411 31.5789 25.2632 31.5789C22.2853 31.5789 20.7979 31.5789 19.8726 30.6537C18.9474 29.7284 18.9474 28.2411 18.9474 25.2632V6.31579Z" fill="#11BEBE"/>
</svg>
