<svg width="24" height="24" viewBox="0 0 24 24" fill="none" xmlns="http://www.w3.org/2000/svg">
<path fill-rule="evenodd" clip-rule="evenodd" d="M7.10077 1.348C8.47577 0.878 10.1708 0.75 12.0083 0.75C13.8343 0.75 15.5088 0.9035 16.8728 1.388C18.2623 1.8815 19.3678 2.735 19.9488 4.128C20.8428 6.272 19.5953 8.121 18.4718 9.4115C17.9468 10.0135 17.3718 10.567 16.8383 11.161C16.6338 11.3885 16.3148 11.686 16.2438 12C16.3148 12.314 16.6338 12.6115 16.8388 12.839C17.3718 13.433 17.9473 13.986 18.4718 14.5885C19.5953 15.879 20.8428 17.728 19.9488 19.8715C19.3678 21.265 18.2623 22.1185 16.8728 22.612C15.5088 23.097 13.8343 23.25 12.0078 23.25C10.1703 23.25 8.47577 23.122 7.10077 22.652C5.69327 22.171 4.57677 21.313 4.01427 19.8625C3.19428 17.7495 4.44427 15.9075 5.55577 14.615C6.07577 14.0105 6.64428 13.4525 7.16978 12.8535C7.37178 12.6235 7.69477 12.3165 7.75827 12C7.69477 11.6835 7.37178 11.3765 7.16978 11.1465C6.64428 10.5475 6.07527 9.9895 5.55577 9.385C4.44478 8.093 3.19428 6.2505 4.01427 4.1375C4.57677 2.6875 5.69327 1.829 7.10077 1.348Z" fill="#19B5F5" fill-opacity="0.4"/>
<path fill-rule="evenodd" clip-rule="evenodd" d="M12.0001 6C14.0451 6 15.4926 6.299 16.4196 6.591C16.3959 6.6234 16.3712 6.65508 16.3456 6.686C15.1391 8.165 13.3656 10 12.0001 10C10.6346 10 8.86107 8.1645 7.65457 6.6865C7.62895 6.65542 7.60427 6.62357 7.58057 6.591C8.50707 6.299 9.95507 6 12.0001 6ZM8.67007 19.6475C9.51307 19.8455 10.6151 20 12.0001 20C13.3851 20 14.4871 19.8455 15.3301 19.6475C16.5681 19.3565 16.8741 17.8725 16.0051 16.87C14.8501 15.535 13.2486 14 12.0001 14C10.7516 14 9.15057 15.5355 7.99507 16.87C7.12607 17.8725 7.43207 19.3565 8.67007 19.6475Z" fill="#19B5F5"/>
</svg>
