<svg width="32" height="32" viewBox="0 0 32 32" fill="none" xmlns="http://www.w3.org/2000/svg">
<path fill-rule="evenodd" clip-rule="evenodd" d="M11 9.5C11 9.30302 11.0388 9.10796 11.1142 8.92597C11.1896 8.74399 11.3001 8.57863 11.4393 8.43934C11.5786 8.30005 11.744 8.18956 11.926 8.11418C12.108 8.0388 12.303 8 12.5 8C12.697 8 12.892 8.0388 13.074 8.11418C13.256 8.18956 13.4214 8.30005 13.5607 8.43934C13.6999 8.57863 13.8104 8.74399 13.8858 8.92597C13.9612 9.10796 14 9.30302 14 9.5C14 9.89782 13.842 10.2794 13.5607 10.5607C13.2794 10.842 12.8978 11 12.5 11C12.1022 11 11.7206 10.842 11.4393 10.5607C11.158 10.2794 11 9.89782 11 9.5ZM18 9.5C18 9.10218 18.158 8.72064 18.4393 8.43934C18.7206 8.15804 19.1022 8 19.5 8C19.8978 8 20.2794 8.15804 20.5607 8.43934C20.842 8.72064 21 9.10218 21 9.5C21 9.89782 20.842 10.2794 20.5607 10.5607C20.2794 10.842 19.8978 11 19.5 11C19.1022 11 18.7206 10.842 18.4393 10.5607C18.158 10.2794 18 9.89782 18 9.5ZM11 15.99C11 15.793 11.0388 15.598 11.1142 15.416C11.1896 15.234 11.3001 15.0686 11.4393 14.9293C11.5786 14.7901 11.744 14.6796 11.926 14.6042C12.108 14.5288 12.303 14.49 12.5 14.49C12.697 14.49 12.892 14.5288 13.074 14.6042C13.256 14.6796 13.4214 14.7901 13.5607 14.9293C13.6999 15.0686 13.8104 15.234 13.8858 15.416C13.9612 15.598 14 15.793 14 15.99C14 16.3878 13.842 16.7694 13.5607 17.0507C13.2794 17.332 12.8978 17.49 12.5 17.49C12.1022 17.49 11.7206 17.332 11.4393 17.0507C11.158 16.7694 11 16.3878 11 15.99ZM18 15.99C18 15.5922 18.158 15.2106 18.4393 14.9293C18.7206 14.648 19.1022 14.49 19.5 14.49C19.8978 14.49 20.2794 14.648 20.5607 14.9293C20.842 15.2106 21 15.5922 21 15.99C21 16.3878 20.842 16.7694 20.5607 17.0507C20.2794 17.332 19.8978 17.49 19.5 17.49C19.1022 17.49 18.7206 17.332 18.4393 17.0507C18.158 16.7694 18 16.3878 18 15.99ZM11 22.5C11 22.303 11.0388 22.108 11.1142 21.926C11.1896 21.744 11.3001 21.5786 11.4393 21.4393C11.5786 21.3001 11.744 21.1896 11.926 21.1142C12.108 21.0388 12.303 21 12.5 21C12.697 21 12.892 21.0388 13.074 21.1142C13.256 21.1896 13.4214 21.3001 13.5607 21.4393C13.6999 21.5786 13.8104 21.744 13.8858 21.926C13.9612 22.108 14 22.303 14 22.5C14 22.8978 13.842 23.2794 13.5607 23.5607C13.2794 23.842 12.8978 24 12.5 24C12.1022 24 11.7206 23.842 11.4393 23.5607C11.158 23.2794 11 22.8978 11 22.5ZM18 22.5C18 22.1022 18.158 21.7206 18.4393 21.4393C18.7206 21.158 19.1022 21 19.5 21C19.8978 21 20.2794 21.158 20.5607 21.4393C20.842 21.7206 21 22.1022 21 22.5C21 22.8978 20.842 23.2794 20.5607 23.5607C20.2794 23.842 19.8978 24 19.5 24C19.1022 24 18.7206 23.842 18.4393 23.5607C18.158 23.2794 18 22.8978 18 22.5Z" fill="#B5B5B5"/>
</svg>
