<svg width="26" height="26" viewBox="0 0 26 26" fill="none" xmlns="http://www.w3.org/2000/svg">
<circle cx="13" cy="13" r="13" fill="url(#paint0_linear_6908_1476)"/>
<path d="M11.9161 11.7539C11.3022 11.7539 10.7135 11.9978 10.2795 12.4318C9.84542 12.8659 9.60156 13.4546 9.60156 14.0684C9.60156 14.6823 9.84542 15.271 10.2795 15.7051C10.7135 16.1391 11.3022 16.383 11.9161 16.383C12.53 16.383 13.1187 16.1391 13.5527 15.7051C13.9868 15.271 14.2306 14.6823 14.2306 14.0684C14.2306 13.4546 13.9868 12.8659 13.5527 12.4318C13.1187 11.9978 12.53 11.7539 11.9161 11.7539Z" fill="white" fill-opacity="0.4"/>
<path fill-rule="evenodd" clip-rule="evenodd" d="M8.67744 6.69567C9.81762 6.78647 11.04 7.26077 12.2425 7.98825C12.3343 8.04374 12.4102 8.12198 12.4629 8.2154C12.5156 8.30881 12.5432 8.41424 12.5432 8.52148C12.5432 8.62873 12.5156 8.73416 12.4629 8.82757C12.4102 8.92099 12.3343 8.99922 12.2425 9.05472C11.263 9.6476 10.2527 10.4541 9.27922 11.4277C8.41251 12.2951 7.67791 13.1906 7.10854 14.0684C7.67791 14.9461 8.41216 15.8417 9.27922 16.7087C10.1463 17.5758 11.0422 18.3104 11.9199 18.8794C12.7977 18.3104 13.6932 17.5761 14.5603 16.7087C15.5342 15.7352 16.3407 14.7253 16.9336 13.7458C16.9891 13.6541 17.0673 13.5782 17.1607 13.5256C17.2541 13.473 17.3594 13.4453 17.4666 13.4453C17.5738 13.4453 17.6792 13.473 17.7726 13.5256C17.8659 13.5782 17.9442 13.6541 17.9997 13.7458C18.7275 14.9482 19.2015 16.1707 19.2923 17.3105C19.3849 18.4674 19.0808 19.5535 18.2429 20.3913C17.405 21.2292 16.319 21.5333 15.1621 21.4411C14.1237 21.3581 13.0174 20.9575 11.9199 20.3372C10.8221 20.9575 9.71578 21.3581 8.67744 21.4411C7.52088 21.5336 6.43483 21.2292 5.59696 20.3913C4.7591 19.5535 4.45465 18.4674 4.54723 17.3105C4.6302 16.2725 5.03044 15.1658 5.65109 14.0684C5.03044 12.9706 4.6302 11.8642 4.54723 10.8259C4.45465 9.66932 4.7591 8.58326 5.59696 7.7454C6.43483 6.90754 7.52088 6.60309 8.67744 6.69567ZM6.4245 12.8595C6.98284 12.0754 7.64836 11.2963 8.39791 10.5463C9.14782 9.79679 9.92693 9.13128 10.7107 8.57294C9.94118 8.20332 9.21975 7.98896 8.57845 7.93804C7.71317 7.86896 7.01026 8.09436 6.47827 8.62671C5.94593 9.15869 5.72052 9.86125 5.7896 10.7269C5.84052 11.3678 6.05489 12.0896 6.4245 12.8595ZM6.4245 15.2773C6.05489 16.0471 5.84052 16.7685 5.7896 17.4098C5.72052 18.2751 5.94593 18.9777 6.47827 19.51C7.01061 20.0424 7.71281 20.2678 8.57845 20.1987C9.2194 20.1474 9.94118 19.9334 10.7107 19.5638C9.92693 19.0055 9.14747 18.3399 8.39791 17.59C7.64836 16.8405 6.98284 16.0614 6.4245 15.2773ZM13.1288 19.5638C13.8987 19.9334 14.6201 20.1478 15.2614 20.1987C16.1267 20.2678 16.8292 20.042 17.3616 19.51C17.8939 18.9777 18.1193 18.2751 18.0503 17.4098C17.999 16.7685 17.785 16.0471 17.4154 15.2773C16.857 16.0614 16.1915 16.8405 15.4416 17.59C14.692 18.3399 13.9129 19.0055 13.1288 19.5638Z" fill="white"/>
<path fill-rule="evenodd" clip-rule="evenodd" d="M17.8855 5.16611C17.8855 5.00085 17.8198 4.84235 17.7029 4.72548C17.5861 4.60862 17.4276 4.54297 17.2623 4.54297C17.097 4.54297 16.9385 4.60862 16.8217 4.72548C16.7048 4.84235 16.6392 5.00085 16.6392 5.16611V6.06166C14.9161 6.13395 13.5234 7.49632 13.5234 9.26107C13.5234 9.70617 13.553 10.2264 13.5858 10.6665C13.6495 11.5193 14.2851 12.2344 15.1614 12.3394C15.7091 12.4053 16.4376 12.4658 17.2623 12.4658C18.087 12.4658 18.8152 12.4053 19.3632 12.3394C20.2395 12.2344 20.8751 11.5193 20.9389 10.6665C20.9716 10.2264 21.0012 9.70653 21.0012 9.26107C21.0012 7.49632 19.6085 6.13395 17.8855 6.06166V5.16611Z" fill="white" fill-opacity="0.4"/>
<path fill-rule="evenodd" clip-rule="evenodd" d="M16.4572 9.08213C16.4572 8.91686 16.3916 8.75836 16.2747 8.6415C16.1579 8.52464 15.9994 8.45898 15.8341 8.45898C15.6688 8.45898 15.5103 8.52464 15.3935 8.6415C15.2766 8.75836 15.2109 8.91686 15.2109 9.08213V9.43821C15.2109 9.60348 15.2766 9.76198 15.3935 9.87884C15.5103 9.99571 15.6688 10.0614 15.8341 10.0614C15.9994 10.0614 16.1579 9.99571 16.2747 9.87884C16.3916 9.76198 16.4572 9.60348 16.4572 9.43821V9.08213ZM19.3059 9.08213C19.3059 9.0003 19.2898 8.91927 19.2585 8.84366C19.2271 8.76806 19.1812 8.69936 19.1234 8.6415C19.0655 8.58363 18.9968 8.53773 18.9212 8.50642C18.8456 8.4751 18.7646 8.45898 18.6827 8.45898C18.6009 8.45898 18.5199 8.4751 18.4443 8.50642C18.3687 8.53773 18.3 8.58363 18.2421 8.6415C18.1843 8.69936 18.1384 8.76806 18.107 8.84366C18.0757 8.91927 18.0596 9.0003 18.0596 9.08213V9.43821C18.0596 9.52005 18.0757 9.60108 18.107 9.67668C18.1384 9.75228 18.1843 9.82098 18.2421 9.87884C18.3 9.93671 18.3687 9.98261 18.4443 10.0139C18.5199 10.0452 18.6009 10.0614 18.6827 10.0614C18.7646 10.0614 18.8456 10.0452 18.9212 10.0139C18.9968 9.98261 19.0655 9.93671 19.1234 9.87884C19.1812 9.82098 19.2271 9.75228 19.2585 9.67668C19.2898 9.60108 19.3059 9.52005 19.3059 9.43821V9.08213Z" fill="white"/>
<defs>
<linearGradient id="paint0_linear_6908_1476" x1="-7.46233e-08" y1="2.98851" x2="-6.4457" y2="27.5077" gradientUnits="userSpaceOnUse">
<stop stop-color="#11BEBE"/>
<stop offset="1" stop-color="#CBF0F0"/>
</linearGradient>
</defs>
</svg>
