<svg width="73" height="73" viewBox="0 0 73 73" fill="none" xmlns="http://www.w3.org/2000/svg">
<path opacity="0.5" fill-rule="evenodd" clip-rule="evenodd" d="M59.8821 42.8664L60.4418 37.6834C60.7368 34.9155 60.9345 33.0905 60.7794 31.9377C60.1334 31.9297 59.4964 31.7845 58.9107 31.5118C58.325 31.2392 57.8039 30.8452 57.3818 30.356C56.3872 30.9674 55.0915 32.2601 53.1418 34.2038C51.6361 35.7033 50.8848 36.4515 50.0453 36.5671C49.5802 36.6318 49.1061 36.5655 48.6766 36.3755C47.904 36.0348 47.3869 35.1102 46.3558 33.2578L40.9112 23.4971C40.2755 22.3565 39.7432 21.3983 39.2626 20.6318C38.4323 21.0546 37.4954 21.2919 36.5008 21.2919C35.5062 21.2919 34.5693 21.0546 33.739 20.6318C33.2584 21.4014 32.7261 22.3565 32.0873 23.4971L26.6458 33.2578C25.6116 35.1102 25.0946 36.0348 24.322 36.3755C23.8924 36.5655 23.4184 36.6318 22.9532 36.5671C22.1168 36.4515 21.3655 35.7033 19.8598 34.2038C17.9101 32.2601 16.6144 30.9674 15.6228 30.356C15.2004 30.8456 14.6788 31.2398 14.0925 31.5124C13.5063 31.7851 12.8688 31.9301 12.2222 31.9377C12.0671 33.0875 12.2648 34.9155 12.5598 37.6834L13.1195 42.8664L13.3902 45.4518C14.1567 52.8583 14.7894 58.9873 17.3748 61.2989C20.2522 63.8752 24.5653 63.8752 33.1915 63.8752H39.8101C48.4363 63.8752 52.7494 63.8752 55.6268 61.2989C58.2122 58.9873 58.8449 52.8583 59.6114 45.4518C59.6986 44.6063 59.7868 43.7444 59.8821 42.8664Z" fill="#F2B819"/>
<path d="M60.8327 31.9375C62.0403 31.9303 63.1959 31.4445 64.046 30.5867C64.8961 29.7289 65.3714 28.5691 65.3678 27.3614C65.3642 26.1537 64.8819 24.9967 64.0266 24.1441C63.1714 23.2914 62.013 22.8126 60.8053 22.8126C59.5976 22.8126 58.4392 23.2914 57.584 24.1441C56.7287 24.9967 56.2465 26.1537 56.2428 27.3614C56.2392 28.5691 56.7145 29.7289 57.5646 30.5867C58.4148 31.4445 59.5703 31.9303 60.7779 31.9375H60.8327ZM36.4993 9.125C34.886 9.125 33.3386 9.76592 32.1978 10.9068C31.0569 12.0476 30.416 13.5949 30.416 15.2083C30.416 16.8217 31.0569 18.3691 32.1978 19.5099C33.3386 20.6507 34.886 21.2917 36.4993 21.2917C38.1128 21.2917 39.6601 20.6507 40.8009 19.5099C41.9418 18.3691 42.5827 16.8217 42.5827 15.2083C42.5827 13.5949 41.9418 12.0476 40.8009 10.9068C39.6601 9.76592 38.1128 9.125 36.4993 9.125ZM7.60352 27.375C7.60352 28.5851 8.08421 29.7455 8.93984 30.6012C9.79548 31.4568 10.956 31.9375 12.166 31.9375H12.2208C13.4221 31.9255 14.5699 31.4392 15.4142 30.5846C16.2586 29.73 16.731 28.5763 16.7285 27.375C16.7285 26.1649 16.2478 25.0045 15.3922 24.1488C14.5366 23.2932 13.3761 22.8125 12.166 22.8125C10.956 22.8125 9.79548 23.2932 8.93984 24.1488C8.08421 25.0045 7.60352 26.1649 7.60352 27.375ZM14.7484 55.5104C14.4348 54.0008 14.1852 52.4786 14.0001 50.9479H58.9986C58.7856 52.6056 58.5484 54.1417 58.2503 55.5104H14.7484Z" fill="#F2B819"/>
</svg>
