<svg width="14" height="14" viewBox="0 0 14 14" fill="none" xmlns="http://www.w3.org/2000/svg">
<path d="M5.48722 10.8683C5.58647 10.8683 5.68164 10.8289 5.75182 10.7587C5.82199 10.6886 5.86142 10.5934 5.86142 10.4941C5.86142 10.3949 5.82199 10.2997 5.75182 10.2295C5.68164 10.1594 5.58647 10.1199 5.48722 10.1199V10.8683ZM6.23561 3.50919V3.88339C6.30957 3.88332 6.38185 3.86134 6.44333 3.82022C6.50481 3.7791 6.55272 3.72068 6.58101 3.65235C6.60931 3.58401 6.61671 3.50883 6.6023 3.43628C6.58789 3.36374 6.55231 3.29709 6.50004 3.24476L6.23561 3.50919ZM5.50219 2.24691C5.43126 2.18082 5.33744 2.14483 5.24049 2.14654C5.14355 2.14825 5.05106 2.18752 4.9825 2.25608C4.91394 2.32464 4.87467 2.41714 4.87296 2.51408C4.87125 2.61102 4.90723 2.70484 4.97333 2.77577L5.50219 2.24691ZM5.48722 10.1199H5.23776V10.8683H5.48722V10.1199ZM5.23776 3.88339H6.23561V3.135H5.23776V3.88339ZM6.50004 3.24476L5.50219 2.24691L4.97333 2.77577L5.97118 3.77362L6.50004 3.24476ZM1.37109 7.00167C1.37109 8.02717 1.77847 9.01067 2.50361 9.73582C3.22876 10.461 4.21226 10.8683 5.23776 10.8683V10.1199C4.41074 10.1199 3.6176 9.79142 3.0328 9.20663C2.44801 8.62184 2.11948 7.82869 2.11948 7.00167H1.37109ZM2.11948 7.00167C2.11948 6.17465 2.44801 5.3815 3.0328 4.79671C3.6176 4.21192 4.41074 3.88339 5.23776 3.88339V3.135C4.21226 3.135 3.22876 3.54238 2.50361 4.26752C1.77847 4.99266 1.37109 5.97616 1.37109 7.00167H2.11948Z" fill="#B5B5B5"/>
<path d="M5.48722 10.8683C5.58647 10.8683 5.68164 10.8289 5.75182 10.7587C5.82199 10.6886 5.86142 10.5934 5.86142 10.4941C5.86142 10.3949 5.82199 10.2997 5.75182 10.2295C5.68164 10.1594 5.58647 10.1199 5.48722 10.1199M5.48722 10.8683V10.1199M5.48722 10.8683H5.23776M5.48722 10.1199H5.23776M6.23561 3.88339V3.50919L6.50004 3.24476M6.23561 3.88339C6.30957 3.88332 6.38185 3.86134 6.44333 3.82022C6.50481 3.7791 6.55272 3.72068 6.58101 3.65235C6.60931 3.58401 6.61671 3.50883 6.6023 3.43628C6.58789 3.36374 6.55231 3.29709 6.50004 3.24476M6.23561 3.88339H5.23776M6.23561 3.88339V3.135H5.23776M6.50004 3.24476L5.50219 2.24691M6.50004 3.24476L5.97118 3.77362L4.97333 2.77577M5.50219 2.24691C5.43126 2.18082 5.33744 2.14483 5.24049 2.14654C5.14355 2.14825 5.05106 2.18752 4.9825 2.25608C4.91394 2.32464 4.87467 2.41714 4.87296 2.51408C4.87125 2.61102 4.90723 2.70484 4.97333 2.77577M5.50219 2.24691L4.97333 2.77577M5.23776 10.1199V10.8683M5.23776 10.1199C4.41074 10.1199 3.6176 9.79142 3.0328 9.20663C2.44801 8.62184 2.11948 7.82869 2.11948 7.00167M5.23776 10.8683C4.21226 10.8683 3.22876 10.461 2.50361 9.73582C1.77847 9.01067 1.37109 8.02717 1.37109 7.00167M5.23776 3.88339V3.135M5.23776 3.88339C4.41074 3.88339 3.6176 4.21192 3.0328 4.79671C2.44801 5.3815 2.11948 6.17465 2.11948 7.00167M5.23776 3.135C4.21226 3.135 3.22876 3.54238 2.50361 4.26752C1.77847 4.99266 1.37109 5.97616 1.37109 7.00167M1.37109 7.00167H2.11948" stroke="#B5B5B5" stroke-width="0.913043"/>
<g opacity="0.5">
<path d="M7.86215 10.4939V10.1197C7.78819 10.1198 7.7159 10.1418 7.65443 10.1829C7.59295 10.224 7.54504 10.2824 7.51675 10.3508C7.48845 10.4191 7.48104 10.4943 7.49545 10.5668C7.50986 10.6394 7.54545 10.706 7.59772 10.7583L7.86215 10.4939ZM8.59557 11.7562C8.62982 11.793 8.67113 11.8224 8.71703 11.8429C8.76294 11.8633 8.81249 11.8743 8.86273 11.8752C8.91297 11.8761 8.96288 11.8669 9.00947 11.8481C9.05607 11.8292 9.09839 11.8012 9.13392 11.7657C9.16946 11.7302 9.19747 11.6878 9.21629 11.6412C9.23511 11.5946 9.24435 11.5447 9.24347 11.4945C9.24258 11.4442 9.23158 11.3947 9.21113 11.3488C9.19068 11.3029 9.16119 11.2616 9.12443 11.2273L8.59557 11.7562ZM8.61053 3.13477C8.51129 3.13477 8.41611 3.17419 8.34594 3.24436C8.27576 3.31454 8.23634 3.40972 8.23634 3.50896C8.23634 3.6082 8.27576 3.70338 8.34594 3.77355C8.41611 3.84373 8.51129 3.88315 8.61053 3.88315V3.13477ZM8.86 10.1197H7.86215V10.8681H8.86V10.1197ZM7.59772 10.7583L8.59557 11.7562L9.12443 11.2273L8.12658 10.2295L7.59772 10.7583ZM8.61053 3.88315H8.86V3.13477H8.61053V3.88315ZM11.9783 7.00143C11.9783 7.82845 11.6497 8.6216 11.065 9.20639C10.4802 9.79118 9.68702 10.1197 8.86 10.1197V10.8681C9.8855 10.8681 10.869 10.4607 11.5941 9.73558C12.3193 9.01044 12.7267 8.02694 12.7267 7.00143H11.9783ZM12.7267 7.00143C12.7267 5.97593 12.3193 4.99243 11.5941 4.26729C10.869 3.54215 9.8855 3.13477 8.86 3.13477V3.88315C9.68702 3.88315 10.4802 4.21169 11.065 4.79648C11.6497 5.38127 11.9783 6.17441 11.9783 7.00143H12.7267Z" fill="#B5B5B5"/>
<path d="M7.86215 10.1197V10.4939L7.59772 10.7583M7.86215 10.1197C7.78819 10.1198 7.7159 10.1418 7.65443 10.1829C7.59295 10.224 7.54504 10.2824 7.51675 10.3508C7.48845 10.4191 7.48104 10.4943 7.49545 10.5668C7.50986 10.6394 7.54545 10.706 7.59772 10.7583M7.86215 10.1197H8.86M7.86215 10.1197V10.8681H8.86M7.59772 10.7583L8.59557 11.7562M7.59772 10.7583L8.12658 10.2295L9.12443 11.2273M8.59557 11.7562C8.62982 11.793 8.67113 11.8224 8.71703 11.8429C8.76294 11.8633 8.81249 11.8743 8.86273 11.8752C8.91297 11.8761 8.96288 11.8669 9.00947 11.8481C9.05607 11.8292 9.09839 11.8012 9.13392 11.7657C9.16946 11.7302 9.19747 11.6878 9.21629 11.6412C9.23511 11.5946 9.24435 11.5447 9.24347 11.4945C9.24258 11.4442 9.23158 11.3947 9.21113 11.3488C9.19068 11.3029 9.16119 11.2616 9.12443 11.2273M8.59557 11.7562L9.12443 11.2273M8.61053 3.13477C8.51129 3.13477 8.41611 3.17419 8.34594 3.24436C8.27576 3.31454 8.23634 3.40972 8.23634 3.50896C8.23634 3.6082 8.27576 3.70338 8.34594 3.77355C8.41611 3.84373 8.51129 3.88315 8.61053 3.88315M8.61053 3.13477V3.88315M8.61053 3.13477H8.86M8.61053 3.88315H8.86M8.86 10.1197V10.8681M8.86 10.1197C9.68702 10.1197 10.4802 9.79118 11.065 9.20639C11.6497 8.6216 11.9783 7.82845 11.9783 7.00143M8.86 10.8681C9.8855 10.8681 10.869 10.4607 11.5941 9.73558C12.3193 9.01044 12.7267 8.02694 12.7267 7.00143M8.86 3.88315V3.13477M8.86 3.88315C9.68702 3.88315 10.4802 4.21169 11.065 4.79648C11.6497 5.38127 11.9783 6.17441 11.9783 7.00143M8.86 3.13477C9.8855 3.13477 10.869 3.54215 11.5941 4.26729C12.3193 4.99243 12.7267 5.97593 12.7267 7.00143M11.9783 7.00143H12.7267" stroke="#B5B5B5" stroke-width="0.913043"/>
</g>
</svg>
