<svg width="26" height="26" viewBox="0 0 26 26" fill="none" xmlns="http://www.w3.org/2000/svg">
<circle cx="13" cy="13" r="13" fill="url(#paint0_linear_6908_1491)"/>
<path d="M9.56912 17.5H18.9996C18.9974 18.1975 18.9831 18.7173 18.9149 19.1275C18.8324 19.6172 18.6824 19.876 18.4529 20.0605C18.2226 20.245 17.9001 20.3658 17.2904 20.431C16.6626 20.4985 15.8309 20.5 14.6384 20.5H11.3159C10.1234 20.5 9.29087 20.4993 8.66387 20.431C8.05412 20.3658 7.73162 20.245 7.50137 20.0605C7.27112 19.876 7.12187 19.6172 7.03937 19.1282L7.02287 19.015C6.99287 18.7968 6.97787 18.6872 7.07237 18.43C7.16762 18.172 7.20812 18.1323 7.29062 18.0513C7.55803 17.7966 7.89223 17.6231 8.25437 17.551C8.47187 17.5045 8.75687 17.5 9.56912 17.5Z" fill="white"/>
<path opacity="0.5" d="M7.54525 6.04975C7.77475 5.81875 8.09575 5.66875 8.70325 5.58625C9.32875 5.5015 10.1568 5.5 11.3448 5.5H14.6552C15.8433 5.5 16.6713 5.5015 17.2968 5.58625C17.9043 5.66875 18.2253 5.81875 18.4548 6.04975C18.6835 6.28075 18.8327 6.60475 18.9145 7.2175C18.9985 7.8475 19 8.68375 19 9.8815V17.5H9.5695C8.7565 17.5 8.473 17.5045 8.25475 17.551C7.87 17.6335 7.53475 17.8113 7.291 18.0513C7.2085 18.1323 7.168 18.172 7.07275 18.43C7.02774 18.5396 7.00308 18.6565 7 18.775V9.8815C7 8.68375 7.0015 7.84825 7.0855 7.2175C7.16725 6.6055 7.3165 6.28075 7.54525 6.04975Z" fill="white"/>
<path d="M9.4375 9.25C9.4375 9.10082 9.49676 8.95774 9.60225 8.85225C9.70774 8.74676 9.85082 8.6875 10 8.6875H16C16.1492 8.6875 16.2923 8.74676 16.3977 8.85225C16.5032 8.95774 16.5625 9.10082 16.5625 9.25C16.5625 9.39918 16.5032 9.54226 16.3977 9.64775C16.2923 9.75324 16.1492 9.8125 16 9.8125H10C9.85082 9.8125 9.70774 9.75324 9.60225 9.64775C9.49676 9.54226 9.4375 9.39918 9.4375 9.25ZM10 11.3125C9.85082 11.3125 9.70774 11.3718 9.60225 11.4773C9.49676 11.5827 9.4375 11.7258 9.4375 11.875C9.4375 12.0242 9.49676 12.1673 9.60225 12.2727C9.70774 12.3782 9.85082 12.4375 10 12.4375H13.75C13.8992 12.4375 14.0423 12.3782 14.1477 12.2727C14.2532 12.1673 14.3125 12.0242 14.3125 11.875C14.3125 11.7258 14.2532 11.5827 14.1477 11.4773C14.0423 11.3718 13.8992 11.3125 13.75 11.3125H10Z" fill="white"/>
<defs>
<linearGradient id="paint0_linear_6908_1491" x1="-7.46233e-08" y1="2.98851" x2="-6.4457" y2="27.5077" gradientUnits="userSpaceOnUse">
<stop stop-color="#9B7EBD"/>
<stop offset="1" stop-color="#D1BDE9"/>
</linearGradient>
</defs>
</svg>
