<svg width="24" height="24" viewBox="0 0 24 24" fill="none" xmlns="http://www.w3.org/2000/svg">
<path opacity="0.5" d="M14.2 3H9.8C5.652 3 3.577 3 2.289 4.318C1.001 5.636 1 7.758 1 12C1 16.242 1 18.364 2.289 19.682C3.578 21 5.652 21 9.8 21H14.2C18.348 21 20.423 21 21.711 19.682C22.999 18.364 23 16.242 23 12C23 7.758 23 5.636 21.711 4.318C20.422 3 18.348 3 14.2 3Z" fill="#915B41"/>
<path d="M19.1273 8.03329C19.2954 7.89326 19.4011 7.69216 19.4209 7.47424C19.4408 7.25633 19.3733 7.03944 19.2333 6.87129C19.0933 6.70314 18.8922 6.59751 18.6742 6.57763C18.4563 6.55775 18.2394 6.62526 18.0713 6.76529L15.6963 8.74529C14.6703 9.60029 13.9583 10.1923 13.3563 10.5783C12.7743 10.9533 12.3793 11.0783 11.9993 11.0783C11.6193 11.0783 11.2253 10.9533 10.6423 10.5783C10.0413 10.1923 9.32829 9.60029 8.30229 8.74429L5.92729 6.76529C5.75914 6.62526 5.54225 6.55775 5.32434 6.57763C5.10642 6.59751 4.90532 6.70314 4.76529 6.87129C4.62526 7.03944 4.55775 7.25633 4.57763 7.47424C4.59751 7.69216 4.70314 7.89326 4.87129 8.03329L7.28729 10.0473C8.26229 10.8593 9.05229 11.5173 9.75029 11.9673C10.4763 12.4333 11.1843 12.7293 12.0003 12.7293C12.8143 12.7293 13.5223 12.4333 14.2493 11.9663C14.9463 11.5183 15.7363 10.8593 16.7113 10.0463L19.1273 8.03329Z" fill="#915B41"/>
</svg>
