<svg width="38" height="38" viewBox="0 0 38 38" fill="none" xmlns="http://www.w3.org/2000/svg">
<path d="M3.16602 3.16602H25.3327C28.3188 3.16602 29.8103 3.16602 30.7382 4.09385C31.666 5.02168 31.666 6.51318 31.666 9.49935V18.9993C31.666 21.9855 31.666 23.477 30.7382 24.4048C29.8103 25.3327 28.3188 25.3327 25.3327 25.3327H14.2493M15.8327 10.291H25.3327M3.16602 26.916V20.5827C3.16602 19.0896 3.16602 18.3438 3.62993 17.8799C4.09385 17.416 4.8396 17.416 6.33268 17.416H9.49935M3.16602 26.916H9.49935M3.16602 26.916V34.8327M9.49935 17.416V26.916M9.49935 17.416H18.9993M9.49935 26.916V34.8327" stroke="#B5B5B5" stroke-width="2.375" stroke-linecap="round" stroke-linejoin="round"/>
<path d="M9.49935 10.2917C9.49935 11.1315 9.16572 11.937 8.57185 12.5308C7.97799 13.1247 7.17253 13.4583 6.33268 13.4583C5.49283 13.4583 4.68738 13.1247 4.09351 12.5308C3.49965 11.937 3.16602 11.1315 3.16602 10.2917C3.16602 9.45181 3.49965 8.64636 4.09351 8.0525C4.68738 7.45863 5.49283 7.125 6.33268 7.125C7.17253 7.125 7.97799 7.45863 8.57185 8.0525C9.16572 8.64636 9.49935 9.45181 9.49935 10.2917Z" stroke="#B5B5B5" stroke-width="2.375"/>
</svg>
