<svg width="20" height="20" viewBox="0 0 20 20" fill="none" xmlns="http://www.w3.org/2000/svg">
<path opacity="0.99" d="M8.59695 13.4116C8.48738 13.4117 8.37887 13.3902 8.27763 13.3483C8.17639 13.3064 8.08441 13.2449 8.00695 13.1674L5.66361 10.8233C5.51182 10.6661 5.42782 10.4556 5.42972 10.2371C5.43162 10.0186 5.51926 9.80961 5.67377 9.6551C5.82827 9.50059 6.03728 9.41295 6.25578 9.41106C6.47428 9.40916 6.68478 9.49315 6.84195 9.64495L8.59611 11.4L13.1636 6.83328C13.3214 6.68513 13.5306 6.60416 13.747 6.60752C13.9634 6.61088 14.17 6.69831 14.3231 6.85129C14.4762 7.00428 14.5638 7.21082 14.5673 7.42723C14.5708 7.64363 14.49 7.85291 14.3419 8.01078L9.18528 13.1674C9.02904 13.3237 8.81794 13.4116 8.59695 13.4116Z" fill="white"/>
<path opacity="0.5" d="M9.9974 1.66699C8.34922 1.66699 6.73806 2.15573 5.36765 3.07141C3.99724 3.98709 2.92913 5.28858 2.2984 6.8113C1.66767 8.33401 1.50265 10.0096 1.82419 11.6261C2.14573 13.2426 2.93941 14.7274 4.10484 15.8929C5.27028 17.0583 6.75514 17.852 8.37165 18.1735C9.98816 18.4951 11.6637 18.3301 13.1864 17.6993C14.7091 17.0686 16.0106 16.0005 16.9263 14.6301C17.842 13.2597 18.3307 11.6485 18.3307 10.0003C18.3285 7.79087 17.4498 5.67253 15.8875 4.11021C14.3252 2.54788 12.2069 1.6692 9.9974 1.66699ZM14.3366 8.01116L9.1799 13.1678C9.02363 13.3241 8.8117 13.4118 8.59073 13.4118C8.36976 13.4118 8.15784 13.3241 8.00157 13.1678L5.65823 10.8237C5.50643 10.6665 5.42244 10.456 5.42434 10.2375C5.42624 10.019 5.51388 9.80998 5.66838 9.65548C5.82289 9.50097 6.0319 9.41333 6.2504 9.41143C6.4689 9.40953 6.6794 9.49353 6.83657 9.64533L8.59073 11.4003L13.1582 6.83366C13.316 6.6855 13.5252 6.60454 13.7416 6.6079C13.958 6.61126 14.1646 6.69868 14.3177 6.85167C14.4708 7.00465 14.5584 7.2112 14.5619 7.4276C14.5654 7.644 14.4846 7.85328 14.3366 8.01116Z" fill="white"/>
</svg>
