<svg width="20" height="20" viewBox="0 0 20 20" fill="none" xmlns="http://www.w3.org/2000/svg">
<g clip-path="url(#clip0_7590_90)">
<path fill-rule="evenodd" clip-rule="evenodd" d="M10 0C7.34784 0 4.8043 1.05357 2.92893 2.92893C1.05357 4.8043 0 7.34784 0 10C0 12.6522 1.05357 15.1957 2.92893 17.0711C4.8043 18.9464 7.34784 20 10 20C12.6522 20 15.1957 18.9464 17.0711 17.0711C18.9464 15.1957 20 12.6522 20 10C20 7.34784 18.9464 4.8043 17.0711 2.92893C15.1957 1.05357 12.6522 0 10 0Z" fill="#915B41" fill-opacity="0.3"/>
<path fill-rule="evenodd" clip-rule="evenodd" d="M6.55118 5.61009C6.93934 5.61047 7.31145 5.76503 7.58566 6.03977C7.85986 6.31451 8.0137 6.68693 8.01332 7.07509C8.01294 7.46325 7.85838 7.83537 7.58364 8.10957C7.3089 8.38378 6.93648 8.53761 6.54832 8.53723H6.54546C6.1573 8.53685 5.78518 8.38229 5.51098 8.10755C5.23677 7.83281 5.08294 7.4604 5.08332 7.07223C5.0837 6.68407 5.23826 6.31195 5.513 6.03775C5.78774 5.76354 6.16016 5.60971 6.54832 5.61009H6.55118ZM4.89118 15.9172C5.11983 15.9788 5.36358 15.947 5.56879 15.8289C5.77401 15.7107 5.92389 15.5159 5.98546 15.2872C6.22417 14.4045 6.74698 13.625 7.47309 13.0691C8.1992 12.5133 9.08817 12.2121 10.0026 12.2121C10.917 12.2121 11.806 12.5133 12.5321 13.0691C13.2582 13.625 13.781 14.4045 14.0197 15.2872C14.0821 15.515 14.2321 15.7088 14.437 15.8263C14.642 15.9437 14.885 15.9751 15.1131 15.9137C15.3411 15.8523 15.5356 15.7031 15.6538 15.4986C15.7721 15.2942 15.8045 15.0512 15.744 14.8229C15.4032 13.561 14.6561 12.4465 13.6183 11.6518C12.5805 10.8571 11.3098 10.4265 10.0026 10.4265C8.69546 10.4265 7.42472 10.8571 6.3869 11.6518C5.34908 12.4465 4.602 13.561 4.26118 14.8229C4.19961 15.0516 4.2314 15.2953 4.34954 15.5006C4.46769 15.7058 4.66252 15.8557 4.89118 15.9172ZM13.4512 5.61009C13.2551 5.60396 13.0599 5.63729 12.8769 5.70808C12.694 5.77888 12.5272 5.8857 12.3863 6.02221C12.2455 6.15872 12.1335 6.32214 12.057 6.50276C11.9806 6.68338 11.9412 6.87752 11.9412 7.07366C11.9412 7.2698 11.9806 7.46395 12.057 7.64457C12.1335 7.82519 12.2455 7.9886 12.3863 8.12511C12.5272 8.26162 12.694 8.36844 12.8769 8.43924C13.0599 8.51003 13.2551 8.54336 13.4512 8.53723C13.8314 8.52535 14.1921 8.36595 14.4569 8.09277C14.7217 7.81959 14.8697 7.45409 14.8697 7.07366C14.8697 6.69323 14.7217 6.32773 14.4569 6.05455C14.1921 5.78137 13.8314 5.62197 13.4512 5.61009Z" fill="#915B41"/>
</g>
<defs>
<clipPath id="clip0_7590_90">
<rect width="20" height="20" fill="white"/>
</clipPath>
</defs>
</svg>
