<svg width="117" height="57" viewBox="0 0 117 57" fill="none" xmlns="http://www.w3.org/2000/svg">
<path d="M63.8512 21.4824C57.0507 21.4824 51.5166 27.0165 51.5166 33.8171C51.5166 40.6176 57.0507 46.1517 63.8512 46.1517C70.6518 46.1517 76.1859 40.6176 76.1859 33.8171C76.1859 27.0165 70.6518 21.4824 63.8512 21.4824ZM63.8512 41.2904C59.7287 41.2904 56.3713 37.933 56.3713 33.8105C56.3713 29.6879 59.7287 26.3305 63.8512 26.3305C67.9738 26.3305 71.3312 29.6879 71.3312 33.8105C71.3312 37.933 67.9738 41.2904 63.8512 41.2904Z" fill="#1397AF"/>
<path d="M63.851 11.4102C56.6744 11.4102 50.2763 14.7742 46.1405 20.0114V17.3004H41.2858V22.0364C40.4679 21.7264 39.584 21.5615 38.6606 21.5615C37.7371 21.5615 36.8533 21.733 36.0354 22.0364V17.3004H31.1807V33.8697H36.0354V29.0414C36.0354 27.5903 37.2161 26.4162 38.6606 26.4162C40.1051 26.4162 41.2858 27.5969 41.2858 29.0414V33.8697C41.2858 33.9027 41.2858 33.9423 41.2858 33.9753H46.1405C46.1405 24.2131 54.0822 16.2649 63.851 16.2649C73.6197 16.2649 81.5614 24.2065 81.5614 33.9753V42.8404H86.4161V34.5623C86.4161 31.0137 89.2985 28.1312 92.8472 28.1312V23.2765C89.846 23.2765 87.1152 24.4572 85.0969 26.37C81.9703 17.6566 73.6263 11.4102 63.851 11.4102Z" fill="#1397AF"/>
<path d="M63.8504 9.16077C66.1986 9.16077 68.0983 7.2611 68.0983 4.9129C68.0983 2.56471 66.1986 0.665039 63.8504 0.665039C61.5022 0.665039 59.6025 2.56471 59.6025 4.9129C59.6025 7.2611 61.5022 9.16077 63.8504 9.16077Z" fill="#1397AF"/>
<path d="M111.658 41.1913H116.513C116.513 31.3104 108.479 23.2764 98.5976 23.2764H96.7969V28.1311H98.5976C105.801 28.1311 111.658 33.9884 111.658 41.1913Z" fill="#1397AF"/>
<path d="M27.9673 33.8703V25.4868C27.9673 20.9619 24.2867 17.2812 19.7618 17.2812C17.5126 17.2812 15.4678 18.1915 13.9837 19.669C12.4995 18.1981 10.4548 17.2812 8.2055 17.2812C3.6806 17.2812 0 20.9619 0 25.4868V33.8703H4.85471V25.4868C4.85471 23.6399 6.3586 22.136 8.2055 22.136C10.0524 22.136 11.5563 23.6399 11.5563 25.4868V33.8703H16.411V25.4868C16.411 23.6399 17.9149 22.136 19.7618 22.136C21.6087 22.136 23.1126 23.6399 23.1126 25.4868V33.8703H27.9673Z" fill="#1397AF"/>
<path d="M102.034 37.332H97.1797V56.6651H116.513V51.8104H102.034V37.332Z" fill="#1397AF"/>
<path d="M26.8076 37.332V56.6651H46.1407V37.332H26.8076ZM41.2794 51.8104H31.6623V42.1933H41.2794V51.8104Z" fill="#1397AF"/>
</svg>
