<svg width="280" height="56" viewBox="0 0 280 56" fill="none" xmlns="http://www.w3.org/2000/svg">
<path d="M77.1719 55.9993V13.7617H91.0474V55.9993H77.1719ZM93.2448 22.1965V13.7617H109.098L117.448 22.1965V34.8646L111.044 41.3578L109.098 43.3312H98.0793H93.2448V35.1511H103.667V22.1965H93.2448ZM118.861 55.9993H104.044L98.0793 43.3312H109.098L111.044 41.3578L118.861 55.9993Z" fill="#32CD8B"/>
<path d="M123.193 46.9916H127.368V22.7376H123.193V13.7617H145.419V22.7376H141.244V46.9916H145.419V55.9993H123.193V46.9916Z" fill="#32CD8B"/>
<path d="M165.385 55.9993H159.86L151.509 47.5645V22.1965L159.86 13.7617H165.385V55.9993ZM167.582 22.1965V13.7617H182.368L190.687 22.1965V30.695H176.812V22.1965H167.582ZM167.582 55.9993V47.5645H176.812V41.3896H190.687V47.5645L182.368 55.9993H167.582Z" fill="#32CD8B"/>
<path d="M197.342 55.9993V13.7617H211.218V55.9993H197.342ZM213.353 50.0154V29.4854L223.084 13.7935L237.525 13.7617L213.353 50.0154ZM238.184 55.9993H223.178L218.47 46.1641L226.694 33.6551L238.184 55.9993Z" fill="#32CD8B"/>
<path d="M266.092 55.9993V40.1801H248.073L239.722 31.7135V22.1965L248.073 13.7617H252.782V28.7534H271.931L279.999 37.22V47.5645L271.68 55.9993H266.092ZM254.979 21.3689V13.7617H271.648L278.869 21.1143V25.6023H266.092V21.3689H254.979ZM239.722 43.3312H253.598V48.3603H263.894V55.9993H246.723L239.722 47.5645V43.3312Z" fill="#32CD8B"/>
<path d="M56.474 22.1965H44.9448L47.2769 13.7617L62.2816 13.7617L70.632 22.1965V30.7905L66.4568 35.0238L70.632 39.2571V47.5645L62.2816 55.9993H34.9805L37.5246 47.5645H56.474V38.5568H40.2807L42.4007 31.2042H56.474V22.1965Z" fill="#32CD8B"/>
<path d="M11.6172 18.9163H0V5.38731L4.69469 0H42.8256V10.7341H11.6172V18.9163Z" fill="#39946D"/>
<path fill-rule="evenodd" clip-rule="evenodd" d="M29.1426 13.7695C28.7106 13.7695 28.3275 14.0469 28.1926 14.4572L27.154 17.6162C26.9414 18.263 27.4232 18.9285 28.104 18.9285H32.2304L34.112 13.7695H29.1426ZM35.1985 13.7695L33.317 18.9285H39.5672C39.9992 18.9285 40.3823 18.6512 40.5172 18.2408L41.5557 15.0818C41.7684 14.4351 41.2866 13.7695 40.6058 13.7695H35.1985Z" fill="#39946D"/>
<path fill-rule="evenodd" clip-rule="evenodd" d="M27.4355 19.7773C27.0036 19.7773 26.6205 20.0547 26.4856 20.465L25.447 23.624C25.2344 24.2708 25.7162 24.9363 26.397 24.9363H33.4921L35.3737 19.7773H27.4355ZM36.4602 19.7773L34.5787 24.9363H37.8602C38.2921 24.9363 38.6753 24.659 38.8102 24.2487L39.8487 21.0897C40.0613 20.4429 39.5795 19.7773 38.8987 19.7773H36.4602Z" fill="#39946D"/>
<path fill-rule="evenodd" clip-rule="evenodd" d="M25.7123 26.2266C25.2902 26.2266 24.9135 26.4916 24.771 26.889L23.7922 29.6181C23.5586 30.2695 24.0414 30.9556 24.7335 30.9556H25.8633L27.7449 26.2266H25.7123ZM28.8314 26.2266L26.9498 30.9556H36.1773C36.5994 30.9556 36.9761 30.6906 37.1186 30.2932L38.0973 27.5642C38.331 26.9127 37.8481 26.2266 37.156 26.2266H28.8314Z" fill="#39946D"/>
<path fill-rule="evenodd" clip-rule="evenodd" d="M24.0449 32.2305C23.613 32.2305 23.2298 32.5078 23.0949 32.9182L22.0564 36.0772C21.8438 36.7239 22.3255 37.3895 23.0064 37.3895H29.6757L31.5573 32.2305H24.0449ZM32.6438 32.2305L30.7623 37.3895H34.4696C34.9015 37.3895 35.2846 37.1121 35.4195 36.7018L36.4581 33.5428C36.6707 32.896 36.1889 32.2305 35.5081 32.2305H32.6438Z" fill="#39946D"/>
<path fill-rule="evenodd" clip-rule="evenodd" d="M22.3256 38.6953C21.9034 38.6953 21.5268 38.9604 21.3843 39.3577L20.4055 42.0868C20.1719 42.7383 20.6547 43.4244 21.3468 43.4244H22.8984L24.78 38.6953H22.3256ZM25.8665 38.6953L23.985 43.4244H32.7906C33.2127 43.4244 33.5893 43.1593 33.7318 42.762L34.7106 40.0329C34.9443 39.3814 34.4614 38.6953 33.7693 38.6953H25.8665Z" fill="#39946D"/>
<path fill-rule="evenodd" clip-rule="evenodd" d="M20.6543 44.6914C20.2223 44.6914 19.8392 44.9688 19.7043 45.3791L18.6658 48.5381C18.4531 49.1849 18.9349 49.8504 19.6157 49.8504H25.4414L27.3229 44.6914H20.6543ZM28.4095 44.6914L26.5279 49.8504H31.0789C31.5109 49.8504 31.894 49.5731 32.0289 49.1627L33.0675 46.0037C33.2801 45.357 32.7983 44.6914 32.1175 44.6914H28.4095Z" fill="#39946D"/>
<path fill-rule="evenodd" clip-rule="evenodd" d="M18.5371 50.7148C18.1052 50.7148 17.722 50.9922 17.5871 51.4025L16.5486 54.5615C16.3359 55.2083 16.8177 55.8738 17.4986 55.8738H18.2343L20.1159 50.7148H18.5371ZM21.2024 50.7148L19.3209 55.8738H28.9617C29.3937 55.8738 29.7768 55.5965 29.9117 55.1862L30.9503 52.0272C31.1629 51.3804 30.6811 50.7148 30.0003 50.7148H21.2024Z" fill="#39946D"/>
</svg>
