<svg width="22" height="22" viewBox="0 0 22 22" fill="none" xmlns="http://www.w3.org/2000/svg">
<path fill-rule="evenodd" clip-rule="evenodd" d="M7.81495 4.16076C8.7224 3.92693 9.67681 3.94855 10.5727 4.22321C11.4687 4.49788 12.2712 5.0149 12.8918 5.71715C13.5123 6.4194 13.9266 7.27955 14.089 8.20254C14.2513 9.12554 14.1554 10.0755 13.8117 10.9473L17.1506 13.7739C17.4038 13.9879 17.6099 14.2522 17.7557 14.5499C17.9016 14.8477 17.984 15.1725 17.9979 15.5038C18.0118 15.8351 17.9567 16.1656 17.8363 16.4745C17.7158 16.7834 17.5326 17.064 17.2981 17.2984C17.0636 17.5328 16.7831 17.716 16.4742 17.8364C16.1653 17.9568 15.8347 18.0118 15.5035 17.9979C15.1723 17.9839 14.8475 17.9014 14.5498 17.7555C14.2521 17.6096 13.9879 17.4034 13.774 17.1501L10.9491 13.8124C10.0772 14.1566 9.1271 14.253 8.20383 14.0909C7.28057 13.9288 6.42011 13.5145 5.7176 12.8938C5.01508 12.2732 4.49788 11.4703 4.22317 10.574C3.94845 9.67767 3.92694 8.72284 4.16099 7.81506C4.19399 7.68751 4.26074 7.57121 4.35423 7.47838C4.44771 7.38555 4.56448 7.31962 4.69225 7.28752C4.82002 7.25543 4.95408 7.25836 5.08033 7.29599C5.20658 7.33363 5.32036 7.40458 5.40971 7.5014L7.62039 9.90251L9.28801 9.28898L9.90294 7.61903L7.5006 5.41178C7.40321 5.32245 7.33177 5.20846 7.29383 5.08186C7.25589 4.95527 7.25286 4.82077 7.28507 4.69259C7.31728 4.56442 7.38352 4.44733 7.4768 4.35372C7.57007 4.2601 7.68691 4.19343 7.81495 4.16076Z" fill="#B5B5B5"/>
</svg>
