<svg width="22" height="22" viewBox="0 0 22 22" fill="none" xmlns="http://www.w3.org/2000/svg">
<path opacity="0.5" d="M9.17009 18.3327H12.8368C16.2935 18.3327 18.0223 18.3327 19.0958 17.2583C20.1692 16.184 20.1701 14.4561 20.1701 10.9993C20.1701 10.5942 20.1683 9.52535 20.1664 9.16602H1.83675C1.83492 9.52535 1.83675 10.5942 1.83675 10.9993C1.83675 14.4561 1.83675 16.1849 2.91017 17.2583C3.98359 18.3318 5.71425 18.3327 9.17009 18.3327Z" fill="#A4A4A4"/>
<path d="M9.16469 3.66602H12.8405C16.3064 3.66602 18.0399 3.66602 19.116 4.68902C19.8915 5.4251 20.1088 6.48568 20.1693 8.24935V9.16602H1.83594V8.24935C1.89644 6.48477 2.11369 5.42602 2.88919 4.68902C3.96535 3.66602 5.69877 3.66602 9.16469 3.66602ZM11.4609 13.9785C11.2786 13.9785 11.1037 14.0509 10.9748 14.1799C10.8459 14.3088 10.7734 14.4837 10.7734 14.666C10.7734 14.8484 10.8459 15.0232 10.9748 15.1522C11.1037 15.2811 11.2786 15.3535 11.4609 15.3535H12.8359C13.0183 15.3535 13.1931 15.2811 13.3221 15.1522C13.451 15.0232 13.5234 14.8484 13.5234 14.666C13.5234 14.4837 13.451 14.3088 13.3221 14.1799C13.1931 14.0509 13.0183 13.9785 12.8359 13.9785H11.4609ZM5.5026 13.9785C5.32027 13.9785 5.1454 14.0509 5.01647 14.1799C4.88754 14.3088 4.8151 14.4837 4.8151 14.666C4.8151 14.8484 4.88754 15.0232 5.01647 15.1522C5.1454 15.2811 5.32027 15.3535 5.5026 15.3535H9.16927C9.35161 15.3535 9.52648 15.2811 9.65541 15.1522C9.78434 15.0232 9.85677 14.8484 9.85677 14.666C9.85677 14.4837 9.78434 14.3088 9.65541 14.1799C9.52648 14.0509 9.35161 13.9785 9.16927 13.9785H5.5026Z" fill="#A4A4A4"/>
</svg>
