<svg width="13" height="13" viewBox="0 0 13 13" fill="none" xmlns="http://www.w3.org/2000/svg">
<path d="M6.5 6.50063C5.60625 6.50063 4.8425 6.18375 4.20062 5.54187C3.56687 4.90812 3.24187 4.13625 3.24187 3.2425C3.24187 2.34875 3.55875 1.585 4.20062 0.943125C4.8425 0.30125 5.60625 -0.015625 6.5 -0.015625C7.39375 -0.015625 8.1575 0.30125 8.79937 0.943125C9.44125 1.585 9.75813 2.34875 9.75813 3.2425C9.75813 4.13625 9.44125 4.9 8.79937 5.54187C8.16562 6.17563 7.39375 6.50063 6.5 6.50063ZM0 13.0006V10.7256C0 10.2625 0.121875 9.84 0.3575 9.45813C0.593125 9.07625 0.91 8.77563 1.3 8.5725C2.13687 8.15 2.99 7.84125 3.85938 7.63C4.72875 7.41875 5.60625 7.31313 6.5 7.31313C7.39375 7.31313 8.27125 7.41875 9.14062 7.63C10.01 7.84125 10.8631 8.15813 11.7 8.5725C12.09 8.77563 12.4069 9.06813 12.6425 9.45813C12.8781 9.84813 13 10.2706 13 10.7256V13.0006H0Z" fill="#7B7E7B"/>
</svg>
