<svg width="20" height="20" viewBox="0 0 20 20" fill="none" xmlns="http://www.w3.org/2000/svg">
<path fill-rule="evenodd" clip-rule="evenodd" d="M5.83333 3.34703C5.38333 3.3662 5.06 3.4087 4.77417 3.50536C4.28532 3.66905 3.8411 3.94388 3.47643 4.30826C3.11175 4.67265 2.83657 5.11665 2.6725 5.60536C2.5 6.12286 2.5 6.7612 2.5 8.03953C2.5 8.1187 2.5 8.1587 2.51083 8.19036C2.52106 8.22102 2.53829 8.24887 2.56114 8.27173C2.58399 8.29458 2.61184 8.3118 2.6425 8.32203C2.67417 8.33286 2.71417 8.33286 2.79417 8.33286H17.2058C17.2858 8.33286 17.3258 8.33286 17.3575 8.32203C17.3882 8.3118 17.416 8.29458 17.4389 8.27173C17.4617 8.24887 17.4789 8.22102 17.4892 8.19036C17.5 8.15786 17.5 8.11786 17.5 8.03786C17.5 6.76036 17.5 6.1212 17.3275 5.6062C17.1637 5.11717 16.8886 4.67284 16.5239 4.30815C16.1592 3.94347 15.7149 3.66838 15.2258 3.50453C14.94 3.4087 14.6158 3.3662 14.1667 3.34703V5.41536C14.1667 5.74689 14.035 6.06483 13.8005 6.29925C13.5661 6.53367 13.2482 6.66536 12.9167 6.66536C12.5851 6.66536 12.2672 6.53367 12.0328 6.29925C11.7984 6.06483 11.6667 5.74689 11.6667 5.41536V3.33203H8.33333V5.41536C8.33333 5.74689 8.20164 6.06483 7.96722 6.29925C7.7328 6.53367 7.41485 6.66536 7.08333 6.66536C6.75181 6.66536 6.43387 6.53367 6.19945 6.29925C5.96503 6.06483 5.83333 5.74689 5.83333 5.41536V3.34703Z" fill="#3A3A3A"/>
<path d="M2.5 9.58073C2.5 9.38406 2.5 9.28573 2.56083 9.2249C2.62167 9.16406 2.72 9.16406 2.91667 9.16406H17.0833C17.28 9.16406 17.3783 9.16406 17.4392 9.2249C17.5 9.28573 17.5 9.38406 17.5 9.58073V9.9974C17.5 13.1399 17.5 14.7116 16.5233 15.6874C15.5467 16.6632 13.9758 16.6641 10.8333 16.6641H9.16667C6.02417 16.6641 4.4525 16.6641 3.47667 15.6874C2.50083 14.7107 2.5 13.1399 2.5 9.9974V9.58073Z" fill="black" fill-opacity="0.25"/>
<path d="M7.08594 2.08203V5.41536M12.9193 2.08203V5.41536" stroke="#3A3A3A" stroke-width="0.833333" stroke-linecap="round"/>
</svg>
