<svg width="20" height="20" viewBox="0 0 20 20" fill="none" xmlns="http://www.w3.org/2000/svg">
<path opacity="0.99" d="M8.59695 13.4116C8.48738 13.4117 8.37887 13.3902 8.27763 13.3483C8.17639 13.3064 8.08441 13.2449 8.00695 13.1674L5.66361 10.8233C5.51182 10.6661 5.42782 10.4556 5.42972 10.2371C5.43162 10.0186 5.51926 9.80961 5.67377 9.6551C5.82827 9.50059 6.03728 9.41295 6.25578 9.41106C6.47428 9.40916 6.68478 9.49315 6.84195 9.64495L8.59611 11.4L13.1636 6.83328C13.3214 6.68513 13.5306 6.60416 13.747 6.60752C13.9634 6.61088 14.17 6.69831 14.3231 6.85129C14.4762 7.00428 14.5638 7.21082 14.5673 7.42723C14.5708 7.64363 14.49 7.85291 14.3419 8.01078L9.18528 13.1674C9.02904 13.3237 8.81794 13.4116 8.59695 13.4116Z" fill="white"/>
<path opacity="0.5" d="M9.9974 1.66797C8.34922 1.66797 6.73806 2.15671 5.36765 3.07239C3.99724 3.98807 2.92913 5.28956 2.2984 6.81227C1.66767 8.33499 1.50265 10.0105 1.82419 11.6271C2.14573 13.2436 2.93941 14.7284 4.10484 15.8939C5.27028 17.0593 6.75514 17.853 8.37165 18.1745C9.98816 18.4961 11.6637 18.331 13.1864 17.7003C14.7091 17.0696 16.0106 16.0015 16.9263 14.6311C17.842 13.2606 18.3307 11.6495 18.3307 10.0013C18.3285 7.79184 17.4498 5.67351 15.8875 4.11118C14.3252 2.54886 12.2069 1.67017 9.9974 1.66797ZM14.3366 8.01214L9.1799 13.1688C9.02363 13.325 8.8117 13.4128 8.59073 13.4128C8.36976 13.4128 8.15784 13.325 8.00157 13.1688L5.65823 10.8246C5.50643 10.6675 5.42244 10.457 5.42434 10.2385C5.42624 10.02 5.51388 9.81096 5.66838 9.65645C5.82289 9.50195 6.0319 9.41431 6.2504 9.41241C6.4689 9.41051 6.6794 9.4945 6.83657 9.6463L8.59073 11.4013L13.1582 6.83464C13.316 6.68648 13.5252 6.60551 13.7416 6.60887C13.958 6.61224 14.1646 6.69966 14.3177 6.85264C14.4708 7.00563 14.5584 7.21218 14.5619 7.42858C14.5654 7.64498 14.4846 7.85426 14.3366 8.01214Z" fill="white"/>
</svg>
