<svg width="18" height="18" viewBox="0 0 18 18" fill="none" xmlns="http://www.w3.org/2000/svg">
<path d="M9 0.568734C6.59625 0.568734 4.87838 0.663984 3.759 0.759984C2.52263 0.865359 1.58738 1.83173 1.497 3.06061C1.407 4.28573 1.3125 6.23123 1.3125 9.00623C1.3125 11.7812 1.407 13.7264 1.497 14.9519C1.587 16.1804 2.52263 17.1467 3.759 17.2525C4.87838 17.3481 6.59662 17.4437 9 17.4437C11.4034 17.4437 13.1216 17.3481 14.241 17.2525C15.4774 17.1467 16.4126 16.1804 16.503 14.9519C16.593 13.7264 16.6875 11.7809 16.6875 9.00623C16.6875 6.23161 16.593 4.28573 16.503 3.06061C16.413 1.83173 15.4774 0.865359 14.241 0.759609C13.1216 0.663984 11.4034 0.568359 9 0.568359" fill="#FFF3F5"/>
<path fill-rule="evenodd" clip-rule="evenodd" d="M8.25 3.75C8.05109 3.75 7.86032 3.82902 7.71967 3.96967C7.57902 4.11032 7.5 4.30109 7.5 4.5C7.5 4.69891 7.57902 4.88968 7.71967 5.03033C7.86032 5.17098 8.05109 5.25 8.25 5.25H12.75C12.9489 5.25 13.1397 5.17098 13.2803 5.03033C13.421 4.88968 13.5 4.69891 13.5 4.5C13.5 4.30109 13.421 4.11032 13.2803 3.96967C13.1397 3.82902 12.9489 3.75 12.75 3.75H8.25ZM7.5 7.875C7.5 7.67609 7.57902 7.48532 7.71967 7.34467C7.86032 7.20402 8.05109 7.125 8.25 7.125H10.5C10.6989 7.125 10.8897 7.20402 11.0303 7.34467C11.171 7.48532 11.25 7.67609 11.25 7.875C11.25 8.07391 11.171 8.26468 11.0303 8.40533C10.8897 8.54598 10.6989 8.625 10.5 8.625H8.25C8.05109 8.625 7.86032 8.54598 7.71967 8.40533C7.57902 8.26468 7.5 8.07391 7.5 7.875Z" fill="#FF7290"/>
<path d="M5.25 0.658203V17.3532C4.75248 17.3276 4.25541 17.2939 3.759 17.252C2.52263 17.1466 1.58738 16.1802 1.497 14.9517C1.407 13.7262 1.3125 11.7807 1.3125 9.00608C1.3125 6.23145 1.407 4.28558 1.497 3.06008C1.587 1.83158 2.52263 0.865203 3.759 0.759453C4.17263 0.724203 4.66838 0.688953 5.25 0.658203Z" fill="#FF7290"/>
</svg>
