<svg width="180" height="48" viewBox="0 0 180 48" fill="none" xmlns="http://www.w3.org/2000/svg">
<rect x="0.5" y="0.5" width="179" height="47" rx="23.5" fill="white" stroke="#E6E6E6"/>
<path d="M74.892 19.27H76.068V21.062C76.068 21.7713 75.984 22.4667 75.816 23.148C75.648 23.82 75.4007 24.4547 75.074 25.052C74.7567 25.6493 74.374 26.1767 73.926 26.634C73.478 27.0913 72.9833 27.4553 72.442 27.726L71.588 26.564C72.0827 26.3307 72.5307 26.018 72.932 25.626C73.3427 25.234 73.6927 24.7907 73.982 24.296C74.2713 23.792 74.4953 23.2647 74.654 22.714C74.8127 22.1633 74.892 21.6127 74.892 21.062V19.27ZM75.2 19.27H76.376V21.062C76.376 21.594 76.4553 22.1213 76.614 22.644C76.7727 23.1667 76.9967 23.6613 77.286 24.128C77.5753 24.5947 77.9207 25.01 78.322 25.374C78.7233 25.738 79.176 26.0273 79.68 26.242L78.868 27.404C78.308 27.152 77.804 26.8113 77.356 26.382C76.908 25.9527 76.5207 25.458 76.194 24.898C75.8767 24.3287 75.6293 23.722 75.452 23.078C75.284 22.4247 75.2 21.7527 75.2 21.062V19.27ZM72.05 18.626H79.218V19.844H72.05V18.626ZM80.702 17.366H82.172V30.162H80.702V17.366ZM84.3829 24.604H95.9749V25.808H84.3829V24.604ZM89.4089 25.374H90.8649V30.162H89.4089V25.374ZM90.1509 17.842C91.0469 17.842 91.8356 17.9587 92.5169 18.192C93.1982 18.4253 93.7302 18.752 94.1129 19.172C94.4956 19.592 94.6869 20.0913 94.6869 20.67C94.6869 21.2487 94.4956 21.7527 94.1129 22.182C93.7302 22.602 93.1982 22.9287 92.5169 23.162C91.8356 23.3953 91.0469 23.512 90.1509 23.512C89.2549 23.512 88.4616 23.3953 87.7709 23.162C87.0896 22.9287 86.5576 22.602 86.1749 22.182C85.7922 21.7527 85.6009 21.2487 85.6009 20.67C85.6009 20.0913 85.7922 19.592 86.1749 19.172C86.5576 18.752 87.0896 18.4253 87.7709 18.192C88.4616 17.9587 89.2549 17.842 90.1509 17.842ZM90.1369 19.004C89.5302 19.004 88.9982 19.074 88.5409 19.214C88.0929 19.3447 87.7429 19.536 87.4909 19.788C87.2389 20.0307 87.1129 20.3247 87.1129 20.67C87.1129 21.0153 87.2389 21.314 87.4909 21.566C87.7429 21.818 88.0929 22.0093 88.5409 22.14C88.9982 22.2707 89.5302 22.336 90.1369 22.336C90.7529 22.336 91.2849 22.2707 91.7329 22.14C92.1902 22.0093 92.5449 21.818 92.7969 21.566C93.0489 21.314 93.1749 21.0153 93.1749 20.67C93.1749 20.3247 93.0489 20.0307 92.7969 19.788C92.5449 19.536 92.1902 19.3447 91.7329 19.214C91.2849 19.074 90.7529 19.004 90.1369 19.004ZM106.222 17.352H107.692V30.148H106.222V17.352ZM102.456 18.71H103.912C103.912 19.662 103.809 20.572 103.604 21.44C103.398 22.308 103.062 23.134 102.596 23.918C102.138 24.6927 101.532 25.4113 100.776 26.074C100.029 26.7367 99.1051 27.334 98.0038 27.866L97.2198 26.704C98.4611 26.1067 99.4645 25.4253 100.23 24.66C100.995 23.8947 101.555 23.0407 101.91 22.098C102.274 21.146 102.456 20.1007 102.456 18.962V18.71ZM97.8498 18.71H103.114V19.886H97.8498V18.71Z" fill="#575757"/>
</svg>
