<svg width="18" height="18" viewBox="0 0 18 18" fill="none" xmlns="http://www.w3.org/2000/svg">
<path d="M2.93025 4.9362C2.91188 4.51357 2.664 4.1682 2.24213 4.13745C2.13638 4.1297 2.014 4.12557 1.875 4.12507C1.6665 4.12432 1.614 4.12957 1.50787 4.13745C1.086 4.1682 0.838125 4.51357 0.81975 4.9362C0.787875 5.66932 0.75 7.1637 0.75 10.1251C0.75 13.0864 0.787875 14.5808 0.81975 15.3139C0.838125 15.7366 1.086 16.0819 1.50787 16.1127C1.61362 16.1207 1.736 16.1248 1.875 16.1251C2.0835 16.1254 2.136 16.1202 2.24213 16.1127C2.664 16.0819 2.91188 15.7366 2.93025 15.3139C2.94712 14.9281 2.9655 14.3314 2.979 13.4209C3.001 13.4232 3.02313 13.4247 3.04538 13.4254C3.82313 13.4581 5.502 13.5001 9 13.5001C12.498 13.5001 14.1769 13.4584 14.955 13.4254C14.9765 13.4247 14.9977 13.4232 15.0187 13.4209C15.0326 14.3314 15.051 14.9277 15.0675 15.3136C15.0863 15.7362 15.3337 16.0819 15.756 16.1123C16.0004 16.1296 16.2458 16.1297 16.4902 16.1127C16.9121 16.0819 17.16 15.7362 17.1784 15.3136C17.2024 14.7556 17.2301 13.7558 17.2421 12.0034C17.2427 11.9047 17.2238 11.8069 17.1864 11.7155C17.149 11.6241 17.094 11.541 17.0244 11.471C16.9548 11.401 16.872 11.3454 16.7809 11.3075C16.6897 11.2696 16.592 11.2501 16.4932 11.2501H15V11.3138C14.8801 11.2716 14.754 11.2501 14.6269 11.2501H9C5.502 11.2501 3.82312 11.2917 3.045 11.3247L2.99775 11.3273C2.99925 10.9566 3 10.5558 3 10.1251C3 7.16407 2.96213 5.66932 2.93025 4.9362Z" fill="#8FBFFA"/>
<path d="M7.9575 6.19601C8.00662 5.68226 8.42775 5.29601 8.94375 5.27464C10.7715 5.19851 12.4631 5.30876 13.8364 5.46889C15.8663 5.70589 17.25 7.48901 17.25 9.53276V9.74989C17.25 9.9488 17.171 10.1396 17.0303 10.2802C16.8897 10.4209 16.6989 10.4999 16.5 10.4999H8.69812C8.33287 10.4999 8.02313 10.2374 7.983 9.87439C7.9113 9.22284 7.87525 8.56787 7.875 7.91239C7.875 7.24114 7.91437 6.64601 7.9575 6.19601ZM7.125 8.81239C7.125 9.25994 6.94721 9.68916 6.63074 10.0056C6.31428 10.3221 5.88505 10.4999 5.4375 10.4999C4.98995 10.4999 4.56073 10.3221 4.24426 10.0056C3.92779 9.68916 3.75 9.25994 3.75 8.81239C3.75 8.36483 3.92779 7.93561 4.24426 7.61914C4.56073 7.30268 4.98995 7.12489 5.4375 7.12489C5.88505 7.12489 6.31428 7.30268 6.63074 7.61914C6.94721 7.93561 7.125 8.36483 7.125 8.81239Z" fill="#2859C5"/>
</svg>
