<svg width="14" height="14" viewBox="0 0 14 14" fill="none" xmlns="http://www.w3.org/2000/svg">
<g clip-path="url(#clip0_7094_3599)">
<path d="M9.33837 3.09287C10.8744 3.92318 11.8847 5.34856 12.2445 6.92615C12.369 6.74625 12.4936 6.56635 12.5904 6.38645C13.7252 4.28299 12.9364 1.65367 10.8329 0.518905C8.72947 -0.615855 6.10015 0.172941 4.96539 2.2764C4.8962 2.41478 4.82701 2.55317 4.75781 2.70539C6.2247 2.20721 7.88532 2.30408 9.35221 3.09287H9.33837Z" fill="#915B41"/>
<path d="M12.242 6.91199C10.8581 8.87706 7.74446 10.856 5.80707 9.81808C3.82816 8.75252 3.80048 4.91924 4.7415 2.70508C3.38532 3.16175 2.20905 4.10277 1.47561 5.44511C-0.0466335 8.26817 1.01893 11.7832 3.84199 13.3054C6.66506 14.8276 10.18 13.7621 11.7023 10.939C12.3942 9.65202 12.5464 8.22665 12.242 6.89815V6.91199Z" fill="#1FBDFF"/>
<path d="M5.80543 9.81757C7.72899 10.8555 10.8565 8.87655 12.2403 6.91148C11.8805 5.33389 10.8703 3.90852 9.33425 3.07821C7.86737 2.28941 6.20675 2.20638 4.73986 2.69073C3.81268 4.90489 3.84036 8.73817 5.80543 9.80373V9.81757Z" fill="#F2B819"/>
</g>
<defs>
<clipPath id="clip0_7094_3599">
<rect width="14" height="14" fill="white"/>
</clipPath>
</defs>
</svg>
