<svg width="18" height="17" viewBox="0 0 18 17" fill="none" xmlns="http://www.w3.org/2000/svg">
<path fill-rule="evenodd" clip-rule="evenodd" d="M7.16409 12.462C7.20858 12.3373 7.29051 12.2293 7.39867 12.1529C7.50683 12.0765 7.63595 12.0354 7.76837 12.0352H10.0698C10.2022 12.0354 10.3313 12.0765 10.4395 12.1529C10.5477 12.2293 10.6296 12.3373 10.6741 12.462L11.5574 14.928H12.7762C13.032 14.928 13.2772 15.0296 13.4581 15.2104C13.6389 15.3913 13.7405 15.6366 13.7405 15.8923C13.7405 16.148 13.6389 16.3933 13.4581 16.5742C13.2772 16.755 13.032 16.8566 12.7762 16.8566H5.06194C4.8062 16.8566 4.56093 16.755 4.38009 16.5742C4.19925 16.3933 4.09766 16.148 4.09766 15.8923C4.09766 15.6366 4.19925 15.3913 4.38009 15.2104C4.56093 15.0296 4.8062 14.928 5.06194 14.928H6.2808L7.16409 12.462Z" fill="#FFCA1B"/>
<path fill-rule="evenodd" clip-rule="evenodd" d="M1.872 0C0.838286 0 0 0.838286 0 1.872V11.2706C0 12.3043 0.838286 13.1426 1.872 13.1426H15.9917C16.5032 13.1426 16.9937 12.9394 17.3554 12.5777C17.7171 12.216 17.9203 11.7255 17.9203 11.214V1.92857C17.9203 1.41708 17.7171 0.926543 17.3554 0.564865C16.9937 0.203188 16.5032 0 15.9917 0H1.872Z" fill="#FFE387"/>
<path fill-rule="evenodd" clip-rule="evenodd" d="M6.10993 4.68638C6.10993 4.47326 6.02527 4.26887 5.87457 4.11817C5.72387 3.96747 5.51948 3.88281 5.30636 3.88281C5.09324 3.88281 4.88885 3.96747 4.73815 4.11817C4.58745 4.26887 4.50279 4.47326 4.50279 4.68638V5.81138H3.37779C3.16467 5.81138 2.96028 5.89605 2.80958 6.04674C2.65888 6.19744 2.57422 6.40184 2.57422 6.61496C2.57422 6.82808 2.65888 7.03247 2.80958 7.18317C2.96028 7.33387 3.16467 7.41853 3.37779 7.41853H4.50279V8.54353C4.50279 8.75665 4.58745 8.96104 4.73815 9.11174C4.88885 9.26244 5.09324 9.3471 5.30636 9.3471C5.51948 9.3471 5.72387 9.26244 5.87457 9.11174C6.02527 8.96104 6.10993 8.75665 6.10993 8.54353V7.41853H7.23493C7.44805 7.41853 7.65245 7.33387 7.80314 7.18317C7.95384 7.03247 8.0385 6.82808 8.0385 6.61496C8.0385 6.40184 7.95384 6.19744 7.80314 6.04674C7.65245 5.89605 7.44805 5.81138 7.23493 5.81138H6.10993V4.68638ZM12.9139 5.36138C12.9139 5.65975 13.0325 5.9459 13.2434 6.15688C13.4544 6.36786 13.7406 6.48638 14.0389 6.48638C14.3373 6.48638 14.6234 6.36786 14.8344 6.15688C15.0454 5.9459 15.1639 5.65975 15.1639 5.36138C15.1639 5.06302 15.0454 4.77687 14.8344 4.56589C14.6234 4.35491 14.3373 4.23638 14.0389 4.23638C13.7406 4.23638 13.4544 4.35491 13.2434 4.56589C13.0325 4.77687 12.9139 5.06302 12.9139 5.36138ZM10.4171 7.86853C10.4171 8.1669 10.5356 8.45304 10.7466 8.66402C10.9576 8.875 11.2437 8.99353 11.5421 8.99353C11.8404 8.99353 12.1266 8.875 12.3376 8.66402C12.5485 8.45304 12.6671 8.1669 12.6671 7.86853C12.6671 7.57016 12.5485 7.28401 12.3376 7.07303C12.1266 6.86205 11.8404 6.74353 11.5421 6.74353C11.2437 6.74353 10.9576 6.86205 10.7466 7.07303C10.5356 7.28401 10.4171 7.57016 10.4171 7.86853Z" fill="#FFCA1B"/>
</svg>
