<svg width="22" height="16" viewBox="0 0 22 16" fill="none" xmlns="http://www.w3.org/2000/svg">
<path fill-rule="evenodd" clip-rule="evenodd" d="M21.1791 0.47632C21.4837 0.781052 21.6549 1.1943 21.6549 1.62519C21.6549 2.05609 21.4837 2.46934 21.1791 2.77407L8.99918 14.954C8.83822 15.115 8.64712 15.2427 8.4368 15.3298C8.22647 15.417 8.00104 15.4618 7.77339 15.4618C7.54573 15.4618 7.3203 15.417 7.10998 15.3298C6.89965 15.2427 6.70855 15.115 6.54759 14.954L0.496093 8.90357C0.340889 8.75367 0.217093 8.57436 0.131929 8.3761C0.046764 8.17785 0.00193631 7.96461 6.13545e-05 7.74885C-0.0018136 7.53308 0.0393018 7.3191 0.121008 7.11939C0.202715 6.91969 0.323376 6.73825 0.475952 6.58568C0.628527 6.4331 0.809961 6.31244 1.00967 6.23073C1.20937 6.14903 1.42335 6.10791 1.63912 6.10979C1.85489 6.11166 2.06812 6.15649 2.26638 6.24165C2.46463 6.32682 2.64394 6.45062 2.79384 6.60582L7.77284 11.5848L18.8803 0.47632C19.0312 0.325314 19.2104 0.205524 19.4076 0.123795C19.6048 0.0420663 19.8162 0 20.0297 0C20.2432 0 20.4546 0.0420663 20.6518 0.123795C20.849 0.205524 21.0282 0.325314 21.1791 0.47632Z" fill="white"/>
</svg>
