<svg width="20" height="20" viewBox="0 0 20 20" fill="none" xmlns="http://www.w3.org/2000/svg">
<path opacity="0.5" d="M10.6933 18.1685C13.2983 17.6468 16.6667 15.7726 16.6667 10.9268C16.6667 6.51763 13.4392 3.58096 11.1183 2.23179C10.6025 1.93179 10 2.32596 10 2.92179V4.44513C10 5.64679 9.495 7.84013 8.09167 8.75263C7.375 9.21846 6.6 8.52096 6.51333 7.67096L6.44167 6.97263C6.35833 6.16096 5.53167 5.66846 4.88333 6.16346C3.7175 7.05096 2.5 8.60929 2.5 10.926C2.5 16.8518 6.9075 18.3343 9.11083 18.3343C9.23972 18.3343 9.37417 18.3301 9.51417 18.3218C9.88583 18.2751 9.51417 18.4043 10.6933 18.1676" fill="#3A3A3A"/>
<path d="M6.67188 15.3692C6.67188 17.5525 8.43104 18.2275 9.51937 18.3209C9.89104 18.2742 9.51937 18.4034 10.6985 18.1667C11.5644 17.8609 12.5052 17.0759 12.5052 15.3692C12.5052 14.2884 11.8227 13.6209 11.2885 13.3084C11.1252 13.2125 10.9352 13.3334 10.921 13.5217C10.8744 14.12 10.2994 14.5967 9.90854 14.1417C9.56271 13.74 9.41687 13.1525 9.41687 12.7767V12.285C9.41687 11.99 9.11937 11.7934 8.86437 11.945C7.91771 12.5059 6.67188 13.6609 6.67188 15.3692Z" fill="#3A3A3A"/>
</svg>
