<svg width="14" height="14" viewBox="0 0 14 14" fill="none" xmlns="http://www.w3.org/2000/svg">
<path fill-rule="evenodd" clip-rule="evenodd" d="M1.99924 9.11089L4.88616 11.9972C5.41349 12.5251 5.67716 12.7888 5.99916 12.8261C6.0711 12.8351 6.14324 12.8351 6.21557 12.8261C6.53757 12.7888 6.80124 12.5251 7.32857 11.9978C7.85649 11.4699 8.12016 11.2062 8.15749 10.8842C8.16584 10.8125 8.16584 10.7401 8.15749 10.6684C8.12016 10.3458 7.85649 10.0821 7.32916 9.55422L6.67991 8.90614L4.86982 7.09548L4.44166 6.66789C3.91432 6.13998 3.65066 5.87631 3.32866 5.83898C3.25676 5.83058 3.18413 5.83058 3.11224 5.83898C2.79024 5.87631 2.52657 6.13998 1.99924 6.66731C1.47132 7.19523 1.20766 7.45889 1.17032 7.78089C1.16198 7.85259 1.16198 7.92502 1.17032 7.99673C1.20766 8.31931 1.47191 8.58298 1.99924 9.11089ZM7.09291 4.87181L8.90357 6.68248L9.55224 7.33056C10.0796 7.85848 10.3432 8.12214 10.6652 8.15948C10.7376 8.16842 10.8097 8.16842 10.8817 8.15948C11.2037 8.12214 11.4673 7.85848 11.9947 7.33114C12.5226 6.80323 12.7862 6.53956 12.8236 6.21756C12.8319 6.14586 12.8319 6.07343 12.8236 6.00173C12.7862 5.67914 12.5226 5.41548 11.9952 4.88756L9.10774 2.00123C8.58041 1.47331 8.31674 1.20964 7.99474 1.17231C7.92284 1.16392 7.85022 1.16392 7.77832 1.17231C7.45632 1.20964 7.19266 1.47331 6.66532 2.00064C6.13741 2.52856 5.87374 2.79223 5.83641 3.11423C5.82806 3.18593 5.82806 3.25836 5.83641 3.33006C5.87374 3.65264 6.13741 3.91631 6.66474 4.44423L7.09291 4.87181Z" fill="#6436FF"/>
<path opacity="0.5" d="M6.68567 8.90738L8.90933 6.68371L7.09867 4.87305L4.875 7.09671L6.68567 8.90738Z" fill="#6436FF"/>
<path opacity="0.5" fill-rule="evenodd" clip-rule="evenodd" d="M10.2053 1.14748C10.2873 1.06555 10.3985 1.01953 10.5145 1.01953C10.6304 1.01953 10.7416 1.06555 10.8236 1.14748L12.6349 2.95815C12.7145 3.0407 12.7586 3.15123 12.7575 3.26594C12.7565 3.38065 12.7104 3.49036 12.6293 3.57144C12.5481 3.65252 12.4384 3.69848 12.3237 3.69942C12.2089 3.70036 12.0984 3.65621 12.016 3.57648L10.2053 1.76581C10.1234 1.68378 10.0774 1.57258 10.0774 1.45665C10.0774 1.34071 10.1234 1.22951 10.2053 1.14748ZM1.15139 10.2008C1.23342 10.1189 1.34461 10.0729 1.46055 10.0729C1.57649 10.0729 1.68769 10.1189 1.76972 10.2008L3.58039 12.0115C3.65767 12.0944 3.69974 12.2041 3.69774 12.3175C3.69574 12.4308 3.64982 12.5389 3.56967 12.6191C3.48951 12.6993 3.38137 12.7452 3.26802 12.7472C3.15468 12.7492 3.04499 12.7071 2.96205 12.6298L1.15139 10.8191C1.06946 10.7371 1.02344 10.6259 1.02344 10.51C1.02344 10.394 1.06946 10.2828 1.15139 10.2008Z" fill="#6436FF"/>
</svg>
