<svg width="17" height="17" viewBox="0 0 17 17" fill="none" xmlns="http://www.w3.org/2000/svg">
<path fill-rule="evenodd" clip-rule="evenodd" d="M9.9375 9.5625C9.73859 9.5625 9.54782 9.64152 9.40717 9.78217C9.26652 9.92282 9.1875 10.1136 9.1875 10.3125C9.1875 10.5114 9.26652 10.7022 9.40717 10.8428C9.54782 10.9835 9.73859 11.0625 9.9375 11.0625H15.9375C16.1364 11.0625 16.3272 10.9835 16.4678 10.8428C16.6085 10.7022 16.6875 10.5114 16.6875 10.3125C16.6875 10.1136 16.6085 9.92282 16.4678 9.78217C16.3272 9.64152 16.1364 9.5625 15.9375 9.5625H9.9375ZM9.1875 12.9375C9.1875 12.7386 9.26652 12.5478 9.40717 12.4072C9.54782 12.2665 9.73859 12.1875 9.9375 12.1875H15.9375C16.1364 12.1875 16.3272 12.2665 16.4678 12.4072C16.6085 12.5478 16.6875 12.7386 16.6875 12.9375C16.6875 13.1364 16.6085 13.3272 16.4678 13.4678C16.3272 13.6085 16.1364 13.6875 15.9375 13.6875H9.9375C9.73859 13.6875 9.54782 13.6085 9.40717 13.4678C9.26652 13.3272 9.1875 13.1364 9.1875 12.9375ZM9.1875 15.5625C9.1875 15.3636 9.26652 15.1728 9.40717 15.0322C9.54782 14.8915 9.73859 14.8125 9.9375 14.8125H15.9375C16.1364 14.8125 16.3272 14.8915 16.4678 15.0322C16.6085 15.1728 16.6875 15.3636 16.6875 15.5625C16.6875 15.7614 16.6085 15.9522 16.4678 16.0928C16.3272 16.2335 16.1364 16.3125 15.9375 16.3125H9.9375C9.73859 16.3125 9.54782 16.2335 9.40717 16.0928C9.26652 15.9522 9.1875 15.7614 9.1875 15.5625Z" fill="#FF7832"/>
<path fill-rule="evenodd" clip-rule="evenodd" d="M6.23325 0.123375C5.709 0.05475 4.968 0 3.9375 0C2.907 0 2.166 0.05475 1.64175 0.123375C0.70425 0.245625 0.105375 0.991125 0.05175 1.87725C0.0225 2.3535 0 3.01875 0 3.9375C0 4.85625 0.0225 5.52187 0.051375 5.99775C0.105375 6.88387 0.704625 7.62937 1.64175 7.75163C2.166 7.82025 2.907 7.875 3.9375 7.875C4.968 7.875 5.709 7.82025 6.23325 7.75163C7.17075 7.62937 7.76962 6.88387 7.82325 5.99775C7.8525 5.5215 7.875 4.85625 7.875 3.9375C7.875 3.01875 7.8525 2.35313 7.82362 1.87725C7.76962 0.991125 7.17037 0.245625 6.23325 0.123375ZM0 12.9375C0 10.7629 1.76287 9 3.9375 9C6.11212 9 7.875 10.7629 7.875 12.9375C7.875 15.1121 6.11212 16.875 3.9375 16.875C1.76287 16.875 0 15.1121 0 12.9375ZM11.7349 0.73125C11.8756 0.54742 12.0568 0.398474 12.2644 0.295963C12.472 0.193451 12.7004 0.140127 12.9319 0.140127C13.1634 0.140127 13.3918 0.193451 13.5994 0.295963C13.807 0.398474 13.9881 0.54742 14.1289 0.73125C14.6882 1.44418 15.1966 2.19567 15.6502 2.98012C16.1026 3.76503 16.4992 4.58079 16.8371 5.42137C16.9261 5.63522 16.9645 5.86668 16.9495 6.09779C16.9345 6.32891 16.8665 6.55346 16.7507 6.75403C16.6349 6.95459 16.4744 7.12578 16.2818 7.25431C16.0891 7.38283 15.8694 7.46523 15.6397 7.49512C14.9535 7.593 14.013 7.6875 12.9322 7.6875C12.0263 7.68683 11.1216 7.62242 10.2247 7.49475C9.99513 7.46484 9.7755 7.38244 9.58287 7.25394C9.39024 7.12544 9.22981 6.95429 9.11401 6.75377C8.99821 6.55325 8.93016 6.32876 8.91513 6.09769C8.90011 5.86662 8.93852 5.6352 9.02737 5.42137C9.36525 4.58079 9.76186 3.76503 10.2142 2.98012C10.6678 2.19589 11.1759 1.44416 11.7349 0.73125Z" fill="#FFC1A1"/>
</svg>
