<svg width="18" height="18" viewBox="0 0 18 18" fill="none" xmlns="http://www.w3.org/2000/svg">
<path fill-rule="evenodd" clip-rule="evenodd" d="M9.01467 1.0359C9.86781 0.988032 10.723 0.988032 11.5761 1.0359C11.9842 1.05876 12.3213 1.37194 12.3842 1.78914C12.4757 2.39149 12.4757 2.94813 12.3842 3.55163C12.3568 3.751 12.2614 3.93481 12.1142 4.07203C11.967 4.20925 11.7769 4.29149 11.5761 4.30487C10.9818 4.33687 10.4274 4.3483 9.85934 4.33687V6.16337C9.85934 6.39073 9.76902 6.60877 9.60826 6.76954C9.44749 6.9303 9.22945 7.02062 9.0021 7.02062C8.77474 7.02062 8.5567 6.9303 8.39593 6.76954C8.23517 6.60877 8.14485 6.39073 8.14485 6.16337V3.03614C8.14485 3.01557 8.14561 2.99576 8.14714 2.97671C8.12552 2.57948 8.14544 2.18108 8.20657 1.78799C8.23425 1.58883 8.32973 1.40529 8.47693 1.2683C8.62412 1.13131 8.81403 1.04924 9.01467 1.0359ZM3.01167 9.70322H2.99109C2.09156 9.73751 1.30289 10.3902 1.17602 11.316C1.06172 12.1527 1 12.7173 1 13.2911C1 13.866 1.06172 14.4306 1.17602 15.2673C1.30175 16.1931 2.09156 16.8446 2.99109 16.8789C7.32647 17.0424 10.6754 17.0424 15.0108 16.8789C15.9103 16.8446 16.699 16.1931 16.8259 15.2673C16.9402 14.4306 17.0019 13.866 17.0019 13.2911C17.0019 12.7173 16.9402 12.1527 16.8259 11.316C16.7002 10.3902 15.9103 9.73866 15.0108 9.70437H3.01281" fill="#32CD8B"/>
<path fill-rule="evenodd" clip-rule="evenodd" d="M13.3012 10.1705C13.2831 9.8095 13.2614 9.44868 13.236 9.0881C13.1126 6.54722 10.9855 5.32651 9.00583 5.32422C8.00685 5.32308 6.9873 5.6214 6.19178 6.25005C5.38483 6.88555 4.8339 7.84109 4.77332 9.08124C4.74733 9.45438 4.72523 9.82778 4.70703 10.2014L4.73218 16.3907C4.73274 16.5399 4.79165 16.683 4.8963 16.7893C5.00096 16.8957 5.14306 16.9569 5.29224 16.9599C8.19545 17.0148 9.8105 17.0102 12.7103 16.9599C12.8599 16.9575 13.0025 16.8965 13.1077 16.7901C13.2128 16.6837 13.272 16.5403 13.2726 16.3907L13.3023 10.2014L13.3012 10.1705Z" fill="#88EAB4"/>
<path fill-rule="evenodd" clip-rule="evenodd" d="M10.1415 16.9958V14.6196C10.1415 14.3164 10.021 14.0257 9.80668 13.8113C9.59233 13.597 9.3016 13.4766 8.99846 13.4766C8.69532 13.4766 8.4046 13.597 8.19024 13.8113C7.97589 14.0257 7.85547 14.3164 7.85547 14.6196V16.997C8.6327 17.0027 9.36422 17.0027 10.1415 16.997" fill="#E4FEE8"/>
<path d="M9.00177 10.9257C9.80758 10.9257 10.2613 10.457 10.2613 9.62609C10.2613 8.79513 9.80758 8.32422 9.00177 8.32422C8.19596 8.32422 7.74219 8.79285 7.74219 9.62495C7.74219 10.457 8.19596 10.9257 9.00177 10.9257Z" fill="#E4FEE8"/>
</svg>
