<svg width="14" height="14" viewBox="0 0 14 14" fill="none" xmlns="http://www.w3.org/2000/svg">
<path opacity="0.5" d="M12.1604 5.08198C12.3734 4.86894 12.5423 4.61603 12.6576 4.3377C12.7728 4.05937 12.8321 3.76106 12.8321 3.45981C12.8321 3.15856 12.7727 2.86026 12.6574 2.58195C12.5421 2.30364 12.3731 2.05077 12.1601 1.83777C11.947 1.62477 11.6941 1.45582 11.4158 1.34056C11.1375 1.2253 10.8392 1.16599 10.5379 1.16602C9.92949 1.16607 9.34602 1.40781 8.91585 1.83806L8.39844 2.35548L8.4206 2.42023C8.67568 3.1499 9.09315 3.81211 9.64152 4.35689C10.2025 4.92138 10.8877 5.34687 11.6424 5.59939L12.1604 5.08198Z" fill="#34C9C3"/>
<path d="M8.42051 2.33398L8.39776 2.35615L8.41992 2.42148C8.675 3.15116 9.09247 3.81337 9.64084 4.35815C10.2018 4.92263 10.887 5.34813 11.6417 5.60065L6.64834 10.594C6.31117 10.9306 6.14259 11.0992 5.95709 11.2438C5.73804 11.4143 5.50119 11.5606 5.25067 11.6802C5.03834 11.7817 4.81259 11.8569 4.36051 12.0074L1.97876 12.8013C1.86977 12.8378 1.75276 12.8432 1.64087 12.8169C1.52898 12.7906 1.42664 12.7336 1.34533 12.6524C1.26403 12.5711 1.20697 12.4688 1.18058 12.357C1.15419 12.2451 1.1595 12.1281 1.19592 12.0191L1.99042 9.63673C2.14092 9.18523 2.21617 8.95948 2.31709 8.74715C2.43726 8.49593 2.5829 8.26026 2.75401 8.04015C2.89867 7.85465 3.06726 7.68665 3.40384 7.35007L8.42051 2.33398Z" fill="#34C9C3"/>
</svg>
