<svg width="20" height="20" viewBox="0 0 20 20" fill="none" xmlns="http://www.w3.org/2000/svg">
<path opacity="0.99" d="M8.58913 13.4116C8.47957 13.4117 8.37106 13.3902 8.26982 13.3483C8.16858 13.3064 8.0766 13.2449 7.99913 13.1674L5.6558 10.8233C5.504 10.6661 5.42001 10.4556 5.42191 10.2371C5.42381 10.0186 5.51145 9.80961 5.66595 9.6551C5.82046 9.50059 6.02947 9.41295 6.24797 9.41106C6.46646 9.40916 6.67697 9.49315 6.83413 9.64495L8.5883 11.4L13.1558 6.83328C13.3136 6.68513 13.5228 6.60416 13.7392 6.60752C13.9556 6.61088 14.1622 6.69831 14.3153 6.85129C14.4684 7.00428 14.556 7.21082 14.5595 7.42723C14.563 7.64363 14.4822 7.85291 14.3341 8.01078L9.17747 13.1674C9.02122 13.3237 8.81013 13.4116 8.58913 13.4116Z" fill="#3A3A3A"/>
<path opacity="0.5" d="M10.0052 1.66797C8.35703 1.66797 6.74587 2.15671 5.37546 3.07239C4.00505 3.98807 2.93695 5.28956 2.30622 6.81227C1.67549 8.33499 1.51046 10.0105 1.832 11.6271C2.15354 13.2436 2.94722 14.7284 4.11266 15.8939C5.27809 17.0593 6.76295 17.853 8.37946 18.1745C9.99597 18.4961 11.6715 18.331 13.1942 17.7003C14.717 17.0696 16.0184 16.0015 16.9341 14.6311C17.8498 13.2606 18.3385 11.6495 18.3385 10.0013C18.3363 7.79184 17.4577 5.67351 15.8953 4.11118C14.333 2.54886 12.2147 1.67017 10.0052 1.66797ZM14.3444 8.01214L9.18771 13.1688C9.03144 13.325 8.81952 13.4128 8.59855 13.4128C8.37758 13.4128 8.16565 13.325 8.00938 13.1688L5.66605 10.8246C5.51425 10.6675 5.43025 10.457 5.43215 10.2385C5.43405 10.02 5.52169 9.81096 5.6762 9.65645C5.8307 9.50195 6.03971 9.41431 6.25821 9.41241C6.47671 9.41051 6.68721 9.4945 6.84438 9.6463L8.59855 11.4013L13.166 6.83464C13.3238 6.68648 13.533 6.60551 13.7494 6.60887C13.9658 6.61224 14.1725 6.69966 14.3256 6.85264C14.4786 7.00563 14.5662 7.21218 14.5697 7.42858C14.5732 7.64498 14.4924 7.85426 14.3444 8.01214Z" fill="#3A3A3A"/>
</svg>
