<svg width="22" height="22" viewBox="0 0 22 22" fill="none" xmlns="http://www.w3.org/2000/svg">
<path fill-rule="evenodd" clip-rule="evenodd" d="M12.9606 3.08157C12.9212 2.68465 12.901 2.48573 12.8213 2.3299C12.7193 2.13332 12.5497 1.98028 12.3437 1.89907C12.1814 1.83398 11.9816 1.83398 11.5819 1.83398H10.4233C10.0236 1.83398 9.82377 1.83398 9.66244 1.89815C9.45578 1.97963 9.28574 2.13338 9.18394 2.33082C9.10419 2.48573 9.08402 2.68465 9.0446 3.08248C8.96944 3.83415 8.93185 4.20998 8.77419 4.41623C8.67606 4.54503 8.54557 4.64553 8.39598 4.70752C8.2464 4.76951 8.08307 4.79078 7.9226 4.76915C7.66594 4.73432 7.3726 4.49507 6.78777 4.01657C6.47885 3.76357 6.32394 3.63707 6.15802 3.5839C5.94671 3.51638 5.71807 3.52778 5.51452 3.61598C5.3541 3.68473 5.21202 3.82682 4.9306 4.10915L4.1111 4.92773C3.82877 5.21007 3.6876 5.35215 3.61794 5.51165C3.52973 5.7152 3.51833 5.94384 3.58585 6.15515C3.63902 6.32198 3.76552 6.47598 4.01852 6.78582C4.49794 7.37157 4.73719 7.66398 4.77202 7.92157C4.79348 8.08189 4.77213 8.24504 4.71015 8.39444C4.64816 8.54384 4.54775 8.67419 4.4191 8.77223C4.21285 8.9299 3.83702 8.96748 3.08444 9.04265C2.6866 9.08207 2.48769 9.10223 2.33277 9.18198C2.1355 9.28357 1.98177 9.45325 1.9001 9.65957C1.83594 9.82182 1.83594 10.0217 1.83594 10.4213V11.58C1.83594 11.9797 1.83594 12.1795 1.9001 12.3408C1.98158 12.5475 2.13533 12.7175 2.33277 12.8193C2.48769 12.8991 2.6866 12.9192 3.08444 12.9587C3.8361 13.0338 4.21194 13.0714 4.4191 13.2291C4.54759 13.3272 4.64782 13.4576 4.70964 13.607C4.77146 13.7564 4.79267 13.9195 4.7711 14.0797C4.73719 14.3373 4.49794 14.6297 4.01944 15.2155C3.76552 15.5244 3.63902 15.6793 3.58585 15.8452C3.51833 16.0566 3.52973 16.2852 3.61794 16.4887C3.6876 16.6492 3.82877 16.7912 4.1111 17.0727L4.9306 17.8922C5.21294 18.1745 5.3541 18.3157 5.51452 18.3853C5.71807 18.4735 5.94671 18.4849 6.15802 18.4174C6.32394 18.3642 6.47885 18.2377 6.78777 17.9847C7.37352 17.5053 7.66594 17.2661 7.92352 17.2312C8.08384 17.2098 8.24699 17.2311 8.39639 17.2931C8.5458 17.3551 8.67614 17.4555 8.77419 17.5842C8.93185 17.7904 8.96944 18.1672 9.0446 18.9197C9.08402 19.3167 9.10419 19.5156 9.18394 19.6714C9.28587 19.868 9.45551 20.021 9.66152 20.1022C9.82377 20.1673 10.0236 20.1673 10.4233 20.1673H11.5819C11.9816 20.1673 12.1814 20.1673 12.3428 20.1032C12.5493 20.0219 12.7193 19.8685 12.8213 19.6714C12.901 19.5156 12.9212 19.3167 12.9606 18.9197C13.0358 18.1662 13.0734 17.7904 13.231 17.5842C13.3291 17.4554 13.4596 17.3549 13.6092 17.2929C13.7588 17.2309 13.9221 17.2096 14.0826 17.2312C14.3393 17.2661 14.6326 17.5053 15.2174 17.9838C15.5264 18.2368 15.6813 18.3633 15.8472 18.4165C16.0585 18.484 16.2871 18.4726 16.4907 18.3844C16.6511 18.3157 16.7932 18.1736 17.0746 17.8912L17.8941 17.0727C18.1764 16.7903 18.3176 16.6492 18.3873 16.4887C18.4755 16.2852 18.4869 16.0566 18.4194 15.8452C18.3662 15.6784 18.2397 15.5244 17.9867 15.2155C17.5082 14.6297 17.2689 14.3373 17.2341 14.0807C17.2123 13.92 17.2335 13.7565 17.2955 13.6068C17.3575 13.457 17.4581 13.3264 17.587 13.2282C17.7933 13.0723 18.1691 13.0338 18.9217 12.9587C19.3186 12.9192 19.5175 12.8991 19.6734 12.8193C19.8703 12.7176 20.0237 12.5479 20.1051 12.3417C20.1693 12.1795 20.1693 11.9797 20.1693 11.58V10.4213C20.1693 10.0217 20.1693 9.82182 20.1051 9.66048C20.0236 9.45383 19.8699 9.28379 19.6724 9.18198C19.5175 9.10223 19.3186 9.08207 18.9208 9.04265C18.1691 8.96748 17.7933 8.9299 17.5861 8.77223C17.4576 8.67408 17.3574 8.54369 17.2956 8.3943C17.2337 8.2449 17.2125 8.08181 17.2341 7.92157C17.268 7.66398 17.5073 7.37157 17.9858 6.78582C18.2397 6.4769 18.3662 6.32198 18.4194 6.15607C18.4869 5.94475 18.4755 5.71612 18.3873 5.51257C18.3176 5.35215 18.1764 5.21007 17.8941 4.92865L17.0746 4.10915C16.7923 3.82682 16.6511 3.68565 16.4907 3.61598C16.2871 3.52778 16.0585 3.51638 15.8472 3.5839C15.6813 3.63707 15.5264 3.76357 15.2174 4.01657C14.6317 4.49598 14.3393 4.73523 14.0826 4.76915C13.9222 4.79088 13.7589 4.76976 13.6094 4.70793C13.4598 4.64611 13.3293 4.54578 13.231 4.41715C13.0734 4.2109 13.0358 3.83415 12.9606 3.08157Z" fill="black" fill-opacity="0.25"/>
<path d="M11 13.75C12.5188 13.75 13.75 12.5188 13.75 11C13.75 9.48122 12.5188 8.25 11 8.25C9.48122 8.25 8.25 9.48122 8.25 11C8.25 12.5188 9.48122 13.75 11 13.75Z" fill="white"/>
</svg>
