<svg width="20" height="20" viewBox="0 0 20 20" fill="none" xmlns="http://www.w3.org/2000/svg">
<rect x="6" y="4" width="8" height="10" fill="#717171"/>
<path d="M18.9 2.10762C18.5538 1.75464 18.141 1.47485 17.686 1.28466C17.2309 1.09446 16.7427 0.997699 16.25 1.00004H3.75C2.75625 1.0027 1.80395 1.40136 1.10126 2.10889C0.398575 2.81642 0.00263946 3.77527 0 4.77587V12.7001C0.00263946 13.7007 0.398575 14.6595 1.10126 15.367C1.80395 16.0746 2.75625 16.4732 3.75 16.4759H9.24999V18.4897H6.53C6.33108 18.4897 6.14032 18.5692 5.99967 18.7109C5.85901 18.8525 5.78 19.0446 5.78 19.2448C5.78 19.4451 5.85901 19.6372 5.99967 19.7788C6.14032 19.9204 6.33108 20 6.53 20H13.47C13.6689 20 13.8597 19.9204 14.0003 19.7788C14.141 19.6372 14.22 19.4451 14.22 19.2448C14.22 19.0446 14.141 18.8525 14.0003 18.7109C13.8597 18.5692 13.6689 18.4897 13.47 18.4897H10.75V16.4759H16.25C16.7425 16.4771 17.2304 16.3798 17.6853 16.1897C18.1402 15.9996 18.5531 15.7204 18.9 15.3683C19.6025 14.6603 19.998 13.7009 20 12.7001V4.77587C20.0012 4.27994 19.9046 3.7887 19.7158 3.33066C19.5269 2.87262 19.2496 2.4569 18.9 2.10762ZM9.15999 12.1765C9.16785 11.979 9.2523 11.7924 9.39521 11.6569C9.53813 11.5214 9.72812 11.4477 9.9244 11.4517C10.1207 11.4556 10.3076 11.5369 10.445 11.6781C10.5824 11.8192 10.6594 12.009 10.6594 12.2067C10.6594 12.4044 10.5824 12.5941 10.445 12.7353C10.3076 12.8765 10.1207 12.9578 9.9244 12.9617C9.72812 12.9657 9.53813 12.892 9.39521 12.7565C9.2523 12.6209 9.16785 12.4344 9.15999 12.2369V12.1765ZM12.24 7.93951C12.116 8.24157 11.978 8.34931 11.74 8.57183C11.5023 8.78995 11.2234 8.95773 10.92 9.06521C10.8548 9.08715 10.8008 9.13421 10.77 9.1961C10.7238 9.25744 10.696 9.33082 10.69 9.40755V9.8103C10.69 9.90947 10.6706 10.0077 10.6329 10.0993C10.5952 10.1909 10.54 10.2742 10.4703 10.3443C10.4007 10.4144 10.318 10.47 10.227 10.508C10.136 10.5459 10.0385 10.5655 9.93999 10.5655C9.8415 10.5655 9.74398 10.5459 9.65298 10.508C9.56199 10.47 9.47931 10.4144 9.40966 10.3443C9.34002 10.2742 9.28478 10.1909 9.24708 10.0993C9.20939 10.0077 9.18999 9.90947 9.18999 9.8103V9.38741C9.20505 9.00253 9.32624 8.62948 9.53999 8.31004C9.7618 8.00784 10.0632 7.77416 10.41 7.63543C10.5247 7.60236 10.6306 7.54388 10.72 7.46426C10.8053 7.38734 10.8705 7.29054 10.91 7.18233C10.9578 7.08141 10.9818 6.97073 10.98 6.85894C10.9783 6.74715 10.9509 6.63728 10.9 6.53792C10.8259 6.40317 10.7236 6.28633 10.6 6.19558C10.4682 6.1036 10.318 6.04174 10.16 6.01434C9.9156 5.96478 9.66173 6.00028 9.43999 6.11503C9.23284 6.23433 9.06572 6.41312 8.95999 6.62854C8.91928 6.71912 8.86126 6.80073 8.78922 6.86872C8.71719 6.93672 8.63255 6.98976 8.54016 7.02482C8.44777 7.05988 8.34942 7.07628 8.25073 7.07307C8.15204 7.06986 8.05495 7.04711 7.965 7.00612C7.87504 6.96513 7.79398 6.9067 7.72645 6.83417C7.65893 6.76164 7.60625 6.67643 7.57142 6.5834C7.5366 6.49037 7.52032 6.39134 7.52351 6.29197C7.52669 6.19261 7.54929 6.09485 7.59 6.00427C7.82969 5.47697 8.2371 5.04517 8.74782 4.77711C9.25853 4.50905 9.84341 4.42004 10.41 4.52415C10.7927 4.58706 11.1556 4.73873 11.47 4.96718C11.7901 5.19983 12.0535 5.50285 12.24 5.85324C12.3892 6.1609 12.4708 6.49728 12.4795 6.83954C12.4881 7.1818 12.4235 7.52192 12.29 7.8368L12.24 7.93951Z" fill="#D9D9D9"/>
</svg>
