<svg width="170" height="179" viewBox="0 0 170 179" fill="none" xmlns="http://www.w3.org/2000/svg">
<g filter="url(#filter0_d_8663_20106)">
<mask id="path-1-inside-1_8663_20106" fill="white">
<path d="M131.989 1.55908C133.807 -0.519442 136.755 -0.519442 138.573 1.55908L144.158 7.94385H154C160.627 7.94385 166 13.3165 166 19.9438V158.323C166 164.95 160.627 170.323 154 170.323H16C9.37268 170.323 4.00016 164.95 4 158.323V19.9438C4.00011 13.3165 9.37265 7.94385 16 7.94385H126.404L131.989 1.55908Z"/>
</mask>
<path d="M131.989 1.55908C133.807 -0.519442 136.755 -0.519442 138.573 1.55908L144.158 7.94385H154C160.627 7.94385 166 13.3165 166 19.9438V158.323C166 164.95 160.627 170.323 154 170.323H16C9.37268 170.323 4.00016 164.95 4 158.323V19.9438C4.00011 13.3165 9.37265 7.94385 16 7.94385H126.404L131.989 1.55908Z" fill="white"/>
<path d="M131.989 1.55908L132.742 2.21747L132.742 2.21745L131.989 1.55908ZM138.573 1.55908L137.821 2.21745L137.821 2.21747L138.573 1.55908ZM144.158 7.94385L143.406 8.60224L143.704 8.94385H144.158V7.94385ZM154 7.94385V6.94385V6.94385V7.94385ZM166 19.9438H167V19.9438L166 19.9438ZM166 158.323L167 158.323V158.323H166ZM154 170.323V171.323V170.323ZM16 170.323V171.323V171.323V170.323ZM4 158.323H3V158.323L4 158.323ZM4 19.9438L3 19.9438V19.9438H4ZM16 7.94385V6.94385V7.94385ZM126.404 7.94385V8.94385H126.858L127.157 8.60224L126.404 7.94385ZM131.989 1.55908L132.742 2.21745C134.162 0.594437 136.401 0.594437 137.821 2.21745L138.573 1.55908L139.326 0.900718C137.109 -1.63332 133.453 -1.63332 131.237 0.900718L131.989 1.55908ZM138.573 1.55908L137.821 2.21747L143.406 8.60224L144.158 7.94385L144.911 7.28546L139.326 0.900692L138.573 1.55908ZM144.158 7.94385V8.94385H154V7.94385V6.94385H144.158V7.94385ZM154 7.94385V8.94385C160.075 8.94385 165 13.8688 165 19.9439L166 19.9438L167 19.9438C167 12.7643 161.18 6.94385 154 6.94385V7.94385ZM166 19.9438H165V158.323H166H167V19.9438H166ZM166 158.323L165 158.323C165 164.398 160.075 169.323 154 169.323V170.323V171.323C161.18 171.323 167 165.502 167 158.323L166 158.323ZM154 170.323V169.323H16V170.323V171.323H154V170.323ZM16 170.323V169.323C9.92499 169.323 5.00015 164.398 5 158.323L4 158.323L3 158.323C3.00017 165.502 8.82037 171.323 16 171.323V170.323ZM4 158.323H5V19.9438H4H3V158.323H4ZM4 19.9438L5 19.9439C5.0001 13.8688 9.92496 8.94385 16 8.94385V7.94385V6.94385C8.82035 6.94385 3.00012 12.7643 3 19.9438L4 19.9438ZM16 7.94385V8.94385H126.404V7.94385V6.94385H16V7.94385ZM126.404 7.94385L127.157 8.60224L132.742 2.21747L131.989 1.55908L131.237 0.900692L125.652 7.28546L126.404 7.94385Z" fill="#E9E9E9" mask="url(#path-1-inside-1_8663_20106)"/>
</g>
<defs>
<filter id="filter0_d_8663_20106" x="0" y="0" width="170" height="178.323" filterUnits="userSpaceOnUse" color-interpolation-filters="sRGB">
<feFlood flood-opacity="0" result="BackgroundImageFix"/>
<feColorMatrix in="SourceAlpha" type="matrix" values="0 0 0 0 0 0 0 0 0 0 0 0 0 0 0 0 0 0 127 0" result="hardAlpha"/>
<feOffset dy="4"/>
<feGaussianBlur stdDeviation="2"/>
<feComposite in2="hardAlpha" operator="out"/>
<feColorMatrix type="matrix" values="0 0 0 0 0 0 0 0 0 0 0 0 0 0 0 0 0 0 0.05 0"/>
<feBlend mode="normal" in2="BackgroundImageFix" result="effect1_dropShadow_8663_20106"/>
<feBlend mode="normal" in="SourceGraphic" in2="effect1_dropShadow_8663_20106" result="shape"/>
</filter>
</defs>
</svg>
