<svg width="20" height="20" viewBox="0 0 20 20" fill="none" xmlns="http://www.w3.org/2000/svg">
<path fill-rule="evenodd" clip-rule="evenodd" d="M17.9487 1.80978C17.9487 0.985491 17.2573 0.178348 16.3516 0.164062H16.3459L4.42731 0.172634C4.04646 0.172504 3.67555 0.29414 3.36874 0.519777L1.99731 1.52978C1.95213 1.56295 1.91539 1.6063 1.89008 1.65631C1.86476 1.70632 1.85156 1.76158 1.85156 1.81763C1.85156 1.87369 1.86476 1.92895 1.89008 1.97896C1.91539 2.02897 1.95213 2.07231 1.99731 2.10549L3.36874 3.11406C3.67445 3.34121 4.04588 3.46263 4.42874 3.46263L16.3459 3.45549H16.3516C17.2573 3.44121 17.9487 2.63406 17.9487 1.80978Z" fill="#A5A5A5"/>
<path d="M2.46429 5.88281C2.27485 5.88281 2.09316 5.95807 1.95921 6.09202C1.82525 6.22598 1.75 6.40766 1.75 6.5971V16.8657C1.75 17.0551 1.82525 17.2368 1.95921 17.3707C2.09316 17.5047 2.27485 17.58 2.46429 17.58C4.77429 17.58 6.29 17.9271 7.34 18.3485C8.28286 18.7271 8.88 19.1728 9.40286 19.5642L9.57714 19.6942C9.70027 19.7856 9.84953 19.835 10.0029 19.835C10.1562 19.835 10.3054 19.7856 10.4286 19.6942L10.6014 19.5657C11.1257 19.1742 11.7229 18.7271 12.6657 18.3485C13.7171 17.9271 15.2314 17.58 17.5414 17.58C17.7309 17.58 17.9125 17.5047 18.0465 17.3707C18.1805 17.2368 18.2557 17.0551 18.2557 16.8657V6.5971C18.2557 6.40766 18.1805 6.22598 18.0465 6.09202C17.9125 5.95807 17.7309 5.88281 17.5414 5.88281C15.0843 5.88281 13.3843 6.25281 12.1343 6.75424C11.3743 7.06223 10.6578 7.46803 10.0029 7.96138C9.3479 7.46803 8.63137 7.06223 7.87143 6.75424C6.62143 6.25281 4.92143 5.88281 2.46429 5.88281Z" fill="#D9D9D9"/>
<path d="M9.10938 19.3461V7.36328L9.1308 7.37757C9.39804 7.53685 9.70385 7.61974 10.0149 7.61722C10.326 7.6147 10.6305 7.52687 10.8951 7.36328V19.3461C10.7382 19.4607 10.5825 19.5769 10.4279 19.6947C10.3048 19.7861 10.1556 19.8354 10.0022 19.8354C9.8489 19.8354 9.69964 19.7861 9.57652 19.6947L9.40223 19.5633L9.10938 19.3461Z" fill="#A5A5A5"/>
</svg>
