<svg width="20" height="20" viewBox="0 0 20 20" fill="none" xmlns="http://www.w3.org/2000/svg">
<g clip-path="url(#clip0_6895_13576)">
<path d="M2.4783 0.130859C1.13545 0.130859 0.046875 1.21943 0.046875 2.56229V5.28229H19.8683V2.56229C19.8683 1.21943 18.7797 0.130859 17.4369 0.130859H2.4783Z" fill="#717171"/>
<path fill-rule="evenodd" clip-rule="evenodd" d="M0.046875 5.2832H19.8683V17.5218C19.8683 18.8646 18.7797 19.9532 17.4369 19.9532H2.47973C1.13688 19.9532 0.046875 18.8646 0.046875 17.5218V5.2832Z" fill="#D9D9D9"/>
<path fill-rule="evenodd" clip-rule="evenodd" d="M13.6632 11.7656C12.6914 10.7985 11.3763 10.2557 10.0053 10.2557C8.63441 10.2557 7.31925 10.7985 6.34749 11.7656C6.2494 11.8708 6.13111 11.9553 5.99968 12.0138C5.86825 12.0724 5.72638 12.1039 5.58252 12.1064C5.43866 12.1089 5.29576 12.0825 5.16235 12.0286C5.02893 11.9747 4.90774 11.8945 4.806 11.7928C4.70426 11.691 4.62405 11.5698 4.57017 11.4364C4.51628 11.303 4.48982 11.1601 4.49235 11.0162C4.49489 10.8724 4.52638 10.7305 4.58494 10.5991C4.6435 10.4676 4.72793 10.3494 4.8332 10.2513C6.20688 8.8821 8.06728 8.11328 10.0068 8.11328C11.9463 8.11328 13.8067 8.8821 15.1803 10.2513C15.2826 10.3502 15.3642 10.4684 15.4203 10.5992C15.4764 10.7299 15.5059 10.8705 15.507 11.0128C15.5082 11.155 15.481 11.2961 15.4271 11.4278C15.3732 11.5594 15.2935 11.679 15.1929 11.7796C15.0923 11.8801 14.9726 11.9596 14.8409 12.0134C14.7092 12.0672 14.5681 12.0943 14.4258 12.093C14.2836 12.0917 14.143 12.062 14.0123 12.0058C13.8816 11.9496 13.762 11.8679 13.6632 11.7656ZM11.5703 14.0798C10.7389 13.2484 9.27606 13.2484 8.44463 14.0798C8.24246 14.2749 7.97177 14.3828 7.69084 14.3802C7.40992 14.3776 7.14124 14.2648 6.94268 14.0661C6.74412 13.8673 6.63157 13.5986 6.62926 13.3176C6.62695 13.0367 6.73508 12.7661 6.93034 12.5641C8.59749 10.8956 11.4175 10.8956 13.0861 12.5641C13.2811 12.7663 13.389 13.037 13.3864 13.3179C13.3839 13.5988 13.271 13.8675 13.0723 14.0661C12.8736 14.2646 12.6048 14.3772 12.3238 14.3795C12.0429 14.3818 11.7723 14.2737 11.5703 14.0784M10.0061 17.067C10.2902 17.067 10.5627 16.9541 10.7637 16.7532C10.9646 16.5522 11.0775 16.2797 11.0775 15.9956C11.0775 15.7114 10.9646 15.4389 10.7637 15.2379C10.5627 15.037 10.2902 14.9241 10.0061 14.9241C9.7219 14.9241 9.44937 15.037 9.24844 15.2379C9.04751 15.4389 8.93463 15.7114 8.93463 15.9956C8.93463 16.2797 9.04751 16.5522 9.24844 16.7532C9.44937 16.9541 9.7219 17.067 10.0061 17.067Z" fill="#717171"/>
</g>
<defs>
<clipPath id="clip0_6895_13576">
<rect width="20" height="20" fill="white"/>
</clipPath>
</defs>
</svg>
