<svg width="22" height="22" viewBox="0 0 22 22" fill="none" xmlns="http://www.w3.org/2000/svg">
<path opacity="0.6" d="M13.7448 1.83398H12.8281C10.2358 1.83398 8.93871 1.83398 8.13387 2.63973C7.32812 3.44457 7.32813 4.74165 7.32813 7.33398V14.6673C7.32813 17.2597 7.32812 18.5567 8.13387 19.3616C8.93871 20.1673 10.2358 20.1673 12.8281 20.1673H13.7448C16.3371 20.1673 17.6342 20.1673 18.439 19.3616C19.2448 18.5567 19.2448 17.2597 19.2448 14.6673V7.33398C19.2448 4.74165 19.2448 3.44457 18.439 2.63973C17.6342 1.83398 16.3371 1.83398 13.7448 1.83398Z" fill="white"/>
<path opacity="0.4" d="M7.33333 7.33333C7.33333 5.9235 7.33333 4.89775 7.46258 4.125H7.33333C5.17275 4.125 4.092 4.125 3.421 4.796C2.75 5.467 2.75 6.54775 2.75 8.70833V13.2917C2.75 15.4523 2.75 16.5321 3.421 17.204C4.092 17.8759 5.17275 17.875 7.33333 17.875H7.46258C7.33333 17.1023 7.33333 16.0765 7.33333 14.6667V7.33333Z" fill="white"/>
<path fill-rule="evenodd" clip-rule="evenodd" d="M4.09169 10.5131C3.96294 10.642 3.89063 10.8167 3.89062 10.9989C3.89063 11.1811 3.96294 11.3558 4.09169 11.4848L5.92502 13.3181C6.05535 13.4395 6.22772 13.5056 6.40583 13.5025C6.58394 13.4994 6.75388 13.4272 6.87984 13.3012C7.0058 13.1753 7.07795 13.0053 7.0811 12.8272C7.08424 12.6491 7.01813 12.4767 6.89669 12.3464L6.23669 11.6864H12.8275C13.0099 11.6864 13.1847 11.614 13.3137 11.4851C13.4426 11.3561 13.515 11.1813 13.515 10.9989C13.515 10.8166 13.4426 10.6417 13.3137 10.5128C13.1847 10.3839 13.0099 10.3114 12.8275 10.3114H6.23669L6.89669 9.65142C6.96423 9.58848 7.01841 9.51258 7.05599 9.42825C7.09356 9.34391 7.11377 9.25288 7.1154 9.16057C7.11702 9.06825 7.10004 8.97656 7.06547 8.89096C7.03089 8.80535 6.97942 8.72759 6.91414 8.6623C6.84885 8.59702 6.77109 8.54555 6.68548 8.51097C6.59988 8.4764 6.50819 8.45942 6.41587 8.46104C6.32356 8.46267 6.23253 8.48288 6.14819 8.52045C6.06386 8.55803 5.98796 8.61221 5.92502 8.67975L4.09169 10.5131Z" fill="white"/>
</svg>
