<svg width="22" height="22" viewBox="0 0 22 22" fill="none" xmlns="http://www.w3.org/2000/svg">
<path opacity="0.6" d="M13.7448 1.83398H12.8281C10.2358 1.83398 8.93871 1.83398 8.13387 2.63973C7.32812 3.44457 7.32813 4.74165 7.32813 7.33398V14.6673C7.32813 17.2597 7.32812 18.5567 8.13387 19.3616C8.93871 20.1673 10.2358 20.1673 12.8281 20.1673H13.7448C16.3371 20.1673 17.6342 20.1673 18.439 19.3616C19.2448 18.5567 19.2448 17.2597 19.2448 14.6673V7.33398C19.2448 4.74165 19.2448 3.44457 18.439 2.63973C17.6342 1.83398 16.3371 1.83398 13.7448 1.83398Z" fill="white"/>
<path opacity="0.4" d="M7.33333 7.33333C7.33333 5.9235 7.33333 4.89775 7.46258 4.125H7.33333C5.17275 4.125 4.092 4.125 3.421 4.796C2.75 5.467 2.75 6.54775 2.75 8.70833V13.2917C2.75 15.4523 2.75 16.5321 3.421 17.204C4.092 17.8759 5.17275 17.875 7.33333 17.875H7.46258C7.33333 17.1023 7.33333 16.0765 7.33333 14.6667V7.33333Z" fill="white"/>
<path fill-rule="evenodd" clip-rule="evenodd" d="M13.3146 10.5131C13.4433 10.642 13.5156 10.8167 13.5156 10.9989C13.5156 11.1811 13.4433 11.3558 13.3146 11.4848L11.4812 13.3181C11.3509 13.4395 11.1785 13.5056 11.0004 13.5025C10.8223 13.4994 10.6524 13.4272 10.5264 13.3012C10.4004 13.1753 10.3283 13.0053 10.3252 12.8272C10.322 12.6491 10.3881 12.4767 10.5096 12.3464L11.1696 11.6864H4.57873C4.39639 11.6864 4.22153 11.614 4.09259 11.4851C3.96366 11.3561 3.89123 11.1813 3.89123 10.9989C3.89123 10.8166 3.96366 10.6417 4.09259 10.5128C4.22153 10.3839 4.39639 10.3114 4.57873 10.3114H11.1696L10.5096 9.65142C10.442 9.58848 10.3878 9.51258 10.3503 9.42825C10.3127 9.34391 10.2925 9.25288 10.2909 9.16057C10.2892 9.06825 10.3062 8.97656 10.3408 8.89096C10.3754 8.80535 10.4268 8.72759 10.4921 8.6623C10.5574 8.59702 10.6352 8.54555 10.7208 8.51097C10.8064 8.4764 10.8981 8.45942 10.9904 8.46104C11.0827 8.46267 11.1737 8.48288 11.2581 8.52045C11.3424 8.55803 11.4183 8.61221 11.4812 8.67975L13.3146 10.5131Z" fill="white"/>
</svg>
