<svg width="144" height="50" viewBox="0 0 144 50" fill="none" xmlns="http://www.w3.org/2000/svg">
<g filter="url(#filter0_d_6895_12629)">
<path d="M33.356 25.608V21.882H32.276V25.608H30.368V16.77H32.276V20.01H33.356V16.5H35.3V25.608H33.356ZM20 24.744L21.332 17.022H23.888L24.77 22.152L25.652 17.022H28.208L29.54 24.654H27.74L26.948 18.912L25.742 24.744H23.87L22.628 18.912L21.782 24.744H20ZM22.556 32.538V26.22H35.264V32.538H22.556ZM24.644 30.846H33.176V27.876H24.644V30.846ZM37.0944 18.354H41.4144V16.338H43.5744V18.354H47.7864V20.046H37.0944V18.354ZM48.6864 32.682V16.5H50.7744V23.25H53.2944V25.122H50.7744V32.682H48.6864ZM42.4404 20.712C43.0884 20.712 43.7004 20.808 44.2764 21C44.8524 21.18 45.3504 21.444 45.7704 21.792C46.1904 22.128 46.5204 22.548 46.7604 23.052C47.0124 23.544 47.1384 24.096 47.1384 24.708V26.832C47.1384 27.456 47.0124 28.02 46.7604 28.524C46.5204 29.016 46.1904 29.43 45.7704 29.766C45.3504 30.114 44.8524 30.378 44.2764 30.558C43.7004 30.738 43.0884 30.828 42.4404 30.828C41.7804 30.828 41.1624 30.738 40.5864 30.558C40.0224 30.378 39.5244 30.114 39.0924 29.766C38.6724 29.43 38.3424 29.016 38.1024 28.524C37.8624 28.02 37.7424 27.456 37.7424 26.832V24.708C37.7424 24.096 37.8624 23.544 38.1024 23.052C38.3424 22.548 38.6724 22.128 39.0924 21.792C39.9804 21.072 41.0964 20.712 42.4404 20.712ZM39.6144 26.652C39.6144 27.48 39.8664 28.116 40.3704 28.56C40.8744 28.992 41.5644 29.208 42.4404 29.208C43.3044 29.208 43.9884 28.992 44.4924 28.56C45.0084 28.116 45.2664 27.48 45.2664 26.652V24.888C45.2664 24.06 45.0084 23.43 44.4924 22.998C43.9884 22.554 43.3044 22.332 42.4404 22.332C41.5644 22.332 40.8744 22.554 40.3704 22.998C39.8664 23.43 39.6144 24.06 39.6144 24.888V26.652ZM67.8688 17.49C67.8447 19.23 67.7847 20.91 67.6888 22.53C67.5928 24.138 67.4368 25.65 67.2208 27.066H65.1328C65.2408 26.418 65.3308 25.734 65.4027 25.014C65.4747 24.294 65.5347 23.586 65.5827 22.89C65.6187 22.17 65.6487 21.498 65.6727 20.874C65.6968 20.25 65.7088 19.686 65.7088 19.182H54.9087V17.49H67.8688ZM59.4987 23.646H61.6587V29.442H69.3987V31.242H53.5407V29.442H59.4987V23.646ZM88.4816 16.878V18.462H86.2136L86.0696 20.532H88.8416V22.152H75.1616V20.532H77.8616L77.7536 18.462H75.5216V16.878H88.4816ZM79.9316 20.532H83.9996L84.1436 18.462H79.8416L79.9316 20.532ZM74.0636 24.798V23.178H89.9216V24.798H74.0636ZM88.7516 30.936V32.538H75.5216V28.398H86.3936V27.444H75.5216V25.86H88.4816V29.874H77.6096V30.936H88.7516ZM103.29 32.682V24.492H101.544V32.322H99.5639V16.77H101.544V22.62H103.29V16.5H105.306V32.682H103.29ZM91.4459 29.838V22.692H95.8739V19.254H91.4459V17.58H97.8899V24.348H93.4619V28.11H94.4159C95.0399 28.11 95.7599 28.092 96.5759 28.056C96.9839 28.044 97.3739 28.02 97.7459 27.984C98.1299 27.936 98.4959 27.882 98.8439 27.822V29.55C98.4959 29.61 98.1299 29.664 97.7459 29.712C97.3739 29.748 96.9839 29.772 96.5759 29.784C95.7599 29.82 95.0399 29.838 94.4159 29.838H91.4459ZM114.93 23.574V21.774H119.592V16.5H121.68V32.682H119.592V23.574H114.93ZM113.004 28.02C113.988 28.02 114.954 27.996 115.902 27.948C116.85 27.888 117.72 27.78 118.512 27.624V29.352C117.72 29.508 116.85 29.616 115.902 29.676C114.954 29.724 113.988 29.748 113.004 29.748H108.324V17.472H110.412V28.02H113.004Z" fill="#3A3A3A"/>
</g>
<defs>
<filter id="filter0_d_6895_12629" x="-7.6" y="-5.6" width="159.2" height="65.2" filterUnits="userSpaceOnUse" color-interpolation-filters="sRGB">
<feFlood flood-opacity="0" result="BackgroundImageFix"/>
<feColorMatrix in="SourceAlpha" type="matrix" values="0 0 0 0 0 0 0 0 0 0 0 0 0 0 0 0 0 0 127 0" result="hardAlpha"/>
<feOffset dy="2"/>
<feGaussianBlur stdDeviation="3.8"/>
<feComposite in2="hardAlpha" operator="out"/>
<feColorMatrix type="matrix" values="0 0 0 0 0 0 0 0 0 0 0 0 0 0 0 0 0 0 0.05 0"/>
<feBlend mode="normal" in2="BackgroundImageFix" result="effect1_dropShadow_6895_12629"/>
<feBlend mode="normal" in="SourceGraphic" in2="effect1_dropShadow_6895_12629" result="shape"/>
</filter>
</defs>
</svg>
