<svg width="73" height="50" viewBox="0 0 73 50" fill="none" xmlns="http://www.w3.org/2000/svg">
<g clip-path="url(#clip0_6895_12664)">
<path d="M52.6689 34.1072C52.3563 33.4076 51.7985 32.8485 51.1023 32.5369C50.3991 32.217 49.6766 31.9421 48.9389 31.7141L49.7631 30.5998C50.0235 30.2478 50.1965 29.8381 50.2675 29.405L52.5215 15.57L52.7169 14.3716C52.8384 13.6179 52.6582 12.8465 52.2156 12.2265C51.7731 11.6065 51.1045 11.1886 50.3563 11.0644L50.2036 11.0376C49.4549 10.9147 48.6883 11.0959 48.0723 11.5416C47.4562 11.9873 47.0409 12.6609 46.9176 13.4147L46.8022 14.1301L45.1202 24.4559C44.8852 24.2368 44.6133 24.0618 44.3173 23.9389C44.604 23.4298 44.7441 22.8503 44.7218 22.2655C44.6995 21.6807 44.5158 21.1137 44.1912 20.6282C44.088 20.4763 43.9689 20.3359 43.8359 20.2097C43.9214 20.1157 44.0004 20.0159 44.0722 19.911C44.42 19.3922 44.6059 18.7805 44.6059 18.1545C44.6059 17.5286 44.42 16.9169 44.0722 16.3981C43.8175 16.0255 43.4755 15.722 43.0764 15.5145C42.6774 15.3071 42.2336 15.202 41.7845 15.2086H36.2428C35.2801 15.2086 34.5003 15.4859 33.9178 16.0296C33.9178 15.9617 33.9178 15.8937 33.9178 15.8239C33.9214 15.197 33.7356 14.5838 33.3849 14.0657C33.1297 13.6938 32.7875 13.3909 32.3886 13.1838C31.9896 12.9767 31.546 12.8717 31.0972 12.8781H25.5591C24.5715 12.8781 23.7722 13.1696 23.1843 13.7438C22.5964 14.3179 22.2749 15.1496 22.2749 16.1638V19.5353C22.2717 19.9168 22.3226 20.2969 22.4259 20.664C22.0493 20.8692 21.7267 21.1616 21.4845 21.5171C21.1371 22.0361 20.9516 22.6477 20.9516 23.2736C20.9516 23.8994 21.1371 24.511 21.4845 25.03C21.6993 25.3465 21.9784 25.6136 22.3033 25.8134C22.2182 26.1093 22.1752 26.4158 22.1754 26.7238C22.1699 27.3566 22.3558 27.9761 22.7083 28.4999C22.9646 28.8766 23.3097 29.1834 23.7127 29.3929C24.1156 29.6023 24.5639 29.7079 25.0173 29.7001H28.0102V29.7859C28.0085 30.1913 28.0882 30.5929 28.2446 30.9664C26.0261 31.0832 23.8492 31.619 21.8273 32.5458C21.4562 32.7101 21.1213 32.9471 20.842 33.2429C20.5627 33.5387 20.3446 33.8874 20.2003 34.2689C20.056 34.6503 19.9885 35.0569 20.0016 35.4648C20.0147 35.8728 20.1082 36.2741 20.2767 36.6453C20.4432 37.0136 20.6802 37.3452 20.9741 37.6212C21.268 37.8971 21.6131 38.112 21.9895 38.2536C22.366 38.3951 22.7665 38.4605 23.1681 38.4461C23.5697 38.4316 23.9645 38.3375 24.3299 38.1692C26.0146 37.4001 27.8547 37.039 29.7028 37.1148C31.551 37.1906 33.3558 37.7012 34.9728 38.6057C35.4294 38.8642 35.9445 39 36.4684 39C36.9922 39 37.5073 38.8642 37.9639 38.6057C39.575 37.7048 41.3728 37.1952 43.2139 37.1173C45.0551 37.0393 46.889 37.3952 48.5695 38.1567C49.2011 38.4459 49.9104 38.5151 50.5855 38.3534C51.0232 38.2489 51.4326 38.0486 51.7848 37.7667C52.1369 37.4847 52.423 37.1282 52.6227 36.7223C52.8225 36.3164 52.931 35.8712 52.9405 35.4183C52.95 34.9654 52.8603 34.5159 52.6778 34.1019L52.6689 34.1072Z" fill="#8A8A8A"/>
<path d="M51.049 34.8308C50.9112 34.5331 50.6707 34.296 50.3722 34.1636C48.2233 33.1848 45.8878 32.6913 43.5294 32.7178C41.1711 32.7444 38.847 33.2904 36.7205 34.3175C36.642 34.3563 36.5557 34.3765 36.4683 34.3765C36.3808 34.3765 36.2945 34.3563 36.216 34.3175C34.0885 33.2926 31.7644 32.7478 29.4062 32.7213C27.0479 32.6947 24.7123 33.187 22.5625 34.1636C22.2562 34.3001 22.0116 34.547 21.8769 34.8559C21.7772 35.0961 21.7516 35.3611 21.8036 35.6162C21.8555 35.8713 21.9825 36.1047 22.168 36.2862C22.3535 36.4676 22.589 36.5885 22.8437 36.6333C23.0985 36.6781 23.3607 36.6446 23.5963 36.5371C25.5345 35.6497 27.6526 35.2329 29.7799 35.3202C31.9074 35.4075 33.9847 35.9965 35.8448 37.0397C36.0373 37.1488 36.2545 37.2061 36.4754 37.2061C36.6962 37.2061 36.9134 37.1488 37.1059 37.0397C38.9593 36.0025 41.0278 35.4157 43.1463 35.3259C45.2649 35.2362 47.3749 35.646 49.3083 36.5228C49.577 36.6518 49.8807 36.687 50.1715 36.623C50.3566 36.5804 50.53 36.497 50.6792 36.3789C50.8285 36.2607 50.9499 36.1108 51.0348 35.9398C51.1197 35.7688 51.166 35.581 51.1703 35.3899C51.1745 35.1988 51.1367 35.009 51.0596 34.8344L51.049 34.8308Z" fill="white"/>
<path d="M44.0508 25.9213C43.9581 25.788 43.8338 25.6802 43.6893 25.6075C43.5448 25.5347 43.3846 25.4993 43.2231 25.5045H40.1042V23.537H41.8981C42.0597 23.5425 42.2199 23.5072 42.3645 23.4344C42.5091 23.3617 42.6332 23.2537 42.7258 23.1203C42.8695 22.8991 42.946 22.6405 42.946 22.3762C42.946 22.1119 42.8695 21.8533 42.7258 21.6321C42.6332 21.4989 42.5089 21.3912 42.3644 21.3187C42.2198 21.2462 42.0595 21.2113 41.8981 21.2172H37.28V19.3087H41.788C41.9495 19.3142 42.1098 19.279 42.2544 19.2062C42.3989 19.1334 42.5231 19.0254 42.6157 18.8919C42.7632 18.6733 42.8402 18.414 42.836 18.1497C42.8399 17.8842 42.7631 17.6239 42.6157 17.4038C42.5228 17.2709 42.3985 17.1633 42.254 17.0908C42.1095 17.0184 41.9493 16.9833 41.788 16.9888H36.241C35.7223 16.9888 35.3529 17.1069 35.1024 17.3466C34.852 17.5862 34.7295 17.9654 34.7295 18.4859V22.0382C34.7295 22.5586 34.852 22.9325 35.1024 23.1775C35.3529 23.4225 35.7223 23.5352 36.241 23.5352H37.5713V25.5027H34.4541C34.2927 25.4976 34.1324 25.5329 33.988 25.6057C33.8435 25.6784 33.7192 25.7863 33.6264 25.9194C33.4828 26.1406 33.4062 26.3992 33.4062 26.6635C33.4062 26.9278 33.4828 27.1864 33.6264 27.4076C33.719 27.541 33.8432 27.649 33.9877 27.7218C34.1323 27.7946 34.2926 27.8298 34.4541 27.8243H43.2231C43.3846 27.8295 43.5448 27.7941 43.6893 27.7214C43.8338 27.6486 43.9581 27.5408 44.0508 27.4076C44.1945 27.1864 44.271 26.9278 44.271 26.6635C44.271 26.3992 44.1945 26.1406 44.0508 25.9194V25.9213Z" fill="white"/>
<path d="M30.8228 25.5241H25.0076C24.8435 25.5181 24.6805 25.5538 24.5337 25.6278C24.3869 25.7019 24.2609 25.812 24.1675 25.948C24.0224 26.1776 23.9453 26.4441 23.9453 26.7162C23.9453 26.9884 24.0224 27.2549 24.1675 27.4844C24.2609 27.6204 24.3869 27.7305 24.5337 27.8046C24.6805 27.8786 24.8435 27.9143 25.0076 27.9083H29.7784V29.7792C29.7713 29.9636 29.8116 30.1468 29.8952 30.3109C29.979 30.4751 30.1033 30.6148 30.2562 30.7165C30.4983 30.874 30.7805 30.9578 31.0688 30.9578C31.3571 30.9578 31.6393 30.874 31.8814 30.7165C32.0344 30.6148 32.1587 30.4751 32.2424 30.3109C32.3261 30.1468 32.3663 29.9636 32.3592 29.7792V27.0534C32.3592 26.5168 32.2349 26.143 31.9791 25.8908C31.7233 25.6386 31.3521 25.5241 30.8228 25.5241Z" fill="white"/>
<path d="M33.3694 22.5214C33.2767 22.3882 33.1525 22.2805 33.0079 22.208C32.8633 22.1355 32.703 22.1006 32.5417 22.1065H29.4263V21.2318C29.4258 21.1629 29.4199 21.0941 29.4085 21.0261H31.2255C31.3869 21.0317 31.547 20.9966 31.6915 20.9242C31.836 20.8517 31.9603 20.7441 32.0532 20.6112C32.1969 20.39 32.2734 20.1314 32.2734 19.8671C32.2734 19.6028 32.1969 19.3442 32.0532 19.123C31.9604 18.9899 31.8362 18.882 31.6917 18.8093C31.5472 18.7365 31.387 18.7011 31.2255 18.7063H26.6074V16.9767H31.1154C31.2769 16.9818 31.4371 16.9465 31.5816 16.8737C31.7261 16.801 31.8503 16.6931 31.9431 16.56C32.0863 16.3386 32.1626 16.0801 32.1626 15.8159C32.1626 15.5517 32.0863 15.2932 31.9431 15.0718C31.8507 14.9388 31.7268 14.8311 31.5825 14.7586C31.4383 14.6861 31.2783 14.6511 31.1172 14.6569H25.5595C25.0427 14.6569 24.6714 14.7749 24.4227 15.0146C24.1741 15.2542 24.048 15.6334 24.048 16.1539V19.5273C24.048 20.046 24.1705 20.4216 24.4227 20.6648C24.6749 20.9081 25.0427 21.0226 25.5595 21.0226H26.9076C26.8962 21.0905 26.8902 21.1593 26.8899 21.2283V22.1029H23.7744C23.6131 22.097 23.4528 22.132 23.3082 22.2044C23.1636 22.2769 23.0394 22.3847 22.9467 22.5179C22.8031 22.7391 22.7266 22.9976 22.7266 23.2619C22.7266 23.5262 22.8031 23.7848 22.9467 24.006C23.0393 24.1394 23.1635 24.2474 23.308 24.3202C23.4526 24.393 23.6129 24.4282 23.7744 24.4227H32.5417C32.7032 24.4284 32.8636 24.3932 33.0082 24.3204C33.1528 24.2476 33.2769 24.1395 33.3694 24.006C33.513 23.7848 33.5896 23.5262 33.5896 23.2619C33.5896 22.9976 33.513 22.7391 33.3694 22.5179V22.5214Z" fill="white"/>
<path d="M49.4504 16.1421C49.0632 16.0777 48.6777 16.0348 48.2923 16.0098L46.2195 28.7376C46.1951 28.8878 46.2066 29.0417 46.2532 29.1865L46.7968 30.8625C46.8128 30.9126 46.8423 30.9573 46.8819 30.9916C46.9215 31.026 46.9697 31.0486 47.0214 31.0572C47.073 31.0657 47.1259 31.0597 47.1743 31.0398C47.2227 31.02 47.2648 30.9871 47.2959 30.9448L48.342 29.5317C48.4335 29.4098 48.4944 29.2674 48.5197 29.1168L50.5854 16.3889C50.2159 16.2888 49.8376 16.2065 49.4504 16.1421Z" fill="white"/>
<path d="M49.6144 15.1463C50.0016 15.2107 50.3799 15.293 50.7529 15.3896L50.9661 14.0839C51.0119 13.7994 50.9442 13.5083 50.7779 13.2738C50.6116 13.0393 50.36 12.8805 50.078 12.8319L49.9252 12.8068C49.6415 12.7609 49.3512 12.8302 49.1181 12.9995C48.885 13.1689 48.7281 13.4244 48.6819 13.7101L48.4688 15.0158C48.84 15.0372 49.2272 15.0819 49.6144 15.1463Z" fill="white"/>
</g>
<defs>
<clipPath id="clip0_6895_12664">
<rect width="32.9412" height="28" fill="white" transform="translate(20 11)"/>
</clipPath>
</defs>
</svg>
