<svg width="130" height="50" viewBox="0 0 130 50" fill="none" xmlns="http://www.w3.org/2000/svg">
<path d="M44.7852 34.0003V20.4238H49.2415V34.0003H44.7852ZM49.9472 23.135V20.4238H55.0387L57.7205 23.135V27.207L55.6637 29.2941L55.0387 29.9284H51.4999H49.9472V27.2991H53.2945V23.135H49.9472ZM58.1743 34.0003H53.4156L51.4999 29.9284H55.0387L55.6637 29.2941L58.1743 34.0003Z" fill="#8A8A8A"/>
<path d="M59.5664 31.105H60.9073V23.309H59.5664V20.4238H66.7047V23.309H65.3638V31.105H66.7047V34.0003H59.5664V31.105Z" fill="#8A8A8A"/>
<path d="M73.1167 34.0003H71.3422L68.6602 31.2891V23.135L71.3422 20.4238H73.1167V34.0003ZM73.8223 23.135V20.4238H78.571L81.2428 23.135V25.8667H76.7866V23.135H73.8223ZM73.8223 34.0003V31.2891H76.7866V29.3043H81.2428V31.2891L78.571 34.0003H73.8223Z" fill="#8A8A8A"/>
<path d="M83.3789 34.0003V20.4238H87.8354V34.0003H83.3789ZM88.5211 32.0769V25.4779L91.6464 20.434L96.2843 20.4238L88.5211 32.0769ZM96.496 34.0003H91.6766L90.1645 30.839L92.8058 26.8182L96.496 34.0003Z" fill="#8A8A8A"/>
<path d="M105.461 34.0003V28.9155H99.6742L96.9922 26.1941V23.135L99.6742 20.4238H101.187V25.2426H107.337L109.928 27.9641V31.2891L107.256 34.0003H105.461ZM101.892 22.869V20.4238H107.246L109.565 22.7872V24.2298H105.461V22.869H101.892ZM96.9922 29.9284H101.449V31.5449H104.755V34.0003H99.2407L96.9922 31.2891V29.9284Z" fill="#8A8A8A"/>
<path d="M38.1374 23.135H34.4346L35.1836 20.4238H40.0026L42.6844 23.135V25.8974L41.3435 27.2581L42.6844 28.6189V31.2891L40.0026 34.0003H31.2344L32.0515 31.2891H38.1374V28.3938H32.9366L33.6175 26.0304H38.1374V23.135Z" fill="#8A8A8A"/>
<path d="M23.7311 22.0803H20V17.7317L21.5078 16H33.7541V19.4503H23.7311V22.0803Z" fill="#8A8A8A"/>
<path fill-rule="evenodd" clip-rule="evenodd" d="M29.3581 20.4258C29.2194 20.4258 29.0963 20.5149 29.053 20.6468L28.7194 21.6622C28.6511 21.8701 28.8059 22.084 29.0245 22.084H30.3498L30.9541 20.4258H29.3581ZM31.3031 20.4258L30.6988 22.084H32.7061C32.8449 22.084 32.9679 21.9949 33.0112 21.863L33.3448 20.8476C33.4131 20.6397 33.2583 20.4258 33.0397 20.4258H31.3031Z" fill="#8A8A8A"/>
<path fill-rule="evenodd" clip-rule="evenodd" d="M28.8112 22.3574C28.6725 22.3574 28.5494 22.4466 28.5061 22.5785L28.1726 23.5939C28.1043 23.8018 28.259 24.0157 28.4777 24.0157H30.7564L31.3607 22.3574H28.8112ZM31.7096 22.3574L31.1053 24.0157H32.1593C32.298 24.0157 32.421 23.9266 32.4644 23.7947L32.7979 22.7793C32.8662 22.5714 32.7114 22.3574 32.4928 22.3574H31.7096Z" fill="#8A8A8A"/>
<path fill-rule="evenodd" clip-rule="evenodd" d="M28.2569 24.4297C28.1213 24.4297 28.0003 24.5149 27.9546 24.6426L27.6402 25.5198C27.5652 25.7292 27.7203 25.9497 27.9425 25.9497H28.3054L28.9097 24.4297H28.2569ZM29.2586 24.4297L28.6543 25.9497H31.6179C31.7535 25.9497 31.8744 25.8646 31.9202 25.7368L32.2345 24.8596C32.3096 24.6502 32.1545 24.4297 31.9322 24.4297H29.2586Z" fill="#8A8A8A"/>
<path fill-rule="evenodd" clip-rule="evenodd" d="M27.7213 26.3594C27.5826 26.3594 27.4596 26.4485 27.4162 26.5804L27.0827 27.5958C27.0144 27.8037 27.1691 28.0176 27.3878 28.0176H29.5298L30.1341 26.3594H27.7213ZM30.483 26.3594L29.8788 28.0176H31.0694C31.2081 28.0176 31.3312 27.9285 31.3745 27.7966L31.7081 26.7812C31.7763 26.5733 31.6216 26.3594 31.4029 26.3594H30.483Z" fill="#8A8A8A"/>
<path fill-rule="evenodd" clip-rule="evenodd" d="M27.171 28.4375C27.0354 28.4375 26.9144 28.5227 26.8686 28.6504L26.5543 29.5276C26.4793 29.737 26.6343 29.9576 26.8566 29.9576H27.3549L27.9592 28.4375H27.171ZM28.3082 28.4375L27.7039 29.9576H30.532C30.6675 29.9576 30.7885 29.8724 30.8342 29.7447L31.1486 28.8674C31.2237 28.658 31.0686 28.4375 30.8463 28.4375H28.3082Z" fill="#8A8A8A"/>
<path fill-rule="evenodd" clip-rule="evenodd" d="M26.6315 30.3652C26.4928 30.3652 26.3697 30.4544 26.3264 30.5863L25.9929 31.6017C25.9246 31.8096 26.0793 32.0235 26.298 32.0235H28.169L28.7732 30.3652H26.6315ZM29.1222 30.3652L28.5179 32.0235H29.9795C30.1183 32.0235 30.2413 31.9344 30.2847 31.8025L30.6182 30.7871C30.6865 30.5792 30.5318 30.3652 30.3131 30.3652H29.1222Z" fill="#8A8A8A"/>
<path fill-rule="evenodd" clip-rule="evenodd" d="M25.9518 32.3008C25.8131 32.3008 25.69 32.3899 25.6467 32.5218L25.3132 33.5372C25.2449 33.7451 25.3996 33.959 25.6183 33.959H25.8546L26.4589 32.3008H25.9518ZM26.8078 32.3008L26.2036 33.959H29.2999C29.4386 33.959 29.5616 33.8699 29.605 33.738L29.9385 32.7226C30.0068 32.5147 29.8521 32.3008 29.6334 32.3008H26.8078Z" fill="#8A8A8A"/>
</svg>
