<svg width="91" height="50" viewBox="0 0 91 50" fill="none" xmlns="http://www.w3.org/2000/svg">
<g clip-path="url(#clip0_6895_12652)">
<path d="M60.9062 15.5703C59.9502 15.5703 59.1269 15.9004 58.4719 16.5432C57.8169 17.186 57.4805 17.9938 57.4805 18.9319C57.4805 19.87 57.8168 20.6865 58.4719 21.3467C59.1358 22.0155 59.9502 22.3456 60.915 22.3456C61.8711 22.3456 62.7032 22.0068 63.3759 21.3467C64.0486 20.6865 64.3939 19.87 64.3939 18.9319C64.3939 17.9851 64.0486 17.186 63.3759 16.5432C62.6943 15.8917 61.8622 15.5703 60.9062 15.5703ZM61.756 19.7484C61.517 19.9916 61.2426 20.1132 60.9062 20.1132C60.5964 20.1132 60.3308 19.9916 60.1007 19.757C59.8705 19.5138 59.7555 19.2446 59.7555 18.9319C59.7555 18.6105 59.8705 18.3412 60.1007 18.1241C60.3308 17.9069 60.5964 17.8027 60.9062 17.8027C61.2337 17.8027 61.517 17.9069 61.756 18.1327C61.995 18.3499 62.1101 18.6105 62.1101 18.9319C62.1101 19.2359 61.995 19.5051 61.756 19.7484V19.7484Z" fill="#8A8A8A"/>
<path d="M48.5664 27.7314H52.5498V31.2319H54.9929V25.334H48.5664V27.7314Z" fill="#8A8A8A"/>
<path d="M52.5229 18.898H54.9661V13H48.6016V15.3974H52.5229V18.898Z" fill="#8A8A8A"/>
<path d="M47.4492 19.793V22.1122H50.6005V24.6399H52.964V22.1122H56.1064V19.793H47.4492H47.4492Z" fill="#8A8A8A"/>
<path d="M67.8287 13.8164V17.7773H64.9961V20.0879H67.8287V24.014H70.1834V13.8164H67.8287Z" fill="#8A8A8A"/>
<path d="M40.4296 20.3322C39.7568 19.6894 38.9247 19.3594 37.9687 19.3594C37.0127 19.3594 36.1895 19.6894 35.5344 20.3322C34.8794 20.975 34.543 21.7828 34.543 22.7209C34.543 23.659 34.8793 24.4755 35.5344 25.1357C36.1983 25.8045 37.0127 26.1346 37.9687 26.1346C38.9247 26.1346 39.7568 25.7959 40.4296 25.1357C41.1023 24.4755 41.4476 23.659 41.4476 22.7209C41.4476 21.7828 41.1023 20.975 40.4296 20.3322ZM38.8096 23.5461C38.5707 23.7893 38.2874 23.9109 37.9599 23.9109C37.6501 23.9109 37.3845 23.7894 37.1544 23.5548C36.9242 23.3116 36.8091 23.0423 36.8091 22.7296C36.8091 22.4083 36.9242 22.139 37.1544 21.9305C37.3845 21.7133 37.6501 21.6004 37.9599 21.6004C38.2874 21.6004 38.5707 21.7047 38.8096 21.9305C39.0487 22.1476 39.1638 22.4083 39.1638 22.7296C39.1726 23.0336 39.0575 23.3029 38.8096 23.5461Z" fill="#8A8A8A"/>
<path d="M46.0869 33.2039V27.332H40.457V29.5904H43.7234V30.9368H40.457V36.9998H46.0869V34.7414H42.7851V33.2039H46.0869Z" fill="#8A8A8A"/>
<path d="M46.0861 19.7832H43.7227V26.1415H46.0861V19.7832Z" fill="#8A8A8A"/>
<path d="M20 26.1415H26.4796V19.7832H20V26.1415ZM24.1427 22.0764V23.857H22.3369V22.0764H24.1427Z" fill="#8A8A8A"/>
<path d="M30.8159 17.8477V21.8086H29.8244V17.8477H27.4609V28.0453H29.8244V24.1278H30.8159V28.0453H33.1705V17.8477H30.8159Z" fill="#8A8A8A"/>
</g>
<defs>
<clipPath id="clip0_6895_12652">
<rect width="50.1797" height="24" fill="white" transform="translate(20 13)"/>
</clipPath>
</defs>
</svg>
