<svg width="152" height="54" viewBox="0 0 152 54" fill="none" xmlns="http://www.w3.org/2000/svg">
<path d="M32.9958 11.9295C38.9206 15.1321 42.8171 20.6299 44.2049 26.7149C44.6853 26.021 45.1657 25.3271 45.5393 24.6332C49.9162 16.5199 46.8737 6.37836 38.7605 2.00147C30.6472 -2.37542 20.5057 0.667053 16.1288 8.78031C15.8619 9.31407 15.595 9.84784 15.3281 10.435C20.9861 8.51343 27.3912 8.88706 33.0492 11.9295H32.9958Z" fill="#915B41"/>
<path d="M44.2052 26.662C38.8676 34.2415 26.8578 41.8744 19.3851 37.8711C11.7522 33.7611 11.6455 18.9758 15.2751 10.4355C10.0442 12.197 5.50716 15.8266 2.6782 21.0041C-3.19323 31.893 0.91677 45.4506 11.8056 51.3221C22.6945 57.1935 36.2521 53.0835 42.1236 42.1947C44.7924 37.2306 45.3795 31.7328 44.2052 26.6087V26.662Z" fill="#1FBDFF"/>
<path d="M19.3912 37.8692C26.8105 41.8724 38.8737 34.2396 44.2113 26.6601C42.8235 20.5751 38.927 15.0773 33.0022 11.8747C27.3443 8.83226 20.9391 8.512 15.2812 10.3802C11.7049 18.9205 11.8117 33.7058 19.3912 37.8158V37.8692Z" fill="#F2B819"/>
<path d="M62.8321 19.6816H61.8789V32.8828H88.9485V19.6816H62.8321ZM65.7392 29.3085V23.256H85.0882V29.3085H65.7392Z" fill="black"/>
<path d="M86.0398 2.95508H85.0867V3.90823V9.19823H82.6561V3.90823V2.95508H81.703H79.749H78.7959V3.90823V16.9664L75.984 3.7176L75.8411 2.95508H75.0786H72.3621H71.5995L71.4566 3.7176L70.1221 10.485L68.7877 3.7176L68.6448 2.95508H67.8346H65.1181H64.4032L64.2126 3.7176L61.2578 17.8719L61.0195 18.9681H62.1633H64.1649H64.9275L65.0704 18.2532L66.5478 10.3897L68.2158 18.2532L68.3588 18.9681H69.1213H71.123H71.8855L72.0285 18.2532L73.6965 10.3897L75.1739 18.2532L75.3168 18.9681H76.0794H78.081H78.7959V19.5876H79.749H81.703H82.6561V18.6345V12.7726H85.0867V18.6345V19.5876H86.0398H87.9938H88.9469V18.6345V3.90823V2.95508H87.9938H86.0398Z" fill="black"/>
<path d="M111.211 8.91037H112.116V8.00487V6.28919V5.33604H111.211H103.824V2.95315V2H102.918H100.917H100.011V2.95315V5.33604H92.6242H91.7188V6.28919V8.00487V8.91037H92.6242H111.211Z" fill="black"/>
<path d="M118.45 14.7734V3.95511V3.00195H117.497H115.495H114.59V3.95511V31.9778V32.931H115.495H117.497H118.45V31.9778V18.3477H121.786H122.739V17.4422V15.7266V14.7734H121.786H118.45Z" fill="black"/>
<path d="M149.996 29.3067H136.843V15.8196V14.9141H135.889H133.935H132.982V15.8196V29.3067H123.784H122.879V30.2598V31.9755V32.9287H123.784H149.996H150.949V31.9755V30.2598V29.3067H149.996Z" fill="black"/>
<path d="M146.709 6.52941C146.614 8.72166 146.423 10.9616 146.137 13.3445C145.804 16.0609 145.375 18.9204 144.851 21.8275L144.66 22.9237H148.616L148.759 22.1611C149.045 20.6837 149.283 19.254 149.473 17.7766C149.712 16.3469 149.902 14.8218 150.045 13.3445C150.236 11.8671 150.331 10.2944 150.474 8.76932C150.57 7.24427 150.665 5.62391 150.76 3.90823V2.95508H149.807H123.023V6.52941H146.709Z" fill="black"/>
<path d="M107.492 11.3421C104.918 9.86476 101.916 9.43584 99.0089 10.246C96.1494 11.0085 93.7188 12.8672 92.2415 15.4407C90.1445 19.0627 89.4297 24.9723 90.5258 29.1185C91.193 31.549 92.4797 33.4077 94.2431 34.4085C96.8643 35.8859 100.391 35.5999 104.204 33.503C107.301 31.7873 110.161 29.1661 111.638 26.5926C113.116 24.0191 113.544 21.0167 112.734 18.1095C111.972 15.2024 110.113 12.8195 107.54 11.3421H107.492ZM108.35 24.734C107.206 26.6879 104.871 28.8325 102.345 30.2146C99.7714 31.6443 97.4361 31.9779 96.0541 31.1678C94.9579 30.5482 94.3861 29.1661 94.1001 28.1177C93.147 24.5433 94.0525 19.7299 95.4345 17.2994C96.4353 15.5837 98.008 14.3446 99.962 13.8204C101.868 13.2961 103.87 13.5821 105.633 14.5352C107.349 15.536 108.588 17.1087 109.112 19.0627C109.637 20.969 109.351 22.9706 108.35 24.734Z" fill="black"/>
<path d="M72.1149 45.9303H61V44.541H65.68V43.956C64.9487 43.8097 64.4369 43.5172 63.9981 43.0785C63.5594 42.6397 63.4131 42.1279 63.4131 41.5429C63.4131 40.9579 63.5594 40.5923 63.8519 40.2266C64.1444 39.861 64.51 39.5685 64.9487 39.3491C65.4606 39.1298 65.9725 39.0566 66.6306 39.0566C67.2887 39.0566 67.8006 39.1298 68.3124 39.3491C68.8243 39.5685 69.1899 39.861 69.4093 40.2266C69.7018 40.5923 69.8481 41.031 69.8481 41.5429C69.8481 42.0547 69.6287 42.6397 69.2631 43.0785C68.8243 43.5172 68.3124 43.8097 67.5812 43.956V44.541H72.2612V45.9303H72.1149ZM71.2374 50.3178V51.7072H62.0969V48.3434H69.2631V47.8316H62.0969V46.4422H71.018V49.6597H63.8519V50.2447H71.2374V50.3178ZM67.5812 42.3472C67.8737 42.1279 68.0199 41.8354 68.0199 41.4697C68.0199 41.1041 67.8737 40.8116 67.5812 40.5923C67.2887 40.3729 66.9962 40.2266 66.5575 40.2266C66.1187 40.2266 65.7531 40.3729 65.5337 40.5923C65.2412 40.8116 65.1681 41.1041 65.1681 41.4697C65.1681 41.8354 65.3143 42.1279 65.5337 42.3472C65.8262 42.5666 66.1187 42.7129 66.5575 42.7129C66.9962 42.7129 67.3618 42.5666 67.5812 42.3472Z" fill="#545454"/>
<path d="M84.7751 44.1747V45.7104H73.6602V44.1747H77.682V42.3466H79.5101V44.1747H84.7751ZM83.4588 39.2754V43.4435H81.6307V40.8841H74.6839V39.3485H83.4588V39.2754ZM84.0438 50.0978V51.6334H74.6839V46.4416H83.7513V47.9772H76.512V50.0247H84.0438V50.0978Z" fill="#545454"/>
<path d="M97.4274 45.2731V46.8087H86.3125V45.2731H97.4274ZM96.6962 50.0262V51.5618H87.3362V47.5399H89.1643V49.953H96.6962V50.0262ZM90.115 44.3225C89.6031 44.1031 89.2375 43.7375 88.945 43.2987C88.6525 42.86 88.5062 42.3481 88.5062 41.8362C88.5062 41.3244 88.6525 40.8125 88.945 40.3737C89.2375 39.935 89.6031 39.6425 90.115 39.35C90.6268 39.1306 91.2118 38.9844 91.87 38.9844C92.5281 38.9844 93.0399 39.1306 93.5518 39.35C94.0637 39.5694 94.5024 39.935 94.7949 40.3737C95.0874 40.8125 95.2337 41.3244 95.2337 41.8362C95.2337 42.3481 95.0874 42.86 94.7949 43.2987C94.5024 43.7375 94.1368 44.1031 93.5518 44.3225C93.0399 44.5418 92.455 44.6881 91.87 44.6881C91.285 44.6881 90.6268 44.5418 90.115 44.3225ZM92.9668 42.7869C93.2593 42.5675 93.4056 42.2018 93.4056 41.8362C93.4056 41.4706 93.2593 41.1781 92.9668 40.8856C92.6743 40.6662 92.3087 40.52 91.87 40.52C91.4312 40.52 91.0656 40.6662 90.7731 40.8856C90.4806 41.105 90.3343 41.4706 90.3343 41.8362C90.3343 42.2018 90.4806 42.4944 90.7731 42.7869C91.0656 43.0062 91.4312 43.1525 91.87 43.1525C92.3087 43.1525 92.6743 43.0062 92.9668 42.7869Z" fill="#545454"/>
<path d="M112.927 44.3201V45.8557H101.812V44.3201H105.907V42.1995H107.736V44.3201H112.927ZM111.611 39.3477V43.5158H109.783V40.8833H102.909V39.3477H111.611ZM105.542 51.6326C105.03 51.4132 104.591 51.0476 104.299 50.6088C104.006 50.1701 103.86 49.6582 103.86 49.1463C103.86 48.6344 104.006 48.1226 104.299 47.6838C104.591 47.2451 105.03 46.8795 105.542 46.6601C106.054 46.4407 106.639 46.2945 107.37 46.2945C108.101 46.2945 108.613 46.4407 109.198 46.6601C109.71 46.8795 110.149 47.2451 110.441 47.6838C110.734 48.1226 110.88 48.5613 110.88 49.1463C110.88 49.7313 110.734 50.1701 110.441 50.6088C110.149 51.0476 109.71 51.4132 109.198 51.6326C108.686 51.8519 108.101 51.9982 107.37 51.9982C106.639 51.9982 106.127 51.8519 105.542 51.6326ZM108.54 50.1701C108.832 49.9507 108.979 49.5851 108.979 49.2194C108.979 48.8538 108.832 48.4882 108.54 48.2688C108.247 48.0495 107.809 47.9032 107.37 47.9032C106.931 47.9032 106.492 48.0495 106.2 48.2688C105.907 48.4882 105.761 48.8538 105.761 49.2194C105.761 49.5851 105.907 49.9507 106.2 50.1701C106.492 50.3895 106.931 50.5357 107.37 50.5357C107.809 50.5357 108.247 50.3895 108.54 50.1701Z" fill="#545454"/>
<path d="M120.891 47.8327V51.7082H119.063V47.8327H114.383V46.297H125.498V47.8327H120.818H120.891ZM124.474 39.1309V45.2002H115.553V39.1309H117.381V40.7396H122.646V39.1309H124.474ZM122.646 42.2752H117.381V43.5915H122.646V42.2752Z" fill="#545454"/>
<path d="M138.213 44.6141V46.1497H127.098V44.6141H138.213ZM127.975 42.4204C129.072 42.2741 130.023 41.9816 130.681 41.5429C131.339 41.1041 131.705 40.446 131.705 39.7148V39.0566H133.459V39.7148C133.459 40.446 133.825 41.1041 134.483 41.5429C135.141 41.9816 136.092 42.2741 137.189 42.4204V43.956C136.165 43.8829 135.214 43.5904 134.41 43.2247C133.606 42.8591 132.948 42.3472 132.582 41.8354C132.143 42.4204 131.558 42.8591 130.754 43.2247C129.95 43.5904 128.999 43.8829 127.975 43.956V42.4204ZM137.189 46.8078V51.5609H128.121V46.8078H129.95V47.7584H135.434V46.8078H137.262H137.189ZM135.361 49.2941H129.876V50.0984H135.361V49.2941Z" fill="#545454"/>
<path d="M139.398 45.4185C140.349 45.4185 141.08 45.4185 141.519 45.4185V42.8591H143.347V45.3453C144.956 45.2722 146.199 45.126 147.223 44.9066V46.4422C146.418 46.5885 145.468 46.7347 144.225 46.881C142.982 46.9541 141.738 47.0272 140.349 47.0272H139.398V45.4916V45.4185ZM146.345 39.6416V43.956H144.517V41.1772H139.91V39.6416H146.345ZM149.855 49.9522V51.4878H140.715V47.9047H142.543V49.9522H149.855ZM149.709 44.1022V48.1241H147.881V39.0566H149.709V42.5666H151.464V44.1022H149.709Z" fill="#545454"/>
<path d="M72.1149 45.9303H61V44.541H65.68V43.956C64.9487 43.8097 64.4369 43.5172 63.9981 43.0785C63.5594 42.6397 63.4131 42.1279 63.4131 41.5429C63.4131 40.9579 63.5594 40.5923 63.8519 40.2266C64.1444 39.861 64.51 39.5685 64.9487 39.3491C65.4606 39.1298 65.9725 39.0566 66.6306 39.0566C67.2887 39.0566 67.8006 39.1298 68.3124 39.3491C68.8243 39.5685 69.1899 39.861 69.4093 40.2266C69.7018 40.5923 69.8481 41.031 69.8481 41.5429C69.8481 42.0547 69.6287 42.6397 69.2631 43.0785C68.8243 43.5172 68.3124 43.8097 67.5812 43.956V44.541H72.2612V45.9303H72.1149ZM71.2374 50.3178V51.7072H62.0969V48.3434H69.2631V47.8316H62.0969V46.4422H71.018V49.6597H63.8519V50.2447H71.2374V50.3178ZM67.5812 42.3472C67.8737 42.1279 68.0199 41.8354 68.0199 41.4697C68.0199 41.1041 67.8737 40.8116 67.5812 40.5923C67.2887 40.3729 66.9962 40.2266 66.5575 40.2266C66.1187 40.2266 65.7531 40.3729 65.5337 40.5923C65.2412 40.8116 65.1681 41.1041 65.1681 41.4697C65.1681 41.8354 65.3143 42.1279 65.5337 42.3472C65.8262 42.5666 66.1187 42.7129 66.5575 42.7129C66.9962 42.7129 67.3618 42.5666 67.5812 42.3472Z" fill="black"/>
<path d="M84.7751 44.1747V45.7104H73.6602V44.1747H77.682V42.3466H79.5101V44.1747H84.7751ZM83.4588 39.2754V43.4435H81.6307V40.8841H74.6839V39.3485H83.4588V39.2754ZM84.0438 50.0978V51.6334H74.6839V46.4416H83.7513V47.9772H76.512V50.0247H84.0438V50.0978Z" fill="black"/>
<path d="M97.4274 45.2731V46.8087H86.3125V45.2731H97.4274ZM96.6962 50.0262V51.5618H87.3362V47.5399H89.1643V49.953H96.6962V50.0262ZM90.115 44.3225C89.6031 44.1031 89.2375 43.7375 88.945 43.2987C88.6525 42.86 88.5062 42.3481 88.5062 41.8362C88.5062 41.3244 88.6525 40.8125 88.945 40.3737C89.2375 39.935 89.6031 39.6425 90.115 39.35C90.6268 39.1306 91.2118 38.9844 91.87 38.9844C92.5281 38.9844 93.0399 39.1306 93.5518 39.35C94.0637 39.5694 94.5024 39.935 94.7949 40.3737C95.0874 40.8125 95.2337 41.3244 95.2337 41.8362C95.2337 42.3481 95.0874 42.86 94.7949 43.2987C94.5024 43.7375 94.1368 44.1031 93.5518 44.3225C93.0399 44.5418 92.455 44.6881 91.87 44.6881C91.285 44.6881 90.6268 44.5418 90.115 44.3225ZM92.9668 42.7869C93.2593 42.5675 93.4056 42.2018 93.4056 41.8362C93.4056 41.4706 93.2593 41.1781 92.9668 40.8856C92.6743 40.6662 92.3087 40.52 91.87 40.52C91.4312 40.52 91.0656 40.6662 90.7731 40.8856C90.4806 41.105 90.3343 41.4706 90.3343 41.8362C90.3343 42.2018 90.4806 42.4944 90.7731 42.7869C91.0656 43.0062 91.4312 43.1525 91.87 43.1525C92.3087 43.1525 92.6743 43.0062 92.9668 42.7869Z" fill="black"/>
<path d="M112.927 44.3201V45.8557H101.812V44.3201H105.907V42.1995H107.736V44.3201H112.927ZM111.611 39.3477V43.5158H109.783V40.8833H102.909V39.3477H111.611ZM105.542 51.6326C105.03 51.4132 104.591 51.0476 104.299 50.6088C104.006 50.1701 103.86 49.6582 103.86 49.1463C103.86 48.6344 104.006 48.1226 104.299 47.6838C104.591 47.2451 105.03 46.8795 105.542 46.6601C106.054 46.4407 106.639 46.2945 107.37 46.2945C108.101 46.2945 108.613 46.4407 109.198 46.6601C109.71 46.8795 110.149 47.2451 110.441 47.6838C110.734 48.1226 110.88 48.5613 110.88 49.1463C110.88 49.7313 110.734 50.1701 110.441 50.6088C110.149 51.0476 109.71 51.4132 109.198 51.6326C108.686 51.8519 108.101 51.9982 107.37 51.9982C106.639 51.9982 106.127 51.8519 105.542 51.6326ZM108.54 50.1701C108.832 49.9507 108.979 49.5851 108.979 49.2194C108.979 48.8538 108.832 48.4882 108.54 48.2688C108.247 48.0495 107.809 47.9032 107.37 47.9032C106.931 47.9032 106.492 48.0495 106.2 48.2688C105.907 48.4882 105.761 48.8538 105.761 49.2194C105.761 49.5851 105.907 49.9507 106.2 50.1701C106.492 50.3895 106.931 50.5357 107.37 50.5357C107.809 50.5357 108.247 50.3895 108.54 50.1701Z" fill="black"/>
<path d="M120.891 47.8327V51.7082H119.063V47.8327H114.383V46.297H125.498V47.8327H120.818H120.891ZM124.474 39.1309V45.2002H115.553V39.1309H117.381V40.7396H122.646V39.1309H124.474ZM122.646 42.2752H117.381V43.5915H122.646V42.2752Z" fill="black"/>
<path d="M138.213 44.6141V46.1497H127.098V44.6141H138.213ZM127.975 42.4204C129.072 42.2741 130.023 41.9816 130.681 41.5429C131.339 41.1041 131.705 40.446 131.705 39.7148V39.0566H133.459V39.7148C133.459 40.446 133.825 41.1041 134.483 41.5429C135.141 41.9816 136.092 42.2741 137.189 42.4204V43.956C136.165 43.8829 135.214 43.5904 134.41 43.2247C133.606 42.8591 132.948 42.3472 132.582 41.8354C132.143 42.4204 131.558 42.8591 130.754 43.2247C129.95 43.5904 128.999 43.8829 127.975 43.956V42.4204ZM137.189 46.8078V51.5609H128.121V46.8078H129.95V47.7584H135.434V46.8078H137.262H137.189ZM135.361 49.2941H129.876V50.0984H135.361V49.2941Z" fill="black"/>
<path d="M139.398 45.4185C140.349 45.4185 141.08 45.4185 141.519 45.4185V42.8591H143.347V45.3453C144.956 45.2722 146.199 45.126 147.223 44.9066V46.4422C146.418 46.5885 145.468 46.7347 144.225 46.881C142.982 46.9541 141.738 47.0272 140.349 47.0272H139.398V45.4916V45.4185ZM146.345 39.6416V43.956H144.517V41.1772H139.91V39.6416H146.345ZM149.855 49.9522V51.4878H140.715V47.9047H142.543V49.9522H149.855ZM149.709 44.1022V48.1241H147.881V39.0566H149.709V42.5666H151.464V44.1022H149.709Z" fill="black"/>
</svg>
