<svg width="20" height="20" viewBox="0 0 20 20" fill="none" xmlns="http://www.w3.org/2000/svg">
<g clip-path="url(#clip0_156_384)">
<path d="M17.3332 3.57748C17.1743 3.43578 16.9671 3.36031 16.7542 3.36657C16.5414 3.37283 16.339 3.46033 16.1886 3.61112C16.0383 3.76191 15.9513 3.96455 15.9457 4.17742C15.94 4.39029 16.0161 4.59725 16.1582 4.75581C17.5467 6.14788 18.3265 8.0338 18.3265 9.99998C18.3265 11.9662 17.5467 13.8521 16.1582 15.2441C16.0736 15.3196 16.0053 15.4115 15.9574 15.5142C15.9095 15.617 15.8831 15.7284 15.8798 15.8417C15.8764 15.955 15.8962 16.0678 15.938 16.1732C15.9798 16.2786 16.0426 16.3744 16.1226 16.4546C16.2027 16.5349 16.2983 16.598 16.4035 16.6401C16.5088 16.6821 16.6215 16.7023 16.7349 16.6993C16.8482 16.6962 16.9597 16.6701 17.0626 16.6226C17.1655 16.575 17.2575 16.5069 17.3332 16.4225C19.0342 14.7179 19.9895 12.4081 19.9895 9.99998C19.9895 7.59186 19.0342 5.28209 17.3332 3.57748Z" fill="white"/>
<path d="M15.0775 6.07753C15.0006 5.99794 14.9087 5.93445 14.807 5.89078C14.7053 5.8471 14.596 5.82411 14.4854 5.82315C14.3747 5.82219 14.265 5.84327 14.1626 5.88518C14.0601 5.92708 13.9671 5.98895 13.8889 6.0672C13.8106 6.14544 13.7487 6.23848 13.7068 6.3409C13.6649 6.44331 13.6438 6.55305 13.6448 6.66369C13.6458 6.77434 13.6688 6.88369 13.7124 6.98536C13.7561 7.08703 13.8196 7.17899 13.8992 7.25586C14.6256 7.98441 15.0334 8.97124 15.0334 10C15.0334 11.0288 14.6256 12.0156 13.8992 12.7442C13.8196 12.8211 13.7561 12.913 13.7124 13.0147C13.6688 13.1164 13.6458 13.2257 13.6448 13.3364C13.6438 13.447 13.6649 13.5567 13.7068 13.6592C13.7487 13.7616 13.8106 13.8546 13.8889 13.9329C13.9671 14.0111 14.0601 14.073 14.1626 14.1149C14.265 14.1568 14.3747 14.1779 14.4854 14.1769C14.596 14.1759 14.7053 14.153 14.807 14.1093C14.9087 14.0656 15.0006 14.0021 15.0775 13.9225C16.1161 12.8813 16.6994 11.4707 16.6994 10C16.6994 8.52936 16.1161 7.11874 15.0775 6.07753Z" fill="white"/>
<path d="M11.5158 0.172456C8.98377 0.647727 6.73108 2.07762 5.22333 4.16662H4.16667C3.062 4.16795 2.00296 4.60736 1.22185 5.38847C0.440735 6.16959 0.00132321 7.22863 0 8.33329L0 11.6666C0.00132321 12.7713 0.440735 13.8303 1.22185 14.6114C2.00296 15.3926 3.062 15.832 4.16667 15.8333H5.22417C6.73148 17.9224 8.98395 19.3523 11.5158 19.8275C11.636 19.8496 11.7595 19.845 11.8777 19.814C11.9959 19.7831 12.1059 19.7265 12.1998 19.6484C12.2937 19.5702 12.3693 19.4724 12.4211 19.3618C12.473 19.2511 12.4999 19.1305 12.5 19.0083V0.991622C12.4999 0.869445 12.473 0.748775 12.4211 0.63816C12.3693 0.527545 12.2937 0.429691 12.1998 0.351529C12.1059 0.273368 11.9959 0.216811 11.8777 0.185865C11.7595 0.154919 11.636 0.150341 11.5158 0.172456Z" fill="white"/>
</g>
<defs>
<clipPath id="clip0_156_384">
<rect width="20" height="20" fill="white"/>
</clipPath>
</defs>
</svg>
