<svg width="20" height="20" viewBox="0 0 20 20" fill="none" xmlns="http://www.w3.org/2000/svg">
<g clip-path="url(#clip0_156_388)">
<path d="M19.7558 18.5775C20.0816 18.9033 20.0816 19.43 19.7558 19.7558C19.5933 19.9183 19.38 20 19.1666 20C18.9533 20 18.74 19.9183 18.5775 19.7558L0.244131 1.42246C-0.0817025 1.09663 -0.0817025 0.569964 0.244131 0.244131C0.569964 -0.0817025 1.09663 -0.0817025 1.42246 0.244131L5.27913 4.1008C6.78496 2.0508 9.03246 0.630798 11.5233 0.172464C11.7633 0.125798 12.0175 0.193298 12.2066 0.351631C12.3975 0.509964 12.5066 0.744964 12.5066 0.992464V11.3291L13.9133 12.7358C15.4183 11.2216 15.4158 8.76663 13.905 7.2558C13.5791 6.92996 13.5791 6.4033 13.905 6.07746C14.2308 5.75163 14.7575 5.75163 15.0833 6.07746C17.2433 8.23746 17.2466 11.7508 15.0916 13.9141L16.2916 15.1141C19.055 12.2133 19.0133 7.60496 16.165 4.7558C15.8391 4.42996 15.8391 3.9033 16.165 3.57746C16.4908 3.25163 17.0175 3.25163 17.3433 3.57746C20.8416 7.0758 20.8841 12.7416 17.47 16.2925L19.755 18.5775H19.7558ZM0.00746418 8.3333V11.6666C0.00746418 13.9641 1.87663 15.8333 4.17413 15.8333H5.23163C6.73746 17.9183 9.00663 19.3641 11.5241 19.8275C11.5741 19.8366 11.6241 19.8416 11.675 19.8416C11.8683 19.8416 12.0575 19.7741 12.2083 19.6491C12.3991 19.4908 12.5083 19.2558 12.5083 19.0083V16.0258L1.56746 5.0858C0.616631 5.84996 0.00746418 7.02163 0.00746418 8.3333Z" fill="white"/>
</g>
<defs>
<clipPath id="clip0_156_388">
<rect width="20" height="20" fill="white"/>
</clipPath>
</defs>
</svg>
