<svg width="726" height="514" viewBox="0 0 726 514" fill="none" xmlns="http://www.w3.org/2000/svg">
<path d="M61.5 513.246C98.017 314.375 519.5 194.246 664.5 513.246H61.5Z" fill="#9CD552"/>
<path d="M0.5 513.5L725.5 513.5V316.5L0.5 316.5V513.5Z" fill="url(#paint0_linear_1_62)"/>
<g filter="url(#filter0_d_1_62)">
<path d="M403.845 382.752L362.133 371.335L454.591 359.992C454.591 359.992 497.53 363.231 504.357 376.823C504.357 376.823 507.942 381.45 505.476 388.026C504.744 389.984 503.28 391.846 501.062 393.223C499.081 394.439 496.755 394.977 494.429 394.967H493.331C463.097 394.848 433.013 390.737 403.856 382.752H403.845Z" fill="#A36034"/>
<path d="M322.497 382.752L364.209 371.335L271.751 359.992C271.751 359.992 228.812 363.231 221.985 376.823C221.985 376.823 218.4 381.45 220.866 388.026C221.641 390.102 223.234 392.072 225.689 393.46C227.897 394.708 230.481 395.15 233.022 394.956C263.256 394.837 293.34 390.737 322.497 382.752Z" fill="#A36034"/>
<mask id="mask0_1_62" style="mask-type:alpha" maskUnits="userSpaceOnUse" x="220" y="359" width="145" height="36">
<path d="M322.501 382.752L364.213 371.335L271.755 359.992C271.755 359.992 228.816 363.231 221.989 376.823C221.989 376.823 218.404 381.45 220.87 388.026C221.645 390.102 223.238 392.072 225.693 393.46C227.901 394.708 230.485 395.15 233.026 394.956C263.26 394.837 293.344 390.737 322.501 382.752Z" fill="#A36034"/>
</mask>
<g mask="url(#mask0_1_62)">
<path d="M300.956 389.004C336.394 389.004 365.122 376.116 365.122 360.219C365.122 344.321 336.394 331.434 300.956 331.434C265.517 331.434 236.789 344.321 236.789 360.219C236.789 376.116 265.517 389.004 300.956 389.004Z" fill="#773E19"/>
</g>
<mask id="mask1_1_62" style="mask-type:alpha" maskUnits="userSpaceOnUse" x="362" y="359" width="145" height="36">
<path d="M403.843 382.752L362.131 371.335L454.589 359.992C454.589 359.992 497.528 363.231 504.355 376.823C504.355 376.823 507.94 381.45 505.474 388.026C504.699 390.102 503.106 392.072 500.651 393.46C498.443 394.708 495.859 395.15 493.318 394.956C463.084 394.837 433.001 390.737 403.843 382.752Z" fill="#A36034"/>
</mask>
<g mask="url(#mask1_1_62)">
<path d="M424.494 389.004C389.055 389.004 360.327 376.116 360.327 360.219C360.327 344.321 389.055 331.434 424.494 331.434C459.932 331.434 488.66 344.321 488.66 360.219C488.66 376.116 459.932 389.004 424.494 389.004Z" fill="#773E19"/>
</g>
<path d="M362.012 377.202C397.544 379.354 448.688 374.512 448.688 374.512C513.83 370.745 479.375 240.619 479.375 240.619C472.333 208.248 475.563 183.497 475.563 183.497C478.298 181.345 482.605 177.04 482.605 177.04C477.221 175.964 475.563 173.812 475.563 173.812C480.947 170.584 486.33 165.203 486.33 165.203C480.947 165.354 473.41 161.974 473.41 161.974C477.716 156.594 482.023 153.365 482.023 153.365C475.563 153.365 473.41 147.985 473.41 147.985C469.103 139.376 468.026 128.614 468.026 128.614C464.796 82.3403 455.105 69.4267 455.105 69.4267L469.103 52.2085C469.103 52.2085 474.486 44.3096 469.103 37.4977C469.103 37.4977 463.719 28.9639 455.105 29.8248L436.801 33.9142C350.082 -19.8927 285.565 33.9142 285.565 33.9142L267.261 29.8248C258.647 28.9639 253.264 37.4977 253.264 37.4977C247.88 44.3096 253.264 52.2085 253.264 52.2085L267.261 69.4267C267.261 69.4267 257.57 82.3403 254.34 128.614C254.34 128.614 253.264 139.376 248.957 147.985C248.957 147.985 246.803 153.365 240.343 153.365C240.343 153.365 244.65 156.594 248.957 161.974C248.957 161.974 241.42 165.354 236.036 165.203C236.036 165.203 241.42 170.584 246.803 173.812C246.803 173.812 245.145 175.964 239.761 177.04C239.761 177.04 244.068 181.345 246.803 183.497C246.803 183.497 250.033 208.248 242.992 240.619C242.992 240.619 208.537 370.745 273.678 374.512C273.678 374.512 324.822 379.354 360.354 377.202" fill="#F7BE77"/>
<path d="M322.713 80.7259C328.659 80.7259 333.48 75.9078 333.48 69.9645C333.48 64.0212 328.659 59.2031 322.713 59.2031C316.766 59.2031 311.945 64.0212 311.945 69.9645C311.945 75.9078 316.766 80.7259 322.713 80.7259Z" fill="#492208"/>
<path d="M294.716 138.834C308.988 138.834 320.558 127.271 320.558 113.007C320.558 98.743 308.988 87.1797 294.716 87.1797C280.445 87.1797 268.875 98.743 268.875 113.007C268.875 127.271 280.445 138.834 294.716 138.834Z" fill="#FEC7AF"/>
<path d="M430.384 138.834C444.656 138.834 456.225 127.271 456.225 113.007C456.225 98.743 444.656 87.1797 430.384 87.1797C416.112 87.1797 404.543 98.743 404.543 113.007C404.543 127.271 416.112 138.834 430.384 138.834Z" fill="#FEC7AF"/>
<path d="M325.402 70.5037C327.186 70.5037 328.632 69.0583 328.632 67.2753C328.632 65.4923 327.186 64.0469 325.402 64.0469C323.618 64.0469 322.172 65.4923 322.172 67.2753C322.172 69.0583 323.618 70.5037 325.402 70.5037Z" fill="white"/>
<path d="M399.162 80.7259C405.108 80.7259 409.929 75.9078 409.929 69.9645C409.929 64.0212 405.108 59.2031 399.162 59.2031C393.215 59.2031 388.395 64.0212 388.395 69.9645C388.395 75.9078 393.215 80.7259 399.162 80.7259Z" fill="#492208"/>
<path d="M401.851 70.5037C403.635 70.5037 405.081 69.0583 405.081 67.2753C405.081 65.4923 403.635 64.0469 401.851 64.0469C400.067 64.0469 398.621 65.4923 398.621 67.2753C398.621 69.0583 400.067 70.5037 401.851 70.5037Z" fill="white"/>
<path d="M363.444 351.714C406.437 351.714 441.291 310.007 441.291 258.56C441.291 207.113 406.437 165.406 363.444 165.406C320.451 165.406 285.598 207.113 285.598 258.56C285.598 310.007 320.451 351.714 363.444 351.714Z" fill="#FFDBCC"/>
<path d="M264.034 43.6016C264.034 43.6016 259.781 44.1396 266.22 48.1751C266.22 48.1751 272.648 54.3629 275.878 51.1345C275.878 51.1345 279.108 46.6255 272.109 45.1189L264.034 43.6016Z" fill="#A36034"/>
<path d="M461.514 44.6758C461.514 44.6758 465.767 45.2138 459.328 49.2494C459.328 49.2494 452.9 55.4372 449.67 52.2087C449.67 52.2087 446.44 47.6997 453.439 46.1931L461.514 44.6758Z" fill="#A36034"/>
<path d="M316.79 108.17C334.63 108.17 349.091 93.7157 349.091 75.8857C349.091 58.0557 334.63 43.6016 316.79 43.6016C298.95 43.6016 284.488 58.0557 284.488 75.8857C284.488 93.7157 298.95 108.17 316.79 108.17Z" stroke="#683C2F" stroke-width="4.60746" stroke-miterlimit="10"/>
<path d="M409.388 108.17C427.227 108.17 441.689 93.7157 441.689 75.8857C441.689 58.0557 427.227 43.6016 409.388 43.6016C391.548 43.6016 377.086 58.0557 377.086 75.8857C377.086 93.7157 391.548 108.17 409.388 108.17Z" stroke="#683C2F" stroke-width="4.60746" stroke-miterlimit="10"/>
<path d="M349.094 71.7649C349.094 71.7649 362.014 61.1757 377.088 71.7649" stroke="#683C2F" stroke-width="4.60746" stroke-miterlimit="10"/>
<path d="M355.113 91.8206C358.052 90.6906 363.587 89.3455 369.692 91.7883C371.178 92.3802 371.985 94.2311 371.371 95.8453C370.758 97.4595 369.401 99.4289 366.569 100.623C363.91 101.743 360.938 101.721 358.289 100.602C356.362 99.7948 354.305 98.3527 353.39 95.8023C352.809 94.1989 353.638 92.3909 355.124 91.8206H355.113Z" fill="#492208"/>
<path d="M363.369 100.324C363.369 100.324 363.014 107.642 371.585 107.642C371.585 107.642 378.788 107.061 378.788 100.324" stroke="#4E210F" stroke-width="4.60746" stroke-miterlimit="10" stroke-linecap="round"/>
<path d="M347.411 100C347.411 100 346.743 107.296 355.314 107.651C355.314 107.651 362.528 107.382 362.818 100.646" stroke="#4E210F" stroke-width="4.60746" stroke-miterlimit="10" stroke-linecap="round"/>
<path d="M386.762 224.159L347.172 184.59L282.457 249.27L322.047 288.839L386.762 224.159Z" fill="#AB5B39"/>
<path d="M319.111 291.776C328.42 282.472 327.105 266.071 316.172 255.145C305.24 244.218 288.83 242.903 279.521 252.207C270.211 261.512 271.527 277.913 282.459 288.839C293.392 299.766 309.801 301.081 319.111 291.776Z" fill="#AB5B39"/>
<path d="M371.38 229.573C363.983 229.573 356.457 226.302 350.75 220.587C340.048 209.891 338.723 193.792 347.811 184.72C351.709 180.824 357.125 178.672 363.068 178.672C370.465 178.672 377.991 181.943 383.698 187.658C388.899 192.855 392.053 199.452 392.602 206.243C393.141 213.001 391.03 219.145 386.637 223.525C382.74 227.421 377.313 229.573 371.38 229.573Z" fill="#F1DEB7"/>
<path d="M363.08 179.209C370.337 179.209 377.724 182.427 383.333 188.033C393.831 198.526 395.145 214.27 386.273 223.148C382.472 226.946 377.185 229.034 371.393 229.034C364.136 229.034 356.749 225.816 351.14 220.21C340.642 209.717 339.328 193.974 348.2 185.095C352.001 181.297 357.288 179.209 363.08 179.209ZM363.08 178.133C357.202 178.133 351.603 180.167 347.436 184.331C338.122 193.64 339.446 210.04 350.375 220.963C356.416 227 364.125 230.099 371.382 230.099C377.261 230.099 382.86 228.066 387.027 223.901C396.34 214.592 395.016 198.192 384.087 187.269C378.047 181.232 370.337 178.133 363.08 178.133Z" fill="#A95A39"/>
<path d="M384.506 219.072C391.592 211.99 390.205 199.121 381.409 190.33C372.613 181.538 359.737 180.152 352.651 187.235C345.565 194.317 346.951 207.186 355.748 215.977C364.544 224.769 377.419 226.155 384.506 219.072Z" stroke="#A95A39" stroke-width="2.30373" stroke-miterlimit="10"/>
<path d="M380.972 212.921C385.779 208.115 384.687 199.233 378.532 193.081C372.377 186.929 363.49 185.838 358.682 190.643C353.874 195.448 354.966 204.331 361.121 210.483C367.276 216.634 376.164 217.726 380.972 212.921Z" stroke="#A95A39" stroke-width="2.30373" stroke-miterlimit="10"/>
<path d="M376.963 205.613C379.242 203.335 378.554 198.954 375.425 195.827C372.297 192.7 367.913 192.012 365.634 194.29C363.355 196.568 364.044 200.949 367.172 204.075C370.301 207.202 374.684 207.89 376.963 205.613Z" stroke="#A95A39" stroke-width="2.30373" stroke-miterlimit="10"/>
<path d="M378.179 251.993L370.109 258.292C368.235 259.755 367.902 262.46 369.366 264.334C370.83 266.208 373.537 266.54 375.411 265.077L383.481 258.778C385.356 257.314 385.689 254.609 384.224 252.735C382.76 250.862 380.054 250.529 378.179 251.993Z" fill="#A36034"/>
<path d="M382.078 264.399L374.008 270.698C372.133 272.161 371.8 274.867 373.264 276.74C374.728 278.614 377.435 278.946 379.31 277.483L387.38 271.184C389.254 269.72 389.587 267.015 388.123 265.142C386.659 263.268 383.952 262.935 382.078 264.399Z" fill="#A36034"/>
<path d="M392.113 271.043L384.043 277.343C382.168 278.806 381.835 281.511 383.299 283.385C384.764 285.258 387.47 285.591 389.345 284.128L397.415 277.828C399.289 276.365 399.622 273.66 398.158 271.786C396.694 269.913 393.987 269.58 392.113 271.043Z" fill="#A36034"/>
<g filter="url(#filter1_d_1_62)">
<path d="M458.057 222.582C450.584 243.922 435.047 262.324 415.257 273.279C410.789 275.754 406.041 277.885 400.991 278.627C395.941 279.37 390.514 278.628 386.304 275.733C379.715 271.202 377.346 262.163 378.993 254.339C380.641 246.516 385.637 239.8 391.3 234.162C396.964 228.523 403.381 223.669 408.915 217.901C414.45 212.133 419.166 205.16 420.318 197.25L458.068 222.593L458.057 222.582Z" fill="url(#paint1_linear_1_62)"/>
</g>
<path d="M418.253 205.461L422.967 190.253L464.335 211.987L455.642 227.036L418.253 205.461Z" fill="#F7BE77"/>
<path d="M352.458 251.996L360.528 258.296C362.402 259.759 362.735 262.464 361.271 264.338C359.807 266.211 357.1 266.544 355.226 265.081L347.156 258.781C345.281 257.318 344.948 254.613 346.412 252.739C347.876 250.866 350.583 250.533 352.458 251.996Z" fill="#A36034"/>
<path d="M348.559 264.403L356.629 270.702C358.504 272.165 358.837 274.87 357.372 276.744C355.908 278.618 353.202 278.95 351.327 277.487L343.257 271.188C341.382 269.724 341.05 267.019 342.514 265.146C343.978 263.272 346.684 262.939 348.559 264.403Z" fill="#A36034"/>
<path d="M338.528 271.047L346.598 277.347C348.472 278.81 348.805 281.515 347.341 283.389C345.877 285.262 343.171 285.595 341.296 284.132L333.226 277.832C331.351 276.369 331.018 273.664 332.483 271.79C333.947 269.917 336.653 269.584 338.528 271.047Z" fill="#A36034"/>
<g filter="url(#filter2_d_1_62)">
<path d="M272.58 222.582C280.052 243.922 295.589 262.324 315.379 273.279C319.848 275.754 324.596 277.885 329.646 278.627C334.696 279.37 340.122 278.628 344.332 275.733C350.922 271.202 353.291 262.163 351.643 254.339C349.996 246.516 345 239.8 339.336 234.162C333.673 228.523 327.256 223.669 321.721 217.901C316.187 212.133 311.471 205.16 310.319 197.25L272.569 222.593L272.58 222.582Z" fill="url(#paint2_linear_1_62)"/>
</g>
<path d="M312.384 205.461L300.776 178.318L258.586 198.63L274.995 227.036L312.384 205.461Z" fill="#F7BE77"/>
<mask id="mask2_1_62" style="mask-type:alpha" maskUnits="userSpaceOnUse" x="234" y="10" width="255" height="368">
<path d="M362.125 377.202C397.657 379.354 448.801 374.512 448.801 374.512C513.943 370.745 479.488 240.619 479.488 240.619C472.446 208.248 475.676 183.497 475.676 183.497C478.411 181.345 482.718 177.04 482.718 177.04C477.334 175.964 475.676 173.812 475.676 173.812C481.06 170.584 486.443 165.203 486.443 165.203C481.06 165.354 473.523 161.974 473.523 161.974C477.83 156.594 482.137 153.365 482.137 153.365C475.676 153.365 473.523 147.985 473.523 147.985C469.216 139.376 468.139 128.614 468.139 128.614C464.909 82.3403 455.219 69.4267 455.219 69.4267L469.216 52.2085C469.216 52.2085 474.599 44.3096 469.216 37.4977C469.216 37.4977 463.832 28.9639 455.219 29.8248L436.914 33.9142C350.195 -19.8927 285.678 33.9142 285.678 33.9142L267.374 29.8248C258.76 28.9639 253.377 37.4977 253.377 37.4977C247.993 44.3096 253.377 52.2085 253.377 52.2085L267.374 69.4267C267.374 69.4267 257.684 82.3403 254.454 128.614C254.454 128.614 253.377 139.376 249.07 147.985C249.07 147.985 246.917 153.365 240.456 153.365C240.456 153.365 244.763 156.594 249.07 161.974C249.07 161.974 241.533 165.354 236.149 165.203C236.149 165.203 241.533 170.584 246.917 173.812C246.917 173.812 245.258 175.964 239.875 177.04C239.875 177.04 244.182 181.345 246.917 183.497C246.917 183.497 250.147 208.248 243.105 240.619C243.105 240.619 208.65 370.745 273.791 374.512C273.791 374.512 324.936 379.354 360.467 377.202" fill="#CD8348"/>
</mask>
<g mask="url(#mask2_1_62)">
<path opacity="0.2" d="M459.278 41.783C395.471 -4.75275 320.35 20.3941 290.766 38.7845C335.382 -18.7854 437.689 9.59975 483.265 30.9886L459.278 41.783Z" fill="white"/>
<path opacity="0.2" d="M264.978 60.3697C257.782 54.6127 254.783 45.1776 254.183 41.1797L240.391 171.911C254.303 173.83 260.18 159.118 261.38 151.522C264.258 114.581 273.373 84.9568 277.571 74.7621L264.978 60.3697Z" fill="white"/>
<path opacity="0.2" d="M278.171 408.197C236.433 398.602 237.592 313.047 243.389 271.469L233.194 335.036C216.403 390.686 245.388 413.794 261.979 418.392C308.035 432.784 358.329 424.389 377.719 418.392C329.744 418.392 291.364 411.596 278.171 408.197Z" fill="white"/>
</g>
</g>
<defs>
<filter id="filter0_d_1_62" x="207.713" y="0.78506" width="310.915" height="409.573" filterUnits="userSpaceOnUse" color-interpolation-filters="sRGB">
<feFlood flood-opacity="0" result="BackgroundImageFix"/>
<feColorMatrix in="SourceAlpha" type="matrix" values="0 0 0 0 0 0 0 0 0 0 0 0 0 0 0 0 0 0 127 0" result="hardAlpha"/>
<feOffset dy="3.07164"/>
<feGaussianBlur stdDeviation="6.14329"/>
<feComposite in2="hardAlpha" operator="out"/>
<feColorMatrix type="matrix" values="0 0 0 0 0 0 0 0 0 0 0 0 0 0 0 0 0 0 0.1 0"/>
<feBlend mode="normal" in2="BackgroundImageFix" result="effect1_dropShadow_1_62"/>
<feBlend mode="normal" in="SourceGraphic" in2="effect1_dropShadow_1_62" result="shape"/>
</filter>
<filter id="filter1_d_1_62" x="355.451" y="177.284" width="125.655" height="127.721" filterUnits="userSpaceOnUse" color-interpolation-filters="sRGB">
<feFlood flood-opacity="0" result="BackgroundImageFix"/>
<feColorMatrix in="SourceAlpha" type="matrix" values="0 0 0 0 0 0 0 0 0 0 0 0 0 0 0 0 0 0 127 0" result="hardAlpha"/>
<feOffset dy="3.07164"/>
<feGaussianBlur stdDeviation="11.5187"/>
<feComposite in2="hardAlpha" operator="out"/>
<feColorMatrix type="matrix" values="0 0 0 0 0 0 0 0 0 0 0 0 0 0 0 0 0 0 0.1 0"/>
<feBlend mode="normal" in2="BackgroundImageFix" result="effect1_dropShadow_1_62"/>
<feBlend mode="normal" in="SourceGraphic" in2="effect1_dropShadow_1_62" result="shape"/>
</filter>
<filter id="filter2_d_1_62" x="249.532" y="177.284" width="125.654" height="127.721" filterUnits="userSpaceOnUse" color-interpolation-filters="sRGB">
<feFlood flood-opacity="0" result="BackgroundImageFix"/>
<feColorMatrix in="SourceAlpha" type="matrix" values="0 0 0 0 0 0 0 0 0 0 0 0 0 0 0 0 0 0 127 0" result="hardAlpha"/>
<feOffset dy="3.07164"/>
<feGaussianBlur stdDeviation="11.5187"/>
<feComposite in2="hardAlpha" operator="out"/>
<feColorMatrix type="matrix" values="0 0 0 0 0 0 0 0 0 0 0 0 0 0 0 0 0 0 0.1 0"/>
<feBlend mode="normal" in2="BackgroundImageFix" result="effect1_dropShadow_1_62"/>
<feBlend mode="normal" in="SourceGraphic" in2="effect1_dropShadow_1_62" result="shape"/>
</filter>
<linearGradient id="paint0_linear_1_62" x1="363" y1="513.5" x2="363" y2="316.5" gradientUnits="userSpaceOnUse">
<stop stop-color="#F4F4F4"/>
<stop offset="1" stop-color="#F4F4F4" stop-opacity="0"/>
</linearGradient>
<linearGradient id="paint1_linear_1_62" x1="401.432" y1="279.424" x2="449.309" y2="201.919" gradientUnits="userSpaceOnUse">
<stop stop-color="#F4B96E"/>
<stop offset="1" stop-color="#F7BE77"/>
</linearGradient>
<linearGradient id="paint2_linear_1_62" x1="329.205" y1="279.424" x2="281.328" y2="201.919" gradientUnits="userSpaceOnUse">
<stop stop-color="#F4B96E"/>
<stop offset="1" stop-color="#F7BE77"/>
</linearGradient>
</defs>
</svg>
