<svg width="41" height="14" viewBox="0 0 41 14" fill="none" xmlns="http://www.w3.org/2000/svg">
<path d="M7.99785 2.89196C9.43415 3.66834 10.3787 5.00112 10.7152 6.47624C10.8316 6.30802 10.9481 6.13981 11.0387 5.97159C12.0997 4.00477 11.3622 1.54625 9.39533 0.485198C7.42851 -0.57585 4.96999 0.161708 3.90894 2.12853C3.84424 2.25792 3.77954 2.38732 3.71484 2.52966C5.08644 2.06383 6.6392 2.15441 8.0108 2.89196H7.99785Z" fill="#915B41"/>
<path d="M10.7163 6.46392C9.42231 8.30134 6.5109 10.1517 4.69935 9.18123C2.84899 8.18488 2.82311 4.60061 3.703 2.53027C2.43492 2.95728 1.33505 3.83717 0.649252 5.09232C-0.774106 7.732 0.222244 11.0187 2.86193 12.442C5.50161 13.8654 8.78827 12.869 10.2116 10.2293C10.8586 9.02596 11.0009 7.69318 10.7163 6.45098V6.46392Z" fill="#1FBDFF"/>
<path d="M4.7017 9.17986C6.50031 10.1503 9.42466 8.29997 10.7186 6.46254C10.3822 4.98743 9.4376 3.65465 8.0013 2.87827C6.6297 2.14071 5.07695 2.06307 3.70535 2.51596C2.8384 4.5863 2.86428 8.17057 4.7017 9.16692V9.17986Z" fill="#F2B819"/>
<path d="M14.4944 6.8418H14.2227V10.7366H22.1935V6.8418H14.5073H14.4944ZM15.3484 9.68851V7.90284H21.0418V9.68851H15.3484Z" fill="black"/>
<path d="M21.3248 1.92383H21.0401V2.19556V3.74831H20.3284V2.19556V1.92383H20.0438H19.4615H19.1898V2.19556V6.05157L18.3616 2.1438L18.3228 1.92383H18.1028H17.3006H17.0677L17.0288 2.1438L16.6277 4.1365L16.2395 2.1438L16.2007 1.92383H15.9678H15.1655H14.9456L14.9067 2.1438L14.0269 6.31036L13.9492 6.63385H14.2856H14.8809H15.1008L15.1526 6.41387L15.5796 4.11062L16.0713 6.41387L16.1231 6.63385H16.343H16.9253H17.1453L17.1971 6.41387L17.6888 4.11062L18.1158 6.41387L18.1675 6.63385H18.3875H18.9827H19.1898V6.815H19.4615H20.0438H20.3284V6.53033V4.80936H21.0401V6.53033V6.815H21.3248H21.9071H22.1788V6.53033V2.19556V1.92383H21.9071H21.3248Z" fill="black"/>
<path d="M28.7257 3.67117H28.9974V3.39944V2.89479V2.62306H28.7257H26.5647V1.91138V1.63965H26.2801H25.6978H25.4261V1.91138V2.62306H23.2651H22.9805V2.89479V3.39944V3.67117H23.2651H28.7257Z" fill="black"/>
<path d="M30.8613 5.40434V2.20825V1.93652H30.5767H29.9944H29.7227V2.20825V10.4637V10.7355H29.9944H30.5767H30.8613V10.4637V6.45245H31.8448H32.1294V6.18072V5.67607V5.40434H31.8448H30.8613Z" fill="black"/>
<path d="M40.1517 9.6878H36.2698V5.71534V5.43066H35.9981H35.4158H35.1441V5.71534V9.6878H32.4397H32.168V9.95953V10.4642V10.7359H32.4397H40.1517H40.4234V10.4642V9.95953V9.6878H40.1517Z" fill="black"/>
<path d="M39.1815 2.97194C39.1556 3.60598 39.1038 4.27884 39.0133 4.97758C38.9227 5.77983 38.7933 6.62091 38.638 7.47492L38.5733 7.79841H39.7379L39.7767 7.57844C39.8543 7.15143 39.932 6.71148 39.9967 6.28448C40.0614 5.85747 40.1261 5.41752 40.1649 4.97758C40.2167 4.53763 40.2555 4.08474 40.2943 3.63186C40.3202 3.17897 40.359 2.7002 40.3719 2.2085V1.92383H40.1002H32.207V2.97194H39.1815Z" fill="black"/>
<path d="M27.6266 4.38331C26.8631 3.94336 25.9832 3.8269 25.1292 4.05982C24.2752 4.29273 23.5765 4.83619 23.1365 5.59963C22.5154 6.67362 22.3084 8.39459 22.6319 9.62385C22.826 10.3485 23.2012 10.879 23.7188 11.1766C24.4822 11.6166 25.5304 11.526 26.6432 10.9049C27.5619 10.4002 28.403 9.62385 28.83 8.87335C29.2699 8.10991 29.3864 7.23002 29.1534 6.37601C28.9205 5.52199 28.3771 4.82325 27.6136 4.38331H27.6266ZM27.8854 8.32989C27.5489 8.91217 26.8631 9.54621 26.1256 9.94734C25.3621 10.3614 24.6893 10.4649 24.2752 10.232C23.9517 10.0379 23.7835 9.63679 23.7059 9.33918C23.4212 8.29107 23.6929 6.86771 24.107 6.15603C24.4046 5.65139 24.8704 5.28908 25.4398 5.1338C26.0091 4.97853 26.5914 5.05617 27.109 5.35378C27.6136 5.65139 27.9759 6.11721 28.1312 6.68656C28.2865 7.2559 28.2089 7.83818 27.9112 8.34283L27.8854 8.32989Z" fill="black"/>
</svg>
