<svg width="38" height="40" viewBox="0 0 38 40" fill="none" xmlns="http://www.w3.org/2000/svg">
<path d="M18.9795 0.0400391C29.4746 0.0400391 37.9998 7.87668 38 17.5127C38 27.1489 29.4747 34.9863 18.9795 34.9863C17.6929 34.9863 16.4465 34.9059 15.2402 34.666L15.0791 34.5859L7.88184 39.9043C7.56026 40.1441 7.11751 39.9045 7.11719 39.5049V31.1074C3.01577 28.0288 0 27.1086 0 17.4727C0.000273366 7.83667 8.52544 0 19.0205 0L18.9795 0.0400391ZM13.0391 10.2422C9.75723 10.2422 6.24609 13.1525 6.24609 17.2031C6.24616 21.2537 9.26118 24.1641 13.0391 24.1641C16.8166 24.1639 18.7624 22.0402 19.373 18.7764H16.7783C16.3203 20.4671 14.7942 21.5682 13.0391 21.5684C11.2837 21.5684 8.80282 19.72 8.80273 17.2031C8.80273 14.6862 10.4823 12.7988 13.0391 12.7988C15.5956 12.7989 16.3967 13.9 16.8164 15.709H19.4111C18.8006 12.4057 16.3207 10.2423 13.0391 10.2422ZM21.5469 23.8105H23.9512V18.6582C23.9513 17.0854 24.9052 16.2988 26.0117 16.2988C27.1184 16.2988 27.8438 16.9679 27.8438 18.2656V23.8496H30.2471V17.9902C30.2471 16.7318 29.9418 15.788 29.2549 15.0801V15.001C28.6063 14.2933 28.0336 13.9395 26.7363 13.9395C25.4392 13.9395 24.5235 14.3721 23.9512 15.2764V10.1641H21.5469V23.8105Z" fill="#372A12" fill-opacity="0.9"/>
</svg>
