<svg width="18" height="18" viewBox="0 0 18 18" fill="none" xmlns="http://www.w3.org/2000/svg">
<path d="M12.046 1.83915C12.2569 2.05012 12.3754 2.33622 12.3754 2.63453C12.3754 2.93284 12.2569 3.21893 12.046 3.4299L6.47723 8.99865L12.046 14.5674C12.2509 14.7796 12.3643 15.0638 12.3617 15.3587C12.3592 15.6537 12.2409 15.9359 12.0323 16.1444C11.8237 16.353 11.5415 16.4713 11.2466 16.4739C10.9516 16.4765 10.6674 16.3631 10.4552 16.1582L4.0911 9.79403C3.8802 9.58306 3.76172 9.29696 3.76172 8.99865C3.76172 8.70034 3.8802 8.41424 4.0911 8.20328L10.4552 1.83915C10.6662 1.62825 10.9523 1.50977 11.2506 1.50977C11.5489 1.50977 11.835 1.62825 12.046 1.83915Z" fill="#191919"/>
</svg>
