<svg width="11" height="11" viewBox="0 0 11 11" fill="none" xmlns="http://www.w3.org/2000/svg">
<path d="M9.02092 9.41168C8.41683 10.0827 7.44425 10.0827 5.5 10.0827C3.55575 10.0827 2.58317 10.0827 1.97908 9.41123C1.375 8.74068 1.375 7.65993 1.375 5.49935C1.375 3.33877 1.375 2.25847 1.97908 1.58702C2.58317 0.915557 3.55575 0.916016 5.5 0.916016C7.44425 0.916016 8.41683 0.916016 9.02092 1.58702C9.625 2.25893 9.625 3.33877 9.625 5.49935C9.625 7.65993 9.625 8.74068 9.02092 9.41168Z" stroke="#984C93" stroke-width="0.75"/>
<path d="M7.79102 3.66667C7.79102 3.45354 7.79102 3.34721 7.76764 3.25967C7.73639 3.14319 7.67504 3.03698 7.58977 2.95171C7.50449 2.86643 7.39828 2.80509 7.28181 2.77383C7.19335 2.75 7.08702 2.75 6.87435 2.75H4.12435C3.91122 2.75 3.80489 2.75 3.71735 2.77338C3.60087 2.80463 3.49466 2.86597 3.40939 2.95125C3.32411 3.03652 3.26277 3.14273 3.23151 3.25921C3.20768 3.34767 3.20768 3.454 3.20768 3.66667C3.20768 3.87933 3.20768 3.98612 3.23106 4.07367C3.26231 4.19014 3.32366 4.29635 3.40893 4.38163C3.49421 4.4669 3.60041 4.52825 3.71689 4.5595C3.80489 4.58333 3.91168 4.58333 4.12435 4.58333H6.87435C7.08747 4.58333 7.19381 4.58333 7.28135 4.55996C7.39783 4.5287 7.50403 4.46736 7.58931 4.38208C7.67458 4.29681 7.73593 4.1906 7.76718 4.07413C7.79102 3.98567 7.79102 3.87933 7.79102 3.66667Z" stroke="#984C93" stroke-width="0.75"/>
<path d="M7.33268 6.41667C7.07955 6.41667 6.87435 6.21146 6.87435 5.95833C6.87435 5.7052 7.07955 5.5 7.33268 5.5C7.58581 5.5 7.79102 5.7052 7.79102 5.95833C7.79102 6.21146 7.58581 6.41667 7.33268 6.41667Z" fill="#984C93"/>
<path d="M7.33268 8.2487C7.07955 8.2487 6.87435 8.0435 6.87435 7.79036C6.87435 7.53723 7.07955 7.33203 7.33268 7.33203C7.58581 7.33203 7.79102 7.53723 7.79102 7.79036C7.79102 8.0435 7.58581 8.2487 7.33268 8.2487Z" fill="#984C93"/>
<path d="M5.50065 6.41667C5.24752 6.41667 5.04232 6.21146 5.04232 5.95833C5.04232 5.7052 5.24752 5.5 5.50065 5.5C5.75378 5.5 5.95898 5.7052 5.95898 5.95833C5.95898 6.21146 5.75378 6.41667 5.50065 6.41667Z" fill="#984C93"/>
<path d="M5.50065 8.2487C5.24752 8.2487 5.04232 8.0435 5.04232 7.79036C5.04232 7.53723 5.24752 7.33203 5.50065 7.33203C5.75378 7.33203 5.95898 7.53723 5.95898 7.79036C5.95898 8.0435 5.75378 8.2487 5.50065 8.2487Z" fill="#984C93"/>
<path d="M3.66667 6.41667C3.41354 6.41667 3.20833 6.21146 3.20833 5.95833C3.20833 5.7052 3.41354 5.5 3.66667 5.5C3.9198 5.5 4.125 5.7052 4.125 5.95833C4.125 6.21146 3.9198 6.41667 3.66667 6.41667Z" fill="#984C93"/>
<path d="M3.66667 8.2487C3.41354 8.2487 3.20833 8.0435 3.20833 7.79036C3.20833 7.53723 3.41354 7.33203 3.66667 7.33203C3.9198 7.33203 4.125 7.53723 4.125 7.79036C4.125 8.0435 3.9198 8.2487 3.66667 8.2487Z" fill="#984C93"/>
</svg>
