<svg width="20" height="20" viewBox="0 0 20 20" fill="none" xmlns="http://www.w3.org/2000/svg">
<path d="M4.36364 12.6361H16.6364C17.0114 12.6361 17.3182 12.943 17.3182 13.3181C17.3182 13.6931 17.0114 14 16.6364 14H4.36364C3.98864 14 3.68182 13.6931 3.68182 13.3181C3.68182 12.943 3.98864 12.6361 4.36364 12.6361ZM4.02273 9.61508C4.26818 9.75829 4.58182 9.66964 4.725 9.42414L5.04545 8.86494L5.37273 9.43096C5.51591 9.67646 5.82955 9.75829 6.075 9.6219C6.32045 9.47869 6.40227 9.17182 6.26591 8.92632L5.93182 8.35348H6.57955C6.85909 8.35348 7.09091 8.12162 7.09091 7.84202C7.09091 7.56242 6.85909 7.33056 6.57955 7.33056H5.93182L6.25227 6.77137C6.39545 6.52586 6.31364 6.21217 6.06818 6.06896C5.94937 6.00281 5.8094 5.98575 5.67818 6.02143C5.54696 6.05711 5.43489 6.14269 5.36591 6.25991L5.04545 6.8191L4.725 6.25991C4.65602 6.14269 4.54395 6.05711 4.41273 6.02143C4.28151 5.98575 4.14154 6.00281 4.02273 6.06896C3.77727 6.21217 3.69545 6.52586 3.83864 6.77137L4.15909 7.33056H3.51136C3.23182 7.33056 3 7.56242 3 7.84202C3 8.12162 3.23182 8.35348 3.51136 8.35348H4.15909L3.83182 8.9195C3.69545 9.165 3.77727 9.47869 4.02273 9.61508ZM9.47727 9.61508C9.72273 9.75829 10.0364 9.66964 10.1795 9.42414L10.5 8.86494L10.8273 9.43096C10.9705 9.67646 11.2841 9.75829 11.5295 9.6219C11.775 9.47869 11.8568 9.17182 11.7205 8.92632L11.3932 8.3603H12.0409C12.3205 8.3603 12.5523 8.12844 12.5523 7.84884C12.5523 7.56924 12.3205 7.33738 12.0409 7.33738H11.3864L11.7068 6.77818C11.7743 6.66032 11.7927 6.5207 11.7583 6.38935C11.7239 6.25799 11.6393 6.1454 11.5227 6.07578C11.465 6.04219 11.4012 6.02031 11.335 6.01138C11.2688 6.00245 11.2014 6.00666 11.1369 6.02376C11.0723 6.04086 11.0117 6.07051 10.9586 6.11103C10.9055 6.15155 10.8608 6.20214 10.8273 6.25991L10.5 6.8191L10.1795 6.25991C10.1464 6.20173 10.1019 6.15074 10.0489 6.10992C9.99579 6.06909 9.93512 6.03923 9.87039 6.0221C9.80566 6.00496 9.73817 6.00088 9.67184 6.0101C9.60552 6.01931 9.5417 6.04164 9.48409 6.07578C9.23864 6.21899 9.15682 6.53268 9.3 6.77818L9.62045 7.33738H8.96591C8.89908 7.33648 8.83274 7.34886 8.77073 7.37382C8.70873 7.39878 8.6523 7.4358 8.60473 7.48275C8.55715 7.5297 8.51937 7.58564 8.49359 7.64732C8.46781 7.70899 8.45454 7.77517 8.45455 7.84202C8.45455 8.12162 8.68636 8.35348 8.96591 8.35348H9.61364L9.28636 8.9195C9.15 9.165 9.23182 9.47869 9.47727 9.61508ZM18 7.84202C18 7.56242 17.7682 7.33056 17.4886 7.33056H16.8409L17.1614 6.77137C17.2288 6.65351 17.2473 6.51388 17.2129 6.38253C17.1784 6.25117 17.0938 6.13858 16.9773 6.06896C16.9195 6.03537 16.8557 6.01349 16.7895 6.00456C16.7233 5.99563 16.656 5.99984 16.5914 6.01694C16.5268 6.03404 16.4663 6.06369 16.4131 6.10421C16.36 6.14473 16.3154 6.19532 16.2818 6.25309L15.9545 6.8191L15.6341 6.25991C15.6009 6.20173 15.5565 6.15074 15.5034 6.10992C15.4503 6.06909 15.3897 6.03923 15.3249 6.0221C15.2602 6.00496 15.1927 6.00088 15.1264 6.0101C15.0601 6.01931 14.9962 6.04164 14.9386 6.07578C14.6932 6.21899 14.6114 6.53268 14.7545 6.77818L15.075 7.33738H14.4273C14.3599 7.33584 14.293 7.34774 14.2303 7.37238C14.1677 7.39703 14.1105 7.43392 14.0623 7.48091C14.014 7.5279 13.9756 7.58403 13.9493 7.64604C13.923 7.70804 13.9093 7.77467 13.9091 7.84202C13.9091 8.12162 14.1409 8.35348 14.4205 8.35348H15.0682L14.7409 8.9195C14.7071 8.97752 14.6851 9.04173 14.6764 9.10835C14.6677 9.17496 14.6723 9.24265 14.6901 9.30744C14.7079 9.37223 14.7385 9.43281 14.78 9.48564C14.8215 9.53847 14.8731 9.58248 14.9318 9.61508C15.1773 9.75829 15.4909 9.66964 15.6341 9.42414L15.9545 8.86494L16.2818 9.43096C16.425 9.67646 16.7386 9.75829 16.9841 9.6219C17.2295 9.47869 17.3114 9.17182 17.175 8.92632L16.8477 8.3603H17.4955C17.7682 8.35348 18 8.12162 18 7.84202Z" fill="#191919"/>
</svg>
