<svg width="20" height="20" viewBox="0 0 20 20" fill="none" xmlns="http://www.w3.org/2000/svg">
<path fill-rule="evenodd" clip-rule="evenodd" d="M4.16797 7.49984C4.16797 5.95274 4.78255 4.46901 5.87651 3.37505C6.97047 2.28109 8.45421 1.6665 10.0013 1.6665C11.5484 1.6665 13.0321 2.28109 14.1261 3.37505C15.2201 4.46901 15.8346 5.95274 15.8346 7.49984V8.36234C17.248 8.56484 18.3346 9.78067 18.3346 11.2498V11.4582C18.3345 11.8195 18.2621 12.1772 18.1217 12.5101C17.9812 12.8431 17.7755 13.1445 17.5168 13.3967C17.258 13.649 16.9514 13.8469 16.615 13.9788C16.2786 14.1107 15.9192 14.174 15.558 14.1648C14.9413 15.9315 13.373 17.1223 11.6805 17.424C11.2888 17.5673 10.8255 17.4998 10.418 17.4998C10.0864 17.4998 9.76851 17.3681 9.53408 17.1337C9.29966 16.8993 9.16797 16.5814 9.16797 16.2498C9.16797 15.9183 9.29966 15.6004 9.53408 15.366C9.76851 15.1315 10.0864 14.9998 10.418 14.9998H11.2513C11.447 14.9998 11.6399 15.0457 11.8146 15.1338C11.9893 15.222 12.1409 15.3499 12.2571 15.5073C13.3371 14.9932 14.168 13.9073 14.168 12.4998V7.49984C14.168 6.39477 13.729 5.33496 12.9476 4.55356C12.1662 3.77216 11.1064 3.33317 10.0013 3.33317C8.89623 3.33317 7.83643 3.77216 7.05502 4.55356C6.27362 5.33496 5.83464 6.39477 5.83464 7.49984V12.7082C5.83464 13.0949 5.68099 13.4659 5.4075 13.7394C5.13401 14.0129 4.76308 14.1665 4.3763 14.1665C3.65801 14.1665 2.96913 13.8812 2.46122 13.3733C1.95331 12.8653 1.66797 12.1765 1.66797 11.4582V11.2498C1.66779 10.5484 1.92043 9.8703 2.3796 9.33997C2.83876 8.80963 3.47368 8.46255 4.16797 8.36234V7.49984ZM4.16797 10.0707C3.92415 10.1569 3.71308 10.3166 3.56383 10.5278C3.41458 10.739 3.3345 10.9912 3.33464 11.2498V11.4582C3.33464 11.9623 3.69297 12.3832 4.16797 12.479V10.0707ZM15.8346 10.0707V12.479C16.3096 12.3823 16.668 11.9623 16.668 11.4582V11.2498C16.6681 10.9912 16.588 10.739 16.4388 10.5278C16.2895 10.3166 16.0785 10.1569 15.8346 10.0707Z" fill="#191919"/>
</svg>
