<svg width="16" height="16" viewBox="0 0 16 16" fill="none" xmlns="http://www.w3.org/2000/svg">
<path d="M5.33366 3.33398H4.00033C3.6467 3.33398 3.30756 3.47446 3.05752 3.72451C2.80747 3.97456 2.66699 4.3137 2.66699 4.66732V12.6673C2.66699 13.0209 2.80747 13.3601 3.05752 13.6101C3.30756 13.8602 3.6467 14.0007 4.00033 14.0007H7.79833M12.0003 9.33398V12.0007H14.667M12.0003 7.33398V4.66732C12.0003 4.3137 11.8598 3.97456 11.6098 3.72451C11.3598 3.47446 11.0206 3.33398 10.667 3.33398H9.33366" stroke="#19B5F5" stroke-width="1.2" stroke-linecap="round" stroke-linejoin="round"/>
<path d="M5.33398 7.33333H8.00065M5.33398 10H7.33398M5.33398 3.33333C5.33398 2.97971 5.47446 2.64057 5.72451 2.39052C5.97456 2.14048 6.3137 2 6.66732 2H8.00065C8.35427 2 8.69341 2.14048 8.94346 2.39052C9.19351 2.64057 9.33398 2.97971 9.33398 3.33333C9.33398 3.68696 9.19351 4.02609 8.94346 4.27614C8.69341 4.52619 8.35427 4.66667 8.00065 4.66667H6.66732C6.3137 4.66667 5.97456 4.52619 5.72451 4.27614C5.47446 4.02609 5.33398 3.68696 5.33398 3.33333ZM9.33398 12C9.33398 12.7072 9.61494 13.3855 10.115 13.8856C10.6151 14.3857 11.2934 14.6667 12.0007 14.6667C12.7079 14.6667 13.3862 14.3857 13.8863 13.8856C14.3864 13.3855 14.6673 12.7072 14.6673 12C14.6673 11.2928 14.3864 10.6145 13.8863 10.1144C13.3862 9.61429 12.7079 9.33333 12.0007 9.33333C11.2934 9.33333 10.6151 9.61429 10.115 10.1144C9.61494 10.6145 9.33398 11.2928 9.33398 12Z" stroke="#19B5F5" stroke-width="1.2" stroke-linecap="round" stroke-linejoin="round"/>
</svg>
