<svg width="40" height="40" viewBox="0 0 40 40" fill="none" xmlns="http://www.w3.org/2000/svg">
<circle cx="20" cy="20" r="20" fill="white"/>
<path fill-rule="evenodd" clip-rule="evenodd" d="M20.965 21.1084C20.7655 21.1084 20.5742 21.188 20.4332 21.3297C20.2921 21.4714 20.2129 21.6636 20.2129 21.864C20.2129 22.0643 20.2921 22.2565 20.4332 22.3982C20.5742 22.5399 20.7655 22.6195 20.965 22.6195H26.9817C27.1812 22.6195 27.3725 22.5399 27.5135 22.3982C27.6546 22.2565 27.7338 22.0643 27.7338 21.864C27.7338 21.6636 27.6546 21.4714 27.5135 21.3297C27.3725 21.188 27.1812 21.1084 26.9817 21.1084H20.965ZM20.2129 24.5084C20.2129 24.308 20.2921 24.1158 20.4332 23.9741C20.5742 23.8324 20.7655 23.7528 20.965 23.7528H26.9817C27.1812 23.7528 27.3725 23.8324 27.5135 23.9741C27.6546 24.1158 27.7338 24.308 27.7338 24.5084C27.7338 24.7088 27.6546 24.901 27.5135 25.0427C27.3725 25.1844 27.1812 25.264 26.9817 25.264H20.965C20.7655 25.264 20.5742 25.1844 20.4332 25.0427C20.2921 24.901 20.2129 24.7088 20.2129 24.5084ZM20.2129 27.1528C20.2129 26.9525 20.2921 26.7603 20.4332 26.6186C20.5742 26.4769 20.7655 26.3973 20.965 26.3973H26.9817C27.1812 26.3973 27.3725 26.4769 27.5135 26.6186C27.6546 26.7603 27.7338 26.9525 27.7338 27.1528C27.7338 27.3532 27.6546 27.5454 27.5135 27.6871C27.3725 27.8288 27.1812 27.9084 26.9817 27.9084H20.965C20.7655 27.9084 20.5742 27.8288 20.4332 27.6871C20.2921 27.5454 20.2129 27.3532 20.2129 27.1528Z" fill="#FF7832"/>
<path fill-rule="evenodd" clip-rule="evenodd" d="M17.2506 11.5989C16.7249 11.5298 15.9819 11.4746 14.9485 11.4746C13.9151 11.4746 13.172 11.5298 12.6463 11.5989C11.7062 11.7221 11.1057 12.4731 11.0519 13.3658C11.0226 13.8455 11 14.5157 11 15.4413C11 16.3668 11.0226 17.0374 11.0515 17.5168C11.1057 18.4095 11.7066 19.1605 12.6463 19.2837C13.172 19.3528 13.9151 19.4079 14.9485 19.4079C15.9819 19.4079 16.7249 19.3528 17.2506 19.2837C18.1908 19.1605 18.7913 18.4095 18.8451 17.5168C18.8744 17.037 18.897 16.3668 18.897 15.4413C18.897 14.5157 18.8744 13.8452 18.8455 13.3658C18.7913 12.4731 18.1904 11.7221 17.2506 11.5989ZM11 24.5079C11 22.3172 12.7678 20.5413 14.9485 20.5413C17.1292 20.5413 18.897 22.3172 18.897 24.5079C18.897 26.6987 17.1292 28.4746 14.9485 28.4746C12.7678 28.4746 11 26.6987 11 24.5079ZM22.7676 12.2113C22.9087 12.0261 23.0904 11.876 23.2986 11.7728C23.5068 11.6695 23.7358 11.6158 23.968 11.6158C24.2001 11.6158 24.4292 11.6695 24.6373 11.7728C24.8455 11.876 25.0272 12.0261 25.1683 12.2113C25.7292 12.9295 26.239 13.6865 26.6939 14.4768C27.1476 15.2675 27.5453 16.0893 27.8841 16.9361C27.9733 17.1516 28.0119 17.3847 27.9968 17.6176C27.9818 17.8504 27.9136 18.0766 27.7974 18.2787C27.6813 18.4807 27.5204 18.6532 27.3272 18.7827C27.134 18.9121 26.9137 18.9951 26.6834 19.0253C25.9952 19.1239 25.0521 19.2191 23.9683 19.2191C23.0599 19.2184 22.1526 19.1535 21.2533 19.0249C21.023 18.9947 20.8028 18.9117 20.6096 18.7823C20.4164 18.6528 20.2556 18.4804 20.1394 18.2784C20.0233 18.0764 19.9551 17.8502 19.94 17.6175C19.9249 17.3847 19.9635 17.1516 20.0526 16.9361C20.3914 16.0893 20.7891 15.2675 21.2428 14.4768C21.6975 13.6868 22.2071 12.9295 22.7676 12.2113Z" fill="#FFC1A1"/>
</svg>
