<svg width="40" height="40" viewBox="0 0 40 40" fill="none" xmlns="http://www.w3.org/2000/svg">
<circle cx="20" cy="20" r="20" fill="white"/>
<path fill-rule="evenodd" clip-rule="evenodd" d="M19.5165 10.2084C20.5118 10.1525 21.5095 10.1525 22.5048 10.2084C22.9809 10.2351 23.3743 10.6004 23.4476 11.0872C23.5543 11.7899 23.5543 12.4393 23.4476 13.1434C23.4156 13.376 23.3043 13.5904 23.1326 13.7505C22.9608 13.9106 22.7391 14.0066 22.5048 14.0222C21.8114 14.0595 21.1647 14.0729 20.5019 14.0595V16.1904C20.5019 16.4557 20.3965 16.7101 20.209 16.8976C20.0214 17.0852 19.767 17.1906 19.5018 17.1906C19.2365 17.1906 18.9822 17.0852 18.7946 16.8976C18.607 16.7101 18.5017 16.4557 18.5017 16.1904V12.542C18.5017 12.518 18.5026 12.4949 18.5043 12.4727C18.4791 12.0092 18.5024 11.5444 18.5737 11.0858C18.606 10.8535 18.7174 10.6393 18.8891 10.4795C19.0608 10.3197 19.2824 10.2239 19.5165 10.2084ZM12.513 20.3203H12.489C11.4395 20.3603 10.5194 21.1217 10.3714 22.2018C10.238 23.1779 10.166 23.8367 10.166 24.5061C10.166 25.1768 10.238 25.8356 10.3714 26.8117C10.5181 27.8918 11.4395 28.6519 12.489 28.6919C17.5469 28.8826 21.454 28.8826 26.512 28.6919C27.5614 28.6519 28.4815 27.8918 28.6295 26.8117C28.7629 25.8356 28.8349 25.1768 28.8349 24.5061C28.8349 23.8367 28.7629 23.1779 28.6295 22.2018C28.4829 21.1217 27.5614 20.3616 26.512 20.3216H12.5143" fill="#32CD8B"/>
<path fill-rule="evenodd" clip-rule="evenodd" d="M24.5129 20.8654C24.4918 20.4443 24.4664 20.0233 24.4368 19.6026C24.2928 16.6383 21.8112 15.2141 19.5016 15.2114C18.3361 15.2101 17.1466 15.5581 16.2185 16.2916C15.2771 17.033 14.6343 18.1478 14.5637 19.5946C14.5333 20.0299 14.5076 20.4656 14.4863 20.9014L14.5157 28.1223C14.5163 28.2964 14.585 28.4633 14.7071 28.5874C14.8292 28.7115 14.995 28.7829 15.1691 28.7864C18.5561 28.8504 20.4404 28.8451 23.8234 28.7864C23.998 28.7836 24.1644 28.7125 24.2871 28.5883C24.4098 28.4642 24.4788 28.2968 24.4795 28.1223L24.5142 20.9014L24.5129 20.8654Z" fill="#88EAB4"/>
<path fill-rule="evenodd" clip-rule="evenodd" d="M20.835 28.8285V26.0561C20.835 25.7025 20.6945 25.3633 20.4444 25.1132C20.1943 24.8631 19.8551 24.7227 19.5015 24.7227C19.1478 24.7227 18.8086 24.8631 18.5585 25.1132C18.3085 25.3633 18.168 25.7025 18.168 26.0561V28.8298C19.0747 28.8365 19.9282 28.8365 20.835 28.8298" fill="#E4FEE8"/>
<path d="M19.5008 21.7465C20.4409 21.7465 20.9703 21.1997 20.9703 20.2303C20.9703 19.2608 20.4409 18.7114 19.5008 18.7114C18.5606 18.7114 18.0312 19.2582 18.0312 20.2289C18.0312 21.1997 18.5606 21.7465 19.5008 21.7465Z" fill="#E4FEE8"/>
</svg>
