<svg width="81" height="47" viewBox="0 0 81 47" fill="none" xmlns="http://www.w3.org/2000/svg">
<path d="M33.8843 39.2564C34.6557 40.7449 34.6884 42.4216 34.1225 43.8678C34.3185 43.7923 34.5145 43.7168 34.6885 43.6264C36.7249 42.57 37.5179 40.0574 36.4604 38.0209C35.4028 35.9844 32.8894 35.1903 30.853 36.2467C30.7234 36.3192 30.5937 36.3916 30.4566 36.475C31.8902 36.8719 33.1564 37.8456 33.8953 39.2638L33.8843 39.2564Z" fill="#915B41"/>
<path d="M27.4335 42.7184C28.4005 44.5809 31.9519 44.6995 34.1114 43.8875C34.6773 42.4412 34.6446 40.7645 33.8732 39.276C33.1343 37.8578 31.8606 36.8951 30.4345 36.4872C28.5032 37.7436 26.456 40.8005 27.441 42.7074L27.4335 42.7184Z" fill="#F2B819"/>
<path d="M18.9461 35.2585C20.6163 35.404 22.0499 36.2742 22.9683 37.5265C23.0095 37.3206 23.0507 37.1146 23.0675 36.9192C23.2657 34.6337 21.5682 32.6186 19.282 32.4213C16.9957 32.224 14.9793 33.9216 14.7811 36.2072C14.7729 36.3554 14.7647 36.5037 14.7618 36.6642C15.8645 35.6659 17.3649 35.1179 18.9583 35.2532L18.9461 35.2585Z" fill="#915B41"/>
<path d="M18.4144 42.5582C20.5052 42.7387 22.507 39.8029 22.9774 37.5443C22.059 36.2919 20.6254 35.4217 18.9552 35.2762C17.3618 35.1409 15.8667 35.7011 14.7586 36.6872C14.7856 38.9911 16.2712 42.3569 18.4091 42.546L18.4144 42.5582Z" fill="#F2B819"/>
<path d="M3.16838 40.6942C3.88039 39.1764 5.1912 38.1304 6.68329 37.6996C6.50412 37.59 6.32496 37.4804 6.1473 37.3973C4.06998 36.4239 1.59345 37.3232 0.620613 39.4015C-0.352223 41.4798 0.546745 43.9576 2.62408 44.9311C2.76045 44.9899 2.89682 45.0487 3.04645 45.1067C2.48922 43.7275 2.49165 42.1302 3.16763 40.681L3.16838 40.6942Z" fill="#915B41"/>
<path d="M9.83792 43.7066C10.7277 41.806 8.66126 38.9153 6.70297 37.6955C5.21088 38.1263 3.90008 39.1724 3.18807 40.6902C2.51209 42.1394 2.52293 43.736 3.06689 45.1159C5.239 45.8843 8.9106 45.6492 9.82466 43.7073L9.83792 43.7066Z" fill="#F2B819"/>
<path d="M64.8373 13.0219C71.3079 16.5178 75.5633 22.519 77.079 29.1612C77.6036 28.4037 78.1282 27.6463 78.5363 26.8888C83.3164 18.0327 79.9936 6.96243 71.133 2.18474C62.2724 -2.59293 51.1965 0.728139 46.4164 9.58432C46.1249 10.167 45.8334 10.7496 45.542 11.3905C51.7211 9.293 58.7164 9.70084 64.8956 13.0219H64.8373Z" fill="#915B41"/>
<path d="M49.9771 41.4845C58.0799 45.8543 71.2543 37.5225 77.0837 29.249C75.5681 22.6068 71.3125 16.6056 64.8419 13.1097C58.6628 9.78869 51.6675 9.43912 45.4884 11.4784C41.5827 20.8007 41.6993 36.9399 49.9771 41.4262V41.4845Z" fill="#F2B819"/>
<path d="M45.9971 29.3828C48.4857 30.4683 50.9108 30.3412 53.2724 29.0015L45.9971 29.3828Z" fill="black"/>
<path d="M45.9971 29.3828C48.4857 30.4683 50.9108 30.3412 53.2724 29.0015" stroke="black" stroke-width="2.22222" stroke-linecap="round"/>
<path d="M73.7148 37.8555C74.3223 35.2092 73.7497 32.8492 71.9971 30.7756L73.7148 37.8555Z" fill="black"/>
<path d="M73.7148 37.8555C74.3223 35.2092 73.7497 32.8492 71.9971 30.7756" stroke="black" stroke-width="2.22222" stroke-linecap="round"/>
<path d="M47.8794 21.9766C47.8444 21.3069 47.4087 20.7854 46.9065 20.8117C46.4042 20.838 46.0255 21.4023 46.0606 22.0719C46.0957 22.7416 46.5313 23.2631 47.0336 23.2368C47.5358 23.2105 47.9145 22.6463 47.8794 21.9766Z" fill="#040404"/>
<path d="M51.8794 22.211C51.8443 21.5413 51.4087 21.0198 50.9065 21.0461C50.4042 21.0724 50.0255 21.6366 50.0606 22.3063C50.0957 22.976 50.5313 23.4975 51.0336 23.4712C51.5358 23.4449 51.9145 22.8807 51.8794 22.211Z" fill="#040404"/>
</svg>
