<svg width="20" height="20" viewBox="0 0 20 20" fill="none" xmlns="http://www.w3.org/2000/svg">
<path d="M10 15.8346H5C4.33696 15.8346 3.70107 15.5712 3.23223 15.1024C2.76339 14.6336 2.5 13.9977 2.5 13.3346V6.66797C2.5 6.00493 2.76339 5.36904 3.23223 4.9002C3.70107 4.43136 4.33696 4.16797 5 4.16797H15C15.663 4.16797 16.2989 4.43136 16.7678 4.9002C17.2366 5.36904 17.5 6.00493 17.5 6.66797V10.418M2.5 8.33464H17.5M13.3333 15.8346H18.3333M18.3333 15.8346L15.8333 13.3346M18.3333 15.8346L15.8333 18.3346M5.8375 12.5013H5.84167M9.16667 12.5013H10.8333" stroke="white" stroke-width="1.66667" stroke-linecap="round" stroke-linejoin="round"/>
</svg>
