<svg width="26" height="26" viewBox="0 0 26 26" fill="none" xmlns="http://www.w3.org/2000/svg">
<path d="M20.3126 10.519V9.75525C20.3126 5.56384 17.0366 2.1665 13.0001 2.1665C8.96357 2.1665 5.68757 5.56384 5.68757 9.75525V10.519C5.68887 11.4307 5.4287 12.3236 4.9379 13.0919L3.73757 14.9607C2.64232 16.6669 3.47865 18.9863 5.38423 19.5258C10.3635 20.936 15.6366 20.936 20.6159 19.5258C22.5215 18.9863 23.3578 16.6669 22.2626 14.9618L21.0622 13.093C20.5711 12.3248 20.3105 11.4319 20.3115 10.5201L20.3126 10.519Z" stroke="black" stroke-width="1.5"/>
<path opacity="0.5" d="M8.125 20.583C8.83458 22.4767 10.7488 23.833 13 23.833C15.2512 23.833 17.1654 22.4767 17.875 20.583" stroke="black" stroke-width="1.5" stroke-linecap="round"/>
</svg>
