<svg width="16" height="16" viewBox="0 0 16 16" fill="none" xmlns="http://www.w3.org/2000/svg">
<path d="M0.485536 12.9903C0.17462 13.3012 -5.04599e-05 13.7229 -4.97855e-05 14.1626C-4.97855e-05 14.6023 0.17462 15.024 0.485535 15.3349C0.79645 15.6458 1.21814 15.8205 1.65784 15.8205C2.09755 15.8205 2.51924 15.6458 2.83015 15.3349L7.91016 10.2549L12.9902 15.3349C13.3011 15.6458 13.7228 15.8205 14.1625 15.8205C14.6022 15.8205 15.0239 15.6458 15.3348 15.3349C15.6457 15.024 15.8204 14.6023 15.8204 14.1626C15.8204 13.7229 15.6457 13.3012 15.3348 12.9903L10.2548 7.91028L15.3348 2.83027C15.6457 2.51936 15.8204 2.09767 15.8204 1.65796C15.8204 1.21826 15.6457 0.796571 15.3348 0.485656C15.0239 0.174741 14.6022 6.95119e-05 14.1625 6.99228e-05C13.7228 6.96278e-05 13.3011 0.17474 12.9902 0.485656L7.91016 5.56566L2.83015 0.485656C2.51924 0.17474 2.09755 6.96278e-05 1.65784 6.99228e-05C1.21814 6.95119e-05 0.796451 0.174741 0.485535 0.485656C0.17462 0.796571 -5.08708e-05 1.21826 -5.04599e-05 1.65796C-5.07549e-05 2.09767 0.17462 2.51936 0.485536 2.83027L5.56554 7.91028L0.485536 12.9903Z" fill="#191919" fill-opacity="0.4"/>
</svg>
