<svg width="40" height="40" viewBox="0 0 40 40" fill="none" xmlns="http://www.w3.org/2000/svg">
<circle cx="20" cy="20" r="20" fill="white"/>
<path d="M23.4922 13.6393C25.7355 14.8848 27.2108 17.0228 27.7362 19.3892C27.9181 19.1194 28.1 18.8495 28.2415 18.5797C29.8987 15.4245 28.7467 11.4805 25.6748 9.77836C22.6029 8.07622 18.7631 9.25941 17.1059 12.4146C17.0048 12.6222 16.9038 12.8298 16.8027 13.0581C18.945 12.3108 21.3701 12.4561 23.5124 13.6393H23.4922Z" fill="#915B41"/>
<path d="M27.7372 19.369C25.7163 22.3166 21.1691 25.2849 18.3397 23.7281C15.4497 22.1298 15.4093 16.3798 16.7835 13.0586C14.803 13.7436 13.0852 15.1551 12.014 17.1686C9.79096 21.4032 11.3471 26.6757 15.4699 28.9591C19.5927 31.2424 24.726 29.6441 26.9491 25.4095C27.9596 23.479 28.1819 21.341 27.7372 19.3482V19.369Z" fill="#1FBDFF"/>
<path d="M18.3359 23.7273C21.145 25.2842 25.7125 22.3158 27.7334 19.3682C27.208 17.0018 25.7327 14.8638 23.4894 13.6183C21.3471 12.4351 18.922 12.3105 16.7797 13.0371C15.4257 16.3583 15.4661 22.1082 18.3359 23.7066V23.7273Z" fill="#F2B819"/>
</svg>
