<svg width="20" height="20" viewBox="0 0 20 20" fill="none" xmlns="http://www.w3.org/2000/svg">
<path d="M3.54297 11.0413C3.54297 10.4888 3.76246 9.9589 4.15316 9.5682C4.54386 9.1775 5.07377 8.95801 5.6263 8.95801H14.3763C14.9288 8.95801 15.4587 9.1775 15.8494 9.5682C16.2401 9.9589 16.4596 10.4888 16.4596 11.0413V17.708H3.54297V11.0413Z" stroke="#B5B5B5" stroke-width="1.25" stroke-linecap="round" stroke-linejoin="round"/>
<path d="M3.54297 12.3915L5.41714 13.5998C5.82105 13.8603 6.2915 13.9989 6.77214 13.9989C7.25277 13.9989 7.72322 13.8603 8.12714 13.5998L8.6463 13.2665C9.05022 13.006 9.52067 12.8674 10.0013 12.8674C10.4819 12.8674 10.9524 13.006 11.3563 13.2665L11.8755 13.5998C12.2794 13.8603 12.7498 13.9989 13.2305 13.9989C13.7111 13.9989 14.1816 13.8603 14.5855 13.5998L16.4596 12.3915M17.7096 17.704H2.29297M10.0013 6.3165V8.95817M10.0013 2.2915L11.1796 3.46984C11.4128 3.7029 11.5716 3.99988 11.6359 4.32319C11.7003 4.64651 11.6673 4.98164 11.5411 5.28622C11.415 5.59079 11.2014 5.85112 10.9273 6.03427C10.6532 6.21743 10.331 6.31519 10.0013 6.31519C9.67164 6.31519 9.34939 6.21743 9.0753 6.03427C8.80121 5.85112 8.58759 5.59079 8.46145 5.28622C8.33532 4.98164 8.30235 4.64651 8.3667 4.32319C8.43105 3.99988 8.58983 3.7029 8.82297 3.46984L10.0013 2.2915Z" stroke="#B5B5B5" stroke-width="1.25" stroke-linecap="round" stroke-linejoin="round"/>
</svg>
