<svg width="10" height="10" viewBox="0 0 10 10" fill="none" xmlns="http://www.w3.org/2000/svg">
<path fill-rule="evenodd" clip-rule="evenodd" d="M4.86372 6.3453L8.13584 9.70872C8.30947 9.8872 8.54497 9.98746 8.79052 9.98746C9.03607 9.98746 9.27156 9.8872 9.44519 9.70872C9.61882 9.53025 9.71636 9.28819 9.71636 9.03578C9.71636 8.78338 9.61882 8.54132 9.44519 8.36285L6.17183 4.99942L9.44457 1.636C9.5305 1.54763 9.59866 1.44273 9.64515 1.32728C9.69164 1.21183 9.71556 1.0881 9.71553 0.963158C9.7155 0.838211 9.69153 0.714494 9.64499 0.599069C9.59844 0.483645 9.53024 0.378774 9.44426 0.290444C9.35829 0.202114 9.25623 0.132056 9.14392 0.0842679C9.03161 0.0364801 8.91124 0.0118991 8.78968 0.0119286C8.66813 0.011958 8.54777 0.0365971 8.43548 0.0844394C8.32318 0.132282 8.22116 0.20239 8.13523 0.290762L4.86372 3.65418L1.59159 0.290762C1.50625 0.199855 1.40415 0.127329 1.29125 0.0774145C1.17836 0.0275 1.05692 0.00119676 0.934026 3.98966e-05C0.811133 -0.00111696 0.689247 0.0228955 0.575478 0.0706762C0.46171 0.118457 0.358339 0.189049 0.271396 0.278334C0.184453 0.367618 0.115679 0.473807 0.0690884 0.590704C0.0224973 0.707602 -0.000978344 0.832866 3.12322e-05 0.959189C0.00104081 1.08551 0.0265153 1.21036 0.0749685 1.32646C0.123422 1.44255 0.193883 1.54756 0.282241 1.63537L3.5556 4.99942L0.282859 8.36348C0.1945 8.45129 0.124039 8.5563 0.0755857 8.67239C0.0271326 8.78849 0.0016578 8.91334 0.000648221 9.03966C-0.000361355 9.16598 0.0231143 9.29125 0.0697054 9.40814C0.116296 9.52504 0.18507 9.63123 0.272013 9.72052C0.358956 9.8098 0.462327 9.88039 0.576095 9.92817C0.689864 9.97595 0.81175 9.99997 0.934643 9.99881C1.05754 9.99765 1.17897 9.97135 1.29187 9.92144C1.40477 9.87152 1.50687 9.79899 1.5922 9.70809L4.86372 6.3453Z" fill="#1FBDFF"/>
</svg>
