<svg width="16" height="16" viewBox="0 0 16 16" fill="none" xmlns="http://www.w3.org/2000/svg">
<g clip-path="url(#clip0_9381_19691)">
<path d="M13.637 2.36312L15.313 2.69812C15.403 2.71612 15.477 2.78212 15.503 2.87112C15.5161 2.91435 15.5173 2.96034 15.5064 3.00418C15.4955 3.04802 15.4729 3.08809 15.441 3.12012L14.068 4.49412C13.9035 4.65772 13.681 4.74972 13.449 4.75012H12.31L9.45 7.61112C9.50456 7.81714 9.5146 8.03242 9.47943 8.24263C9.44427 8.45283 9.36472 8.65313 9.24607 8.83018C9.12743 9.00723 8.97242 9.15696 8.79137 9.2694C8.61032 9.38184 8.40739 9.45441 8.19609 9.48227C7.98479 9.51013 7.76999 9.49265 7.56598 9.43098C7.36197 9.36932 7.17344 9.26489 7.01296 9.12465C6.85248 8.9844 6.72372 8.81158 6.63527 8.61767C6.54682 8.42377 6.50071 8.21324 6.5 8.00012C6.49995 7.76994 6.55287 7.54284 6.65467 7.3364C6.75647 7.12996 6.90442 6.94972 7.08705 6.80962C7.26968 6.66953 7.48211 6.57335 7.70787 6.52852C7.93364 6.48369 8.1667 6.49143 8.389 6.55112L11.25 3.68912V2.55212C11.25 2.32012 11.342 2.09712 11.506 1.93312L12.88 0.559119C12.912 0.527248 12.9521 0.504652 12.9959 0.493735C13.0398 0.482818 13.0858 0.483988 13.129 0.497119C13.218 0.523119 13.284 0.597119 13.302 0.687119L13.637 2.36312Z" fill="#8A8A8A"/>
<path d="M2.00263 8.00078C2.00366 8.85874 2.18867 9.7065 2.5452 10.4869C2.90172 11.2673 3.42146 11.9621 4.06936 12.5245C4.71725 13.087 5.47823 13.5039 6.30097 13.7472C7.1237 13.9906 7.98905 14.0546 8.83864 13.9351C9.68823 13.8155 10.5023 13.5152 11.2259 13.0542C11.9496 12.5933 12.566 11.9826 13.0335 11.2632C13.501 10.5438 13.8088 9.73253 13.9362 8.88407C14.0635 8.03561 14.0074 7.16971 13.7716 6.34478C13.7385 6.2484 13.7254 6.14629 13.733 6.04468C13.7406 5.94306 13.7688 5.84405 13.8159 5.75369C13.863 5.66333 13.9281 5.58349 14.007 5.51905C14.0859 5.45461 14.1772 5.40691 14.2751 5.37885C14.3731 5.3508 14.4757 5.34297 14.5768 5.35585C14.6779 5.36873 14.7753 5.40205 14.8631 5.45377C14.9509 5.5055 15.0273 5.57455 15.0875 5.65673C15.1478 5.73891 15.1907 5.83249 15.2136 5.93178C15.6702 7.5293 15.5834 9.23319 14.9671 10.7761C14.3507 12.319 13.2396 13.6137 11.808 14.457C10.3765 15.3003 8.70547 15.6445 7.05718 15.4356C5.40889 15.2267 3.87657 14.4765 2.70063 13.3028C1.52597 12.1271 0.775006 10.5947 0.565634 8.94599C0.356263 7.29732 0.700343 5.62579 1.54385 4.19385C2.38736 2.76191 3.68254 1.65064 5.22603 1.03452C6.76952 0.418395 8.47392 0.33231 10.0716 0.789777C10.2619 0.845388 10.4224 0.974045 10.518 1.14763C10.6137 1.32121 10.6368 1.52561 10.5822 1.71615C10.5276 1.9067 10.3999 2.06789 10.2268 2.16451C10.0537 2.26112 9.84947 2.28531 9.65863 2.23178C8.7652 1.97523 7.82438 1.92976 6.91038 2.09898C5.99638 2.26819 5.13419 2.64745 4.39182 3.20685C3.64945 3.76624 3.04721 4.49047 2.63259 5.32241C2.21797 6.15435 2.00231 7.07124 2.00263 8.00078Z" fill="#8A8A8A" fill-opacity="0.5"/>
<path d="M5.00048 7.99974C5.00054 8.54633 5.14983 9.08253 5.43224 9.55051C5.71466 10.0185 6.11948 10.4005 6.60305 10.6553C7.08662 10.9101 7.63057 11.028 8.17625 10.9964C8.72192 10.9647 9.2486 10.7847 9.69948 10.4757C10.1503 10.166 10.5078 9.73887 10.7334 9.2406C10.959 8.74234 11.0441 8.19187 10.9795 7.64874C10.962 7.51694 10.98 7.38287 11.0315 7.26032C11.0831 7.13777 11.1664 7.03118 11.2728 6.95152C11.3793 6.87187 11.505 6.82202 11.6371 6.80712C11.7693 6.79222 11.903 6.8128 12.0245 6.86674C12.146 6.91998 12.2512 7.00449 12.3293 7.11166C12.4075 7.21882 12.4559 7.34479 12.4695 7.47674C12.5781 8.40484 12.3952 9.34375 11.946 10.1631C11.4968 10.9825 10.8037 11.6418 9.96282 12.0494C9.12196 12.457 8.17507 12.5927 7.25357 12.4377C6.33208 12.2827 5.48169 11.8446 4.82044 11.1844C4.15919 10.5242 3.71988 9.67443 3.56348 8.75317C3.40708 7.83192 3.54136 6.88482 3.94766 6.04334C4.35397 5.20186 5.01216 4.50773 5.83087 4.05731C6.64959 3.60688 7.58821 3.42249 8.51648 3.52974C8.61587 3.53896 8.71243 3.56793 8.80048 3.61496C8.88853 3.66198 8.96631 3.7261 9.02926 3.80358C9.09221 3.88105 9.13906 3.97031 9.16707 4.06612C9.19507 4.16193 9.20367 4.26237 9.19235 4.36155C9.18104 4.46073 9.15004 4.55665 9.10117 4.6437C9.0523 4.73074 8.98655 4.80715 8.90777 4.86845C8.82898 4.92975 8.73876 4.97471 8.64238 5.00069C8.54599 5.02667 8.44539 5.03314 8.34648 5.01974C7.92613 4.97094 7.50022 5.01161 7.09671 5.13909C6.69321 5.26657 6.32123 5.47797 6.00523 5.75942C5.68922 6.04086 5.43633 6.38597 5.26316 6.77208C5.09 7.15819 5.00047 7.57657 5.00048 7.99974Z" fill="#8A8A8A"/>
</g>
<defs>
<clipPath id="clip0_9381_19691">
<rect width="16" height="16" fill="white"/>
</clipPath>
</defs>
</svg>
