<svg width="26" height="26" viewBox="0 0 26 26" fill="none" xmlns="http://www.w3.org/2000/svg">
<path opacity="0.5" d="M2.16699 13.2213C2.16699 10.7416 2.16699 9.50224 2.73033 8.47524C3.29149 7.44716 4.31958 6.81016 6.37466 5.53399L8.54133 4.18958C10.7134 2.84083 11.8 2.16699 13.0003 2.16699C14.2007 2.16699 15.2862 2.84083 17.4593 4.18958L19.626 5.53399C21.6811 6.81016 22.7092 7.44716 23.2714 8.47524C23.8337 9.50333 23.8337 10.7416 23.8337 13.2202V14.8691C23.8337 19.0941 23.8337 21.2077 22.564 22.5207C21.2943 23.8337 19.2522 23.8337 15.167 23.8337H10.8337C6.74841 23.8337 4.70524 23.8337 3.43666 22.5207C2.16808 21.2077 2.16699 19.0952 2.16699 14.8691V13.2213Z" fill="#19B5F5"/>
<path d="M12.1875 19.5C12.1875 19.7155 12.2731 19.9222 12.4255 20.0745C12.5778 20.2269 12.7845 20.3125 13 20.3125C13.2155 20.3125 13.4222 20.2269 13.5745 20.0745C13.7269 19.9222 13.8125 19.7155 13.8125 19.5V16.25C13.8125 16.0345 13.7269 15.8278 13.5745 15.6755C13.4222 15.5231 13.2155 15.4375 13 15.4375C12.7845 15.4375 12.5778 15.5231 12.4255 15.6755C12.2731 15.8278 12.1875 16.0345 12.1875 16.25V19.5Z" fill="#19B5F5"/>
</svg>
