<svg width="12" height="12" viewBox="0 0 12 12" fill="none" xmlns="http://www.w3.org/2000/svg">
<path d="M9.49184 1.99805C9.87408 1.99803 10.2419 2.14407 10.52 2.4063C10.7981 2.66852 10.9655 3.02711 10.9879 3.40869L10.9904 3.49661V4.40424C10.9893 4.53915 10.9529 4.67142 10.8849 4.78795C10.8169 4.90449 10.7197 5.00123 10.6028 5.0686L10.5493 5.09757C10.3877 5.17689 10.2505 5.29841 10.1523 5.44928C10.0541 5.60015 9.99844 5.77475 9.99127 5.95464C9.98411 6.13453 10.0257 6.31301 10.1116 6.47121C10.1975 6.62941 10.3246 6.76146 10.4794 6.85338L10.5493 6.89085C10.7656 6.99774 10.9589 7.21853 10.9869 7.51025L10.9904 7.58418V8.49181C10.9904 8.87405 10.8444 9.24184 10.5822 9.51995C10.3199 9.79806 9.96134 9.96545 9.57976 9.98787L9.49184 9.99037H2.49856C2.11632 9.99039 1.74852 9.84435 1.47042 9.58212C1.19231 9.31989 1.02492 8.9613 1.0025 8.57972L1 8.49181V7.58418C1 7.28147 1.17583 7.0457 1.38763 6.91982L1.44108 6.89085C1.60269 6.81152 1.73986 6.69 1.83809 6.53913C1.93632 6.38827 1.99196 6.21366 1.99913 6.03377C2.00629 5.85389 1.96472 5.67541 1.87879 5.51721C1.79287 5.359 1.6658 5.22696 1.51101 5.13503L1.44108 5.09757C1.22478 4.99067 1.03147 4.76988 1.0035 4.47816L1 4.40473V3.49661C0.999979 3.11437 1.14602 2.74657 1.40825 2.46846C1.67048 2.19036 2.02906 2.02297 2.41064 2.00054L2.49856 1.99805H9.49184ZM9.49184 2.99709H2.49856C2.37621 2.9971 2.25812 3.04202 2.16669 3.12332C2.07526 3.20462 2.01685 3.31665 2.00254 3.43816L1.99904 3.49661V4.26337C2.29498 4.4341 2.5422 4.67787 2.71708 4.97138C2.89196 5.26489 2.98865 5.59834 2.99792 5.93988C3.00719 6.28141 2.92873 6.61962 2.77003 6.92218C2.61133 7.22475 2.3777 7.48156 2.09145 7.6681L1.99904 7.72504V8.49181C1.99906 8.61416 2.04397 8.73224 2.12528 8.82367C2.20658 8.9151 2.31861 8.97352 2.44012 8.98783L2.49856 8.99133H9.49184C9.61419 8.99131 9.73228 8.94639 9.82371 8.86509C9.91514 8.78379 9.97355 8.67176 9.98786 8.55025L9.99136 8.49181V7.72504C9.69542 7.55431 9.4482 7.31055 9.27332 7.01703C9.09844 6.72352 9.00175 6.39007 8.99248 6.04854C8.98321 5.707 9.06168 5.3688 9.22037 5.06623C9.37907 4.76367 9.6127 4.50685 9.89895 4.32032L9.99136 4.26337V3.49661C9.99134 3.37426 9.94642 3.25617 9.86512 3.16474C9.78382 3.07331 9.67179 3.0149 9.55028 3.00058L9.49184 2.99709ZM4.99616 4.49565C5.11851 4.49566 5.2366 4.54058 5.32803 4.62188C5.41946 4.70318 5.47787 4.81521 5.49218 4.93672L5.49568 4.99517V6.99325C5.49554 7.12056 5.44679 7.24302 5.35939 7.3356C5.27199 7.42818 5.15253 7.48389 5.02543 7.49135C4.89834 7.49882 4.77318 7.45746 4.67555 7.37575C4.57792 7.29403 4.51517 7.17812 4.50014 7.05169L4.49664 6.99325V4.99517C4.49664 4.86269 4.54927 4.73563 4.64295 4.64195C4.73662 4.54827 4.86368 4.49565 4.99616 4.49565Z" fill="#19B5F5"/>
</svg>
