<svg width="20" height="20" viewBox="0 0 20 20" fill="none" xmlns="http://www.w3.org/2000/svg">
<circle cx="10" cy="10" r="10" fill="white"/>
<path d="M8.5067 6.1545C9.24579 4.82917 9.61504 4.1665 10.1675 4.1665C10.7199 4.1665 11.0891 4.82917 11.8282 6.1545L12.0195 6.4975C12.2295 6.87434 12.3345 7.06275 12.4979 7.187C12.6612 7.31125 12.8654 7.35734 13.2737 7.4495L13.6447 7.5335C15.0797 7.85842 15.7966 8.02059 15.9675 8.5695C16.1379 9.11784 15.649 9.69009 14.6708 10.834L14.4176 11.1298C14.14 11.4547 14.0005 11.6174 13.9381 11.8181C13.8757 12.0193 13.8967 12.2363 13.9387 12.6698L13.9772 13.0647C14.1248 14.5913 14.1989 15.3543 13.752 15.6932C13.3052 16.0321 12.6332 15.7229 11.2904 15.1046L10.9421 14.9448C10.5606 14.7686 10.3699 14.6811 10.1675 14.6811C9.96504 14.6811 9.77429 14.7686 9.39279 14.9448L9.04512 15.1046C7.7017 15.7229 7.0297 16.0321 6.58345 15.6938C6.13604 15.3543 6.21012 14.5913 6.3577 13.0647L6.3962 12.6703C6.4382 12.2363 6.4592 12.0193 6.3962 11.8187C6.33437 11.6174 6.19495 11.4547 5.91729 11.1303L5.66412 10.834C4.68587 9.69067 4.19704 9.11842 4.36737 8.5695C4.5377 8.02059 5.25579 7.85784 6.69079 7.5335L7.06179 7.4495C7.46954 7.35734 7.67312 7.31125 7.83704 7.187C8.00095 7.06275 8.10537 6.87434 8.31537 6.4975L8.5067 6.1545Z" fill="#DBA716"/>
</svg>
