<svg width="26" height="26" viewBox="0 0 26 26" fill="none" xmlns="http://www.w3.org/2000/svg">
<path d="M13 12.5C14.933 12.5 16.5 10.933 16.5 9C16.5 7.067 14.933 5.5 13 5.5C11.067 5.5 9.5 7.067 9.5 9C9.5 10.933 11.067 12.5 13 12.5Z" fill="#191919"/>
<path d="M5.78459 18.7635C6.50067 15.7388 9.50475 14.0835 12.615 14.0835H13.3885C16.4988 14.0835 19.5028 15.7377 20.2189 18.7635C20.3576 19.3496 20.4681 19.9627 20.5298 20.5857C20.5894 21.1815 20.0998 21.6668 19.5018 21.6668H6.50175C5.90375 21.6668 5.41409 21.1804 5.47367 20.5857C5.53542 19.9627 5.64592 19.3496 5.78459 18.7635Z" fill="#191919" fill-opacity="0.25"/>
</svg>
