<svg width="26" height="26" viewBox="0 0 26 26" fill="none" xmlns="http://www.w3.org/2000/svg">
<path opacity="0.5" d="M23.8337 13.0003C23.8337 18.9836 18.9836 23.8337 13.0003 23.8337C7.01708 23.8337 2.16699 18.9836 2.16699 13.0003C2.16699 7.01708 7.01708 2.16699 13.0003 2.16699C18.9836 2.16699 23.8337 7.01708 23.8337 13.0003Z" fill="#7C7C7C" fill-opacity="0.25"/>
<path d="M17.3662 9.71711C17.5184 9.86946 17.6039 10.076 17.6039 10.2913C17.6039 10.5066 17.5184 10.7131 17.3662 10.8654L11.9496 16.2821C11.7972 16.4343 11.5907 16.5197 11.3754 16.5197C11.1601 16.5197 10.9536 16.4343 10.8012 16.2821L8.63458 14.1154C8.55475 14.0411 8.49072 13.9514 8.44631 13.8517C8.40191 13.752 8.37803 13.6444 8.3761 13.5353C8.37418 13.4262 8.39425 13.3179 8.43511 13.2167C8.47598 13.1155 8.5368 13.0236 8.61395 12.9465C8.69111 12.8693 8.78301 12.8085 8.88418 12.7676C8.98535 12.7268 9.09371 12.7067 9.20281 12.7086C9.3119 12.7106 9.41949 12.7344 9.51916 12.7788C9.61883 12.8233 9.70853 12.8873 9.78291 12.9671L11.3754 14.5596L13.7967 12.1384L16.2179 9.71711C16.3703 9.56496 16.5768 9.47949 16.7921 9.47949C17.0074 9.47949 17.2139 9.56496 17.3662 9.71711Z" fill="#7C7C7C"/>
</svg>
