<svg width="40" height="40" viewBox="0 0 40 40" fill="none" xmlns="http://www.w3.org/2000/svg">
<circle cx="20" cy="20" r="20" fill="white"/>
<path d="M13.2565 14.4848C13.2361 14.0152 12.9607 13.6315 12.4919 13.5973C12.3744 13.5887 12.2384 13.5841 12.084 13.5836C11.8523 13.5827 11.794 13.5886 11.6761 13.5973C11.2073 13.6315 10.9319 14.0152 10.9115 14.4848C10.8761 15.2994 10.834 16.9598 10.834 20.2502C10.834 23.5407 10.8761 25.2011 10.9115 26.0157C10.9319 26.4852 11.2073 26.869 11.6761 26.9032C11.7936 26.912 11.9295 26.9166 12.084 26.9169C12.3157 26.9173 12.374 26.9115 12.4919 26.9032C12.9607 26.869 13.2361 26.4852 13.2565 26.0157C13.2752 25.5869 13.2957 24.924 13.3107 23.9123C13.3351 23.9148 13.3597 23.9165 13.3844 23.9173C14.2486 23.9536 16.114 24.0002 20.0007 24.0002C23.8873 24.0002 25.7527 23.954 26.6173 23.9173C26.6412 23.9165 26.6648 23.9148 26.6882 23.9123C26.7036 24.924 26.724 25.5865 26.7423 26.0152C26.7632 26.4848 27.0382 26.869 27.5073 26.9027C27.7789 26.9219 28.0515 26.9221 28.3232 26.9032C28.7919 26.869 29.0673 26.4848 29.0877 26.0152C29.1144 25.3952 29.1452 24.2844 29.1586 22.3373C29.1592 22.2276 29.1382 22.1189 29.0967 22.0174C29.0551 21.9158 28.994 21.8235 28.9166 21.7457C28.8393 21.6679 28.7473 21.6062 28.6461 21.5641C28.5448 21.5219 28.4362 21.5002 28.3265 21.5002H26.6673V21.5711C26.5341 21.5242 26.3939 21.5003 26.2527 21.5002H20.0007C16.114 21.5002 14.2486 21.5465 13.384 21.5832L13.3315 21.5861C13.3332 21.1741 13.334 20.7289 13.334 20.2502C13.334 16.9602 13.2919 15.2994 13.2565 14.4848Z" fill="#8FBFFA"/>
<path d="M18.843 15.8846C18.8976 15.3138 19.3655 14.8846 19.9388 14.8609C21.9696 14.7763 23.8492 14.8988 25.3751 15.0767C27.6305 15.34 29.168 17.3213 29.168 19.5921V19.8334C29.168 20.0544 29.0802 20.2663 28.9239 20.4226C28.7676 20.5789 28.5556 20.6667 28.3346 20.6667H19.6659C19.2601 20.6667 18.9159 20.375 18.8713 19.9717C18.7916 19.2478 18.7516 18.52 18.7513 17.7917C18.7513 17.0459 18.7951 16.3846 18.843 15.8846ZM17.918 18.7917C17.918 19.289 17.7204 19.7659 17.3688 20.1175C17.0172 20.4692 16.5402 20.6667 16.043 20.6667C15.5457 20.6667 15.0688 20.4692 14.7171 20.1175C14.3655 19.7659 14.168 19.289 14.168 18.7917C14.168 18.2944 14.3655 17.8175 14.7171 17.4659C15.0688 17.1142 15.5457 16.9167 16.043 16.9167C16.5402 16.9167 17.0172 17.1142 17.3688 17.4659C17.7204 17.8175 17.918 18.2944 17.918 18.7917Z" fill="#2859C5"/>
</svg>
