<svg width="16" height="16" viewBox="0 0 16 16" fill="none" xmlns="http://www.w3.org/2000/svg">
<path d="M12.5 6.4735V6.0035C12.5 3.42416 10.484 1.3335 8.00004 1.3335C5.51604 1.3335 3.50004 3.42416 3.50004 6.0035V6.4735C3.50084 7.03453 3.34074 7.58403 3.03871 8.05683L2.30004 9.20683C1.62604 10.2568 2.14071 11.6842 3.31337 12.0162C6.37757 12.8839 9.62252 12.8839 12.6867 12.0162C13.8594 11.6842 14.374 10.2568 13.7 9.2075L12.9614 8.0575C12.6591 7.58477 12.4988 7.03526 12.4994 6.47416L12.5 6.4735Z" stroke="#32CD8B" stroke-width="1.125"/>
<path opacity="0.5" d="M5 12.667C5.43667 13.8323 6.61467 14.667 8 14.667C9.38533 14.667 10.5633 13.8323 11 12.667" stroke="#32CD8B" stroke-width="1.125" stroke-linecap="round"/>
</svg>
