<svg width="26" height="26" viewBox="0 0 26 26" fill="none" xmlns="http://www.w3.org/2000/svg">
<path d="M13 12.5C14.933 12.5 16.5 10.933 16.5 9C16.5 7.067 14.933 5.5 13 5.5C11.067 5.5 9.5 7.067 9.5 9C9.5 10.933 11.067 12.5 13 12.5Z" fill="#7C7C7C"/>
<path d="M5.78263 18.763C6.49872 15.7383 9.5028 14.083 12.6131 14.083H13.3866C16.4968 14.083 19.5009 15.7373 20.217 18.763C20.3556 19.3491 20.4661 19.9623 20.5279 20.5852C20.5875 21.181 20.0978 21.6663 19.4998 21.6663H6.4998C5.9018 21.6663 5.41213 21.1799 5.47172 20.5852C5.53347 19.9623 5.64397 19.3491 5.78263 18.763Z" fill="#7C7C7C" fill-opacity="0.25"/>
</svg>
