<svg width="20" height="20" viewBox="0 0 20 20" fill="none" xmlns="http://www.w3.org/2000/svg">
<path d="M3.33203 15.0013C3.33203 14.1172 3.68322 13.2694 4.30834 12.6443C4.93346 12.0192 5.78131 11.668 6.66536 11.668H13.332C14.2161 11.668 15.0639 12.0192 15.6891 12.6443C16.3142 13.2694 16.6654 14.1172 16.6654 15.0013C16.6654 15.4433 16.4898 15.8673 16.1772 16.1798C15.8646 16.4924 15.4407 16.668 14.9987 16.668H4.9987C4.55667 16.668 4.13275 16.4924 3.82019 16.1798C3.50763 15.8673 3.33203 15.4433 3.33203 15.0013Z" stroke="#191919" stroke-width="1.66667" stroke-linejoin="round"/>
<path d="M10 8.33398C11.3807 8.33398 12.5 7.2147 12.5 5.83398C12.5 4.45327 11.3807 3.33398 10 3.33398C8.61929 3.33398 7.5 4.45327 7.5 5.83398C7.5 7.2147 8.61929 8.33398 10 8.33398Z" stroke="#191919" stroke-width="1.66667"/>
</svg>
