<svg width="26" height="26" viewBox="0 0 26 26" fill="none" xmlns="http://www.w3.org/2000/svg">
<path opacity="0.5" d="M2.16699 13.0003C2.16699 7.89349 2.16699 5.34008 3.75299 3.75299C5.34116 2.16699 7.89349 2.16699 13.0003 2.16699C18.1072 2.16699 20.6606 2.16699 22.2466 3.75299C23.8337 5.34116 23.8337 7.89349 23.8337 13.0003C23.8337 18.1072 23.8337 20.6606 22.2466 22.2466C20.6617 23.8337 18.1072 23.8337 13.0003 23.8337C7.89349 23.8337 5.34008 23.8337 3.75299 22.2466C2.16699 20.6617 2.16699 18.1072 2.16699 13.0003Z" fill="#7C7C7C" fill-opacity="0.25"/>
<path d="M19.0411 11.3537C19.1729 11.1875 19.2345 10.9764 19.2128 10.7654C19.1911 10.5544 19.0877 10.3602 18.9247 10.2245C18.7618 10.0887 18.5522 10.022 18.3407 10.0386C18.1293 10.0553 17.9327 10.154 17.7931 10.3137L15.8463 12.6493C15.4455 13.1314 15.1974 13.425 14.9948 13.6081C14.9418 13.6595 14.8825 13.7039 14.8182 13.7402L14.8063 13.7457L14.7976 13.7413L14.7944 13.7402C14.7298 13.704 14.6701 13.6595 14.6167 13.6081C14.4141 13.4239 14.1671 13.1314 13.7652 12.6493L13.4489 12.2702C13.0936 11.8422 12.7718 11.4577 12.4728 11.1868C12.1467 10.8922 11.7361 10.63 11.1945 10.63C10.6528 10.63 10.2433 10.8922 9.91615 11.1868C9.61715 11.4577 9.29648 11.8422 8.94115 12.2702L6.95865 14.647C6.89036 14.729 6.8389 14.8237 6.80719 14.9256C6.77549 15.0275 6.76417 15.1346 6.77388 15.2409C6.79348 15.4556 6.89755 15.6536 7.06319 15.7915C7.22883 15.9294 7.44247 15.9959 7.65711 15.9763C7.87176 15.9567 8.06982 15.8526 8.20773 15.687L10.1545 13.3513C10.5553 12.8692 10.8034 12.5757 11.006 12.3926C11.059 12.3412 11.1183 12.2968 11.1826 12.2604L11.1901 12.2572L11.1945 12.2561C11.1974 12.2561 11.2013 12.2575 11.2064 12.2604C11.271 12.2967 11.3307 12.3411 11.3841 12.3926C11.5866 12.5767 11.8336 12.8692 12.2356 13.3513L12.5519 13.7305C12.9083 14.1584 13.229 14.543 13.528 14.8138C13.8541 15.1085 14.2646 15.3707 14.8063 15.3707C15.348 15.3707 15.7575 15.1085 16.0846 14.8138C16.3836 14.543 16.7043 14.1584 17.0596 13.7305L19.0411 11.3537Z" fill="#7C7C7C"/>
</svg>
