<svg width="26" height="26" viewBox="0 0 26 26" fill="none" xmlns="http://www.w3.org/2000/svg">
<path opacity="0.5" d="M2.16602 13.2213C2.16602 10.7416 2.16602 9.50224 2.72935 8.47524C3.29052 7.44716 4.3186 6.81016 6.37368 5.53399L8.54035 4.18958C10.7124 2.84083 11.799 2.16699 12.9993 2.16699C14.1997 2.16699 15.2852 2.84083 17.4583 4.18958L19.625 5.53399C21.6801 6.81016 22.7082 7.44716 23.2704 8.47524C23.8327 9.50333 23.8327 10.7416 23.8327 13.2202V14.8691C23.8327 19.0941 23.8327 21.2077 22.563 22.5207C21.2933 23.8337 19.2513 23.8337 15.166 23.8337H10.8327C6.74743 23.8337 4.70427 23.8337 3.43568 22.5207C2.1671 21.2077 2.16602 19.0952 2.16602 14.8691V13.2213Z" fill="#7C7C7C" fill-opacity="0.4"/>
<path d="M12.1875 19.5C12.1875 19.7155 12.2731 19.9222 12.4255 20.0745C12.5778 20.2269 12.7845 20.3125 13 20.3125C13.2155 20.3125 13.4222 20.2269 13.5745 20.0745C13.7269 19.9222 13.8125 19.7155 13.8125 19.5V16.25C13.8125 16.0345 13.7269 15.8278 13.5745 15.6755C13.4222 15.5231 13.2155 15.4375 13 15.4375C12.7845 15.4375 12.5778 15.5231 12.4255 15.6755C12.2731 15.8278 12.1875 16.0345 12.1875 16.25V19.5Z" fill="#7C7C7C" fill-opacity="0.4"/>
</svg>
