<svg width="16" height="16" viewBox="0 0 16 16" fill="none" xmlns="http://www.w3.org/2000/svg">
<path d="M11.6672 8.87133L5.04921 2.438C4.95373 2.34531 4.84032 2.27311 4.71593 2.22583C4.59154 2.17855 4.4588 2.15719 4.32586 2.16306C4.19292 2.16893 4.06258 2.2019 3.94284 2.25996C3.8231 2.31801 3.71649 2.39992 3.62954 2.50066C3.44598 2.71384 3.35009 2.98871 3.36122 3.26981C3.37236 3.55092 3.48969 3.81734 3.68954 4.01533L7.03088 7.32533" stroke="#131313" stroke-width="1.33333" stroke-linecap="round"/>
<path d="M7.03024 7.32518L3.39291 3.71818C3.18499 3.51203 2.9069 3.39197 2.61426 3.38202C2.32163 3.37207 2.03603 3.47296 1.81458 3.66452C1.71007 3.7548 1.62519 3.86556 1.56518 3.98994C1.50517 4.11433 1.4713 4.2497 1.46568 4.38769C1.46006 4.52568 1.48279 4.66336 1.53248 4.79221C1.58217 4.92107 1.65776 5.03836 1.75458 5.13685L5.41891 8.87118" stroke="#131313" stroke-width="1.33333" stroke-linecap="round" stroke-linejoin="round"/>
<path d="M5.41852 8.87117L3.33352 6.83317C3.13123 6.62672 2.85581 6.50819 2.56682 6.5032C2.27783 6.49821 1.99848 6.60716 1.78918 6.80651C1.68626 6.90461 1.60377 7.02212 1.54647 7.15225C1.48917 7.28238 1.45818 7.42256 1.4553 7.56472C1.45242 7.70688 1.4777 7.8482 1.52968 7.98055C1.58166 8.11289 1.65932 8.23364 1.75818 8.33584C4.83485 11.5145 6.43152 13.0158 7.03052 13.5175C8.00018 14.3298 9.91185 14.6665 10.9102 13.9998C11.9085 13.3332 12.8109 12.3845 13.2392 11.4428C13.4941 10.8817 13.9894 9.15273 14.7252 6.25584C14.7613 6.11365 14.7687 5.96568 14.7468 5.82061C14.725 5.67554 14.6744 5.53629 14.598 5.41104C14.5216 5.28579 14.421 5.17705 14.302 5.09121C14.183 5.00538 14.0481 4.94417 13.9052 4.91117C13.6112 4.84321 13.3023 4.89181 13.0433 5.04676C12.7844 5.20171 12.5956 5.45096 12.5165 5.74217L11.6669 8.87117M10.5722 4.22184C9.85665 3.15362 8.84184 2.32027 7.65485 1.82617M1.73152 11.2585C2.39019 12.3627 3.36001 13.248 4.51952 13.8035" stroke="#131313" stroke-width="1.33333" stroke-linecap="round"/>
</svg>
