<svg width="51" height="51" viewBox="0 0 51 51" fill="none" xmlns="http://www.w3.org/2000/svg">
<rect x="0.5" y="0.5" width="50" height="50" rx="25" fill="url(#paint0_linear_9381_19362)"/>
<rect x="0.5" y="0.5" width="50" height="50" rx="25" stroke="url(#paint1_linear_9381_19362)"/>
<path d="M23.0122 31.8561C23.1753 31.8561 23.3316 31.7913 23.4469 31.676C23.5622 31.5608 23.627 31.4044 23.627 31.2414C23.627 31.0783 23.5622 30.9219 23.4469 30.8067C23.3316 30.6914 23.1753 30.6266 23.0122 30.6266V31.8561ZM24.2417 19.7661V20.3808C24.3632 20.3807 24.482 20.3446 24.583 20.2771C24.684 20.2095 24.7627 20.1135 24.8091 20.0013C24.8556 19.889 24.8678 19.7655 24.8441 19.6463C24.8205 19.5271 24.762 19.4176 24.6761 19.3317L24.2417 19.7661ZM23.0368 17.6923C22.9203 17.5837 22.7661 17.5246 22.6069 17.5274C22.4476 17.5302 22.2957 17.5948 22.183 17.7074C22.0704 17.82 22.0059 17.972 22.0031 18.1312C22.0003 18.2905 22.0594 18.4446 22.168 18.5612L23.0368 17.6923ZM23.0122 30.6266H22.6024V31.8561H23.0122V30.6266ZM22.6024 20.3808H24.2417V19.1513H22.6024V20.3808ZM24.6761 19.3317L23.0368 17.6923L22.168 18.5612L23.8073 20.2005L24.6761 19.3317ZM16.25 25.5037C16.25 27.1885 16.9193 28.8042 18.1106 29.9955C19.3019 31.1868 20.9176 31.8561 22.6024 31.8561V30.6266C21.2437 30.6266 19.9407 30.0869 18.98 29.1261C18.0192 28.1654 17.4795 26.8624 17.4795 25.5037H16.25ZM17.4795 25.5037C17.4795 24.145 18.0192 22.842 18.98 21.8813C19.9407 20.9206 21.2437 20.3808 22.6024 20.3808V19.1513C20.9176 19.1513 19.3019 19.8206 18.1106 21.0119C16.9193 22.2032 16.25 23.819 16.25 25.5037H17.4795Z" fill="white"/>
<path d="M23.0122 31.8561C23.1753 31.8561 23.3316 31.7913 23.4469 31.676C23.5622 31.5608 23.627 31.4044 23.627 31.2414C23.627 31.0783 23.5622 30.9219 23.4469 30.8067C23.3316 30.6914 23.1753 30.6266 23.0122 30.6266M23.0122 31.8561V30.6266M23.0122 31.8561H22.6024M23.0122 30.6266H22.6024M24.2417 20.3808V19.7661L24.6761 19.3317M24.2417 20.3808C24.3632 20.3807 24.482 20.3446 24.583 20.2771C24.684 20.2095 24.7627 20.1135 24.8091 20.0013C24.8556 19.889 24.8678 19.7655 24.8441 19.6463C24.8205 19.5271 24.762 19.4176 24.6761 19.3317M24.2417 20.3808H22.6024M24.2417 20.3808V19.1513H22.6024M24.6761 19.3317L23.0368 17.6923M24.6761 19.3317L23.8073 20.2005L22.168 18.5612M23.0368 17.6923C22.9203 17.5837 22.7661 17.5246 22.6069 17.5274C22.4476 17.5302 22.2957 17.5948 22.183 17.7074C22.0704 17.82 22.0059 17.972 22.0031 18.1312C22.0003 18.2905 22.0594 18.4446 22.168 18.5612M23.0368 17.6923L22.168 18.5612M22.6024 30.6266V31.8561M22.6024 30.6266C21.2437 30.6266 19.9407 30.0869 18.98 29.1261C18.0192 28.1654 17.4795 26.8624 17.4795 25.5037M22.6024 31.8561C20.9176 31.8561 19.3019 31.1868 18.1106 29.9955C16.9193 28.8042 16.25 27.1885 16.25 25.5037M22.6024 20.3808V19.1513M22.6024 20.3808C21.2437 20.3808 19.9407 20.9206 18.98 21.8813C18.0192 22.842 17.4795 24.145 17.4795 25.5037M22.6024 19.1513C20.9176 19.1513 19.3019 19.8206 18.1106 21.0119C16.9193 22.2032 16.25 23.819 16.25 25.5037M16.25 25.5037H17.4795" stroke="white" stroke-width="1.5"/>
<g opacity="0.5">
<path d="M27.9111 31.2385V30.6237C27.7896 30.6238 27.6708 30.6599 27.5698 30.7275C27.4688 30.795 27.3901 30.891 27.3436 31.0033C27.2972 31.1155 27.285 31.2391 27.3087 31.3582C27.3323 31.4774 27.3908 31.5869 27.4767 31.6729L27.9111 31.2385ZM29.116 33.3122C29.1723 33.3726 29.2401 33.421 29.3155 33.4546C29.3909 33.4882 29.4724 33.5063 29.5549 33.5078C29.6374 33.5092 29.7194 33.494 29.796 33.4631C29.8725 33.4322 29.9421 33.3862 30.0004 33.3278C30.0588 33.2694 30.1048 33.1999 30.1357 33.1233C30.1667 33.0468 30.1818 32.9648 30.1804 32.8823C30.1789 32.7997 30.1609 32.7183 30.1273 32.6429C30.0937 32.5675 30.0452 32.4996 29.9848 32.4434L29.116 33.3122ZM29.1406 19.1484C28.9775 19.1484 28.8212 19.2132 28.7059 19.3285C28.5906 19.4438 28.5258 19.6001 28.5258 19.7632C28.5258 19.9262 28.5906 20.0826 28.7059 20.1979C28.8212 20.3132 28.9775 20.3779 29.1406 20.3779V19.1484ZM29.5504 30.6237H27.9111V31.8532H29.5504V30.6237ZM27.4767 31.6729L29.116 33.3122L29.9848 32.4434L28.3455 30.804L27.4767 31.6729ZM29.1406 20.3779H29.5504V19.1484H29.1406V20.3779ZM34.6733 25.5008C34.6733 26.8595 34.1336 28.1625 33.1728 29.1233C32.2121 30.084 30.9091 30.6237 29.5504 30.6237V31.8532C31.2352 31.8532 32.8509 31.1839 34.0422 29.9926C35.2335 28.8013 35.9028 27.1856 35.9028 25.5008H34.6733ZM35.9028 25.5008C35.9028 23.8161 35.2335 22.2003 34.0422 21.009C32.8509 19.8177 31.2352 19.1484 29.5504 19.1484V20.3779C30.9091 20.3779 32.2121 20.9177 33.1728 21.8784C34.1336 22.8391 34.6733 24.1421 34.6733 25.5008H35.9028Z" fill="white"/>
<path d="M27.9111 30.6237V31.2385L27.4767 31.6729M27.9111 30.6237C27.7896 30.6238 27.6708 30.6599 27.5698 30.7275C27.4688 30.795 27.3901 30.891 27.3436 31.0033C27.2972 31.1155 27.285 31.2391 27.3087 31.3582C27.3323 31.4774 27.3908 31.5869 27.4767 31.6729M27.9111 30.6237H29.5504M27.9111 30.6237V31.8532H29.5504M27.4767 31.6729L29.116 33.3122M27.4767 31.6729L28.3455 30.804L29.9848 32.4434M29.116 33.3122C29.1723 33.3726 29.2401 33.421 29.3155 33.4546C29.3909 33.4882 29.4724 33.5063 29.5549 33.5078C29.6374 33.5092 29.7194 33.494 29.796 33.4631C29.8725 33.4322 29.9421 33.3862 30.0004 33.3278C30.0588 33.2694 30.1048 33.1999 30.1357 33.1233C30.1667 33.0468 30.1818 32.9648 30.1804 32.8823C30.1789 32.7997 30.1609 32.7183 30.1273 32.6429C30.0937 32.5675 30.0452 32.4996 29.9848 32.4434M29.116 33.3122L29.9848 32.4434M29.1406 19.1484C28.9775 19.1484 28.8212 19.2132 28.7059 19.3285C28.5906 19.4438 28.5258 19.6001 28.5258 19.7632C28.5258 19.9262 28.5906 20.0826 28.7059 20.1979C28.8212 20.3132 28.9775 20.3779 29.1406 20.3779M29.1406 19.1484V20.3779M29.1406 19.1484H29.5504M29.1406 20.3779H29.5504M29.5504 30.6237V31.8532M29.5504 30.6237C30.9091 30.6237 32.2121 30.084 33.1728 29.1233C34.1336 28.1625 34.6733 26.8595 34.6733 25.5008M29.5504 31.8532C31.2352 31.8532 32.8509 31.1839 34.0422 29.9926C35.2335 28.8013 35.9028 27.1856 35.9028 25.5008M29.5504 20.3779V19.1484M29.5504 20.3779C30.9091 20.3779 32.2121 20.9177 33.1728 21.8784C34.1336 22.8391 34.6733 24.1421 34.6733 25.5008M29.5504 19.1484C31.2352 19.1484 32.8509 19.8177 34.0422 21.009C35.2335 22.2003 35.9028 23.8161 35.9028 25.5008M34.6733 25.5008H35.9028" stroke="white" stroke-width="1.5"/>
</g>
<defs>
<linearGradient id="paint0_linear_9381_19362" x1="-1.46376e-07" y1="5.86207" x2="-12.6435" y2="53.9575" gradientUnits="userSpaceOnUse">
<stop stop-color="#984C93"/>
<stop offset="1" stop-color="#DAA8D7"/>
</linearGradient>
<linearGradient id="paint1_linear_9381_19362" x1="25.5" y1="0" x2="25.5" y2="51" gradientUnits="userSpaceOnUse">
<stop stop-color="white" stop-opacity="0.56"/>
<stop offset="0.0001" stop-color="white" stop-opacity="0.74"/>
<stop offset="1" stop-color="white" stop-opacity="0"/>
</linearGradient>
</defs>
</svg>
