<svg width="20" height="20" viewBox="0 0 20 20" fill="none" xmlns="http://www.w3.org/2000/svg">
<path d="M2.50003 14.5832H17.5C17.6184 14.5832 17.7172 14.6232 17.7967 14.7032C17.8761 14.7832 17.9161 14.8824 17.9167 15.0007C17.9172 15.119 17.8772 15.2179 17.7967 15.2974C17.7161 15.3768 17.6172 15.4165 17.5 15.4165H2.50003C2.38169 15.4165 2.2828 15.3765 2.20336 15.2965C2.12392 15.2165 2.08392 15.1174 2.08336 14.999C2.0828 14.8807 2.1228 14.7818 2.20336 14.7024C2.28392 14.6229 2.3828 14.5832 2.50003 14.5832ZM3.33336 9.02822L2.71336 10.1215C2.66392 10.2121 2.5903 10.2696 2.49253 10.294C2.39364 10.319 2.29919 10.3068 2.20919 10.2574C2.11975 10.2074 2.0628 10.1332 2.03836 10.0349C2.01392 9.93544 2.02725 9.84155 2.07836 9.75322L2.69836 8.65988H1.45836C1.35169 8.65988 1.26364 8.62516 1.19419 8.55572C1.12475 8.48627 1.09003 8.39849 1.09003 8.29238C1.09003 8.18627 1.12475 8.09822 1.19419 8.02822C1.26364 7.95822 1.35169 7.92322 1.45836 7.92322H2.69919L2.07836 6.87155C2.02725 6.78266 2.01392 6.68877 2.03836 6.58988C2.0628 6.49099 2.12003 6.41683 2.21003 6.36738C2.30003 6.31794 2.39419 6.30572 2.49253 6.33072C2.59086 6.35572 2.66447 6.41322 2.71336 6.50322L3.33336 7.55405L3.95336 6.50322C4.0028 6.41266 4.07669 6.35488 4.17503 6.32988C4.27336 6.30488 4.36725 6.31738 4.45669 6.36738C4.54614 6.41738 4.60336 6.49155 4.62836 6.58988C4.65336 6.68822 4.64003 6.78211 4.58836 6.87155L3.96669 7.92322H5.20836C5.31503 7.92322 5.40308 7.95794 5.47253 8.02738C5.54197 8.09683 5.57669 8.18461 5.57669 8.29072C5.57669 8.39683 5.54197 8.48488 5.47253 8.55488C5.40308 8.62488 5.31503 8.65988 5.20836 8.65988H3.96753L4.58836 9.75322C4.63947 9.84211 4.6528 9.93599 4.62836 10.0349C4.60392 10.1338 4.54669 10.2079 4.45669 10.2574C4.36725 10.3068 4.27336 10.319 4.17503 10.294C4.07669 10.2696 4.0028 10.2121 3.95336 10.1215L3.33336 9.02822ZM10 9.02822L9.38003 10.1215C9.33058 10.2121 9.25669 10.2696 9.15836 10.294C9.06003 10.319 8.96614 10.3068 8.87669 10.2574C8.78669 10.2074 8.72947 10.1332 8.70503 10.0349C8.68058 9.93544 8.69392 9.84155 8.74503 9.75322L9.36503 8.65988H8.12503C8.01836 8.65988 7.9303 8.62516 7.86086 8.55572C7.79142 8.48627 7.75669 8.39849 7.75669 8.29238C7.75669 8.18627 7.79142 8.09822 7.86086 8.02822C7.9303 7.95822 8.01836 7.92322 8.12503 7.92322H9.36586L8.74503 6.87155C8.69392 6.78266 8.68058 6.68877 8.70503 6.58988C8.72947 6.49099 8.78669 6.41683 8.87669 6.36738C8.96669 6.31794 9.06086 6.30572 9.15919 6.33072C9.25753 6.35572 9.33114 6.41322 9.38003 6.50322L10 7.55405L10.62 6.50322C10.6695 6.41266 10.7434 6.35488 10.8417 6.32988C10.94 6.30488 11.0339 6.31738 11.1234 6.36738C11.2134 6.41738 11.2706 6.49155 11.295 6.58988C11.3195 6.68822 11.3061 6.78211 11.255 6.87155L10.635 7.92322H11.875C11.9817 7.92322 12.0697 7.95794 12.1392 8.02738C12.2086 8.09683 12.2434 8.18461 12.2434 8.29072C12.2434 8.39683 12.2086 8.48488 12.1392 8.55488C12.0697 8.62488 11.9817 8.65988 11.875 8.65988H10.6342L11.255 9.75322C11.3061 9.84211 11.3195 9.93599 11.295 10.0349C11.2706 10.1338 11.2134 10.2079 11.1234 10.2574C11.0334 10.3068 10.9392 10.319 10.8409 10.294C10.7425 10.269 10.6689 10.2115 10.62 10.1215L10 9.02822ZM16.6667 9.02822L16.0467 10.1215C15.9972 10.2121 15.9234 10.2696 15.825 10.294C15.7267 10.319 15.6328 10.3068 15.5434 10.2574C15.4534 10.2074 15.3961 10.1332 15.3717 10.0349C15.3472 9.93544 15.3606 9.84155 15.4117 9.75322L16.0317 8.65988H14.7917C14.685 8.65988 14.597 8.62516 14.5275 8.55572C14.4581 8.48627 14.4234 8.39849 14.4234 8.29238C14.4234 8.18627 14.4581 8.09822 14.5275 8.02822C14.597 7.95822 14.685 7.92322 14.7917 7.92322H16.0325L15.4117 6.87155C15.3606 6.78266 15.3472 6.68877 15.3717 6.58988C15.3961 6.49099 15.4534 6.41683 15.5434 6.36738C15.6334 6.31794 15.7272 6.30572 15.825 6.33072C15.9228 6.35572 15.9967 6.41322 16.0467 6.50322L16.6667 7.55405L17.2867 6.50322C17.3361 6.41266 17.41 6.35488 17.5084 6.32988C17.6067 6.30488 17.7006 6.31738 17.79 6.36738C17.8795 6.41738 17.9367 6.49155 17.9617 6.58988C17.9867 6.68822 17.9734 6.78211 17.9217 6.87155L17.3017 7.92322H18.5417C18.6484 7.92322 18.7364 7.95794 18.8059 8.02738C18.8753 8.09683 18.91 8.18461 18.91 8.29072C18.91 8.39683 18.8753 8.48488 18.8059 8.55488C18.7364 8.62488 18.6484 8.65988 18.5417 8.65988H17.3009L17.9217 9.75322C17.9728 9.84211 17.9861 9.93599 17.9617 10.0349C17.9372 10.1338 17.88 10.2079 17.79 10.2574C17.7 10.3068 17.6061 10.319 17.5084 10.294C17.4106 10.269 17.3367 10.2115 17.2867 10.1215L16.6667 9.02822Z" fill="#B5B5B5"/>
</svg>
