<svg width="19" height="19" viewBox="0 0 19 19" fill="none" xmlns="http://www.w3.org/2000/svg">
<path d="M9.33732 0.585938C6.68423 0.585938 4.87271 0.724058 3.75257 0.854787C2.62893 0.985904 1.77219 1.83758 1.64379 2.96551C1.50762 4.16268 1.36133 6.18508 1.36133 9.34008C1.36133 12.4951 1.50801 14.5175 1.64379 15.7146C1.77219 16.8426 2.62893 17.6942 3.75257 17.8254C4.8731 17.9561 6.68423 18.0942 9.33732 18.0942C11.9904 18.0942 13.8019 17.9561 14.9221 17.8254C16.0457 17.6942 16.9025 16.8426 17.0308 15.7146C17.1666 14.5175 17.3133 12.4955 17.3133 9.34008C17.3133 8.15846 17.2927 7.13559 17.26 6.2559C17.2578 6.19573 17.2462 6.13628 17.2258 6.07965C17.0472 5.58513 16.5021 4.45566 14.9213 2.91454C13.244 1.27888 12.0453 0.782419 11.5994 0.64352C11.5491 0.62786 11.4968 0.619091 11.4442 0.617452C10.8107 0.597999 10.1096 0.585938 9.33732 0.585938Z" fill="#915B41" fill-opacity="0.2"/>
<path fill-rule="evenodd" clip-rule="evenodd" d="M4.37695 14.7872C4.37695 15.1634 4.68199 15.4681 5.05783 15.4681H13.6174C13.798 15.4681 13.9712 15.3963 14.0989 15.2687C14.2266 15.141 14.2983 14.9678 14.2983 14.7872C14.2983 14.6066 14.2266 14.4334 14.0989 14.3057C13.9712 14.1781 13.798 14.1063 13.6174 14.1063H5.05783C4.87725 14.1063 4.70407 14.1781 4.57638 14.3057C4.44869 14.4334 4.37695 14.6066 4.37695 14.7872ZM4.37695 12.0637C4.37695 11.6878 4.68199 11.3828 5.05783 11.3828H13.6174C13.798 11.3828 13.9712 11.4545 14.0989 11.5822C14.2266 11.7099 14.2983 11.8831 14.2983 12.0637C14.2983 12.2443 14.2266 12.4175 14.0989 12.5451C13.9712 12.6728 13.798 12.7446 13.6174 12.7446H5.05783C4.87725 12.7446 4.70407 12.6728 4.57638 12.5451C4.44869 12.4175 4.37695 12.2443 4.37695 12.0637Z" fill="#915B41"/>
<path d="M12.9033 4.19237C12.1577 4.16953 11.4118 4.22705 10.6786 4.36395C9.96813 4.49857 9.78254 5.34675 10.2459 5.81014L10.6832 6.24784L10.6572 6.2708C10.5405 6.37313 10.3774 6.5202 10.1883 6.7015C9.82016 7.052 9.47081 7.42174 9.14174 7.80919C8.97911 7.31118 8.77484 6.74897 8.55385 6.30076C8.27878 5.74361 7.58233 5.47904 6.99522 5.83932C6.4369 6.18248 5.53387 6.93106 4.48804 8.52937C4.38918 8.68049 4.35441 8.86469 4.39137 9.04145C4.42832 9.2182 4.53398 9.37304 4.6851 9.4719C4.83622 9.57075 5.02042 9.60553 5.19718 9.56857C5.37394 9.53161 5.52878 9.42595 5.62763 9.27483C6.39839 8.09672 7.04619 7.48198 7.45628 7.17267C7.64498 7.61116 7.82589 8.14924 7.96791 8.6138C8.11109 9.08185 8.51261 9.32541 8.87445 9.38144C9.23434 9.43708 9.67555 9.32969 9.96113 8.96124C10.3405 8.47256 10.7797 8.01968 11.1291 7.68547C11.2983 7.52371 11.4715 7.36621 11.6485 7.21313L12.0921 7.65629C12.5551 8.11929 13.4033 7.9337 13.5379 7.22325C13.718 6.27275 13.7246 5.4413 13.7095 4.99853C13.7028 4.78683 13.6158 4.58561 13.466 4.43583C13.3162 4.28606 13.115 4.199 12.9033 4.19237Z" fill="#915B41"/>
</svg>
