<svg width="20" height="20" viewBox="0 0 20 20" fill="none" xmlns="http://www.w3.org/2000/svg">
<path d="M9.99844 18.5376C14.6609 18.5376 18.5363 14.6705 18.5363 9.99977C18.5363 5.33727 14.6524 1.46191 9.98987 1.46191C5.31951 1.46191 1.46094 5.33727 1.46094 9.99977C1.46094 14.6705 5.32772 18.5376 9.99844 18.5376ZM9.99879 17.1148C6.04737 17.1148 2.89129 13.9505 2.89129 9.99977C2.89129 6.05691 6.03879 2.88477 9.98987 2.88477C13.9324 2.88477 17.1045 6.05727 17.1131 9.99977C17.1213 13.9508 13.9406 17.1148 9.99808 17.1148M9.98987 11.5148C10.3913 11.5148 10.6174 11.2887 10.6256 10.8537L10.7513 6.43406C10.7599 6.00691 10.4249 5.68906 9.98129 5.68906C9.52915 5.68906 9.21129 5.9987 9.21951 6.42549L9.32844 10.8537C9.33665 11.2805 9.57129 11.5148 9.98987 11.5148ZM9.98987 14.2351C10.4667 14.2351 10.8934 13.8501 10.8934 13.3648C10.8934 12.8708 10.4752 12.4941 9.98987 12.4941C9.49594 12.4941 9.08558 12.8791 9.08558 13.3648C9.08558 13.8419 9.50415 14.2351 9.98987 14.2351Z" fill="#191919"/>
</svg>
