<svg width="26" height="26" viewBox="0 0 26 26" fill="none" xmlns="http://www.w3.org/2000/svg">
<path fill-rule="evenodd" clip-rule="evenodd" d="M7.58333 4.80101C7.58333 4.63309 7.58333 4.54859 7.52917 4.49984C7.47283 4.45109 7.3905 4.46192 7.22583 4.48359C6.0125 4.63851 5.16533 4.95592 4.51967 5.60267C3.25 6.87126 3.25 8.91442 3.25 12.9997C3.25 17.0849 3.25 19.1281 4.51967 20.3967C5.78933 21.6653 7.83142 21.6663 11.9167 21.6663H14.0833C18.1686 21.6663 20.2118 21.6663 21.4803 20.3967C22.7489 19.127 22.75 17.0849 22.75 12.9997C22.75 8.91442 22.75 6.87126 21.4803 5.60267C20.8347 4.95592 19.9875 4.63851 18.7731 4.48359C18.6095 4.46192 18.5272 4.45109 18.4719 4.49984C18.4167 4.54859 18.4167 4.63309 18.4167 4.80101V7.04134C18.4167 7.47232 18.2455 7.88564 17.9407 8.19039C17.636 8.49514 17.2226 8.66634 16.7917 8.66634C16.3607 8.66634 15.9474 8.49514 15.6426 8.19039C15.3379 7.88564 15.1667 7.47232 15.1667 7.04134V4.65801C15.1667 4.50526 15.1667 4.42834 15.119 4.38176C15.0713 4.33517 14.9955 4.33301 14.8428 4.33301H11.1583C11.0045 4.33301 10.9287 4.33301 10.881 4.38176C10.8333 4.42834 10.8333 4.50526 10.8333 4.65801V7.04134C10.8333 7.47232 10.6621 7.88564 10.3574 8.19039C10.0526 8.49514 9.63931 8.66634 9.20833 8.66634C8.77736 8.66634 8.36403 8.49514 8.05928 8.19039C7.75454 7.88564 7.58333 7.47232 7.58333 7.04134V4.80101Z" fill="#32CD8B" fill-opacity="0.25"/>
<path d="M9.20898 2.70801V7.04134M16.7923 2.70801V7.04134" stroke="#32CD8B" stroke-width="1.08333" stroke-linecap="round"/>
<path d="M8.12565 11.9163C8.42481 11.9163 8.66732 11.6738 8.66732 11.3747C8.66732 11.0755 8.42481 10.833 8.12565 10.833C7.8265 10.833 7.58398 11.0755 7.58398 11.3747C7.58398 11.6738 7.8265 11.9163 8.12565 11.9163Z" fill="#32CD8B"/>
<path d="M11.3757 11.9163C11.6748 11.9163 11.9173 11.6738 11.9173 11.3747C11.9173 11.0755 11.6748 10.833 11.3757 10.833C11.0765 10.833 10.834 11.0755 10.834 11.3747C10.834 11.6738 11.0765 11.9163 11.3757 11.9163Z" fill="#32CD8B"/>
<path d="M14.6257 11.9163C14.9248 11.9163 15.1673 11.6738 15.1673 11.3747C15.1673 11.0755 14.9248 10.833 14.6257 10.833C14.3265 10.833 14.084 11.0755 14.084 11.3747C14.084 11.6738 14.3265 11.9163 14.6257 11.9163Z" fill="#32CD8B"/>
<path d="M17.8757 11.9163C18.1748 11.9163 18.4173 11.6738 18.4173 11.3747C18.4173 11.0755 18.1748 10.833 17.8757 10.833C17.5765 10.833 17.334 11.0755 17.334 11.3747C17.334 11.6738 17.5765 11.9163 17.8757 11.9163Z" fill="#32CD8B"/>
<path d="M8.12565 15.1663C8.42481 15.1663 8.66732 14.9238 8.66732 14.6247C8.66732 14.3255 8.42481 14.083 8.12565 14.083C7.8265 14.083 7.58398 14.3255 7.58398 14.6247C7.58398 14.9238 7.8265 15.1663 8.12565 15.1663Z" fill="#32CD8B"/>
<path d="M11.3757 15.1663C11.6748 15.1663 11.9173 14.9238 11.9173 14.6247C11.9173 14.3255 11.6748 14.083 11.3757 14.083C11.0765 14.083 10.834 14.3255 10.834 14.6247C10.834 14.9238 11.0765 15.1663 11.3757 15.1663Z" fill="#32CD8B"/>
<path d="M14.6257 15.1663C14.9248 15.1663 15.1673 14.9238 15.1673 14.6247C15.1673 14.3255 14.9248 14.083 14.6257 14.083C14.3265 14.083 14.084 14.3255 14.084 14.6247C14.084 14.9238 14.3265 15.1663 14.6257 15.1663Z" fill="#32CD8B"/>
<path d="M17.8757 15.1663C18.1748 15.1663 18.4173 14.9238 18.4173 14.6247C18.4173 14.3255 18.1748 14.083 17.8757 14.083C17.5765 14.083 17.334 14.3255 17.334 14.6247C17.334 14.9238 17.5765 15.1663 17.8757 15.1663Z" fill="#32CD8B"/>
<path d="M8.12565 18.4163C8.42481 18.4163 8.66732 18.1738 8.66732 17.8747C8.66732 17.5755 8.42481 17.333 8.12565 17.333C7.8265 17.333 7.58398 17.5755 7.58398 17.8747C7.58398 18.1738 7.8265 18.4163 8.12565 18.4163Z" fill="#32CD8B"/>
<path d="M11.3757 18.4163C11.6748 18.4163 11.9173 18.1738 11.9173 17.8747C11.9173 17.5755 11.6748 17.333 11.3757 17.333C11.0765 17.333 10.834 17.5755 10.834 17.8747C10.834 18.1738 11.0765 18.4163 11.3757 18.4163Z" fill="#32CD8B"/>
<path d="M14.6257 18.4163C14.9248 18.4163 15.1673 18.1738 15.1673 17.8747C15.1673 17.5755 14.9248 17.333 14.6257 17.333C14.3265 17.333 14.084 17.5755 14.084 17.8747C14.084 18.1738 14.3265 18.4163 14.6257 18.4163Z" fill="#32CD8B"/>
<path d="M17.8757 18.4163C18.1748 18.4163 18.4173 18.1738 18.4173 17.8747C18.4173 17.5755 18.1748 17.333 17.8757 17.333C17.5765 17.333 17.334 17.5755 17.334 17.8747C17.334 18.1738 17.5765 18.4163 17.8757 18.4163Z" fill="#32CD8B"/>
</svg>
