<svg width="16" height="16" viewBox="0 0 16 16" fill="none" xmlns="http://www.w3.org/2000/svg">
<path opacity="0.3" d="M7.99999 2.66797C12.6187 2.66797 15.5053 7.66797 13.196 11.668C12.6694 12.5801 11.912 13.3375 10.9999 13.8641C10.0878 14.3907 9.05318 14.6679 7.99999 14.668C3.38132 14.668 0.494653 9.66797 2.80399 5.66797C3.33058 4.75588 4.08799 3.99846 5.00007 3.47185C5.91216 2.94525 6.94679 2.668 7.99999 2.66797Z" fill="#8A8A8A"/>
<path d="M4.9099 1.98154C4.9983 2.13466 5.02226 2.31662 4.9765 2.48741C4.93074 2.65819 4.81901 2.8038 4.6659 2.89221C3.97237 3.29445 3.35625 3.81733 2.84656 4.43621C2.79191 4.5066 2.72369 4.56533 2.64594 4.6089C2.56819 4.65248 2.4825 4.68002 2.39392 4.68991C2.30534 4.69979 2.21569 4.69182 2.13025 4.66645C2.04481 4.64108 1.96532 4.59884 1.89649 4.54222C1.82765 4.48561 1.77087 4.41576 1.7295 4.33682C1.68813 4.25788 1.663 4.17144 1.65562 4.08262C1.64823 3.9938 1.65872 3.90441 1.68648 3.81971C1.71424 3.73502 1.7587 3.65675 1.81723 3.58954C2.42699 2.84643 3.16569 2.21929 3.9979 1.73821C4.0737 1.6943 4.15742 1.66577 4.24426 1.65424C4.3311 1.64271 4.41936 1.6484 4.50399 1.671C4.58863 1.6936 4.66798 1.73266 4.73752 1.78594C4.80705 1.83923 4.8654 1.90569 4.90923 1.98154H4.9099ZM11.9992 1.73821C12.8316 2.21903 13.5705 2.84594 14.1806 3.58887C14.287 3.72597 14.3358 3.89917 14.3165 4.07166C14.2973 4.24415 14.2115 4.40234 14.0775 4.5126C13.9434 4.62285 13.7717 4.67649 13.5987 4.6621C13.4258 4.64771 13.2652 4.56643 13.1512 4.43554C12.6425 3.81589 12.0262 3.29307 11.3319 2.89221C11.1789 2.80362 11.0673 2.65788 11.0217 2.48703C10.9762 2.31619 11.0003 2.13424 11.0889 1.98121C11.1775 1.82818 11.3232 1.7166 11.4941 1.67103C11.6649 1.62546 11.8462 1.64962 11.9992 1.73821ZM7.99923 5.33421C7.83594 5.33423 7.67834 5.39418 7.55632 5.50268C7.43429 5.61119 7.35634 5.76071 7.33723 5.92287L7.33256 6.00087V8.65821C7.33056 8.80621 7.3779 8.95154 7.46723 9.06954L7.52723 9.13887L8.93123 10.5422C9.05093 10.663 9.21228 10.7336 9.38226 10.7393C9.55225 10.7451 9.71801 10.6857 9.84562 10.5732C9.97323 10.4608 10.053 10.3038 10.0687 10.1345C10.0844 9.9651 10.0347 9.79615 9.9299 9.66221L9.8739 9.59954L8.6659 8.39154V6.00087C8.6659 5.82406 8.59566 5.65449 8.47064 5.52947C8.34561 5.40444 8.17604 5.33421 7.99923 5.33421Z" fill="#8A8A8A"/>
</svg>
