<svg width="16" height="16" viewBox="0 0 16 16" fill="none" xmlns="http://www.w3.org/2000/svg">
<rect width="16" height="16" rx="8" fill="#191919"/>
<path d="M7.52934 10.5097C7.52934 10.6345 7.57891 10.7542 7.66717 10.8425C7.75542 10.9307 7.87512 10.9803 7.99992 10.9803C8.12473 10.9803 8.24443 10.9307 8.33268 10.8425C8.42093 10.7542 8.47051 10.6345 8.47051 10.5097V8.47051H10.5097C10.6345 8.47051 10.7542 8.42093 10.8425 8.33268C10.9307 8.24443 10.9803 8.12473 10.9803 7.99992C10.9803 7.87512 10.9307 7.75542 10.8425 7.66717C10.7542 7.57891 10.6345 7.52934 10.5097 7.52934H8.47051V5.49012C8.47051 5.36531 8.42093 5.24562 8.33268 5.15736C8.24443 5.06911 8.12473 5.01953 7.99992 5.01953C7.87512 5.01953 7.75542 5.06911 7.66717 5.15736C7.57891 5.24562 7.52934 5.36531 7.52934 5.49012V7.52934H5.49012C5.36531 7.52934 5.24562 7.57891 5.15736 7.66717C5.06911 7.75542 5.01953 7.87512 5.01953 7.99992C5.01953 8.12473 5.06911 8.24443 5.15736 8.33268C5.24562 8.42093 5.36531 8.47051 5.49012 8.47051H7.52934V10.5097Z" fill="white"/>
</svg>
