<svg width="20" height="20" viewBox="0 0 20 20" fill="none" xmlns="http://www.w3.org/2000/svg">
<circle cx="10" cy="10" r="10" fill="#BABABA"/>
<path fill-rule="evenodd" clip-rule="evenodd" d="M9.99958 11.6289L6.90616 14.7223C6.74202 14.8865 6.51938 14.9787 6.28725 14.9787C6.05511 14.9787 5.83248 14.8865 5.66833 14.7223C5.50418 14.5582 5.41197 14.3355 5.41197 14.1034C5.41197 13.8713 5.50418 13.6486 5.66833 13.4845L8.76291 10.3911L5.66891 7.29764C5.58767 7.21636 5.52324 7.11988 5.47929 7.0137C5.43534 6.90752 5.41273 6.79372 5.41276 6.67881C5.41278 6.56389 5.43544 6.45011 5.47944 6.34395C5.52345 6.23779 5.58793 6.14134 5.6692 6.0601C5.75048 5.97886 5.84696 5.91442 5.95314 5.87047C6.05932 5.82652 6.17312 5.80391 6.28804 5.80394C6.40295 5.80397 6.51674 5.82663 6.6229 5.87063C6.72905 5.91463 6.82551 5.97911 6.90675 6.06039L9.99958 9.15381L13.093 6.06039C13.1737 5.97678 13.2702 5.91008 13.3769 5.86417C13.4837 5.81826 13.5985 5.79407 13.7146 5.79301C13.8308 5.79194 13.9461 5.81403 14.0536 5.85797C14.1612 5.90192 14.2589 5.96684 14.3411 6.04896C14.4233 6.13108 14.4883 6.22874 14.5323 6.33625C14.5764 6.44377 14.5986 6.55897 14.5976 6.67516C14.5967 6.79134 14.5726 6.90617 14.5268 7.01294C14.481 7.11972 14.4144 7.2163 14.3308 7.29706L11.2362 10.3911L14.3302 13.4851C14.4138 13.5658 14.4804 13.6624 14.5262 13.7692C14.572 13.8759 14.5961 13.9908 14.597 14.107C14.598 14.2231 14.5758 14.3383 14.5318 14.4459C14.4877 14.5534 14.4227 14.651 14.3405 14.7332C14.2583 14.8153 14.1606 14.8802 14.053 14.9241C13.9455 14.9681 13.8302 14.9902 13.7141 14.9891C13.5979 14.988 13.4831 14.9639 13.3763 14.9179C13.2696 14.872 13.1731 14.8053 13.0924 14.7217L9.99958 11.6289Z" fill="white"/>
</svg>
