<svg width="40" height="40" viewBox="0 0 40 40" fill="none" xmlns="http://www.w3.org/2000/svg">
<circle cx="20" cy="20" r="20" fill="white"/>
<g clip-path="url(#clip0_9451_9032)">
<path d="M20.5137 9.69383C17.2305 9.69383 14.8841 9.81236 13.3552 9.93182C11.6665 10.063 10.3891 11.2655 10.2657 12.7948C10.1427 14.3193 10.0137 16.7403 10.0137 20.1936C10.0137 23.6468 10.1427 26.0674 10.2657 27.5924C10.3886 29.1212 11.6665 30.3238 13.3552 30.4554C14.8841 30.5744 17.231 30.6934 20.5137 30.6934C23.7963 30.6934 26.1432 30.5744 27.6721 30.4554C29.3608 30.3238 30.6382 29.1212 30.7617 27.5924C30.8846 26.0674 31.0137 23.6464 31.0137 20.1936C31.0137 16.7408 30.8846 14.3193 30.7617 12.7948C30.6387 11.2655 29.3608 10.063 27.6721 9.93135C26.1432 9.81236 23.7963 9.69336 20.5137 9.69336" fill="#FFD4DD"/>
<path fill-rule="evenodd" clip-rule="evenodd" d="M19.4892 13.6528C19.2175 13.6528 18.957 13.7512 18.7649 13.9262C18.5728 14.1012 18.4648 14.3386 18.4648 14.5861C18.4648 14.8337 18.5728 15.0711 18.7649 15.2461C18.957 15.4211 19.2175 15.5195 19.4892 15.5195H25.6356C25.9073 15.5195 26.1678 15.4211 26.3599 15.2461C26.552 15.0711 26.66 14.8337 26.66 14.5861C26.66 14.3386 26.552 14.1012 26.3599 13.9262C26.1678 13.7512 25.9073 13.6528 25.6356 13.6528H19.4892ZM18.4648 18.7861C18.4648 18.5385 18.5728 18.3011 18.7649 18.1261C18.957 17.9511 19.2175 17.8527 19.4892 17.8527H22.5624C22.8341 17.8527 23.0946 17.9511 23.2868 18.1261C23.4789 18.3011 23.5868 18.5385 23.5868 18.7861C23.5868 19.0336 23.4789 19.271 23.2868 19.446C23.0946 19.621 22.8341 19.7194 22.5624 19.7194H19.4892C19.2175 19.7194 18.957 19.621 18.7649 19.446C18.5728 19.271 18.4648 19.0336 18.4648 18.7861Z" fill="#FF7290"/>
<path d="M15.3917 9.80469V30.5802C14.7122 30.5484 14.0333 30.5064 13.3552 30.4542C11.6665 30.3231 10.3891 29.1205 10.2657 27.5918C10.1427 26.0667 10.0137 23.6457 10.0137 20.1929C10.0137 16.7401 10.1427 14.3187 10.2657 12.7936C10.3886 11.2649 11.6665 10.0623 13.3552 9.93068C13.9202 9.88682 14.5973 9.84295 15.3917 9.80469Z" fill="#FF7290"/>
</g>
<defs>
<clipPath id="clip0_9451_9032">
<rect width="21.9608" height="21.9608" fill="white" transform="translate(8.41211 9)"/>
</clipPath>
</defs>
</svg>
