<svg width="20" height="20" viewBox="0 0 20 20" fill="none" xmlns="http://www.w3.org/2000/svg">
<path d="M3.33203 18.332H16.6654" stroke="#191919" stroke-width="1.5" stroke-linecap="round"/>
<path d="M15.2793 6.75874L15.8976 6.14208C16.1411 5.89864 16.3343 5.60962 16.4661 5.29154C16.5979 4.97345 16.6657 4.63252 16.6658 4.2882C16.6658 3.94389 16.598 3.60294 16.4663 3.28483C16.3346 2.96671 16.1415 2.67765 15.898 2.43416C15.6546 2.19067 15.3656 1.99751 15.0475 1.86571C14.7294 1.73391 14.3885 1.66605 14.0442 1.66602C13.6998 1.66598 13.3589 1.73376 13.0408 1.86548C12.7227 1.99721 12.4336 2.1903 12.1901 2.43374L11.5718 3.05208C11.5718 3.05208 11.6493 4.36541 12.8076 5.52374C13.9659 6.68208 15.2793 6.75958 15.2793 6.75958L9.59844 12.4404C9.21344 12.8254 9.02178 13.0171 8.80928 13.1829C8.55872 13.3785 8.28955 13.5449 8.00178 13.6821C7.75928 13.7979 7.50094 13.8837 6.98511 14.0554L4.79678 14.7854M11.5718 3.05124L5.89094 8.73291C5.50594 9.11791 5.31344 9.30958 5.14844 9.52208C4.95298 9.77215 4.78559 10.0429 4.64928 10.3296C4.53344 10.5721 4.44761 10.8304 4.27511 11.3462L3.54594 13.5346M3.54594 13.5346L3.36844 14.0687C3.32684 14.1933 3.32075 14.327 3.35088 14.4548C3.38101 14.5826 3.44615 14.6995 3.53901 14.7923C3.63186 14.8852 3.74875 14.9503 3.87657 14.9805C4.00438 15.0106 4.13806 15.0045 4.26261 14.9629L4.79678 14.7854M3.54594 13.5346L4.79678 14.7854" stroke="#191919" stroke-width="1.5"/>
</svg>
