<svg width="26" height="26" viewBox="0 0 26 26" fill="none" xmlns="http://www.w3.org/2000/svg">
<rect x="0.5" y="0.5" width="25" height="25" rx="12.5" fill="#A8A8A8" fill-opacity="0.1"/>
<rect x="0.5" y="0.5" width="25" height="25" rx="12.5" stroke="url(#paint0_linear_9377_17891)"/>
<rect x="0.5" y="0.5" width="25" height="25" rx="12.5" stroke="url(#paint1_linear_9377_17891)"/>
<path d="M9.80127 6.69519C9.92625 6.82021 9.99646 6.98975 9.99646 7.16652C9.99646 7.3433 9.92625 7.51284 9.80127 7.63786L8.60594 8.83319H13.8299C14.8848 8.83319 15.9159 9.14599 16.793 9.73202C17.67 10.3181 18.3536 11.151 18.7573 12.1255C19.161 13.1001 19.2666 14.1724 19.0608 15.207C18.855 16.2416 18.3471 17.1919 17.6012 17.9378C16.8553 18.6836 15.905 19.1916 14.8704 19.3974C13.8359 19.6032 12.7635 19.4975 11.789 19.0939C10.8144 18.6902 9.98146 18.0066 9.39543 17.1296C8.8094 16.2525 8.4966 15.2214 8.4966 14.1665C8.4966 13.9897 8.56684 13.8201 8.69186 13.6951C8.81689 13.5701 8.98646 13.4999 9.16327 13.4999C9.34008 13.4999 9.50965 13.5701 9.63467 13.6951C9.7597 13.8201 9.82994 13.9897 9.82994 14.1665C9.82994 14.9576 10.0645 15.731 10.5041 16.3888C10.9436 17.0466 11.5683 17.5593 12.2992 17.862C13.0301 18.1648 13.8344 18.244 14.6103 18.0897C15.3862 17.9353 16.099 17.5544 16.6584 16.995C17.2178 16.4355 17.5987 15.7228 17.7531 14.9469C17.9074 14.171 17.8282 13.3667 17.5255 12.6358C17.2227 11.9049 16.71 11.2802 16.0522 10.8406C15.3944 10.4011 14.6211 10.1665 13.8299 10.1665H8.60594L9.80127 11.3619C9.92271 11.4876 9.9899 11.656 9.98838 11.8308C9.98687 12.0056 9.91675 12.1728 9.79315 12.2964C9.66954 12.42 9.50233 12.4901 9.32754 12.4916C9.15274 12.4932 8.98434 12.426 8.8586 12.3045L6.52527 9.97119C6.40029 9.84617 6.33008 9.67663 6.33008 9.49986C6.33008 9.32308 6.40029 9.15354 6.52527 9.02852L8.8586 6.69519C8.98362 6.57021 9.15316 6.5 9.32994 6.5C9.50671 6.5 9.67625 6.57021 9.80127 6.69519Z" fill="#A4A4A4"/>
<defs>
<linearGradient id="paint0_linear_9377_17891" x1="13" y1="0" x2="13" y2="26" gradientUnits="userSpaceOnUse">
<stop stop-color="white" stop-opacity="0.56"/>
<stop offset="0.0001" stop-color="white" stop-opacity="0.74"/>
<stop offset="1" stop-color="white" stop-opacity="0"/>
</linearGradient>
<linearGradient id="paint1_linear_9377_17891" x1="13" y1="0" x2="13" y2="26" gradientUnits="userSpaceOnUse">
<stop stop-color="#EBEBEB" stop-opacity="0.56"/>
<stop offset="0.0001" stop-color="#EBEBEB" stop-opacity="0.74"/>
<stop offset="1" stop-color="#EBEBEB" stop-opacity="0"/>
</linearGradient>
</defs>
</svg>
