<svg width="20" height="20" viewBox="0 0 20 20" fill="none" xmlns="http://www.w3.org/2000/svg">
<path d="M7.60476 12.0082L13.6096 6.00343M7.60476 12.4086V14.1916C7.60476 16.0923 7.60476 17.0419 8.17322 17.194C8.74167 17.3461 9.34055 16.5551 10.5383 14.9738L11.2076 14.0098M6.4102 6.14674L12.2717 3.37653C14.7072 2.22521 15.925 1.64955 16.7016 2.22681C17.4783 2.80407 17.2565 4.12032 16.8121 6.75203L16.0483 11.2853C15.7577 13.0058 15.6128 13.8657 14.9715 14.2412C14.3301 14.6167 13.4967 14.3285 11.8305 13.752L6.73446 11.989C3.61837 10.9114 2.06032 10.3725 2.00268 9.31488C1.94343 8.25803 3.43262 7.55347 6.4102 6.14674Z" stroke="white" stroke-width="1.5" stroke-linecap="round" stroke-linejoin="round"/>
</svg>
