<svg width="40" height="40" viewBox="0 0 40 40" fill="none" xmlns="http://www.w3.org/2000/svg">
<circle cx="20" cy="20" r="20" fill="white"/>
<path fill-rule="evenodd" clip-rule="evenodd" d="M13.0028 22.6673L17.3331 26.9968C18.1241 27.7887 18.5196 28.1842 19.0026 28.2402C19.1106 28.2536 19.2188 28.2536 19.3273 28.2402C19.8103 28.1842 20.2058 27.7887 20.9968 26.9977C21.7886 26.2058 22.1841 25.8103 22.2401 25.3273C22.2527 25.2198 22.2527 25.1111 22.2401 25.0036C22.1841 24.5197 21.7886 24.1242 20.9976 23.3323L20.0238 22.3602L17.3086 19.6442L16.6664 19.0028C15.8754 18.2109 15.4799 17.8154 14.9969 17.7594C14.889 17.7469 14.7801 17.7469 14.6723 17.7594C14.1893 17.8154 13.7938 18.2109 13.0028 19.0019C12.2109 19.7938 11.8154 20.1893 11.7594 20.6723C11.7469 20.7799 11.7469 20.8885 11.7594 20.9961C11.8154 21.4799 12.2118 21.8754 13.0028 22.6673ZM20.6433 16.3087L23.3593 19.0247L24.3323 19.9968C25.1233 20.7887 25.5188 21.1842 26.0018 21.2402C26.1103 21.2536 26.2185 21.2536 26.3264 21.2402C26.8094 21.1842 27.2049 20.7887 27.9959 19.9977C28.7878 19.2058 29.1833 18.8103 29.2393 18.3273C29.2518 18.2198 29.2518 18.1111 29.2393 18.0036C29.1833 17.5197 28.7878 17.1242 27.9968 16.3323L23.6655 12.0028C22.8745 11.2109 22.479 10.8154 21.996 10.7594C21.8882 10.7469 21.7792 10.7469 21.6714 10.7594C21.1884 10.8154 20.7929 11.2109 20.0019 12.0019C19.21 12.7938 18.8145 13.1893 18.7585 13.6723C18.746 13.7799 18.746 13.8885 18.7585 13.9961C18.8145 14.4799 19.21 14.8754 20.001 15.6673L20.6433 16.3087Z" fill="#6436FF"/>
<path opacity="0.5" d="M20.0265 22.3616L23.362 19.0261L20.646 16.3101L17.3105 19.6456L20.0265 22.3616Z" fill="#6436FF"/>
<path opacity="0.5" fill-rule="evenodd" clip-rule="evenodd" d="M25.304 10.7207C25.4271 10.5978 25.5939 10.5288 25.7678 10.5288C25.9417 10.5288 26.1085 10.5978 26.2315 10.7207L28.9484 13.4367C29.0679 13.5606 29.134 13.7264 29.1324 13.8984C29.1308 14.0705 29.0617 14.2351 28.94 14.3567C28.8183 14.4783 28.6536 14.5472 28.4816 14.5486C28.3095 14.5501 28.1438 14.4838 28.02 14.3642L25.304 11.6482C25.1812 11.5252 25.1121 11.3584 25.1121 11.1845C25.1121 11.0106 25.1812 10.8438 25.304 10.7207ZM11.7232 24.3007C11.8462 24.1778 12.013 24.1088 12.1869 24.1088C12.3608 24.1088 12.5276 24.1778 12.6507 24.3007L15.3667 27.0167C15.4826 27.1411 15.5457 27.3057 15.5427 27.4757C15.5397 27.6457 15.4708 27.8079 15.3506 27.9282C15.2304 28.0484 15.0681 28.1173 14.8981 28.1203C14.7281 28.1233 14.5636 28.0602 14.4392 27.9442L11.7232 25.2282C11.6003 25.1052 11.5312 24.9384 11.5312 24.7645C11.5312 24.5906 11.6003 24.4238 11.7232 24.3007Z" fill="#6436FF"/>
</svg>
