<svg width="40" height="40" viewBox="0 0 40 40" fill="none" xmlns="http://www.w3.org/2000/svg">
<circle cx="20" cy="20" r="20" fill="white"/>
<path opacity="0.5" d="M27.3703 17.2607C27.6745 16.9564 27.9159 16.5951 28.0806 16.1975C28.2452 15.7999 28.3299 15.3737 28.3299 14.9434C28.3299 14.513 28.2451 14.0869 28.0803 13.6893C27.9156 13.2917 27.6742 12.9304 27.3698 12.6261C27.0655 12.3219 26.7042 12.0805 26.3066 11.9158C25.909 11.7512 25.4828 11.6665 25.0525 11.6665C24.1833 11.6666 23.3498 12.0119 22.7353 12.6266L21.9961 13.3657L22.0278 13.4582C22.3922 14.5006 22.9885 15.4466 23.7719 16.2249C24.5733 17.0313 25.5521 17.6392 26.6303 17.9999L27.3703 17.2607Z" fill="#34C9C3"/>
<path d="M22.0324 13.3335L21.9999 13.3652L22.0315 13.4585C22.3959 14.5009 22.9923 15.4469 23.7757 16.2252C24.5771 17.0316 25.5559 17.6394 26.634 18.0002L19.5007 25.1335C19.019 25.6143 18.7782 25.8552 18.5132 26.0618C18.2003 26.3054 17.8619 26.5144 17.504 26.6852C17.2007 26.8302 16.8782 26.9377 16.2324 27.1527L12.8299 28.2868C12.6742 28.339 12.507 28.3467 12.3472 28.3091C12.1873 28.2715 12.0411 28.1901 11.925 28.0741C11.8088 27.958 11.7273 27.8119 11.6896 27.652C11.6519 27.4922 11.6595 27.3251 11.7115 27.1693L12.8465 23.766C13.0615 23.121 13.169 22.7985 13.3132 22.4952C13.4849 22.1363 13.6929 21.7996 13.9374 21.4852C14.144 21.2202 14.3849 20.9802 14.8657 20.4993L22.0324 13.3335Z" fill="#34C9C3"/>
</svg>
