<svg width="26" height="26" viewBox="0 0 26 26" fill="none" xmlns="http://www.w3.org/2000/svg">
<path opacity="0.5" d="M23.8327 12.9998C23.8327 18.9831 18.9826 23.8332 12.9993 23.8332C7.0161 23.8332 2.16602 18.9831 2.16602 12.9998C2.16602 7.01659 7.0161 2.1665 12.9993 2.1665C18.9826 2.1665 23.8327 7.01659 23.8327 12.9998Z" fill="#F2B819" fill-opacity="0.25"/>
<path d="M17.3653 9.7176C17.5174 9.86994 17.6029 10.0765 17.6029 10.2918C17.6029 10.5071 17.5174 10.7136 17.3653 10.8659L11.9486 16.2826C11.7963 16.4348 11.5897 16.5202 11.3744 16.5202C11.1591 16.5202 10.9526 16.4348 10.8003 16.2826L8.6336 14.1159C8.55377 14.0415 8.48975 13.9518 8.44534 13.8522C8.40093 13.7525 8.37705 13.6449 8.37513 13.5358C8.3732 13.4267 8.39327 13.3184 8.43413 13.2172C8.475 13.116 8.53582 13.0241 8.61298 12.947C8.69013 12.8698 8.78203 12.809 8.8832 12.7681C8.98437 12.7273 9.09274 12.7072 9.20183 12.7091C9.31093 12.711 9.41852 12.7349 9.51818 12.7793C9.61785 12.8237 9.70755 12.8878 9.78193 12.9676L11.3744 14.5601L13.7957 12.1388L16.2169 9.7176C16.3693 9.56544 16.5758 9.47998 16.7911 9.47998C17.0064 9.47998 17.2129 9.56544 17.3653 9.7176Z" fill="#F2B819"/>
</svg>
