<svg width="25" height="25" viewBox="0 0 25 25" fill="none" xmlns="http://www.w3.org/2000/svg">
<rect width="25" height="25" rx="12.5" fill="#915B41" fill-opacity="0.2"/>
<g clip-path="url(#clip0_9451_12418)">
<path d="M7.25098 12.7405C7.25098 10.8535 7.25098 9.90974 7.83745 9.32377C8.42392 8.73781 9.36717 8.7373 11.2542 8.7373H13.2558C15.1428 8.7373 16.0865 8.7373 16.6725 9.32377C17.2585 9.91024 17.259 10.8535 17.259 12.7405C17.259 14.6275 17.259 15.5713 16.6725 16.1572C16.086 16.7432 15.1428 16.7437 13.2558 16.7437H11.2542C9.36717 16.7437 8.42341 16.7437 7.83745 16.1572C7.25148 15.5708 7.25098 14.6275 7.25098 12.7405Z" stroke="#915B41" stroke-width="0.750601"/>
<path d="M9.25293 10.7388L10.3333 11.6395C11.2525 12.4051 11.7119 12.7879 12.2553 12.7879C12.7988 12.7879 13.2586 12.4051 14.1774 11.639L15.2577 10.7388" stroke="#915B41" stroke-width="0.750601" stroke-linecap="round"/>
</g>
<defs>
<clipPath id="clip0_9451_12418">
<rect width="12.0096" height="12.0096" fill="white" transform="translate(6.25 6.73584)"/>
</clipPath>
</defs>
</svg>
