<svg width="26" height="26" viewBox="0 0 26 26" fill="none" xmlns="http://www.w3.org/2000/svg">
<path opacity="0.5" d="M2.16602 13.0003C2.16602 7.89349 2.16602 5.34008 3.75202 3.75299C5.34018 2.16699 7.89252 2.16699 12.9993 2.16699C18.1062 2.16699 20.6596 2.16699 22.2456 3.75299C23.8327 5.34116 23.8327 7.89349 23.8327 13.0003C23.8327 18.1072 23.8327 20.6606 22.2456 22.2466C20.6607 23.8337 18.1062 23.8337 12.9993 23.8337C7.89252 23.8337 5.3391 23.8337 3.75202 22.2466C2.16602 20.6617 2.16602 18.1072 2.16602 13.0003Z" fill="#98654C" fill-opacity="0.25"/>
<path d="M19.0401 11.3537C19.1719 11.1875 19.2336 10.9764 19.2118 10.7654C19.1901 10.5544 19.0867 10.3602 18.9238 10.2245C18.7608 10.0887 18.5512 10.022 18.3398 10.0386C18.1283 10.0553 17.9318 10.154 17.7921 10.3137L15.8453 12.6493C15.4445 13.1314 15.1964 13.425 14.9938 13.6081C14.9408 13.6595 14.8815 13.7039 14.8173 13.7402L14.8053 13.7457L14.7967 13.7413L14.7934 13.7402C14.7288 13.704 14.6691 13.6595 14.6158 13.6081C14.4132 13.4239 14.1662 13.1314 13.7643 12.6493L13.4479 12.2702C13.0926 11.8422 12.7708 11.4577 12.4718 11.1868C12.1458 10.8922 11.7352 10.63 11.1935 10.63C10.6518 10.63 10.2423 10.8922 9.91517 11.1868C9.61617 11.4577 9.29551 11.8422 8.94017 12.2702L6.95767 14.647C6.88938 14.729 6.83792 14.8237 6.80622 14.9256C6.77451 15.0275 6.76319 15.1346 6.7729 15.2409C6.79251 15.4556 6.89657 15.6536 7.06221 15.7915C7.22785 15.9294 7.44149 15.9959 7.65614 15.9763C7.87078 15.9567 8.06884 15.8526 8.20676 15.687L10.1535 13.3513C10.5543 12.8692 10.8024 12.5757 11.005 12.3926C11.058 12.3412 11.1173 12.2968 11.1816 12.2604L11.1892 12.2572L11.1935 12.2561C11.1964 12.2561 11.2004 12.2575 11.2054 12.2604C11.2701 12.2967 11.3298 12.3411 11.3831 12.3926C11.5857 12.5767 11.8327 12.8692 12.2346 13.3513L12.5509 13.7305C12.9073 14.1584 13.228 14.543 13.527 14.8138C13.8531 15.1085 14.2637 15.3707 14.8053 15.3707C15.347 15.3707 15.7565 15.1085 16.0837 14.8138C16.3827 14.543 16.7033 14.1584 17.0587 13.7305L19.0401 11.3537Z" fill="#98654C"/>
</svg>
