<svg width="20" height="20" viewBox="0 0 20 20" fill="none" xmlns="http://www.w3.org/2000/svg">
<path d="M6.04102 5.83594C6.04102 5.67018 6.10686 5.51121 6.22407 5.394C6.34128 5.27679 6.50026 5.21094 6.66602 5.21094H13.3327C13.4984 5.21094 13.6574 5.27679 13.7746 5.394C13.8918 5.51121 13.9577 5.67018 13.9577 5.83594C13.9577 6.0017 13.8918 6.16067 13.7746 6.27788C13.6574 6.39509 13.4984 6.46094 13.3327 6.46094H6.66602C6.50026 6.46094 6.34128 6.39509 6.22407 6.27788C6.10686 6.16067 6.04102 6.0017 6.04102 5.83594ZM6.66602 8.1276C6.50026 8.1276 6.34128 8.19345 6.22407 8.31066C6.10686 8.42787 6.04102 8.58684 6.04102 8.7526C6.04102 8.91836 6.10686 9.07734 6.22407 9.19455C6.34128 9.31176 6.50026 9.3776 6.66602 9.3776H10.8327C10.9984 9.3776 11.1574 9.31176 11.2746 9.19455C11.3918 9.07734 11.4577 8.91836 11.4577 8.7526C11.4577 8.58684 11.3918 8.42787 11.2746 8.31066C11.1574 8.19345 10.9984 8.1276 10.8327 8.1276H6.66602Z" fill="#1FBDFF"/>
<path fill-rule="evenodd" clip-rule="evenodd" d="M8.28815 1.03906C7.14898 1.03906 6.22982 1.03906 5.50732 1.13656C4.75732 1.23656 4.12565 1.45323 3.62398 1.95406C3.12232 2.45573 2.90732 3.0874 2.80648 3.8374C2.70898 4.5599 2.70898 5.47906 2.70898 6.61823V13.3766C2.70898 14.5157 2.70898 15.4349 2.80648 16.1574C2.90648 16.9074 3.12315 17.5391 3.62398 18.0407C4.12565 18.5424 4.75732 18.7574 5.50732 18.8591C6.22982 18.9557 7.14898 18.9557 8.28815 18.9557H11.7132C12.8523 18.9557 13.7715 18.9557 14.494 18.8591C15.244 18.7574 15.8757 18.5424 16.3773 18.0407C16.879 17.5391 17.094 16.9074 17.1957 16.1574C17.2923 15.4349 17.2923 14.5157 17.2923 13.3766V6.61823C17.2923 5.47906 17.2923 4.5599 17.1957 3.8374C17.094 3.0874 16.879 2.45573 16.3773 1.95406C15.8757 1.4524 15.244 1.2374 14.494 1.13656C13.7715 1.03906 12.8523 1.03906 11.7132 1.03906H8.28815ZM4.50898 2.83823C4.73982 2.6074 5.06315 2.4574 5.67565 2.3749C6.30398 2.29073 7.13898 2.28906 8.33482 2.28906H11.6682C12.864 2.28906 13.6982 2.29073 14.3282 2.3749C14.9398 2.4574 15.2632 2.60823 15.494 2.83823C15.7248 3.06906 15.8748 3.3924 15.9573 4.0049C16.0415 4.63323 16.0431 5.46823 16.0431 6.66406V12.7057H6.48565C5.80398 12.7057 5.33898 12.7057 4.93982 12.8124C4.5891 12.9072 4.25731 13.0617 3.95898 13.2691V6.66406C3.95898 5.46823 3.96065 4.63323 4.04482 4.00406C4.12732 3.3924 4.27898 3.06906 4.50898 2.83823ZM3.98148 15.2049C3.99398 15.4999 4.01398 15.7591 4.04482 15.9907C4.12732 16.6024 4.27815 16.9257 4.50815 17.1566C4.73898 17.3874 5.06232 17.5374 5.67482 17.6199C6.30315 17.7041 7.13815 17.7057 8.33398 17.7057H11.6673C12.8632 17.7057 13.6973 17.7041 14.3273 17.6199C14.939 17.5374 15.2623 17.3866 15.4932 17.1566C15.724 16.9257 15.874 16.6024 15.9565 15.9899C16.0257 15.4774 16.039 14.8274 16.0415 13.9557H6.58232C5.76732 13.9557 5.48232 13.9607 5.26315 14.0199C4.96944 14.0987 4.69929 14.2477 4.47601 14.4542C4.25273 14.6606 4.08301 14.9182 3.98148 15.2049Z" fill="#1FBDFF"/>
</svg>
