<svg width="16" height="16" viewBox="0 0 16 16" fill="none" xmlns="http://www.w3.org/2000/svg">
<rect width="16" height="16" rx="8" fill="#1FBDFF"/>
<path fill-rule="evenodd" clip-rule="evenodd" d="M12.4493 5.14317C12.5743 5.26819 12.6445 5.43772 12.6445 5.6145C12.6445 5.79128 12.5743 5.96082 12.4493 6.08583L7.45241 11.0827C7.38637 11.1488 7.30797 11.2012 7.22169 11.2369C7.1354 11.2727 7.04292 11.2911 6.94952 11.2911C6.85612 11.2911 6.76364 11.2727 6.67735 11.2369C6.59106 11.2012 6.51266 11.1488 6.44663 11.0827L3.96396 8.6005C3.90029 8.539 3.8495 8.46544 3.81456 8.3841C3.77962 8.30277 3.76123 8.21529 3.76046 8.12677C3.75969 8.03825 3.77656 7.95046 3.81008 7.86853C3.8436 7.7866 3.8931 7.71217 3.9557 7.64957C4.01829 7.58698 4.09273 7.53747 4.17466 7.50395C4.25659 7.47043 4.34438 7.45356 4.4329 7.45433C4.52142 7.4551 4.6089 7.47349 4.69023 7.50843C4.77157 7.54337 4.84513 7.59416 4.90663 7.65783L6.9493 9.7005L11.5062 5.14317C11.5681 5.08122 11.6416 5.03207 11.7225 4.99854C11.8034 4.96501 11.8902 4.94775 11.9777 4.94775C12.0653 4.94775 12.1521 4.96501 12.233 4.99854C12.3139 5.03207 12.3874 5.08122 12.4493 5.14317Z" fill="white"/>
</svg>
