<svg width="20" height="20" viewBox="0 0 20 20" fill="none" xmlns="http://www.w3.org/2000/svg">
<path d="M15.8346 3.3335H4.16797C3.50493 3.3335 2.86904 3.59689 2.4002 4.06573C1.93136 4.53457 1.66797 5.17045 1.66797 5.8335V14.1668C1.66797 14.8299 1.93136 15.4658 2.4002 15.9346C2.86904 16.4034 3.50493 16.6668 4.16797 16.6668H15.8346C16.4977 16.6668 17.1336 16.4034 17.6024 15.9346C18.0712 15.4658 18.3346 14.8299 18.3346 14.1668V5.8335C18.3346 5.17045 18.0712 4.53457 17.6024 4.06573C17.1336 3.59689 16.4977 3.3335 15.8346 3.3335ZM15.2763 5.00016L10.0013 8.9585L4.7263 5.00016H15.2763ZM15.8346 15.0002H4.16797C3.94695 15.0002 3.73499 14.9124 3.57871 14.7561C3.42243 14.5998 3.33464 14.3878 3.33464 14.1668V6.04183L9.5013 10.6668C9.64555 10.775 9.82099 10.8335 10.0013 10.8335C10.1816 10.8335 10.3571 10.775 10.5013 10.6668L16.668 6.04183V14.1668C16.668 14.3878 16.5802 14.5998 16.4239 14.7561C16.2676 14.9124 16.0556 15.0002 15.8346 15.0002Z" fill="#B5B5B5"/>
</svg>
