<svg width="14" height="14" viewBox="0 0 14 14" fill="none" xmlns="http://www.w3.org/2000/svg">
<path d="M6.99969 12.9764C10.2634 12.9764 12.9762 10.2694 12.9762 6.99994C12.9762 3.73619 10.2574 1.02344 6.99369 1.02344C3.72444 1.02344 1.02344 3.73619 1.02344 6.99994C1.02344 10.2694 3.73019 12.9764 6.99969 12.9764ZM6.99994 11.9804C4.23394 11.9804 2.02469 9.76544 2.02469 6.99994C2.02469 4.23994 4.22794 2.01944 6.99369 2.01944C9.75344 2.01944 11.9739 4.24019 11.9799 6.99994C11.9857 9.76569 9.75919 11.9804 6.99944 11.9804M6.99369 8.06044C7.27469 8.06044 7.43294 7.90219 7.43869 7.59769L7.52669 4.50394C7.53269 4.20494 7.29819 3.98244 6.98769 3.98244C6.67119 3.98244 6.44869 4.19919 6.45444 4.49794L6.53069 7.59769C6.53644 7.89644 6.70069 8.06044 6.99369 8.06044ZM6.99369 9.96469C7.32744 9.96469 7.62619 9.69519 7.62619 9.35544C7.62619 9.00969 7.33344 8.74594 6.99369 8.74594C6.64794 8.74594 6.36069 9.01544 6.36069 9.35544C6.36069 9.68944 6.65369 9.96469 6.99369 9.96469Z" fill="#3A3A3A"/>
</svg>
