<svg width="40" height="40" viewBox="0 0 40 40" fill="none" xmlns="http://www.w3.org/2000/svg">
<circle cx="20" cy="20" r="20" fill="white"/>
<path fill-rule="evenodd" clip-rule="evenodd" d="M18.2461 24.5987C18.2906 24.474 18.3725 24.3661 18.4807 24.2897C18.5889 24.2133 18.718 24.1721 18.8504 24.1719H21.1518C21.2843 24.1721 21.4134 24.2133 21.5215 24.2897C21.6297 24.3661 21.7116 24.474 21.7561 24.5987L22.6394 27.0647H23.8583C24.114 27.0647 24.3593 27.1663 24.5401 27.3472C24.721 27.528 24.8225 27.7733 24.8225 28.029C24.8225 28.2848 24.721 28.53 24.5401 28.7109C24.3593 28.8917 24.114 28.9933 23.8583 28.9933H16.144C15.8882 28.9933 15.643 28.8917 15.4621 28.7109C15.2813 28.53 15.1797 28.2848 15.1797 28.029C15.1797 27.7733 15.2813 27.528 15.4621 27.3472C15.643 27.1663 15.8882 27.0647 16.144 27.0647H17.3628L18.2461 24.5987Z" fill="#FFCA1B"/>
<path fill-rule="evenodd" clip-rule="evenodd" d="M12.9501 12.1367C11.9164 12.1367 11.0781 12.975 11.0781 14.0087V23.4073C11.0781 24.441 11.9164 25.2793 12.9501 25.2793H27.0698C27.5813 25.2793 28.0719 25.0761 28.4335 24.7144C28.7952 24.3527 28.9984 23.8622 28.9984 23.3507V14.0653C28.9984 13.5538 28.7952 13.0633 28.4335 12.7016C28.0719 12.3399 27.5813 12.1367 27.0698 12.1367H12.9501Z" fill="#FFE387"/>
<path fill-rule="evenodd" clip-rule="evenodd" d="M17.1842 16.8231C17.1842 16.61 17.0995 16.4056 16.9488 16.2549C16.7981 16.1042 16.5937 16.0195 16.3806 16.0195C16.1675 16.0195 15.9631 16.1042 15.8124 16.2549C15.6617 16.4056 15.577 16.61 15.577 16.8231V17.9481H14.452C14.2389 17.9481 14.0345 18.0328 13.8838 18.1835C13.7331 18.3342 13.6484 18.5386 13.6484 18.7517C13.6484 18.9648 13.7331 19.1692 13.8838 19.3199C14.0345 19.4706 14.2389 19.5552 14.452 19.5552H15.577V20.6802C15.577 20.8934 15.6617 21.0978 15.8124 21.2485C15.9631 21.3992 16.1675 21.4838 16.3806 21.4838C16.5937 21.4838 16.7981 21.3992 16.9488 21.2485C17.0995 21.0978 17.1842 20.8934 17.1842 20.6802V19.5552H18.3092C18.5223 19.5552 18.7267 19.4706 18.8774 19.3199C19.0281 19.1692 19.1127 18.9648 19.1127 18.7517C19.1127 18.5386 19.0281 18.3342 18.8774 18.1835C18.7267 18.0328 18.5223 17.9481 18.3092 17.9481H17.1842V16.8231ZM23.9882 17.4981C23.9882 17.7965 24.1067 18.0826 24.3177 18.2936C24.5286 18.5046 24.8148 18.6231 25.1132 18.6231C25.4115 18.6231 25.6977 18.5046 25.9086 18.2936C26.1196 18.0826 26.2382 17.7965 26.2382 17.4981C26.2382 17.1997 26.1196 16.9136 25.9086 16.7026C25.6977 16.4916 25.4115 16.3731 25.1132 16.3731C24.8148 16.3731 24.5286 16.4916 24.3177 16.7026C24.1067 16.9136 23.9882 17.1997 23.9882 17.4981ZM21.4913 20.0052C21.4913 20.3036 21.6098 20.5898 21.8208 20.8007C22.0318 21.0117 22.3179 21.1302 22.6163 21.1302C22.9147 21.1302 23.2008 21.0117 23.4118 20.8007C23.6228 20.5898 23.7413 20.3036 23.7413 20.0052C23.7413 19.7069 23.6228 19.4207 23.4118 19.2098C23.2008 18.9988 22.9147 18.8802 22.6163 18.8802C22.3179 18.8802 22.0318 18.9988 21.8208 19.2098C21.6098 19.4207 21.4913 19.7069 21.4913 20.0052Z" fill="#FFCA1B"/>
</svg>
