<svg width="11" height="11" viewBox="0 0 11 11" fill="none" xmlns="http://www.w3.org/2000/svg">
<path d="M9.02092 9.41266C8.41683 10.0837 7.44425 10.0837 5.5 10.0837C3.55575 10.0837 2.58317 10.0837 1.97908 9.4122C1.375 8.74166 1.375 7.66091 1.375 5.50033C1.375 3.33974 1.375 2.25945 1.97908 1.58799C2.58317 0.916534 3.55575 0.916992 5.5 0.916992C7.44425 0.916992 8.41683 0.916992 9.02092 1.58799C9.625 2.25991 9.625 3.33974 9.625 5.50033C9.625 7.66091 9.625 8.74166 9.02092 9.41266Z" stroke="#A4A4A4" stroke-width="0.75"/>
<path d="M7.79102 3.66715C7.79102 3.45403 7.79102 3.3477 7.76764 3.26015C7.73639 3.14368 7.67504 3.03747 7.58977 2.9522C7.50449 2.86692 7.39828 2.80558 7.28181 2.77432C7.19335 2.75049 7.08702 2.75049 6.87435 2.75049H4.12435C3.91122 2.75049 3.80489 2.75049 3.71735 2.77386C3.60087 2.80512 3.49466 2.86646 3.40939 2.95174C3.32411 3.03701 3.26277 3.14322 3.23151 3.2597C3.20768 3.34815 3.20768 3.45449 3.20768 3.66715C3.20768 3.87982 3.20768 3.98661 3.23106 4.07415C3.26231 4.19063 3.32366 4.29684 3.40893 4.38211C3.49421 4.46739 3.60041 4.52873 3.71689 4.55999C3.80489 4.58382 3.91168 4.58382 4.12435 4.58382H6.87435C7.08747 4.58382 7.19381 4.58382 7.28135 4.56045C7.39783 4.52919 7.50403 4.46785 7.58931 4.38257C7.67458 4.2973 7.73593 4.19109 7.76718 4.07461C7.79102 3.98615 7.79102 3.87982 7.79102 3.66715Z" stroke="#A4A4A4" stroke-width="0.75"/>
<path d="M7.33268 6.41715C7.07955 6.41715 6.87435 6.21195 6.87435 5.95882C6.87435 5.70569 7.07955 5.50049 7.33268 5.50049C7.58581 5.50049 7.79102 5.70569 7.79102 5.95882C7.79102 6.21195 7.58581 6.41715 7.33268 6.41715Z" fill="#A4A4A4"/>
<path d="M7.33268 8.25065C7.07955 8.25065 6.87435 8.04545 6.87435 7.79232C6.87435 7.53919 7.07955 7.33398 7.33268 7.33398C7.58581 7.33398 7.79102 7.53919 7.79102 7.79232C7.79102 8.04545 7.58581 8.25065 7.33268 8.25065Z" fill="#A4A4A4"/>
<path d="M5.50065 6.41715C5.24752 6.41715 5.04232 6.21195 5.04232 5.95882C5.04232 5.70569 5.24752 5.50049 5.50065 5.50049C5.75378 5.50049 5.95898 5.70569 5.95898 5.95882C5.95898 6.21195 5.75378 6.41715 5.50065 6.41715Z" fill="#A4A4A4"/>
<path d="M5.50065 8.25065C5.24752 8.25065 5.04232 8.04545 5.04232 7.79232C5.04232 7.53919 5.24752 7.33398 5.50065 7.33398C5.75378 7.33398 5.95898 7.53919 5.95898 7.79232C5.95898 8.04545 5.75378 8.25065 5.50065 8.25065Z" fill="#A4A4A4"/>
<path d="M3.66667 6.41715C3.41354 6.41715 3.20833 6.21195 3.20833 5.95882C3.20833 5.70569 3.41354 5.50049 3.66667 5.50049C3.9198 5.50049 4.125 5.70569 4.125 5.95882C4.125 6.21195 3.9198 6.41715 3.66667 6.41715Z" fill="#A4A4A4"/>
<path d="M3.66667 8.25065C3.41354 8.25065 3.20833 8.04545 3.20833 7.79232C3.20833 7.53919 3.41354 7.33398 3.66667 7.33398C3.9198 7.33398 4.125 7.53919 4.125 7.79232C4.125 8.04545 3.9198 8.25065 3.66667 8.25065Z" fill="#A4A4A4"/>
</svg>
