<svg width="20" height="20" viewBox="0 0 20 20" fill="none" xmlns="http://www.w3.org/2000/svg">
<path fill-rule="evenodd" clip-rule="evenodd" d="M7.92833 2.50011C8.10814 2.50261 8.28232 2.5632 8.42485 2.67285C8.56739 2.78249 8.67063 2.93529 8.71917 3.10845L11.78 13.9918L13.3867 9.70761C13.4462 9.5488 13.5528 9.41193 13.6921 9.31529C13.8315 9.21865 13.9971 9.16684 14.1667 9.16678H16.6667C16.8877 9.16678 17.0996 9.25458 17.2559 9.41086C17.4122 9.56714 17.5 9.7791 17.5 10.0001C17.5 10.2211 17.4122 10.4331 17.2559 10.5894C17.0996 10.7456 16.8877 10.8334 16.6667 10.8334H14.7442L12.4467 16.9593C12.385 17.1238 12.273 17.2646 12.1265 17.3616C11.9801 17.4586 11.8068 17.5068 11.6313 17.4994C11.4558 17.492 11.2871 17.4294 11.1493 17.3204C11.0116 17.2114 10.9118 17.0617 10.8642 16.8926L7.875 6.26178L6.62833 10.2484C6.57542 10.4179 6.46977 10.5661 6.32676 10.6713C6.18376 10.7765 6.01088 10.8333 5.83333 10.8334H3.33333C3.11232 10.8334 2.90036 10.7456 2.74408 10.5894C2.5878 10.4331 2.5 10.2211 2.5 10.0001C2.5 9.7791 2.5878 9.56714 2.74408 9.41086C2.90036 9.25458 3.11232 9.16678 3.33333 9.16678H5.22083L7.12083 3.08511C7.17444 2.9133 7.28224 2.76346 7.4281 2.65801C7.57396 2.55256 7.75004 2.49716 7.93 2.50011H7.92833Z" fill="#32CD8B"/>
</svg>
