<svg width="14" height="14" viewBox="0 0 14 14" fill="none" xmlns="http://www.w3.org/2000/svg">
<path d="M7.6344 3.5H4.26403C3.26174 3.5 2.44922 4.41409 2.44922 5.54167V8.45833C2.44922 9.58591 3.26174 10.5 4.26403 10.5H7.6344C8.6367 10.5 9.44922 9.58591 9.44922 8.45833V5.54167C9.44922 4.41409 8.6367 3.5 7.6344 3.5Z" stroke="#B8B8B8" stroke-width="1.12" stroke-linecap="round" stroke-linejoin="round"/>
<path d="M9.47949 5.6826L11.5527 4.6501C11.6416 4.60578 11.7404 4.58492 11.8396 4.58948C11.9389 4.59405 12.0353 4.6239 12.1198 4.67619C12.2043 4.72849 12.2741 4.8015 12.3224 4.8883C12.3708 4.9751 12.3962 5.07282 12.3962 5.17218V8.82851C12.3962 8.92796 12.3708 9.02576 12.3224 9.11264C12.274 9.19952 12.2043 9.27258 12.1197 9.32489C12.0351 9.3772 11.9386 9.40702 11.8392 9.41152C11.7399 9.41602 11.641 9.39505 11.5521 9.3506L9.47949 8.31635V5.6826Z" stroke="#B8B8B8" stroke-width="1.12" stroke-linecap="round" stroke-linejoin="round"/>
</svg>
