<svg width="15" height="15" viewBox="0 0 15 15" fill="none" xmlns="http://www.w3.org/2000/svg">
<path fill-rule="evenodd" clip-rule="evenodd" d="M7.22555 9.4266L12.0866 14.4233C12.3446 14.6884 12.6944 14.8374 13.0592 14.8374C13.424 14.8374 13.7739 14.6884 14.0318 14.4233C14.2897 14.1582 14.4347 13.7986 14.4347 13.4236C14.4347 13.0486 14.2897 12.689 14.0318 12.4239L9.16888 7.42716L14.0309 2.43045C14.1585 2.29917 14.2598 2.14332 14.3289 1.97181C14.3979 1.8003 14.4335 1.61649 14.4334 1.43087C14.4334 1.24525 14.3978 1.06145 14.3286 0.889979C14.2595 0.718504 14.1581 0.562708 14.0304 0.431485C13.9027 0.300262 13.7511 0.196182 13.5842 0.125189C13.4174 0.0541949 13.2386 0.0176773 13.058 0.0177211C12.8774 0.0177648 12.6986 0.0543688 12.5318 0.125443C12.3649 0.196518 12.2134 0.300671 12.0857 0.431956L7.22555 5.42866L2.36447 0.431956C2.23769 0.296906 2.08601 0.18916 1.91829 0.115007C1.75057 0.040854 1.57016 0.0017779 1.38759 5.92706e-05C1.20502 -0.00165936 1.02395 0.0340136 0.854932 0.104997C0.685918 0.17598 0.532349 0.280852 0.403187 0.413493C0.274024 0.546135 0.171854 0.703889 0.102638 0.877552C0.033422 1.05121 -0.00145343 1.23731 4.63987e-05 1.42497C0.00154623 1.61264 0.0393912 1.79812 0.111373 1.97059C0.183356 2.14306 0.288033 2.29907 0.419299 2.42951L5.28222 7.42716L0.420216 12.4248C0.28895 12.5553 0.184273 12.7113 0.11229 12.8837C0.0403082 13.0562 0.00246283 13.2417 0.000962999 13.4293C-0.00053683 13.617 0.0343386 13.8031 0.103554 13.9768C0.17277 14.1504 0.27494 14.3082 0.404103 14.4408C0.533266 14.5735 0.686835 14.6783 0.855849 14.7493C1.02486 14.8203 1.20594 14.856 1.38851 14.8543C1.57108 14.8525 1.75149 14.8135 1.91921 14.7393C2.08693 14.6652 2.2386 14.5574 2.36538 14.4224L7.22555 9.4266Z" fill="#3A3A3A"/>
</svg>
